<svg width="156" height="156" viewBox="0 0 156 156" fill="none" xmlns="http://www.w3.org/2000/svg">
<path d="M145.92 134.062H78.3303C78.7834 135.477 79.6735 136.711 80.8726 137.587C82.0717 138.463 83.5179 138.936 85.0029 138.938H139.247C140.732 138.936 142.178 138.463 143.377 137.587C144.576 136.711 145.467 135.477 145.92 134.062Z" fill="black"/>
<path d="M70.6875 80.4375C72.0337 80.4375 73.125 79.3462 73.125 78C73.125 76.6538 72.0337 75.5625 70.6875 75.5625C69.3413 75.5625 68.25 76.6538 68.25 78C68.25 79.3462 69.3413 80.4375 70.6875 80.4375Z" fill="black"/>
<path d="M87.75 112.125C87.7552 116.649 89.5545 120.986 92.7532 124.184C95.9519 127.383 100.289 129.182 104.812 129.188H114.562C119.086 129.182 123.423 127.383 126.622 124.184C129.821 120.986 131.62 116.649 131.625 112.125V95.0625H87.75V112.125Z" fill="black"/>
<path d="M87.9937 126.189C84.684 122.25 82.8712 117.27 82.875 112.125V92.625C82.875 91.9785 83.1318 91.3585 83.5889 90.9014C84.046 90.4443 84.666 90.1875 85.3125 90.1875H120.412C121.19 86.9899 121.658 83.7248 121.809 80.4375H119.437C118.791 80.4375 118.171 80.1807 117.714 79.7236C117.257 79.2665 117 78.6465 117 78C117 77.3535 117.257 76.7335 117.714 76.2764C118.171 75.8193 118.791 75.5625 119.437 75.5625H121.816C121.258 63.6827 116.564 52.3716 108.548 43.5862L106.883 45.2522C106.425 45.7093 105.805 45.9661 105.159 45.9661C104.512 45.9661 103.892 45.7093 103.435 45.2522C102.978 44.7951 102.721 44.1751 102.721 43.5286C102.721 42.8821 102.978 42.2621 103.435 41.805L105.101 40.1392C96.3157 32.1236 85.0046 27.4311 73.125 26.8734V29.25C73.125 29.8965 72.8682 30.5165 72.4111 30.9736C71.954 31.4307 71.334 31.6875 70.6875 31.6875C70.041 31.6875 69.421 31.4307 68.9639 30.9736C68.5068 30.5165 68.25 29.8965 68.25 29.25V26.8734C56.3702 27.4315 45.0591 32.1246 36.2737 40.1408L37.9397 41.8065C38.3968 42.2636 38.6536 42.8836 38.6536 43.5301C38.6536 44.1766 38.3968 44.7966 37.9397 45.2537C37.4826 45.7108 36.8626 45.9677 36.2161 45.9677C35.5696 45.9677 34.9496 45.7108 34.4925 45.2537L32.8267 43.5877C24.8109 52.3727 20.1178 63.6832 19.5594 75.5625H21.9375C22.584 75.5625 23.204 75.8193 23.6611 76.2764C24.1182 76.7335 24.375 77.3535 24.375 78C24.375 78.6465 24.1182 79.2665 23.6611 79.7236C23.204 80.1807 22.584 80.4375 21.9375 80.4375H19.5594C20.1175 92.3173 24.8106 103.628 32.8267 112.414L34.4925 110.748C34.7188 110.521 34.9875 110.342 35.2833 110.219C35.579 110.097 35.896 110.034 36.2161 110.034C36.5362 110.034 36.8531 110.097 37.1489 110.219C37.4446 110.342 37.7133 110.521 37.9397 110.748C38.166 110.974 38.3456 111.243 38.4681 111.539C38.5906 111.834 38.6536 112.151 38.6536 112.471C38.6536 112.792 38.5906 113.108 38.4681 113.404C38.3456 113.7 38.166 113.969 37.9397 114.195L36.2737 115.861C45.0591 123.877 56.3702 128.57 68.25 129.128V126.75C68.25 126.104 68.5068 125.484 68.9639 125.026C69.421 124.569 70.041 124.312 70.6875 124.312C71.334 124.312 71.954 124.569 72.4111 125.026C72.8682 125.484 73.125 126.104 73.125 126.75V129.128C78.2006 128.899 83.2129 127.908 87.9937 126.189ZM103.852 76.9098C104.409 75.7938 104.812 74.9869 104.812 73.125C104.812 72.4785 105.069 71.8585 105.526 71.4014C105.984 70.9443 106.604 70.6875 107.25 70.6875C107.896 70.6875 108.516 70.9443 108.974 71.4014C109.431 71.8585 109.687 72.4785 109.687 73.125C109.729 75.2087 109.22 77.2663 108.211 79.0902C107.653 80.2062 107.25 81.0131 107.25 82.875C107.25 83.5215 106.993 84.1415 106.536 84.5986C106.079 85.0557 105.459 85.3125 104.812 85.3125C104.166 85.3125 103.546 85.0557 103.089 84.5986C102.632 84.1415 102.375 83.5215 102.375 82.875C102.334 80.7913 102.843 78.7337 103.851 76.9098H103.852ZM91.6649 76.9098C92.2216 75.7938 92.625 74.9869 92.625 73.125C92.625 72.4785 92.8818 71.8585 93.3389 71.4014C93.796 70.9443 94.416 70.6875 95.0625 70.6875C95.709 70.6875 96.3289 70.9443 96.7861 71.4014C97.2432 71.8585 97.5 72.4785 97.5 73.125C97.5414 75.2087 97.0322 77.2663 96.0238 79.0902C95.4659 80.2062 95.0625 81.0131 95.0625 82.875C95.0625 83.5215 94.8057 84.1415 94.3486 84.5986C93.8914 85.0557 93.2715 85.3125 92.625 85.3125C91.9785 85.3125 91.3585 85.0557 90.9014 84.5986C90.4443 84.1415 90.1875 83.5215 90.1875 82.875C90.146 80.7913 90.6553 78.7337 91.6637 76.9098H91.6649ZM70.6875 85.3125C69.5969 85.3137 68.5201 85.0695 67.5367 84.598L54.6344 97.5H55.6442C56.2906 97.5 56.9106 97.7568 57.3677 98.2139C57.8249 98.671 58.0817 99.291 58.0817 99.9375C58.0817 100.584 57.8249 101.204 57.3677 101.661C56.9106 102.118 56.2906 102.375 55.6442 102.375H48.75C48.1035 102.375 47.4835 102.118 47.0264 101.661C46.5693 101.204 46.3125 100.584 46.3125 99.9375V93.0433C46.3125 92.3969 46.5693 91.7769 47.0264 91.3198C47.4835 90.8626 48.1035 90.6058 48.75 90.6058C49.3965 90.6058 50.0165 90.8626 50.4736 91.3198C50.9307 91.7769 51.1875 92.3969 51.1875 93.0433V94.0531L64.0895 81.1508C63.6474 80.2257 63.4048 79.2179 63.3776 78.193C63.3504 77.1681 63.5391 76.1488 63.9314 75.2016C64.3238 74.2543 64.9111 73.4002 65.6551 72.6948C66.3991 71.9893 67.2832 71.4482 68.25 71.1068V44.8844L67.5361 45.5986C67.3098 45.825 67.0411 46.0045 66.7453 46.127C66.4496 46.2495 66.1326 46.3126 65.8125 46.3126C65.4924 46.3126 65.1754 46.2495 64.8797 46.127C64.5839 46.0045 64.3152 45.825 64.0889 45.5986C63.8625 45.3723 63.683 45.1036 63.5605 44.8078C63.438 44.5121 63.3749 44.1951 63.3749 43.875C63.3749 43.5549 63.438 43.2379 63.5605 42.9422C63.683 42.6464 63.8625 42.3777 64.0889 42.1514L68.9639 37.2764C69.1902 37.05 69.4589 36.8705 69.7547 36.748C70.0504 36.6255 70.3674 36.5624 70.6875 36.5624C71.0076 36.5624 71.3246 36.6255 71.6203 36.748C71.9161 36.8705 72.1848 37.05 72.4111 37.2764L77.2861 42.1514C77.7432 42.6085 78.0001 43.2285 78.0001 43.875C78.0001 44.5215 77.7432 45.1415 77.2861 45.5986C76.829 46.0558 76.209 46.3126 75.5625 46.3126C74.916 46.3126 74.296 46.0558 73.8389 45.5986L73.125 44.8844V71.1068C74.7506 71.6823 76.1205 72.8138 76.9927 74.3014C77.8649 75.789 78.1834 77.537 77.8917 79.2367C77.6001 80.9363 76.7172 82.4782 75.3989 83.5899C74.0807 84.7017 72.412 85.3118 70.6875 85.3125Z" fill="black"/>
<path d="M70.6875 138.938C72.2234 138.938 73.7615 138.877 75.2929 138.763C74.2884 137.341 73.6107 135.714 73.3084 133.999C72.4379 134.039 71.5647 134.062 70.6881 134.062C39.7745 134.062 14.625 108.913 14.625 78C14.625 47.087 39.7745 21.9375 70.6875 21.9375C101.6 21.9375 126.75 47.087 126.75 78C126.749 82.0991 126.301 86.1858 125.412 90.1875H130.401C131.215 86.176 131.625 82.0931 131.625 78C131.625 44.3991 104.288 17.0625 70.6875 17.0625C37.0866 17.0625 9.75 44.3991 9.75 78C9.75 111.601 37.0866 138.938 70.6875 138.938Z" fill="black"/>
<path d="M151.125 104.812V109.688C151.123 112.273 150.095 114.751 148.267 116.579C146.439 118.407 143.96 119.435 141.375 119.438H135.245C135.805 117.861 136.18 116.225 136.363 114.562H141.375C142.667 114.561 143.906 114.047 144.82 113.133C145.734 112.219 146.248 110.98 146.25 109.688V104.812C146.248 103.52 145.734 102.281 144.82 101.367C143.906 100.453 142.667 99.9392 141.375 99.9375H136.5V95.0625H141.375C143.96 95.0649 146.439 96.0929 148.267 97.9209C150.095 99.7488 151.123 102.227 151.125 104.812Z" fill="black"/>
</svg>
