<svg width="20" height="20" viewBox="0 0 20 20" fill="none" xmlns="http://www.w3.org/2000/svg">
<path d="M5.67568 4.37808C5.54885 4.37808 5.45349 4.3391 5.40129 4.30016C5.37857 4.28321 5.36873 4.27084 5.36487 4.26449V0.61359C5.36873 0.607244 5.37857 0.59487 5.40129 0.577919C5.45349 0.538985 5.54885 0.5 5.67568 0.5C5.80251 0.5 5.89787 0.538985 5.95007 0.577919C5.97279 0.59487 5.98263 0.607244 5.98649 0.61359V4.26449C5.98263 4.27084 5.97279 4.28321 5.95007 4.30016C5.89787 4.3391 5.80251 4.37808 5.67568 4.37808ZM5.36268 4.25968C5.3628 4.25965 5.3633 4.2606 5.36379 4.2626C5.36279 4.26071 5.36255 4.2597 5.36268 4.25968ZM5.36268 0.618406C5.36255 0.618379 5.36279 0.617377 5.36379 0.61548C5.3633 0.617484 5.3628 0.618433 5.36268 0.618406ZM5.98868 0.618406C5.98855 0.618433 5.98806 0.617484 5.98757 0.61548C5.98856 0.617377 5.98881 0.618379 5.98868 0.618406ZM5.98868 4.25968C5.98881 4.2597 5.98856 4.2607 5.98757 4.2626C5.98805 4.2606 5.98855 4.25965 5.98868 4.25968Z" stroke="black" stroke-opacity="0.4"/>
<path d="M14.8649 4.37808C14.7381 4.37808 14.6427 4.3391 14.5905 4.30016C14.5678 4.28321 14.5579 4.27084 14.5541 4.26449V0.61359C14.5579 0.607244 14.5678 0.59487 14.5905 0.577919C14.6427 0.538985 14.7381 0.5 14.8649 0.5C14.9917 0.5 15.0871 0.538985 15.1393 0.577919C15.162 0.59487 15.1718 0.607244 15.1757 0.61359V4.26449C15.1718 4.27084 15.162 4.28321 15.1393 4.30016C15.0871 4.3391 14.9917 4.37808 14.8649 4.37808ZM14.5519 4.25968C14.552 4.25965 14.5525 4.2606 14.553 4.2626C14.552 4.26071 14.5518 4.2597 14.5519 4.25968ZM14.5519 0.618406C14.5518 0.618379 14.552 0.617377 14.553 0.61548C14.5525 0.617484 14.552 0.618433 14.5519 0.618406ZM15.1779 0.618406C15.1778 0.618433 15.1773 0.617484 15.1768 0.61548C15.1778 0.617377 15.178 0.618379 15.1779 0.618406ZM15.1779 4.25968C15.178 4.2597 15.1778 4.2607 15.1768 4.2626C15.1773 4.2606 15.1778 4.25965 15.1779 4.25968Z" stroke="black" stroke-opacity="0.4"/>
<path d="M0.5 17.3506V9.28052H19.5V17.3506C19.5 18.486 18.4519 19.5001 17.0484 19.5001H2.95161C1.54807 19.5001 0.5 18.486 0.5 17.3506Z" stroke="black" stroke-opacity="0.4"/>
<path d="M19.5 4.54043V6.81715H0.5V4.54039C0.5 3.45908 1.51653 2.47075 2.91033 2.45158V4.39904C2.91033 5.73879 4.12893 6.71992 5.48615 6.71992C6.84338 6.71992 8.06198 5.73879 8.06198 4.39904V2.45129H11.9381V4.39908C11.9381 5.73883 13.1567 6.71996 14.5139 6.71996C15.8711 6.71996 17.0897 5.73883 17.0897 4.39908V2.45162C18.4835 2.47081 19.5 3.45913 19.5 4.54043Z" stroke="black" stroke-opacity="0.4"/>
</svg>
