<svg width="20" height="20" viewBox="0 0 20 20" fill="none" xmlns="http://www.w3.org/2000/svg">
<path d="M5.67568 4.87808C5.22786 4.87808 4.86487 4.60732 4.86487 4.27329V0.604794C4.86487 0.270759 5.22786 0 5.67568 0C6.1235 0 6.48649 0.270759 6.48649 0.604794V4.27329C6.48649 4.60732 6.1235 4.87808 5.67568 4.87808Z" fill="#FEBD15"/>
<path d="M14.8649 4.87808C14.4171 4.87808 14.0541 4.60732 14.0541 4.27329V0.604794C14.0541 0.270759 14.4171 0 14.8649 0C15.3127 0 15.6757 0.270759 15.6757 0.604794V4.27329C15.6757 4.60732 15.3127 4.87808 14.8649 4.87808Z" fill="#FEBD15"/>
<path d="M0 8.78052V17.3506C0 18.8116 1.32407 20.0001 2.95161 20.0001H17.0484C18.6759 20.0001 20 18.8116 20 17.3506V8.78052H0Z" fill="#FEBD15"/>
<path d="M20 7.31719V4.54043C20 3.11278 18.6759 1.95133 17.0484 1.95133H16.5897V4.39908C16.5897 5.40314 15.6585 6.21996 14.5139 6.21996C13.3692 6.21996 12.4381 5.40314 12.4381 4.39908V1.95129H7.56198V4.39904C7.56198 5.4031 6.6308 6.21992 5.48615 6.21992C4.34151 6.21992 3.41033 5.4031 3.41033 4.39904V1.95129H2.95161C1.32408 1.95129 0 3.11275 0 4.54039V7.31715H20V7.31719Z" fill="#FEBD15"/>
</svg>
