<svg width="20" height="20" viewBox="0 0 20 20" fill="none" xmlns="http://www.w3.org/2000/svg">
<path d="M19.5861 9.83614C20.1376 10.4203 20.1376 11.3666 19.5883 11.9507C19.3235 12.2334 18.9639 12.39 18.5889 12.39H18.1314H17.6314V12.89V19.2523C17.6314 19.6659 17.316 20 16.9255 20H11.5594V19.5M19.5861 9.83614L19.2226 10.1795L19.2225 10.1794M19.5861 9.83614L19.2225 10.1794M19.5861 9.83614L8.58849 19.5V15.2662V14.7662H9.08849H10.5594H11.0594V15.2662V19.5H11.5594M11.5594 19.5H16.9255C17.0132 19.5 17.1314 19.4172 17.1314 19.2523V12.39V11.89H17.6314H18.5889C18.8227 11.89 19.0511 11.7929 19.2233 11.6089L19.224 11.6082C19.5923 11.2166 19.5922 10.5709 19.2225 10.1794M11.5594 19.5V14.7662V14.2662H11.0594H8.58849H8.08849V14.7662V19.5H3.07535C2.98767 19.5 2.86939 19.4172 2.86939 19.2523V12.39V11.89H2.36939H1.41193C0.935964 11.89 0.5 11.4707 0.5 10.8946C0.5 10.6218 0.603364 10.3647 0.778305 10.1794L9.86525 0.562426L9.86571 0.561937C9.88612 0.540279 9.9088 0.524734 9.93163 0.514705C9.95437 0.504712 9.97766 0.5 10.0004 0.5C10.0232 0.5 10.0465 0.504712 10.0692 0.514705C10.092 0.524734 10.1147 0.540278 10.1351 0.56194L10.1356 0.562426L19.2225 10.1794" stroke="black" stroke-opacity="0.4"/>
</svg>
