<svg width="20" height="20" viewBox="0 0 20 20" fill="none" xmlns="http://www.w3.org/2000/svg">
<path d="M9.5 17.7778V18.9849L10.3536 18.1313L18.1313 10.3536L18.9849 9.5H17.7778H10H9.5V10V17.7778ZM2.22222 0.5H17.7778C18.2345 0.5 18.6726 0.681448 18.9956 1.00443C19.3186 1.32741 19.5 1.76546 19.5 2.22222V10.904L10.904 19.5H2.22222C1.76546 19.5 1.32741 19.3186 1.00443 18.9956C0.681448 18.6726 0.5 18.2345 0.5 17.7778V2.22222C0.5 1.76546 0.681448 1.32741 1.00443 1.00443C1.32741 0.681448 1.76546 0.5 2.22222 0.5Z" stroke="black" stroke-opacity="0.4"/>
</svg>
