<svg width="20" height="20" viewBox="0 0 20 20" fill="none" xmlns="http://www.w3.org/2000/svg">
<path d="M8.25 11.25V11.2502C8.25006 11.4485 8.30254 11.6432 8.40211 11.8147C8.50169 11.9862 8.64481 12.1283 8.817 12.2267L13.1919 14.7266L13.1919 14.7267L13.2023 14.7324C13.4607 14.872 13.7635 14.9051 14.046 14.8244C14.3285 14.7438 14.5682 14.5559 14.7139 14.3008C14.8597 14.0458 14.8999 13.7438 14.8259 13.4595C14.752 13.1752 14.5698 12.9311 14.3183 12.7794L14.3183 12.7793L14.3081 12.7734L10.5 10.5973V4.375C10.5 4.07663 10.3815 3.79048 10.1705 3.5795C9.95952 3.36853 9.67337 3.25 9.375 3.25C9.07663 3.25 8.79048 3.36853 8.5795 3.5795C8.36853 3.79048 8.25 4.07663 8.25 4.375V11.25ZM19.5 10C19.5 12.5196 18.4991 14.9359 16.7175 16.7175C14.9359 18.4991 12.5196 19.5 10 19.5C7.48044 19.5 5.06408 18.4991 3.28249 16.7175C1.50089 14.9359 0.5 12.5196 0.5 10C0.5 7.48044 1.50089 5.06408 3.28249 3.28249C5.06408 1.50089 7.48044 0.5 10 0.5C12.5196 0.5 14.9359 1.50089 16.7175 3.28249C18.4991 5.06408 19.5 7.48044 19.5 10Z" stroke="black" stroke-opacity="0.4"/>
</svg>
