<svg width="324" height="205" viewBox="0 0 324 205" fill="none" xmlns="http://www.w3.org/2000/svg">
<path d="M62.4259 12.5759H17.2891V78.0031H62.4259V12.5759Z" fill="#E0E0E0"/>
<path d="M60.1627 12.5759H15.0259V78.0031H60.1627V12.5759Z" fill="#F5F5F5"/>
<path d="M54.5587 19.6608H20.6348V70.9133H54.5587V19.6608Z" fill="white"/>
<path d="M54.5587 70.9182C54.5587 70.9182 54.5587 70.8296 54.5587 70.6673C54.5587 70.5049 54.5587 70.254 54.5587 69.9391C54.5587 69.2946 54.5587 68.3499 54.5587 67.1297C54.5587 64.6697 54.5587 61.0928 54.5242 56.5712C54.5242 47.5331 54.4947 34.731 54.4701 19.6707L54.5833 19.7838H20.6643L20.7873 19.6608C20.7873 38.9967 20.7873 56.8222 20.7873 70.9182L20.6889 70.8198L45.3827 70.869L52.202 70.8936H53.9929H54.6128H54.0125H52.2413H45.4418L20.6889 70.9428H20.5905V70.8444C20.5905 56.7484 20.5905 38.9229 20.5905 19.587V19.464H20.7184H54.6374H54.7506V19.6657C54.7506 34.7704 54.7063 47.5921 54.6964 56.65C54.6964 61.1617 54.6718 64.7287 54.662 67.1789C54.662 68.3942 54.662 69.329 54.662 69.9686C54.662 70.2786 54.662 70.5197 54.662 70.682C54.662 70.8444 54.5587 70.9182 54.5587 70.9182Z" fill="#E0E0E0"/>
<path d="M60.2957 12.5759C60.0623 12.9943 59.7923 13.3911 59.4888 13.7616C58.9672 14.4603 58.2194 15.4148 57.3731 16.448C56.5269 17.4812 55.7298 18.3914 55.1394 19.0409C54.8427 19.4078 54.5134 19.747 54.1554 20.0544C54.4102 19.6553 54.6982 19.2784 55.0164 18.9277L57.1911 16.2906L59.3559 13.6386C59.6385 13.2584 59.9529 12.9029 60.2957 12.5759Z" fill="#E0E0E0"/>
<path d="M54.731 70.7509C56.4155 73.4249 58.396 75.9006 60.6351 78.131L54.731 70.7509Z" fill="white"/>
<path d="M60.6496 78.1507C60.271 77.8772 59.9244 77.562 59.6164 77.211C58.8298 76.4112 58.0842 75.5721 57.3827 74.6968C56.5659 73.6685 55.8821 72.6894 55.4146 71.9662C55.1458 71.5846 54.9151 71.1776 54.7258 70.7509C55.0301 71.1022 55.3081 71.4755 55.5573 71.8678C56.0493 72.5664 56.7578 73.5209 57.5696 74.5394C58.3814 75.5578 59.1687 76.4533 59.7394 77.0929C60.0677 77.4233 60.3719 77.7768 60.6496 78.1507Z" fill="#E0E0E0"/>
<path d="M15.021 77.949L20.9251 70.6574L15.021 77.949Z" fill="white"/>
<path d="M20.9349 70.6574C20.0444 71.9468 19.0887 73.1899 18.0714 74.3819C17.1196 75.625 16.1013 76.8157 15.021 77.949C15.9115 76.6596 16.8673 75.4165 17.8845 74.2245C18.8364 72.9814 19.8547 71.7907 20.9349 70.6574Z" fill="#E0E0E0"/>
<path d="M15.0259 12.5759C16.0458 13.6706 17.005 14.8203 17.8992 16.02C18.8568 17.1653 19.7503 18.3627 20.5757 19.6067C19.5575 18.5118 18.6 17.3621 17.7073 16.1626C16.7484 15.0171 15.8533 13.8197 15.0259 12.5759Z" fill="#E0E0E0"/>
<path d="M43.9903 30.0668H32.6299V62.3179H43.9903V30.0668Z" fill="#E0E0E0"/>
<path d="M123.282 3.04079V31.6953H82.1308L80.6499 3.24251L123.282 3.04079Z" fill="#E0E0E0"/>
<path d="M80.645 3.24249V31.6313L121.797 31.6313V3.24249L80.645 3.24249Z" fill="white"/>
<path d="M121.993 31.8282H80.4532V3.04571H121.993V31.8282ZM80.8468 31.4395H121.605V3.42948H80.8468V31.4395Z" fill="#E0E0E0"/>
<path d="M117.344 6.77022H85.1074V28.1037H117.344V6.77022Z" fill="white"/>
<path d="M117.344 6.77021H116.724H114.953H108.311L85.1076 6.87353L85.201 6.78005C85.201 13.2992 85.201 20.5218 85.201 28.1135L85.1026 28.0151H117.339L117.255 28.0938C117.255 21.6042 117.29 16.2856 117.3 12.571C117.3 10.721 117.3 9.27453 117.3 8.28067C117.3 7.78867 117.3 7.41474 117.3 7.15398C117.3 6.89321 117.3 6.76037 117.3 6.76037C117.3 6.76037 117.3 6.88337 117.3 7.13429C117.3 7.38522 117.3 7.76407 117.3 8.24623C117.3 9.23025 117.3 10.6768 117.324 12.5218C117.324 16.2414 117.349 21.5846 117.364 28.0938V28.1775H117.285H85.0485H84.9452V28.0741C84.9452 20.4825 84.9452 13.2598 84.9452 6.74069V6.67673H85.0387L108.306 6.72101L114.928 6.75053H116.68H117.275L117.344 6.77021Z" fill="#E0E0E0"/>
<path d="M80.6499 3.16379C80.9043 3.28609 81.1423 3.43981 81.3584 3.62136C81.7766 3.9264 82.3424 4.35937 82.9722 4.85137C83.6019 5.34338 84.1333 5.83539 84.5171 6.16504C84.7366 6.34325 84.9348 6.54633 85.1075 6.77021C84.3236 6.22202 83.5682 5.63412 82.8443 5.00882C82.0744 4.44096 81.3415 3.8247 80.6499 3.16379Z" fill="#E0E0E0"/>
<path d="M121.801 3.2425C121.125 3.9083 120.401 4.52488 119.637 5.08753C118.913 5.70166 118.147 6.26394 117.344 6.77019C118.02 6.10439 118.744 5.48781 119.509 4.92516C120.231 4.30972 120.998 3.74736 121.801 3.2425Z" fill="#E0E0E0"/>
<path d="M121.767 31.6363L117.177 27.9167L121.767 31.6363Z" fill="white"/>
<path d="M117.177 27.9167C118.002 28.4579 118.791 29.0529 119.538 29.6978C120.324 30.2932 121.068 30.9409 121.767 31.6363C120.941 31.0982 120.153 30.5031 119.41 29.8552C118.621 29.2622 117.875 28.6144 117.177 27.9167Z" fill="#E0E0E0"/>
<path d="M80.6499 31.6314C81.3184 30.9737 82.0337 30.3653 82.7901 29.8109C83.5059 29.2022 84.2639 28.6448 85.0583 28.143C84.3919 28.8045 83.6764 29.4147 82.9181 29.9684C82.2031 30.5766 81.445 31.1324 80.6499 31.6314Z" fill="#E0E0E0"/>
<path d="M91.6512 13.4172V20.5612H111.937V13.4172H91.6512Z" fill="#E0E0E0"/>
<path d="M290.939 131.435C290.939 131.435 287.244 129.713 284.346 138.372C281.448 147.032 280.587 151.908 280.587 151.908C280.587 151.908 279.756 153.758 278.432 152.828C277.109 151.898 275.057 149.01 273.173 149.876C271.288 150.742 270.885 153.143 271.775 156.434C272.666 159.726 274.353 167.002 274.501 167.662C274.649 168.321 274.417 169.33 273.419 168.843C272.42 168.355 266.309 163.312 264.07 166.348C261.832 169.384 265.837 178.156 266.255 179.111C266.673 180.065 266.54 180.538 266.098 180.857C265.655 181.177 263.77 179.288 261.975 177.905C260.179 176.523 257.861 175.278 256.725 177.138C255.588 178.998 256.179 185.93 264.38 196.105L268.489 200.567L274.457 199.332C287.067 195.913 291.613 190.648 291.785 188.474C291.957 186.299 289.325 185.964 287.087 186.014C284.848 186.063 282.196 186.481 282.029 185.959C281.861 185.438 282.029 184.975 282.924 184.483C283.82 183.991 292.199 179.194 292.189 175.431C292.179 171.667 284.272 172.169 283.175 171.986C282.078 171.804 282.491 170.83 282.988 170.392C283.485 169.954 289.133 165.044 291.785 162.904C294.437 160.764 295.569 158.643 294.506 156.778C293.443 154.914 290.127 156.109 288.513 156.085C286.9 156.06 287.308 154.072 287.308 154.072C287.308 154.072 289.473 149.644 292.228 140.911C294.983 132.178 290.86 131.425 290.86 131.425" fill="#EBEBEB"/>
<path d="M267.711 201.802C269.748 195.406 273.556 184.114 276.779 174.397C280.002 164.68 282.909 155.888 284.981 149.512C286.009 146.323 286.841 143.745 287.441 141.954C287.731 141.069 287.933 140.375 288.11 139.898C288.185 139.671 288.244 139.494 288.287 139.366C288.326 139.243 288.351 139.184 288.351 139.184C288.351 139.184 288.351 139.248 288.302 139.371C288.253 139.494 288.213 139.676 288.144 139.908C287.997 140.4 287.785 141.083 287.51 141.974C286.959 143.77 286.147 146.358 285.123 149.551C283.087 155.947 280.203 164.744 276.981 174.456C273.758 184.169 269.925 195.465 267.854 201.841" fill="#E0E0E0"/>
<path d="M275.884 154.023C275.965 154.145 276.036 154.273 276.095 154.407C276.223 154.658 276.395 155.032 276.587 155.489C277.005 156.409 277.571 157.694 278.117 159.12C278.663 160.547 279.18 161.802 279.593 162.776C279.765 163.214 279.918 163.588 280.036 163.883C280.103 164.014 280.153 164.153 280.184 164.296C280.102 164.175 280.031 164.047 279.972 163.913C279.844 163.662 279.672 163.293 279.48 162.83C279.072 161.905 278.545 160.616 277.975 159.189C277.404 157.762 276.892 156.513 276.499 155.544L276.046 154.437C275.974 154.306 275.92 154.167 275.884 154.023Z" fill="#E0E0E0"/>
<path d="M280.759 164.316C280.735 164.267 283.333 163.037 286.56 161.561C289.788 160.085 292.415 158.933 292.464 158.983C292.513 159.032 289.886 160.262 286.658 161.733C283.431 163.204 280.759 164.37 280.759 164.316Z" fill="#E0E0E0"/>
<path d="M275.121 179.017C275.265 178.971 275.413 178.941 275.564 178.929L276.769 178.752C277.783 178.604 279.19 178.392 280.73 178.097C282.27 177.802 283.652 177.502 284.666 177.266L285.852 176.995C285.995 176.95 286.144 176.924 286.294 176.916C286.158 176.978 286.017 177.028 285.871 177.064C285.596 177.148 285.197 177.266 284.7 177.399C283.716 177.664 282.319 177.994 280.764 178.284C279.21 178.574 277.812 178.776 276.784 178.884C276.292 178.943 275.859 178.983 275.569 179.002C275.42 179.02 275.27 179.025 275.121 179.017Z" fill="#E0E0E0"/>
<path d="M268.676 170.668C268.782 170.757 268.878 170.857 268.961 170.968L269.684 171.834C270.289 172.567 271.111 173.59 272.011 174.727C272.912 175.863 273.724 176.897 274.299 177.654L274.973 178.555C275.062 178.662 275.139 178.777 275.204 178.899C275.097 178.812 275.001 178.711 274.919 178.599L274.196 177.738C273.591 177 272.769 175.982 271.864 174.845C270.958 173.708 270.156 172.67 269.581 171.918L268.907 171.017C268.816 170.91 268.739 170.793 268.676 170.668Z" fill="#E0E0E0"/>
<path d="M262.063 183.012C262.196 183.129 262.316 183.259 262.422 183.401C262.668 183.686 262.978 184.06 263.352 184.503C264.134 185.438 265.197 186.742 266.368 188.188C267.539 189.635 268.587 190.948 269.32 191.908L270.206 193.044C270.319 193.181 270.419 193.328 270.506 193.482C270.376 193.362 270.256 193.232 270.147 193.094L269.217 191.991C268.439 191.052 267.372 189.753 266.201 188.306C265.03 186.86 263.982 185.546 263.249 184.587C262.894 184.129 262.594 183.745 262.368 183.445C262.252 183.311 262.15 183.166 262.063 183.012Z" fill="#E0E0E0"/>
<path d="M270.427 193.172C270.607 193.117 270.792 193.076 270.978 193.049L272.498 192.774C273.783 192.538 275.554 192.203 277.497 191.79C279.441 191.376 281.192 190.943 282.457 190.624L283.957 190.25C284.139 190.195 284.325 190.156 284.513 190.132C284.341 190.21 284.161 190.273 283.977 190.319C283.628 190.427 283.121 190.579 282.501 190.752C281.241 191.106 279.495 191.554 277.546 191.972C275.598 192.39 273.822 192.71 272.533 192.912C271.888 193.015 271.362 193.089 271.003 193.133C270.813 193.164 270.62 193.178 270.427 193.172Z" fill="#E0E0E0"/>
<path d="M301.916 201.625C301.916 201.694 234.319 201.753 150.958 201.753C67.597 201.753 0 201.709 0 201.625C0 201.541 67.5822 201.497 150.978 201.497C234.373 201.497 301.916 201.556 301.916 201.625Z" fill="#263238"/>
<path d="M209.594 30.4035L204.912 34.4075L211.161 41.714L215.843 37.71L209.594 30.4035Z" fill="#263238"/>
<path d="M213.64 29.8355L204.006 38.1111L197.251 30.239C199.908 26.5095 203.076 23.6953 206.87 21.9634L213.64 29.8355Z" fill="#455A64"/>
<path d="M205.63 36.7236C205.576 36.7728 203.947 34.9819 201.989 32.7334C200.031 30.485 198.486 28.6252 198.545 28.576C198.604 28.5268 200.228 30.3177 202.186 32.5662C204.144 34.8146 205.684 36.6793 205.63 36.7236Z" fill="#263238"/>
<path d="M207.45 35.1492C207.061 34.7704 206.699 34.3643 206.368 33.9339C205.718 33.1713 204.838 32.1135 203.868 30.9327L201.408 27.9019L200.67 26.9819C200.493 26.7555 200.4 26.6522 200.4 26.6375C200.498 26.5489 202.136 28.4136 204.075 30.7703C205.059 31.9511 205.905 33.0286 206.535 33.8208C206.879 34.2358 207.185 34.6803 207.45 35.1492Z" fill="#263238"/>
<path d="M209.91 33.0483C209.515 32.6708 209.148 32.2646 208.813 31.8331C208.159 31.0606 207.273 29.9831 206.299 28.7875L203.839 25.7076L203.101 24.7678C203.005 24.6558 202.92 24.5356 202.845 24.4087C203.268 24.7579 203.647 25.1559 203.977 25.5944C204.641 26.357 205.536 27.4296 206.505 28.6252C207.475 29.8208 208.346 30.9179 208.966 31.7199C209.317 32.1354 209.633 32.5798 209.91 33.0483Z" fill="#263238"/>
<path d="M212.129 31.0803C212.075 31.1246 210.456 29.3189 208.513 27.0458C206.57 24.7728 205.044 22.8884 205.098 22.8392C205.153 22.79 206.766 24.6006 208.71 26.8785C210.653 29.1565 212.183 31.036 212.129 31.0803Z" fill="#263238"/>
<path d="M292.034 35.377L287.778 30.9236L280.828 37.5656L285.084 42.019L292.034 35.377Z" fill="#263238"/>
<path d="M292.238 39.7593L283.47 30.5834L290.964 23.4247C294.821 25.8847 297.803 28.9007 299.726 32.6006L292.238 39.7593Z" fill="#455A64"/>
<path d="M284.937 32.1233C284.887 32.0692 286.585 30.3472 288.73 28.2758C290.875 26.2045 292.666 24.5661 292.7 24.6153C292.735 24.6645 291.052 26.3865 288.907 28.4628C286.762 30.5391 284.986 32.1725 284.937 32.1233Z" fill="#263238"/>
<path d="M286.609 33.87C286.959 33.4568 287.341 33.0718 287.751 32.7187C288.474 32.0299 289.488 31.0901 290.614 30.0569L293.512 27.4345L294.393 26.6473C294.605 26.4603 294.708 26.3669 294.723 26.3619C294.816 26.4554 293.04 28.1922 290.787 30.2488C289.66 31.2771 288.627 32.2168 287.869 32.8515C287.476 33.2236 287.055 33.5641 286.609 33.87Z" fill="#263238"/>
<path d="M288.833 36.1972C289.187 35.7801 289.574 35.3919 289.989 35.036C290.722 34.3423 291.751 33.3977 292.897 32.3644L295.849 29.7371L296.75 28.9499C296.859 28.8521 296.974 28.7601 297.094 28.6744C296.769 29.1159 296.392 29.5172 295.972 29.87C295.244 30.5735 294.216 31.5231 293.074 32.5563C291.933 33.5895 290.88 34.5244 290.122 35.1738C289.719 35.5475 289.288 35.8897 288.833 36.1972Z" fill="#263238"/>
<path d="M290.914 38.3177C290.865 38.2636 292.587 36.5563 294.757 34.4948C296.927 32.4333 298.728 30.8097 298.777 30.8638C298.826 30.9179 297.104 32.6252 294.934 34.6818C292.764 36.7384 290.964 38.362 290.914 38.3177Z" fill="#263238"/>
<path d="M252.754 14.1159H245.463V25.496H252.754V14.1159Z" fill="#263238"/>
<path d="M256.651 17.5206H241.645V5.25481C246.904 3.9559 251.923 3.87718 256.666 5.25481L256.651 17.5206Z" fill="#FEBD15"/>
<path d="M256.843 5.30399C256.667 5.41397 256.481 5.50626 256.287 5.57952C255.773 5.80577 255.246 5.99968 254.708 6.16009C253.902 6.40836 253.08 6.60232 252.248 6.74066C251.237 6.90107 250.216 6.98658 249.192 6.9965C248.17 6.99802 247.148 6.92236 246.137 6.77018C245.305 6.64118 244.483 6.45543 243.677 6.21421C243.138 6.05659 242.609 5.86767 242.093 5.6484C241.897 5.58065 241.711 5.48981 241.537 5.37779C241.537 5.33351 242.363 5.673 243.726 6.03708C244.526 6.24847 245.338 6.41275 246.157 6.52909C247.158 6.66456 248.167 6.7336 249.178 6.73574C250.189 6.72424 251.198 6.64534 252.199 6.49957C253.014 6.38161 253.822 6.21734 254.619 6.00756C256.017 5.60904 256.823 5.25971 256.843 5.30399Z" fill="#263238"/>
<path d="M246.604 17.4861C246.535 17.4861 246.476 15.1294 246.476 12.2266C246.476 9.32371 246.535 6.967 246.604 6.967C246.673 6.967 246.732 9.31879 246.732 12.2266C246.732 15.1343 246.678 17.4861 246.604 17.4861Z" fill="#263238"/>
<path d="M249.463 17.555C249.394 17.555 249.335 15.1884 249.335 12.2708C249.335 9.35323 249.394 6.99159 249.463 6.99159C249.532 6.99159 249.591 9.35323 249.591 12.2708C249.591 15.1884 249.537 17.555 249.463 17.555Z" fill="#263238"/>
<path d="M252.321 17.5107C252.252 17.5107 252.193 15.1442 252.193 12.2266C252.193 9.30896 252.252 6.9424 252.321 6.9424C252.39 6.9424 252.449 9.30896 252.449 12.2266C252.449 15.1442 252.395 17.5107 252.321 17.5107Z" fill="#263238"/>
<path d="M254.683 17.5107C254.609 17.5107 254.555 14.9523 254.555 11.7985C254.555 8.64475 254.609 6.08631 254.683 6.08631C254.757 6.08631 254.811 8.64475 254.811 11.7985C254.811 14.9523 254.772 17.5107 254.683 17.5107Z" fill="#263238"/>
<path d="M243.903 17.4369C243.834 17.4369 243.775 14.8785 243.775 11.7247C243.775 8.57094 243.834 6.0125 243.903 6.0125C243.972 6.0125 244.031 8.57094 244.031 11.7247C244.031 14.8785 243.977 17.4369 243.903 17.4369Z" fill="#263238"/>
<path d="M285.742 112.543C306.46 91.8243 306.461 58.2328 285.742 37.5143C265.023 16.7957 231.432 16.7957 210.713 37.5143C189.995 58.2329 189.995 91.8243 210.713 112.543C231.432 133.261 265.023 133.261 285.742 112.543Z" fill="#FEBD15"/>
<path d="M248.228 119.164C272.836 119.164 292.784 99.216 292.784 74.6082C292.784 50.0005 272.836 30.052 248.228 30.052C223.62 30.052 203.672 50.0005 203.672 74.6082C203.672 99.216 223.62 119.164 248.228 119.164Z" fill="#FAFAFA"/>
<path d="M292.784 74.6082C292.784 74.6082 292.784 74.3672 292.75 73.8899C292.715 73.4127 292.75 72.6992 292.656 71.7693C292.481 69.0563 292.056 66.3651 291.387 63.7299C290.905 61.828 290.295 59.9607 289.562 58.1407C288.7 55.9709 287.663 53.8747 286.462 51.8726C283.524 46.9813 279.684 42.6922 275.146 39.2329C269.638 35.0428 263.227 32.1987 256.425 30.9278C250.659 29.8669 244.742 29.9354 239.003 31.1295C236.987 31.567 235.002 32.134 233.059 32.8269C224.793 35.8382 217.603 41.2291 212.395 48.3203C211.036 50.1669 209.825 52.1181 208.774 54.1555C208.228 55.1739 207.76 56.2317 207.298 57.2945C206.835 58.3572 206.422 59.4593 206.073 60.5811C205.318 62.826 204.752 65.13 204.38 67.4692C204.007 69.8342 203.811 72.2238 203.795 74.6181C203.812 77.0137 204.006 79.4048 204.375 81.7719C204.752 84.1099 205.318 86.4135 206.068 88.66C206.422 89.7768 206.865 90.8593 207.293 91.9417C207.721 93.0241 208.238 94.0671 208.769 95.0856C209.82 97.1242 211.033 99.0754 212.395 100.921C217.601 108.014 224.792 113.407 233.059 116.419C235.002 117.112 236.987 117.679 239.003 118.116C240.968 118.527 242.959 118.805 244.961 118.948C248.793 119.238 252.647 119.026 256.425 118.318C263.227 117.047 269.638 114.203 275.146 110.013C279.685 106.555 283.525 102.266 286.462 97.3734C287.662 95.3708 288.699 93.2746 289.562 91.1053C291.309 86.7552 292.354 82.1548 292.656 77.4766C292.74 76.5467 292.725 75.8333 292.75 75.3561C292.774 74.8788 292.784 74.6328 292.784 74.6328C292.784 74.6328 292.784 74.8788 292.784 75.3561C292.784 75.8333 292.784 76.5467 292.715 77.4766C292.446 82.168 291.421 86.785 289.68 91.1495C288.823 93.3294 287.789 95.4356 286.59 97.4472C283.658 102.363 279.818 106.676 275.274 110.156C269.747 114.371 263.31 117.236 256.479 118.52C252.684 119.237 248.812 119.455 244.961 119.169C242.949 119.027 240.948 118.749 238.973 118.338C236.946 117.902 234.949 117.333 232.995 116.636C224.68 113.613 217.446 108.194 212.208 101.063C210.841 99.2082 209.623 97.2471 208.567 95.1988C208.016 94.1754 207.544 93.1028 207.062 92.0352C206.58 90.9675 206.186 89.8605 205.832 88.7338C205.077 86.4781 204.508 84.1645 204.129 81.8162C203.349 77.0525 203.349 72.1935 204.129 67.4298C204.51 65.0915 205.079 62.7879 205.832 60.5417C206.191 59.415 206.634 58.3277 207.067 57.2404C207.5 56.153 208.016 55.105 208.567 54.0817C209.627 52.0343 210.846 50.0733 212.213 48.2169C217.449 41.0872 224.681 35.6699 232.995 32.6498C234.947 31.953 236.942 31.3843 238.968 30.9475C240.945 30.5368 242.947 30.259 244.961 30.116C248.811 29.83 252.681 30.0484 256.474 30.7654C263.307 32.044 269.745 34.9089 275.269 39.1296C279.813 42.6114 283.653 46.9259 286.585 51.843C288.789 55.5548 290.446 59.5649 291.505 63.7496C292.161 66.394 292.572 69.0936 292.73 71.8136C292.804 72.7435 292.779 73.4569 292.799 73.9342C292.819 74.4114 292.784 74.6082 292.784 74.6082Z" fill="#263238"/>
<path d="M286.245 72.9945C284.833 73.0535 283.682 72.9945 283.677 72.8714C283.672 72.7484 284.809 72.5812 286.221 72.5024C287.633 72.4237 288.784 72.4729 288.794 72.6205C288.804 72.7681 287.647 72.9354 286.245 72.9945Z" fill="#263238"/>
<path d="M285.296 83.2528C283.918 82.9281 282.836 82.5689 282.836 82.4459C282.836 82.3229 284.007 82.4705 285.389 82.7706C286.772 83.0708 287.849 83.4349 287.849 83.5775C287.849 83.7202 286.664 83.5726 285.296 83.2528Z" fill="#263238"/>
<path d="M281.62 92.8715C280.376 92.1926 279.421 91.548 279.48 91.4398C279.539 91.3316 280.602 91.7793 281.852 92.4238C283.101 93.0683 284.061 93.7326 283.992 93.8605C283.923 93.9884 282.86 93.5554 281.62 92.8715Z" fill="#263238"/>
<path d="M275.495 101.157C274.481 100.173 273.729 99.2972 273.817 99.189C273.906 99.0807 274.801 99.8138 275.834 100.788C276.868 101.762 277.611 102.633 277.512 102.756C277.414 102.879 276.503 102.146 275.495 101.157Z" fill="#263238"/>
<path d="M267.377 107.504C266.668 106.279 266.176 105.236 266.285 105.172C266.393 105.108 267.072 106.043 267.8 107.253C268.528 108.463 269.02 109.506 268.897 109.585C268.774 109.664 268.09 108.719 267.377 107.504Z" fill="#263238"/>
<path d="M257.856 111.435C257.502 110.062 257.31 108.926 257.433 108.896C257.556 108.867 257.955 109.944 258.333 111.307C258.712 112.67 258.899 113.807 258.757 113.846C258.614 113.885 258.211 112.803 257.856 111.435Z" fill="#263238"/>
<path d="M247.628 112.655C247.628 111.238 247.77 110.092 247.893 110.092C248.016 110.092 248.12 111.243 248.12 112.655C248.12 114.067 247.997 115.219 247.854 115.219C247.711 115.219 247.603 114.077 247.628 112.655Z" fill="#263238"/>
<path d="M237.463 111.115C237.866 109.757 238.289 108.69 238.412 108.724C238.535 108.759 238.319 109.89 237.92 111.253C237.522 112.616 237.113 113.713 236.971 113.644C236.828 113.575 237.035 112.473 237.463 111.115Z" fill="#263238"/>
<path d="M228.051 106.879C228.803 105.683 229.497 104.763 229.605 104.827C229.714 104.891 229.202 105.929 228.469 107.14C227.736 108.35 227.037 109.265 226.914 109.191C226.791 109.118 227.298 108.08 228.051 106.879Z" fill="#263238"/>
<path d="M220.134 100.286C221.182 99.3316 222.102 98.633 222.181 98.7265C222.26 98.8199 221.502 99.676 220.469 100.645C219.436 101.615 218.525 102.313 218.422 102.21C218.319 102.107 219.091 101.241 220.134 100.286Z" fill="#263238"/>
<path d="M214.269 91.8137C215.534 91.179 216.607 90.751 216.661 90.8592C216.715 90.9675 215.75 91.5923 214.496 92.2516C213.241 92.9109 212.174 93.3389 212.105 93.2061C212.036 93.0733 213.01 92.4533 214.269 91.8137Z" fill="#263238"/>
<path d="M210.894 82.0819C212.287 81.8063 213.433 81.6833 213.458 81.8063C213.482 81.9293 212.38 82.2688 210.998 82.564C209.615 82.8592 208.464 82.9822 208.434 82.8395C208.405 82.6969 209.517 82.3574 210.894 82.0819Z" fill="#263238"/>
<path d="M210.269 71.8185C211.681 71.9219 212.818 72.1088 212.813 72.2318C212.808 72.3548 211.652 72.3893 210.24 72.3056C208.828 72.222 207.686 72.0399 207.696 71.8923C207.706 71.7447 208.857 71.6906 210.269 71.8185Z" fill="#263238"/>
<path d="M212.41 61.7176C213.743 62.2096 214.786 62.7016 214.747 62.805C214.707 62.9083 213.586 62.6426 212.247 62.1801C210.909 61.7176 209.866 61.2355 209.91 61.0977C209.955 60.9599 211.081 61.2355 212.41 61.7176Z" fill="#263238"/>
<path d="M217.187 52.5909C218.338 53.4125 219.214 54.1604 219.155 54.2637C219.096 54.367 218.083 53.7963 216.916 52.9943C215.75 52.1923 214.875 51.4445 214.948 51.3215C215.022 51.1985 216.031 51.7692 217.187 52.5909Z" fill="#263238"/>
<path d="M224.228 45.073C225.118 46.1702 225.763 47.1247 225.669 47.2083C225.576 47.2919 224.754 46.4703 223.849 45.383C222.944 44.2956 222.294 43.346 222.407 43.2526C222.52 43.1591 223.337 43.9758 224.228 45.073Z" fill="#263238"/>
<path d="M233.035 39.7101C233.595 41.009 233.964 42.1013 233.846 42.1702C233.728 42.239 233.167 41.2157 232.587 39.9266C232.006 38.6375 231.637 37.5453 231.77 37.4666C231.903 37.3878 232.459 38.4161 233.035 39.7101Z" fill="#263238"/>
<path d="M242.944 36.9204C243.136 38.3227 243.195 39.474 243.067 39.4937C242.939 39.5133 242.668 38.3916 242.457 36.9943C242.245 35.5969 242.186 34.4407 242.329 34.421C242.471 34.4014 242.752 35.5182 242.944 36.9204Z" fill="#263238"/>
<path d="M253.246 36.886C253.059 38.2882 252.808 39.4149 252.685 39.4001C252.562 39.3854 252.592 38.2292 252.759 36.8269C252.927 35.4247 253.177 34.2931 253.32 34.3128C253.463 34.3325 253.433 35.4788 253.246 36.886Z" fill="#263238"/>
<path d="M263.18 39.6068C262.624 40.9106 262.078 41.9241 261.96 41.8749C261.842 41.8257 262.191 40.7286 262.727 39.4149C263.264 38.1012 263.815 37.0926 263.947 37.1517C264.08 37.2107 263.741 38.3079 263.18 39.6068Z" fill="#263238"/>
<path d="M272.016 44.9057C271.131 46.0127 270.334 46.8442 270.235 46.7655C270.137 46.6868 270.762 45.7175 271.633 44.6007C272.503 43.4838 273.296 42.6326 273.414 42.7458C273.532 42.859 272.887 43.8036 272.016 44.9057Z" fill="#263238"/>
<path d="M279.116 52.3744C277.965 53.201 276.976 53.7914 276.902 53.688C276.828 53.5847 277.689 52.8221 278.826 51.9759C279.962 51.1296 280.951 50.5441 281.04 50.6622C281.128 50.7803 280.267 51.5478 279.116 52.3744Z" fill="#263238"/>
<path d="M283.952 61.4864C282.624 61.9784 281.492 62.2687 281.463 62.1555C281.433 62.0423 282.447 61.5307 283.78 61.0239C285.114 60.5171 286.211 60.217 286.265 60.3548C286.319 60.4925 285.281 60.9944 283.952 61.4864Z" fill="#263238"/>
<path d="M286.172 71.5332C284.759 71.6463 283.608 71.6365 283.598 71.5332C283.588 71.4298 284.72 71.2035 286.127 71.0412C287.534 70.8788 288.691 70.9182 288.7 71.0658C288.71 71.2134 287.569 71.42 286.172 71.5332Z" fill="#263238"/>
<path d="M230.924 26.4062L230.771 26.4751L230.319 26.6572C229.925 26.8244 229.335 27.0262 228.582 27.3558C226.461 28.2425 224.401 29.2698 222.417 30.4309C221.157 31.159 219.824 32.0299 218.422 33.009C217.02 33.9881 215.588 35.1295 214.156 36.4137C207.87 41.9543 203.069 48.9782 200.188 56.8468C199.514 58.6475 199.007 60.4089 198.569 62.0571C198.132 63.7054 197.836 65.2798 197.615 66.7164C197.256 68.9864 197.047 71.2776 196.99 73.575C196.951 74.3918 196.99 75.0215 196.99 75.4496C196.99 75.6562 196.99 75.8137 196.99 75.9416C196.994 75.9973 196.994 76.0532 196.99 76.1089C196.984 76.0549 196.984 76.0004 196.99 75.9465C196.99 75.8235 196.99 75.6611 196.99 75.4545C196.99 75.0264 196.936 74.3967 196.961 73.5799C196.978 71.2738 197.161 68.9719 197.507 66.6918C197.713 65.2453 198.033 63.6758 198.432 62.0079C198.876 60.235 199.412 58.4861 200.036 56.768C202.902 48.8468 207.732 41.7825 214.073 36.2366C215.514 34.9524 216.98 33.8454 218.368 32.8368C219.755 31.8282 221.123 30.9917 222.397 30.2734C224.395 29.1243 226.472 28.1181 228.611 27.2623C229.364 26.9474 229.969 26.7703 230.373 26.608L230.835 26.4505C230.864 26.4336 230.893 26.4188 230.924 26.4062Z" fill="white"/>
<path d="M245.733 23.5329C245.227 23.638 244.714 23.7054 244.198 23.7346C243.244 23.833 241.935 23.9757 240.489 24.1627C239.042 24.3496 237.738 24.5464 236.794 24.694C236.288 24.7981 235.774 24.8639 235.259 24.8908C235.748 24.7203 236.252 24.5951 236.764 24.5169C237.704 24.325 239.008 24.0987 240.454 23.9117C241.901 23.7248 243.224 23.6067 244.184 23.5526C244.698 23.4976 245.217 23.491 245.733 23.5329Z" fill="white"/>
<g opacity="0.4">
<path opacity="0.4" d="M212.616 101.393C212.616 101.393 235.706 137.831 271.524 119.169C308.917 99.6859 288.253 55.0263 288.253 55.0263C288.253 55.0263 305.847 90.6182 269.399 113.821C260.321 119.602 250.437 119.607 242.899 118.85C223.637 116.921 212.616 101.393 212.616 101.393Z" fill="black"/>
</g>
<path d="M260.646 50.9279C260.868 57.4627 260.671 64.0051 260.056 70.5147C259.829 72.8714 259.564 75.2527 258.654 77.4422C257.743 79.6316 256.193 81.639 254.009 82.564C251.824 83.489 249.03 83.1052 247.51 81.2946L260.646 50.9279Z" fill="#E0E0E0"/>
<path d="M247.259 71.0953L263.451 43.8282L253.679 74.6131L248.686 76.1039L247.259 71.0953Z" fill="#FEBD15"/>
<g opacity="0.4">
<path opacity="0.4" d="M263.451 43.8282L251.441 71.6906L253.679 74.6131L263.451 43.8282Z" fill="black"/>
</g>
<path d="M248.685 81.3143C251.563 81.3143 253.896 78.9815 253.896 76.1039C253.896 73.2263 251.563 70.8936 248.685 70.8936C245.808 70.8936 243.475 73.2263 243.475 76.1039C243.475 78.9815 245.808 81.3143 248.685 81.3143Z" fill="#FAFAFA"/>
<path d="M253.896 76.1039C253.849 75.6804 253.778 75.2599 253.684 74.8444C253.383 73.7222 252.714 72.7333 251.785 72.035C251.103 71.5216 250.303 71.1873 249.458 71.0627C248.613 70.9381 247.75 71.0271 246.949 71.3216C246.487 71.4849 246.054 71.719 245.665 72.0153C245.25 72.3162 244.886 72.6816 244.587 73.0978C243.947 73.9696 243.603 75.0227 243.603 76.1039C243.603 77.1852 243.947 78.2383 244.587 79.1101C245.184 79.9207 246.005 80.5396 246.949 80.8912C247.622 81.1381 248.339 81.2415 249.055 81.1949C249.771 81.1483 250.469 80.9527 251.104 80.6205C251.74 80.2884 252.299 79.8271 252.746 79.2662C253.193 78.7053 253.517 78.0572 253.699 77.3635C253.794 76.9481 253.865 76.5276 253.911 76.1039C253.941 76.5353 253.903 76.9687 253.797 77.3881C253.529 78.5612 252.861 79.6046 251.908 80.3401C251.255 80.8472 250.491 81.1927 249.679 81.3487C248.745 81.5273 247.78 81.4525 246.885 81.1322C246.398 80.9643 245.942 80.7202 245.532 80.409C245.097 80.0945 244.715 79.7125 244.4 79.2774C243.723 78.3654 243.357 77.2596 243.357 76.1236C243.357 74.9876 243.723 73.8818 244.4 72.9698C244.716 72.5359 245.098 72.1541 245.532 71.8382C245.944 71.5314 246.4 71.2892 246.885 71.1199C247.78 70.7972 248.745 70.7224 249.679 70.9034C250.671 71.0941 251.588 71.5669 252.318 72.265C253.048 72.9631 253.562 73.8569 253.797 74.8395C253.896 75.2533 253.929 75.6799 253.896 76.1039Z" fill="#263238"/>
<path d="M252.502 76.8851C252.927 74.7863 251.569 72.7409 249.471 72.3166C247.372 71.8923 245.327 73.2497 244.902 75.3484C244.478 77.4472 245.835 79.4926 247.934 79.9169C250.033 80.3412 252.078 78.9838 252.502 76.8851Z" fill="#455A64"/>
<path d="M207.608 201.163H233.241L221.29 98.1656L207.608 201.163Z" fill="#E0E0E0"/>
<path d="M81.4766 98.1656L64.7877 202.378L207.199 204.233L221.291 98.1656H81.4766Z" fill="#FAFAFA"/>
<path d="M214.948 145.905H73.8308L76.9009 126.717H217.497L214.948 145.905Z" fill="#EBEBEB"/>
<path d="M214.958 145.92H73.816L76.8911 126.732H217.512L214.958 145.92ZM73.8456 145.895H214.939L217.482 126.707H76.9157L73.8456 145.895Z" fill="#263238"/>
<path d="M81.4766 98.1656L76.9009 126.717H217.497L221.29 98.1656H81.4766Z" fill="#FEBD15"/>
<path d="M81.4963 98.1656L221.31 98.0475H221.443V98.1803C217.325 129.231 212.651 164.444 207.711 201.635V201.748H205.999L64.9058 201.709H64.7681V201.586L81.4963 98.1656C81.3586 99.0217 75.0018 138.978 65.0288 201.635L64.9255 201.512H205.964H207.563L207.44 201.62C212.385 164.429 217.069 129.221 221.217 98.1705L221.33 98.2984L81.4963 98.1656Z" fill="#263238"/>
<path d="M217.497 126.717C217.497 126.786 186.009 126.845 147.204 126.845C108.399 126.845 76.9009 126.786 76.9009 126.717C76.9009 126.648 108.389 126.589 147.204 126.589C186.018 126.589 217.497 126.643 217.497 126.717Z" fill="#263238"/>
<path d="M214.948 145.905C214.948 145.979 183.293 146.033 144.257 146.033C105.221 146.033 73.5601 145.979 73.5601 145.905C73.5601 145.831 105.206 145.777 144.257 145.777C183.307 145.777 214.948 145.836 214.948 145.905Z" fill="#263238"/>
<path d="M212.075 163.563C212.075 163.637 180.424 163.691 141.388 163.691C102.352 163.691 70.672 163.637 70.672 163.563C70.672 163.489 102.318 163.435 141.369 163.435C180.419 163.435 212.075 163.494 212.075 163.563Z" fill="#263238"/>
<path d="M209.207 181.221C209.207 181.29 177.551 181.349 138.515 181.349C99.4792 181.349 67.8185 181.29 67.8185 181.221C67.8185 181.153 99.4644 181.093 138.515 181.093C177.566 181.093 209.207 181.153 209.207 181.221Z" fill="#263238"/>
<path d="M84.778 201.778C84.7091 201.778 87.2921 184.951 90.5541 164.227C93.8161 143.504 96.5074 126.702 96.5763 126.717C96.6452 126.732 94.0621 143.534 90.8051 164.267C87.548 185 84.8518 201.787 84.778 201.778Z" fill="#263238"/>
<path d="M106.54 201.778C106.466 201.778 109.054 184.951 112.311 164.227C115.568 143.504 118.264 126.702 118.338 126.717C118.412 126.732 115.824 143.534 112.562 164.267C109.3 185 106.589 201.787 106.54 201.778Z" fill="#263238"/>
<path d="M126.761 201.025C126.692 201.025 129.25 184.37 132.473 163.854C135.696 143.337 138.377 126.702 138.441 126.717C138.505 126.732 135.952 143.366 132.729 163.893C129.506 184.419 126.825 201.035 126.761 201.025Z" fill="#263238"/>
<path d="M146.761 201.62C146.692 201.62 149.27 184.828 152.523 164.149C155.775 143.47 158.466 126.702 158.535 126.717C158.604 126.732 156.026 143.499 152.773 164.188C149.521 184.877 146.83 201.63 146.761 201.62Z" fill="#263238"/>
<path d="M166.86 201.62C166.791 201.62 169.369 184.828 172.621 164.149C175.873 143.47 178.564 126.702 178.633 126.717C178.702 126.732 176.129 143.499 172.877 164.188C169.625 184.877 166.933 201.63 166.86 201.62Z" fill="#263238"/>
<path d="M186.943 201.709C186.874 201.709 189.457 184.897 192.714 164.183C195.972 143.47 198.663 126.682 198.737 126.697C198.81 126.712 196.223 143.504 192.965 164.223C189.708 184.941 187.012 201.738 186.943 201.709Z" fill="#263238"/>
<g opacity="0.2">
<path opacity="0.2" d="M174.299 128.055C176.719 126.982 178.235 124.463 178.86 121.89C179.485 119.317 179.386 116.631 179.48 113.979C179.573 111.327 179.888 108.596 181.241 106.318C182.043 104.975 183.17 103.858 184.06 102.564C184.951 101.27 185.61 99.6957 185.28 98.1361L170.136 98.2148L174.299 128.055Z" fill="black"/>
</g>
<path d="M111.509 147.327C111.468 147.393 111.419 147.452 111.361 147.504L110.908 147.996C110.51 148.404 109.924 148.98 109.186 149.698C107.71 151.115 105.659 153.044 103.322 155.111C100.985 157.177 98.8199 158.978 97.2307 160.257C96.4336 160.897 95.7842 161.408 95.3315 161.733L94.8051 162.127C94.7465 162.178 94.68 162.219 94.6083 162.25C94.6083 162.25 94.6624 162.186 94.7706 162.087L95.2626 161.654L97.1077 160.095C98.6723 158.781 100.817 156.956 103.15 154.899C105.482 152.842 107.578 150.933 109.054 149.551L110.83 147.912L111.322 147.475C111.378 147.418 111.44 147.368 111.509 147.327Z" fill="#263238"/>
<path d="M110.372 162.446C110.163 162.264 109.968 162.067 109.787 161.856L108.247 160.213C106.918 158.801 105.137 156.901 103.174 154.801L98.0474 149.438L96.4927 147.809C96.2964 147.615 96.1139 147.408 95.9465 147.189C96.1694 147.354 96.3769 147.538 96.5665 147.74C96.9502 148.104 97.5013 148.641 98.1753 149.31C99.5234 150.648 101.364 152.523 103.356 154.628C105.349 156.734 107.12 158.673 108.38 160.095C109.009 160.803 109.516 161.384 109.856 161.787C110.048 161.991 110.221 162.211 110.372 162.446Z" fill="#263238"/>
<path d="M115.627 151.849C115.627 151.849 115.676 151.721 115.779 151.47C115.942 151.106 116.14 150.758 116.37 150.432C117.274 149.167 118.55 148.217 120.02 147.711C121.073 147.33 122.196 147.182 123.312 147.278C124.64 147.407 125.92 147.843 127.051 148.552C128.357 149.357 129.459 150.451 130.274 151.75C131.216 153.201 131.685 154.908 131.617 156.636C131.56 157.568 131.271 158.471 130.776 159.263C130.256 160.084 129.565 160.783 128.749 161.31C127.011 162.424 124.965 162.96 122.904 162.84C121.824 162.782 120.761 162.551 119.755 162.156C118.708 161.747 117.766 161.108 116.999 160.286C116.619 159.854 116.298 159.373 116.045 158.855C115.804 158.326 115.639 157.766 115.553 157.192C115.39 156.015 115.492 154.816 115.853 153.684C116.605 151.323 118.236 149.341 120.409 148.149C121.535 147.53 122.788 147.178 124.072 147.119C125.356 147.06 126.636 147.296 127.814 147.809C129.034 148.323 130.103 149.142 130.918 150.186C131.735 151.258 132.245 152.531 132.394 153.871C132.565 155.229 132.344 156.608 131.76 157.846C131.459 158.467 131.064 159.038 130.589 159.539C130.105 160.032 129.559 160.46 128.965 160.813C127.767 161.473 126.446 161.879 125.084 162.006C123.722 162.133 122.348 161.978 121.049 161.551C119.769 161.158 118.593 160.486 117.605 159.583C116.625 158.679 115.955 157.49 115.691 156.183C115.413 154.899 115.596 153.558 116.207 152.395C116.517 151.821 116.943 151.319 117.457 150.919C117.963 150.537 118.528 150.239 119.13 150.038C120.311 149.659 121.551 149.492 122.79 149.546C123.997 149.555 125.198 149.72 126.362 150.038C127.513 150.341 128.577 150.91 129.467 151.701C130.319 152.496 130.901 153.539 131.13 154.683C131.356 155.787 131.29 156.932 130.938 158.004C130.59 159.037 130.001 159.973 129.221 160.734C127.739 162.183 125.776 163.038 123.705 163.135C122.736 163.186 121.767 163.046 120.852 162.722C119.974 162.407 119.184 161.885 118.549 161.202C117.948 160.549 117.494 159.776 117.216 158.933C116.942 158.143 116.82 157.309 116.857 156.473C116.927 154.927 117.544 153.455 118.598 152.321C119.5 151.335 120.64 150.597 121.91 150.181C122.975 149.833 124.104 149.726 125.216 149.866C126.752 150.057 128.213 150.645 129.452 151.573C129.774 151.81 130.078 152.07 130.362 152.35C130.554 152.542 130.648 152.646 130.648 152.646C130.648 152.646 130.539 152.552 130.348 152.37C130.055 152.099 129.746 151.846 129.423 151.612C128.181 150.712 126.729 150.145 125.206 149.964C124.005 149.825 122.788 149.976 121.657 150.404C120.526 150.832 119.515 151.525 118.707 152.424C117.68 153.534 117.081 154.973 117.019 156.483C116.986 157.302 117.108 158.12 117.378 158.894C117.653 159.711 118.097 160.461 118.682 161.093C119.299 161.756 120.064 162.262 120.916 162.569C121.808 162.88 122.752 163.013 123.696 162.963C125.717 162.863 127.63 162.025 129.073 160.606C129.827 159.869 130.395 158.964 130.731 157.964C131.068 156.928 131.129 155.823 130.908 154.756C130.687 153.658 130.128 152.657 129.309 151.893C128.444 151.132 127.413 150.583 126.298 150.289C125.153 149.975 123.973 149.81 122.785 149.797C121.575 149.751 120.366 149.918 119.213 150.289C118.037 150.649 117.042 151.442 116.429 152.508C115.846 153.62 115.672 154.902 115.937 156.129C116.192 157.384 116.838 158.526 117.782 159.391C118.739 160.276 119.882 160.935 121.127 161.32C122.392 161.736 123.729 161.887 125.055 161.763C126.38 161.64 127.666 161.244 128.832 160.601C129.408 160.263 129.936 159.85 130.402 159.371C130.859 158.891 131.239 158.344 131.528 157.748C132.095 156.553 132.308 155.222 132.143 153.91C132.003 152.617 131.515 151.386 130.731 150.348C129.943 149.339 128.91 148.548 127.73 148.05C126.587 147.551 125.344 147.32 124.098 147.377C122.852 147.433 121.635 147.774 120.542 148.375C118.43 149.538 116.846 151.466 116.114 153.762C115.763 154.861 115.661 156.024 115.814 157.167C115.902 157.722 116.068 158.262 116.306 158.771C116.549 159.268 116.857 159.731 117.221 160.149C117.963 160.944 118.874 161.563 119.888 161.959C120.871 162.348 121.911 162.578 122.967 162.638C124.984 162.762 126.989 162.245 128.694 161.162C129.483 160.68 130.147 160.019 130.633 159.232C131.119 158.446 131.414 157.557 131.494 156.636C131.563 154.945 131.107 153.275 130.19 151.853C129.394 150.571 128.313 149.488 127.031 148.69C125.921 147.987 124.663 147.551 123.356 147.416C122.257 147.311 121.149 147.449 120.109 147.819C118.652 148.311 117.381 149.239 116.468 150.476C116.232 150.797 116.028 151.139 115.858 151.499C115.691 151.726 115.627 151.849 115.627 151.849Z" fill="#FEBD15"/>
<path d="M128.956 165.433C129 165.487 125.098 168.823 120.237 172.887C115.376 176.951 111.381 180.193 111.351 180.139C111.322 180.085 115.209 176.749 120.07 172.69C124.931 168.631 128.911 165.379 128.956 165.433Z" fill="#263238"/>
<path d="M129.806 179.701C129.575 179.565 129.356 179.409 129.152 179.234L127.42 177.886C125.969 176.734 123.976 175.13 121.782 173.349C119.587 171.568 117.614 169.945 116.192 168.759L114.515 167.342C114.302 167.18 114.105 166.998 113.924 166.801C114.155 166.938 114.374 167.095 114.579 167.268L116.306 168.616C117.757 169.767 119.75 171.371 121.944 173.152C124.138 174.934 126.111 176.557 127.538 177.743L129.211 179.155C129.422 179.322 129.621 179.505 129.806 179.701Z" fill="#263238"/>
<path d="M170.028 165.625C170.068 165.679 166.338 168.537 161.689 172.021C157.039 175.504 153.241 178.255 153.197 178.196C153.152 178.137 156.887 175.283 161.536 171.799C166.186 168.316 169.984 165.566 170.028 165.625Z" fill="#263238"/>
<path d="M171.475 177.728C171.44 177.787 167.475 175.332 162.618 172.237C157.762 169.143 153.871 166.594 153.905 166.53C153.939 166.466 157.905 168.931 162.761 172.021C167.617 175.111 171.534 177.669 171.475 177.728Z" fill="#263238"/>
<path d="M129.595 201.625C129.541 201.576 133.418 197.512 138.249 192.557C143.081 187.603 147.042 183.613 147.106 183.662C147.17 183.711 143.283 187.775 138.451 192.734C133.62 197.694 129.644 201.674 129.595 201.625Z" fill="#FEBD15"/>
<path d="M145.984 201.62C145.984 201.62 145.92 201.566 145.821 201.448L145.408 200.956C145.024 200.464 144.513 199.829 143.888 199.052C142.604 197.448 140.783 195.268 138.672 192.951C136.562 190.634 134.559 188.621 133.083 187.194L131.332 185.472L130.84 185.01C130.783 184.958 130.732 184.9 130.687 184.838C130.687 184.838 130.761 184.877 130.874 184.971L131.366 185.399C131.804 185.772 132.424 186.328 133.182 187.027C134.687 188.424 136.714 190.422 138.835 192.744C140.955 195.067 142.771 197.271 144.001 198.904C144.631 199.721 145.128 200.38 145.477 200.872L145.856 201.413C145.907 201.477 145.95 201.546 145.984 201.62Z" fill="#FEBD15"/>
<path d="M105.708 180.926C105.708 180.926 105.865 193.015 102.815 200.252L84.222 197.084C84.222 197.084 89.8211 185.63 88.2959 179.263L105.708 180.926Z" fill="#EBEBEB"/>
<path d="M105.703 180.474C105.703 180.474 103.371 195.313 101.944 199.741L83.4644 196.07C83.4644 196.07 87.2676 181.723 87.2184 177.728L105.703 180.474Z" fill="#FEBD15"/>
<path d="M89.0929 184.38C89.0929 184.449 91.8383 185.089 95.2578 185.807C98.6772 186.525 101.457 187.052 101.472 186.988C101.487 186.924 98.7264 186.279 95.307 185.561C91.8875 184.843 89.1077 184.311 89.0929 184.38Z" fill="white"/>
<path d="M88.6205 187.524C88.6205 187.593 91.3659 188.228 94.7853 188.951C98.2048 189.674 100.985 190.196 100.999 190.132C101.014 190.068 98.254 189.423 94.8345 188.705C91.4151 187.987 88.6352 187.44 88.6205 187.524Z" fill="white"/>
<path d="M91.3363 191.081C91.6515 191.218 91.9818 191.317 92.3203 191.376C92.955 191.529 93.8357 191.731 94.805 191.937C95.7742 192.144 96.6648 192.311 97.3093 192.429C97.6535 192.516 98.0072 192.559 98.3622 192.557C98.035 192.42 97.6934 192.319 97.3437 192.257C96.7139 192.1 95.8333 191.898 94.8591 191.696C93.8849 191.495 92.9993 191.317 92.3597 191.204C92.0248 191.122 91.6811 191.081 91.3363 191.081Z" fill="white"/>
<path d="M193.674 146.983C193.674 146.983 195.578 158.761 193.65 166.274L175.032 165.876C175.032 165.876 178.84 153.881 176.424 147.883L193.674 146.983Z" fill="#EBEBEB"/>
<path d="M193.59 146.54C193.59 146.54 193.467 161.354 192.715 165.876L174.131 164.995C174.131 164.995 175.76 150.432 175.115 146.54H193.59Z" fill="#455A64"/>
<path d="M177.753 153.133C177.753 153.202 180.547 153.261 183.996 153.266C187.445 153.27 190.245 153.221 190.245 153.152C190.245 153.083 187.45 153.024 183.996 153.02C180.542 153.015 177.753 153.064 177.753 153.133Z" fill="white"/>
<path d="M177.93 156.267C177.93 156.336 180.725 156.395 184.174 156.4C187.622 156.405 190.422 156.355 190.422 156.286C190.422 156.218 187.627 156.159 184.174 156.154C180.72 156.149 177.93 156.198 177.93 156.267Z" fill="white"/>
<path d="M181.261 159.155C181.603 159.228 181.953 159.26 182.304 159.248C182.948 159.248 183.839 159.283 184.823 159.288C185.807 159.293 186.692 159.288 187.337 159.253C187.687 159.267 188.037 159.239 188.38 159.17C188.037 159.097 187.687 159.067 187.337 159.081C186.692 159.056 185.807 159.042 184.823 159.037C183.839 159.032 182.948 159.037 182.304 159.071C181.954 159.057 181.604 159.085 181.261 159.155Z" fill="white"/>
<path d="M197.61 113.019C194.136 113.019 190.638 110.84 188.798 107.41C187.009 103.996 186.455 100.068 187.229 96.291C188.247 91.371 191.504 87.3365 195.529 86.0474C198.948 84.9503 205.059 85.5554 207.942 90.382C209.316 92.7422 209.998 95.4412 209.91 98.1705C209.897 98.3643 209.846 98.5537 209.76 98.7279C209.674 98.902 209.555 99.0575 209.408 99.1854C209.262 99.3133 209.092 99.4112 208.908 99.4734C208.724 99.5357 208.53 99.5611 208.336 99.5481C207.944 99.522 207.579 99.3415 207.321 99.0462C207.063 98.751 206.932 98.3652 206.958 97.9737C206.985 95.8428 206.438 93.744 205.374 91.8974C203.15 88.1827 198.274 88.2566 196.395 88.8568C192.951 89.9589 190.747 93.6834 190.082 96.8864C189.445 99.9873 189.898 103.213 191.366 106.018C192.818 108.724 195.755 110.407 198.358 110.008C198.742 109.955 199.132 110.055 199.443 110.286C199.754 110.518 199.962 110.863 200.02 111.246C200.079 111.63 199.985 112.021 199.757 112.335C199.53 112.649 199.188 112.862 198.806 112.926C198.41 112.987 198.01 113.018 197.61 113.019Z" fill="#263238"/>
<path d="M102.318 113.019C98.8396 113.019 95.3463 110.84 93.5062 107.41C91.7158 103.996 91.1596 100.068 91.9318 96.291C92.7928 92.1385 95.7055 87.3562 100.296 86.0376C102.509 85.4381 104.856 85.557 106.997 86.3771L105.934 89.1323C104.393 88.5467 102.708 88.4555 101.113 88.8715C97.7276 89.8556 95.5234 93.6047 94.8445 96.8863C94.2067 99.9872 94.6604 103.213 96.1286 106.018C97.58 108.729 100.522 110.407 103.12 110.008L103.568 112.926C103.154 112.99 102.736 113.021 102.318 113.019Z" fill="#263238"/>
<path d="M196.395 98.2443L195.037 105.679H215.017L216.794 98.3181L196.395 98.2443Z" fill="#FEBD15"/>
<path d="M107.381 111.843C107.382 112.472 107.196 113.088 106.847 113.611C106.498 114.135 106.002 114.543 105.421 114.784C104.84 115.025 104.201 115.088 103.584 114.966C102.967 114.843 102.4 114.541 101.955 114.096C101.51 113.651 101.207 113.084 101.085 112.467C100.963 111.85 101.026 111.211 101.267 110.63C101.508 110.049 101.916 109.552 102.44 109.204C102.963 108.855 103.578 108.669 104.207 108.67C105.049 108.671 105.855 109.006 106.45 109.601C107.045 110.196 107.38 111.002 107.381 111.843Z" fill="#263238"/>
<path d="M202.589 111.843C202.59 112.472 202.405 113.088 202.056 113.611C201.707 114.135 201.21 114.543 200.629 114.784C200.049 115.025 199.409 115.088 198.792 114.966C198.175 114.843 197.608 114.541 197.163 114.096C196.719 113.651 196.416 113.084 196.293 112.467C196.171 111.85 196.234 111.211 196.475 110.63C196.717 110.049 197.125 109.552 197.648 109.204C198.172 108.855 198.787 108.669 199.416 108.67C200.257 108.671 201.064 109.006 201.658 109.601C202.253 110.196 202.588 111.002 202.589 111.843Z" fill="#263238"/>
<path d="M150.156 50.3276L144.931 70.1457L126.894 72.0842V75.2823L152.237 76.1728L157 53.939L150.156 50.3276Z" fill="#FFBE9D"/>
<path d="M157.757 76.6992C157.757 76.6992 129.575 75.3561 121.551 81.6193C113.526 87.8826 117.413 98.1655 117.413 98.1655L162.766 98.0475L166.771 75.0559L157.757 76.6992Z" fill="#263238"/>
<path d="M162.555 91.8678C162.418 91.8713 162.281 91.8614 162.146 91.8383C161.881 91.8088 161.492 91.7694 160.99 91.7055C160.006 91.5825 158.53 91.3758 156.759 91.0757C152.108 90.2848 147.508 89.2219 142.982 87.8924C140.335 87.1101 137.831 86.3229 135.519 85.7473C133.477 85.219 131.39 84.8894 129.285 84.7633C127.865 84.6837 126.44 84.7663 125.039 85.0093C124.547 85.0683 124.168 85.1962 123.902 85.2405C123.771 85.2729 123.638 85.2975 123.504 85.3143C123.629 85.2604 123.759 85.2192 123.893 85.1913C124.262 85.0761 124.639 84.9824 125.019 84.9109C126.424 84.6271 127.858 84.5164 129.29 84.5812C131.425 84.6829 133.545 84.9978 135.617 85.521C137.944 86.0818 140.454 86.869 143.091 87.6513C147.592 88.9694 152.159 90.0516 156.773 90.8937C158.55 91.2184 159.991 91.4496 160.99 91.6071L162.141 91.7891C162.281 91.8038 162.419 91.8301 162.555 91.8678Z" fill="#455A64"/>
<path d="M136.36 85.5947C135.577 84.9491 134.743 84.3682 133.866 83.858C132.946 83.4278 131.993 83.0724 131.017 82.7952C131.32 82.7688 131.625 82.7989 131.917 82.8838C132.637 83.0387 133.332 83.2902 133.984 83.6316C134.635 83.9749 135.237 84.4035 135.775 84.9059C136.011 85.0974 136.209 85.3309 136.36 85.5947Z" fill="#455A64"/>
<path d="M160.744 137.959L161.123 149.802L158.741 159.258C158.703 159.42 158.698 159.588 158.727 159.752C158.756 159.916 158.819 160.072 158.912 160.211C159.004 160.349 159.124 160.467 159.264 160.557C159.404 160.647 159.561 160.708 159.725 160.734C159.916 160.769 160.111 160.758 160.296 160.701C160.481 160.645 160.65 160.545 160.788 160.409C162.579 158.658 169.152 152.183 169.069 151.322C168.98 150.338 169.497 138.796 169.497 138.796L160.744 137.959Z" fill="#FEBD15"/>
<g opacity="0.6">
<path opacity="0.6" d="M159.681 160.754L169.029 150.54V151.032C169.035 151.466 168.885 151.889 168.606 152.222C167.863 153.113 165.753 155.529 160.788 160.419C160.646 160.56 160.472 160.663 160.28 160.72C160.089 160.776 159.886 160.785 159.691 160.744L159.681 160.754Z" fill="white"/>
</g>
<g opacity="0.6">
<path opacity="0.6" d="M166.55 146.737C166.4 146.846 166.297 147.009 166.261 147.191C166.225 147.373 166.26 147.563 166.358 147.721C166.461 147.868 166.617 147.97 166.794 148.007C166.97 148.043 167.154 148.011 167.307 147.917C167.462 147.803 167.567 147.635 167.604 147.446C167.64 147.258 167.605 147.063 167.504 146.899C167.382 146.755 167.208 146.664 167.02 146.645C166.832 146.627 166.643 146.683 166.496 146.801" fill="white"/>
</g>
<path d="M162.343 155.548C162.274 155.583 161.999 154.968 161.295 154.638C160.86 154.467 160.395 154.384 159.927 154.392C159.927 154.363 160.065 154.269 160.341 154.225C160.706 154.181 161.076 154.242 161.407 154.401C161.739 154.561 162.017 154.812 162.21 155.125C162.348 155.366 162.368 155.539 162.343 155.548Z" fill="#263238"/>
<path d="M161.511 157.147C161.171 156.962 160.819 156.797 160.458 156.655C160.074 156.588 159.687 156.542 159.297 156.518C159.478 156.401 159.684 156.33 159.899 156.311C160.113 156.291 160.328 156.323 160.527 156.405C161.226 156.592 161.57 157.113 161.511 157.147Z" fill="#263238"/>
<path d="M163.893 153.492C163.39 153.16 162.864 152.866 162.318 152.611C161.742 152.435 161.153 152.303 160.557 152.218C161.177 152.088 161.82 152.139 162.412 152.365C163.003 152.591 163.517 152.982 163.893 153.492Z" fill="#263238"/>
<path d="M164.08 149.89C164.05 149.964 163.391 149.694 162.54 149.674C161.688 149.654 161.014 149.861 160.985 149.787C161.462 149.524 162.002 149.395 162.546 149.413C163.091 149.431 163.621 149.596 164.08 149.89Z" fill="#263238"/>
<path d="M164.055 146.412C163.537 146.249 162.999 146.158 162.456 146.141C161.918 146.204 161.391 146.341 160.891 146.55C160.891 146.525 161 146.372 161.27 146.215C161.633 146.01 162.038 145.894 162.454 145.876C162.869 145.859 163.283 145.939 163.661 146.112C163.932 146.245 164.075 146.382 164.055 146.412Z" fill="#263238"/>
<path d="M162.471 145.477C162.44 145.329 162.44 145.177 162.471 145.029C162.508 144.618 162.626 144.218 162.82 143.853C162.935 143.573 163.142 143.339 163.406 143.189C163.497 143.148 163.599 143.136 163.697 143.155C163.796 143.173 163.886 143.221 163.957 143.293C164.083 143.44 164.152 143.629 164.149 143.824C164.125 144.22 163.966 144.597 163.697 144.889C163.428 145.181 163.066 145.372 162.673 145.428C162.28 145.471 161.883 145.398 161.533 145.215C161.183 145.033 160.894 144.751 160.705 144.404C160.657 144.317 160.629 144.22 160.622 144.121C160.615 144.022 160.63 143.922 160.665 143.829C160.711 143.741 160.783 143.669 160.871 143.622C160.959 143.576 161.058 143.557 161.157 143.568C161.45 143.63 161.721 143.768 161.944 143.967C162.267 144.222 162.544 144.532 162.761 144.882C162.848 145.005 162.911 145.144 162.948 145.29C162.635 144.846 162.259 144.449 161.831 144.114C161.632 143.95 161.395 143.837 161.142 143.785C161.088 143.775 161.032 143.784 160.982 143.808C160.933 143.833 160.892 143.873 160.867 143.922C160.849 143.986 160.845 144.052 160.853 144.117C160.862 144.182 160.883 144.244 160.916 144.301C161.089 144.594 161.342 144.832 161.645 144.985C161.949 145.139 162.29 145.202 162.628 145.167C162.964 145.124 163.275 144.967 163.508 144.723C163.742 144.478 163.885 144.161 163.912 143.824C163.919 143.689 163.877 143.557 163.794 143.45C163.757 143.408 163.707 143.379 163.652 143.367C163.598 143.356 163.54 143.362 163.489 143.386C163.273 143.518 163.102 143.712 162.997 143.942C162.736 144.42 162.558 144.939 162.471 145.477Z" fill="#263238"/>
<path d="M166.746 75.0559C166.746 75.0559 154.559 98.0967 154.392 102.116C154.225 106.136 154.392 143.189 154.392 143.189H173.256C173.748 143.189 176.577 126.495 176.001 122.653C175.425 118.81 173.393 98.1557 173.393 98.1557H184.247C184.247 98.1557 187.224 94.9724 187.115 90.933C187.051 88.7042 185.595 84.1483 184.163 81.7325C183.233 80.1827 177.275 72.0695 177.275 72.0695L166.746 75.0559Z" fill="#263238"/>
<path d="M165.93 76.6156C165.916 76.6617 165.898 76.7063 165.876 76.7485C165.831 76.8469 165.772 76.9699 165.698 77.1224L164.99 78.559C164.67 79.1839 164.291 79.9416 163.848 80.8223L163.14 82.2343L162.397 83.8432L158.741 91.7596C158.048 93.2356 157.32 94.815 156.562 96.4337L155.415 98.8937C155.045 99.7444 154.765 100.632 154.579 101.541C154.392 102.452 154.295 103.38 154.289 104.311C154.259 105.231 154.24 106.141 154.225 107.032C154.225 108.822 154.19 110.544 154.195 112.188C154.195 115.474 154.235 118.436 154.269 120.921C154.303 123.406 154.333 125.398 154.358 126.825C154.358 127.504 154.358 128.04 154.358 128.424C154.358 128.596 154.358 128.734 154.358 128.842C154.358 128.95 154.358 128.985 154.358 128.985C154.349 128.938 154.349 128.889 154.358 128.842C154.358 128.734 154.358 128.596 154.358 128.429C154.358 128.04 154.318 127.509 154.289 126.825C154.24 125.438 154.176 123.425 154.121 120.921C154.067 118.417 154.008 115.479 153.994 112.188C153.994 110.544 153.994 108.818 153.994 107.032C153.994 106.136 154.023 105.226 154.057 104.301C154.062 103.356 154.16 102.413 154.348 101.487C154.538 100.56 154.825 99.6568 155.204 98.7904L156.355 96.3304L158.55 91.6661L162.279 83.7694L163.037 82.1655C163.297 81.6735 163.529 81.1814 163.765 80.7632L164.941 78.5197C165.261 77.9145 165.516 77.4422 165.693 77.1027C165.777 76.9551 165.846 76.837 165.895 76.7386C165.944 76.6402 165.925 76.6107 165.93 76.6156Z" fill="#455A64"/>
<path d="M161.984 84.4631C161.593 83.5265 161.264 82.565 161 81.5849C160.654 80.6306 160.373 79.6543 160.158 78.6624C160.617 79.5718 160.98 80.5265 161.241 81.5111C161.589 82.467 161.838 83.4562 161.984 84.4631Z" fill="#455A64"/>
<path d="M176.041 121.93C176.009 121.846 175.989 121.758 175.981 121.669C175.959 121.469 175.924 121.218 175.878 120.916C175.79 120.222 175.676 119.278 175.534 118.131C175.263 115.75 174.899 112.517 174.496 108.945C174.092 105.373 173.763 102.102 173.561 99.7449C173.467 98.5936 173.389 97.649 173.33 96.9552C173.33 96.6453 173.29 96.3943 173.275 96.1926C173.269 96.1042 173.269 96.0154 173.275 95.9269C173.306 96.0106 173.325 96.0985 173.33 96.1877C173.354 96.3894 173.389 96.6403 173.428 96.9454C173.507 97.6391 173.615 98.5788 173.743 99.7301C174.004 102.111 174.358 105.349 174.727 108.921C175.096 112.493 175.445 115.725 175.711 118.112C175.819 119.263 175.913 120.208 175.977 120.901C176.001 121.206 176.021 121.462 176.036 121.664C176.045 121.752 176.046 121.841 176.041 121.93Z" fill="#455A64"/>
<path d="M171.248 13.3483C170.958 11.3803 172.646 9.48607 174.594 9.25483C176.542 9.02358 178.505 10.2388 179.401 12.015C179.818 12.9082 180.046 13.8778 180.071 14.8631C180.097 15.8484 179.919 16.8284 179.548 17.742C179.056 18.9867 178.146 20.2463 176.823 20.3447C175.499 20.4431 174.486 19.4345 173.61 18.5046" fill="#263238"/>
<path d="M157.398 23.1098C153.462 14.4849 162.81 10.1503 167.893 11.587C172.675 12.94 174.717 15.3213 175.504 18.5193C176.366 21.7278 176.194 25.1266 175.012 28.2316C174.392 29.7371 173.28 31.2623 171.666 31.4493" fill="#263238"/>
<path d="M170.943 16.3742C171.348 16.4161 171.722 16.609 171.991 16.9145C172.26 17.2199 172.404 17.6155 172.395 18.0224L171.475 39.9758C171.44 42.5687 167.657 44.0349 164.877 43.9758C162.077 43.9168 161.984 42.5391 161.925 40.0742C161.861 35.9561 161.861 34.4063 161.861 34.4309C161.861 34.4555 158.318 33.8404 157.585 29.2205C157.216 26.9228 157.334 23.154 157.526 20.0741C157.703 17.3041 159.538 13.8994 162.304 14.17L170.943 16.3742Z" fill="#FFBE9D"/>
<path d="M159.337 22.7014C159.334 22.8563 159.392 23.0061 159.499 23.1184C159.606 23.2307 159.752 23.2965 159.907 23.3017C159.983 23.3077 160.059 23.2985 160.131 23.2746C160.203 23.2507 160.269 23.2126 160.326 23.1626C160.383 23.1126 160.429 23.0517 160.462 22.9834C160.495 22.9152 160.514 22.841 160.517 22.7654C160.519 22.6108 160.46 22.4617 160.354 22.3497C160.247 22.2377 160.101 22.1715 159.947 22.1651C159.871 22.1591 159.795 22.1683 159.723 22.1922C159.651 22.2161 159.585 22.2542 159.528 22.3042C159.471 22.3542 159.425 22.4151 159.392 22.4834C159.359 22.5516 159.34 22.6257 159.337 22.7014Z" fill="#263238"/>
<path d="M158.358 22.0372C158.431 22.111 158.884 21.7813 159.519 21.7813C160.153 21.7813 160.626 22.1011 160.695 22.0224C160.764 21.9437 160.655 21.8502 160.449 21.7026C160.173 21.5119 159.844 21.4106 159.509 21.4123C159.178 21.4091 158.855 21.5145 158.589 21.7125C158.392 21.8601 158.323 22.0027 158.358 22.0372Z" fill="#263238"/>
<path d="M165.57 22.7014C165.569 22.8527 165.625 22.9991 165.727 23.1106C165.83 23.2221 165.971 23.2904 166.122 23.3016C166.197 23.3077 166.273 23.2985 166.345 23.2746C166.417 23.2507 166.483 23.2126 166.54 23.1626C166.597 23.1126 166.643 23.0516 166.676 22.9834C166.709 22.9152 166.728 22.841 166.732 22.7654C166.733 22.6108 166.674 22.4617 166.568 22.3497C166.461 22.2377 166.315 22.1715 166.161 22.1651C166.012 22.1584 165.866 22.211 165.755 22.3115C165.644 22.412 165.578 22.5522 165.57 22.7014Z" fill="#263238"/>
<path d="M164.645 22.1553C164.719 22.2291 165.167 21.8994 165.802 21.8994C166.436 21.8994 166.909 22.2192 166.977 22.1454C167.046 22.0716 166.938 21.9683 166.731 21.8207C166.456 21.6291 166.127 21.5277 165.792 21.5304C165.461 21.5304 165.139 21.6355 164.872 21.8306C164.645 21.9782 164.591 22.1258 164.645 22.1553Z" fill="#263238"/>
<path d="M162.313 26.8835C161.978 26.78 161.631 26.7173 161.28 26.6965C161.118 26.6965 160.96 26.6473 160.936 26.5391C160.921 26.3678 160.958 26.196 161.044 26.0471C161.197 25.6535 161.354 25.2402 161.536 24.8072C161.982 23.7568 162.344 22.6726 162.619 21.5649C162.086 22.5761 161.636 23.6292 161.275 24.7137L160.813 25.9634C160.711 26.1603 160.682 26.3866 160.729 26.603C160.754 26.6602 160.791 26.7112 160.838 26.752C160.884 26.7929 160.94 26.8227 161 26.8392C161.09 26.863 161.182 26.8762 161.275 26.8786C161.62 26.9231 161.969 26.9248 162.313 26.8835Z" fill="#263238"/>
<path d="M161.875 34.426C164.06 34.4657 166.212 33.8949 168.089 32.7777C168.089 32.7777 166.584 35.9561 161.959 35.5231L161.875 34.426Z" fill="#EB996E"/>
<path d="M162.584 28.4185C162.706 28.2669 162.864 28.1486 163.044 28.0746C163.223 28.0006 163.419 27.9733 163.612 27.9954C163.754 28.0072 163.891 28.0478 164.016 28.1146C164.142 28.1815 164.252 28.2731 164.34 28.3841C164.425 28.4902 164.475 28.6197 164.484 28.7552C164.493 28.8907 164.46 29.0256 164.39 29.1418C164.287 29.2568 164.153 29.3385 164.004 29.3762C163.855 29.4139 163.698 29.4059 163.553 29.3533C163.25 29.2467 162.972 29.0793 162.736 28.8613C162.665 28.8105 162.603 28.7471 162.554 28.6744C162.532 28.6392 162.519 28.5982 162.519 28.5563C162.519 28.5143 162.532 28.4733 162.554 28.4382" fill="#EB996E"/>
<path d="M164.193 27.3263C164.09 27.3263 164.085 28.0102 163.494 28.5022C162.904 28.9942 162.166 28.9155 162.161 28.9942C162.156 29.0729 162.323 29.127 162.653 29.1369C163.059 29.1415 163.454 29.004 163.77 28.7482C164.07 28.5016 164.263 28.1494 164.311 27.7642C164.316 27.4936 164.237 27.3214 164.193 27.3263Z" fill="#263238"/>
<path d="M164.34 21.0384C164.404 21.2106 165.044 21.127 165.792 21.2204C166.54 21.3139 167.145 21.5107 167.243 21.3582C167.287 21.2844 167.179 21.122 166.938 20.9498C166.614 20.7413 166.244 20.6131 165.861 20.5759C165.478 20.5282 165.09 20.5737 164.729 20.7088C164.453 20.817 164.316 20.9548 164.34 21.0384Z" fill="#263238"/>
<path d="M158.594 20.1873C158.707 20.3349 159.145 20.1873 159.676 20.1873C160.207 20.1873 160.66 20.2857 160.754 20.1331C160.798 20.0593 160.754 19.9117 160.532 19.7789C160.273 19.6085 159.966 19.5241 159.656 19.5378C159.346 19.5442 159.046 19.6455 158.795 19.8281C158.608 19.9708 158.545 20.1184 158.594 20.1873Z" fill="#263238"/>
<path d="M164.611 12.6546C163.043 12.7346 161.52 13.2084 160.183 14.0322C159.433 14.4207 158.768 14.9531 158.224 15.5989C157.68 16.2447 157.269 16.9913 157.014 17.7961C156.95 17.9635 156.92 18.1423 156.926 18.3217C156.933 18.501 156.977 18.6771 157.054 18.8391C157.2 19.0244 157.406 19.1529 157.637 19.2023C157.868 19.2517 158.109 19.219 158.318 19.1097C158.735 18.883 159.09 18.5568 159.351 18.1602C159.455 18.5939 159.704 18.9795 160.056 19.2537C160.407 19.5278 160.842 19.6744 161.288 19.6692C161.734 19.6641 162.165 19.5076 162.51 19.2253C162.856 18.9431 163.095 18.5519 163.189 18.1159C163.224 18.5591 163.429 18.9717 163.761 19.2677C164.093 19.5638 164.526 19.7204 164.97 19.7051C165.414 19.6667 165.836 19.4996 166.186 19.2242C166.535 18.9488 166.797 18.5773 166.938 18.1552C167.047 18.9553 167.323 19.7233 167.75 20.4086C167.968 20.7488 168.286 21.0135 168.66 21.1667C169.035 21.3198 169.447 21.3541 169.841 21.2647C169.676 21.9449 169.686 22.656 169.871 23.3312C170.117 23.9806 171.096 35.0951 171.755 34.8688C172.414 34.6424 172.39 23.3066 172.537 22.6473C172.865 21.3826 173.03 20.0815 173.029 18.7752C173.073 17.4294 172.637 16.1119 171.799 15.0582C170.961 14.0045 169.775 13.2833 168.454 13.0236C167.135 12.7211 165.781 12.5969 164.429 12.6546" fill="#263238"/>
<path d="M173.871 32.8958C173.871 32.8958 173.826 32.9253 173.728 32.9598C173.59 33.0104 173.446 33.0451 173.3 33.0631C172.616 33.15 171.921 33.0407 171.296 32.748C170.672 32.4554 170.143 31.9913 169.772 31.4099C169.269 30.5341 169.057 29.521 169.167 28.5169C169.241 27.4591 169.487 26.4948 169.6 25.6092C169.711 24.823 169.78 24.0313 169.807 23.2377C169.807 22.5587 169.807 22.0126 169.807 21.6288C169.785 21.4326 169.785 21.2347 169.807 21.0384C169.865 21.2319 169.9 21.4318 169.91 21.6338C169.964 22.1716 169.99 22.7119 169.989 23.2525C169.988 24.0535 169.937 24.8538 169.836 25.6485C169.728 26.5538 169.497 27.5231 169.423 28.5415C169.318 29.4948 169.51 30.4573 169.974 31.2968C170.378 31.9651 171 32.4741 171.735 32.7384C172.229 32.9267 172.758 33.0073 173.285 32.9745C173.664 32.9499 173.866 32.8712 173.871 32.8958Z" fill="#263238"/>
<path d="M162.982 12.0593C163.161 12.3962 163.245 12.7756 163.224 13.1565C163.241 14.0888 162.888 14.9899 162.243 15.663C161.597 16.336 160.712 16.7262 159.779 16.7481C159.401 16.7844 159.02 16.7163 158.677 16.5513C158.677 16.507 159.1 16.6251 159.77 16.5513C160.644 16.4919 161.465 16.1096 162.074 15.4785C162.682 14.8475 163.034 14.0128 163.061 13.1368C163.076 12.4824 162.938 12.0691 162.982 12.0593Z" fill="#455A64"/>
<path d="M163.662 17.5009C163.686 17.5009 163.627 17.8158 163.273 18.1602C163.038 18.3717 162.762 18.5334 162.463 18.6357C162.163 18.738 161.847 18.7788 161.531 18.7555C160.913 18.7003 160.317 18.496 159.794 18.1602C159.396 17.9092 159.179 17.7174 159.199 17.6682C159.437 17.7432 159.665 17.8473 159.878 17.9781C160.397 18.2479 160.963 18.415 161.546 18.4701C162.124 18.5042 162.695 18.3296 163.155 17.9781C163.514 17.7518 163.632 17.4812 163.662 17.5009Z" fill="#455A64"/>
<path d="M174.806 16.0888C174.838 16.5124 174.808 16.9384 174.717 17.3533C174.578 18.381 174.189 19.359 173.585 20.202C173.27 20.6201 172.873 20.9693 172.417 21.2282C171.962 21.4871 171.459 21.6502 170.938 21.7076C170.622 21.736 170.303 21.7043 169.999 21.6141C169.787 21.5501 169.684 21.4862 169.689 21.4714C170.094 21.544 170.508 21.5622 170.919 21.5255C171.897 21.3666 172.778 20.8383 173.379 20.0495C173.955 19.2343 174.349 18.3047 174.535 17.3238C174.6 16.9069 174.69 16.4945 174.806 16.0888Z" fill="#455A64"/>
<path d="M175.652 18.3275C175.697 18.4539 175.722 18.5868 175.726 18.7211C175.759 19.0792 175.767 19.4393 175.75 19.7986C175.724 21.0092 175.291 22.1758 174.52 23.1098C174.085 23.6233 173.519 24.0092 172.882 24.2266C172.36 24.3975 171.802 24.4314 171.263 24.325C170.901 24.2559 170.557 24.1118 170.254 23.9019C170.048 23.7494 169.959 23.6362 169.969 23.6264C170.373 23.8832 170.822 24.0602 171.293 24.1479C171.8 24.2209 172.318 24.1719 172.803 24.0052C173.394 23.7871 173.919 23.4213 174.328 22.9425C175.059 22.0431 175.494 20.9399 175.573 19.7838C175.652 18.8933 175.608 18.3324 175.652 18.3275Z" fill="#455A64"/>
<path d="M110.8 77.7965L101.87 98.2197H114.166L122.923 77.6341L110.8 77.7965Z" fill="#455A64"/>
<path d="M104.306 56.0743L114.377 75.8825H146.141L144.857 73.2946L135.656 73.019L128.153 56.3203C127.925 55.8116 127.555 55.3797 127.087 55.0767C126.619 54.7738 126.074 54.6127 125.516 54.613H105.201C105.027 54.6068 104.854 54.6469 104.7 54.7294C104.547 54.8118 104.418 54.9336 104.327 55.0823C104.236 55.2309 104.186 55.4011 104.182 55.5754C104.178 55.7497 104.221 55.9219 104.306 56.0743Z" fill="#E0E0E0"/>
<path d="M120.212 64.955C120.212 65.1954 120.141 65.4303 120.007 65.6302C119.874 65.83 119.684 65.9858 119.462 66.0778C119.24 66.1698 118.996 66.1938 118.76 66.1469C118.524 66.1 118.308 65.9843 118.138 65.8143C117.968 65.6444 117.852 65.4278 117.805 65.1921C117.758 64.9564 117.782 64.712 117.874 64.49C117.966 64.2679 118.122 64.0781 118.322 63.9446C118.522 63.811 118.757 63.7398 118.997 63.7398C119.319 63.7411 119.627 63.8695 119.855 64.0971C120.083 64.3248 120.211 64.6331 120.212 64.955Z" fill="#263238"/>
<path d="M149.526 75.9219H110.697V77.8161H149.526V75.9219Z" fill="#455A64"/>
<path d="M137.565 76.8714L149.378 98.2393H155.027L156.257 95.7941L157.388 93.2209L149.526 77.8161L137.565 76.8714Z" fill="#455A64"/>
<path d="M158.092 40.2365C158.092 40.2365 151.233 42.6523 149.757 50.3276L157 53.939L158.092 40.2365Z" fill="#FEBD15"/>
<path d="M158.092 40.2366C158.092 40.2366 153.295 50.9919 153.477 56.8664C153.541 58.9083 154.879 64.2465 154.879 64.2465L157.374 77.4619C157.374 77.4619 176.469 74.8788 176.892 74.8788C177.315 74.8788 176.252 64.0301 176.252 64.0301L179.366 43.1837C179.366 43.1837 177.94 40.3448 171.494 39.3608C167.632 38.7556 158.092 40.2366 158.092 40.2366Z" fill="#FEBD15"/>
<path d="M156.281 46.4801C156.326 46.5047 155.824 47.3067 155.219 48.6942C154.868 49.5065 154.572 50.3415 154.333 51.1936C154.046 52.2376 153.837 53.3017 153.708 54.3769C153.595 55.4537 153.56 56.5373 153.605 57.6192C153.65 58.5025 153.753 59.3819 153.915 60.2514C154.19 61.7275 154.505 62.6327 154.456 62.6475C154.353 62.4516 154.27 62.2455 154.21 62.0325C154.122 61.7888 154.047 61.5408 153.984 61.2896C153.905 60.9944 153.802 60.6647 153.733 60.3055C153.548 59.4298 153.427 58.5419 153.369 57.6487C153.31 56.5527 153.338 55.4537 153.452 54.3621C153.583 53.272 153.802 52.1943 154.107 51.1394C154.36 50.2819 154.677 49.4447 155.056 48.6351C155.194 48.3207 155.349 48.0136 155.519 47.7151C155.636 47.4837 155.766 47.2587 155.907 47.041C156.013 46.8419 156.138 46.6539 156.281 46.4801Z" fill="#263238"/>
<path d="M160.414 40.1381L160.69 37.1861C160.72 36.8793 160.862 36.5944 161.089 36.3856C161.316 36.1769 161.611 36.059 161.92 36.0545L171.342 35.9118C171.627 35.9084 171.904 36.0138 172.115 36.2065C172.326 36.3993 172.456 36.665 172.478 36.9499L172.719 40.1332C171.931 41.805 170.596 43.1585 168.936 43.9709C166.166 45.3141 161.861 45.3583 161.861 45.3583L160.414 40.1381Z" fill="#FEBD15"/>
<path d="M162.879 36.0791C162.909 36.0791 162.771 36.271 162.712 36.5711C162.659 37.0057 162.659 37.4452 162.712 37.8798C162.795 38.5135 162.795 39.1552 162.712 39.7888C162.543 39.1716 162.457 38.5346 162.456 37.8946C162.39 37.439 162.41 36.9751 162.515 36.5268C162.678 36.1873 162.864 36.0545 162.879 36.0791Z" fill="#263238"/>
<path d="M165.138 39.7298C164.973 39.1271 164.893 38.5045 164.901 37.8798C164.865 37.4378 164.865 36.9935 164.901 36.5514C164.951 36.1972 165.093 36.0151 165.123 36.0594C165.152 36.1037 165.078 36.266 165.083 36.5908C165.088 36.9155 165.138 37.378 165.138 37.87C165.22 38.4872 165.22 39.1126 165.138 39.7298Z" fill="#263238"/>
<path d="M167.967 39.6511C167.763 39.0769 167.639 38.4777 167.598 37.87C167.476 37.268 167.438 36.6521 167.484 36.0397C167.69 36.6183 167.814 37.2227 167.853 37.8356C167.973 38.4328 168.011 39.0436 167.967 39.6511Z" fill="#263238"/>
<path d="M170.407 39.838C170.182 39.2057 170.063 38.5409 170.053 37.87C169.958 37.2011 169.975 36.5212 170.102 35.8577C170.231 36.506 170.3 37.1648 170.309 37.8257C170.404 38.492 170.437 39.1657 170.407 39.838Z" fill="#263238"/>
<g opacity="0.3">
<path opacity="0.3" d="M172.277 51.1099C171.898 54.4212 172.149 60.1284 173.32 63.2527L178.82 54.1653L172.277 51.1099Z" fill="black"/>
</g>
<path d="M178.855 42.4998L178.884 42.5293C180.444 44.1667 181.585 46.1567 182.21 48.3301L183.224 52.95L172.399 54.6229C171.804 52.6633 171.662 50.5936 171.986 48.5712C172.517 45.0878 178.855 42.4998 178.855 42.4998Z" fill="#FEBD15"/>
<path d="M183.224 52.95C183.153 52.9748 183.081 52.993 183.007 53.0042L182.387 53.1173L180.07 53.4962L172.227 54.6868H172.089V54.5441C172.065 53.8898 172.045 53.2108 172.03 52.5122C172.006 50.6966 172.03 48.9599 172.139 47.3805C172.214 45.9652 172.647 44.5922 173.398 43.3903C173.903 42.582 174.595 41.9069 175.415 41.4223C175.637 41.2907 175.871 41.1819 176.114 41.0976C176.195 41.0603 176.281 41.0354 176.37 41.0238C176.37 41.0238 176.025 41.1566 175.465 41.5158C174.684 42.016 174.029 42.6894 173.551 43.4838C172.838 44.6781 172.432 46.0305 172.37 47.4199C172.257 48.9845 172.262 50.7163 172.291 52.5318C172.291 53.2206 172.326 53.9045 172.34 54.554L172.198 54.431L180.07 53.324L182.397 53.0238L183.027 52.95C183.092 52.9415 183.158 52.9415 183.224 52.95Z" fill="#263238"/>
<path d="M160.36 46.1653C159.809 45.8444 159.303 45.4524 158.855 44.9992C158.349 44.6091 157.899 44.1523 157.516 43.6413C158.573 44.352 159.529 45.2008 160.36 46.1653Z" fill="#FAFAFA"/>
<path d="M158.899 51.8578C158.513 52.2542 158.066 52.5863 157.575 52.8418C157.125 53.1682 156.627 53.4238 156.099 53.5995C156.934 52.8818 157.875 52.2976 158.889 51.8676L158.899 51.8578Z" fill="#FAFAFA"/>
<path d="M164.936 53.26C164.848 52.5608 164.848 51.8534 164.936 51.1542C164.939 50.4512 165.025 49.7511 165.192 49.0681C165.278 49.7658 165.278 50.4713 165.192 51.169C165.19 51.8737 165.104 52.5757 164.936 53.26Z" fill="#FAFAFA"/>
<path d="M170.805 58.9525C170.316 58.4929 169.859 57.9997 169.438 57.4765C168.954 57.0156 168.502 56.5224 168.085 56.0005C168.675 56.3431 169.197 56.7918 169.625 57.324C170.111 57.7927 170.511 58.3441 170.805 58.9525Z" fill="#FAFAFA"/>
<path d="M171.632 47.0509C171.21 47.4901 170.728 47.8677 170.2 48.1726C169.717 48.5445 169.186 48.8491 168.621 49.0779C169.044 48.6379 169.528 48.2602 170.058 47.9562C170.54 47.5862 171.069 47.2818 171.632 47.0509Z" fill="#FAFAFA"/>
<path d="M166.328 42.7458C165.861 43.2 165.335 43.5889 164.764 43.902C164.24 44.2898 163.668 44.6074 163.061 44.8467C163.529 44.3917 164.055 44.0012 164.626 43.6855C165.152 43.3025 165.724 42.9868 166.328 42.7458Z" fill="#FAFAFA"/>
<path d="M171.11 44.458C170.788 43.9817 170.536 43.4614 170.363 42.9131C170.121 42.3918 169.955 41.8383 169.871 41.2698C170.197 41.7456 170.449 42.2681 170.618 42.8196C170.864 43.338 171.029 43.8903 171.11 44.458Z" fill="#FAFAFA"/>
<path d="M177.689 46.6179C176.902 46.0723 176.219 45.3909 175.671 44.6056C176.088 44.8438 176.459 45.1536 176.769 45.5207C177.139 45.8277 177.451 46.1994 177.689 46.6179Z" fill="#FAFAFA"/>
<path d="M174.978 51.415C174.821 50.929 174.75 50.4197 174.766 49.9094C174.693 49.4056 174.708 48.8928 174.81 48.394C175.037 49.3843 175.093 50.4058 174.978 51.415Z" fill="#FAFAFA"/>
<path d="M180.444 50.4211C179.871 50.5124 179.287 50.4923 178.722 50.3621C178.145 50.3149 177.583 50.1597 177.064 49.9045C177.635 49.9105 178.205 49.9798 178.761 50.1112C179.331 50.1543 179.895 50.2582 180.444 50.4211Z" fill="#FAFAFA"/>
<path d="M158.402 60.3351C158.001 59.7796 157.67 59.1763 157.418 58.5392C157.088 57.938 156.834 57.2985 156.66 56.6352C157.061 57.1907 157.392 57.7939 157.644 58.431C157.975 59.0317 158.229 59.6714 158.402 60.3351Z" fill="#FAFAFA"/>
<path d="M165.63 68.099C165.167 67.6788 164.765 67.197 164.434 66.6672C164.039 66.1839 163.708 65.6514 163.45 65.0829C163.913 65.5035 164.317 65.9851 164.65 66.5147C165.048 66.9957 165.377 67.5287 165.63 68.099Z" fill="#FAFAFA"/>
<path d="M171.602 64.8419C171.096 65.172 170.546 65.4303 169.969 65.6094C169.422 65.8676 168.84 66.0449 168.242 66.1358C169.294 65.5458 170.426 65.1101 171.602 64.8419Z" fill="#FAFAFA"/>
<path d="M156.886 71.1297C157.123 70.2014 157.521 69.322 158.062 68.5319C157.979 69.0083 157.813 69.4663 157.57 69.8849C157.417 70.3368 157.186 70.7582 156.886 71.1297Z" fill="#FAFAFA"/>
<path d="M152.257 48.8959C151.972 48.5355 151.801 48.0989 151.765 47.6413C151.649 47.1978 151.669 46.7297 151.824 46.2981C151.925 46.7249 151.991 47.1593 152.021 47.597C152.134 48.0229 152.213 48.4573 152.257 48.8959Z" fill="#FAFAFA"/>
<path d="M160.478 66.1506C159.953 66.0122 159.454 65.7878 159.002 65.4864C158.512 65.2638 158.06 64.9649 157.664 64.6008C158.188 64.7414 158.687 64.9657 159.14 65.265C159.628 65.4911 160.079 65.7897 160.478 66.1506Z" fill="#FAFAFA"/>
<path d="M165.226 57.9538C164.419 58.92 163.482 59.7695 162.441 60.4777C162.815 59.9685 163.255 59.5117 163.75 59.1198C164.186 58.6657 164.683 58.2734 165.226 57.9538Z" fill="#FAFAFA"/>
<g opacity="0.3">
<path opacity="0.3" d="M162.318 57.8012C162.557 59.5163 163.322 61.1151 164.508 62.3769C165.738 63.5774 167.642 64.1826 169.241 63.5577C169.415 63.5097 169.576 63.4202 169.709 63.2968C169.841 63.1735 169.943 63.0199 170.003 62.8492C170.03 62.6394 169.984 62.4267 169.872 62.2473C169.76 62.0679 169.589 61.9329 169.388 61.8652C168.99 61.7371 168.572 61.6772 168.153 61.6881C166.96 61.6098 165.807 61.2279 164.803 60.5786C163.799 59.9294 162.977 59.0343 162.417 57.9783" fill="black"/>
</g>
<path d="M168.714 61.7668C168.714 61.7668 168.601 61.8062 168.385 61.8259C168.081 61.8566 167.774 61.8566 167.47 61.8259C167.018 61.7728 166.574 61.6671 166.146 61.511C165.091 61.1317 164.155 60.4818 163.43 59.6266C163.136 59.28 162.884 58.9002 162.677 58.495C162.533 58.225 162.419 57.9394 162.338 57.6438C162.298 57.5383 162.277 57.4268 162.274 57.3141C162.323 57.3141 162.456 57.757 162.835 58.4064C163.057 58.7853 163.315 59.1413 163.607 59.4691C163.969 59.8679 164.373 60.2259 164.813 60.5368C165.257 60.8377 165.732 61.0901 166.23 61.2896C166.638 61.4502 167.062 61.5689 167.494 61.6438C168.237 61.7521 168.714 61.7176 168.714 61.7668Z" fill="#263238"/>
<path d="M141.63 69.698L148.754 68.8665L153.777 72.158L172.965 67.5528L173.418 54.4064L181.945 53.2846V69.2011C181.897 71.1333 181.085 72.9679 179.687 74.3024C178.289 75.637 176.418 76.3627 174.486 76.3204L146.363 75.5381L145.167 73.147L139.13 72.9649L141.63 69.698Z" fill="#FFBE9D"/>
<path d="M172.739 67.5282C172.621 67.5753 172.499 67.6132 172.375 67.6414L171.332 67.912L167.479 68.8665L154.746 71.9514L153.561 72.2368H153.511H153.472L148.454 68.9354H148.522L141.393 69.762L141.442 69.7324L139.553 72.1285L139.061 72.7583C139.006 72.8337 138.944 72.903 138.874 72.9649C138.92 72.8846 138.971 72.8074 139.027 72.7337L139.519 72.0842L141.349 69.6537H141.378L148.498 68.7632H148.537H148.567L153.595 72.0498H153.506L154.692 71.7644L167.44 68.7435L171.312 67.853L172.365 67.6217C172.487 67.5808 172.612 67.5496 172.739 67.5282Z" fill="#EB996E"/>
<path d="M145.521 71.7398C144.602 71.8474 143.676 71.8835 142.751 71.8481H142.259L142.328 71.8235C141.772 72.3351 141.171 72.7961 140.532 73.2011C141.04 72.6412 141.592 72.1244 142.185 71.6562L142.215 71.6267H142.761C143.683 71.5888 144.606 71.6266 145.521 71.7398Z" fill="#EB996E"/>
<path d="M176.277 69.6783C175.91 69.0996 175.433 68.5982 174.874 68.2023C174.281 67.8671 173.627 67.653 172.951 67.5725C173.15 67.5035 173.363 67.4866 173.57 67.5233C174.073 67.5764 174.556 67.7447 174.983 68.0153C175.41 68.2858 175.768 68.6512 176.031 69.083C176.163 69.2564 176.248 69.4617 176.277 69.6783Z" fill="#EB996E"/>
<path d="M53.2303 174.781H21.1022V179.194H53.2303V174.781Z" fill="#263238"/>
<path d="M53.2845 179.253H21.0481V174.727H53.2845V179.253ZM21.1563 179.14H53.1762V174.835H21.1563V179.14Z" fill="#263238"/>
<path d="M24.0839 177.728L28.7038 200.543H45.8158L50.2882 179.199L24.0839 177.728Z" fill="#263238"/>
<path d="M24.0839 198.383L26.5488 201.777H47.346L50.2882 198.383H24.0839Z" fill="#455A64"/>
<path d="M35.9608 178.392C35.8968 178.392 35.8181 167.824 35.7788 154.776C35.7394 141.728 35.7788 131.16 35.828 131.16C35.8772 131.16 35.9706 141.728 36.01 154.776C36.0494 167.824 36.0248 178.392 35.9608 178.392Z" fill="#263238"/>
<path d="M43.1197 151.942C43.0982 152.027 43.0686 152.109 43.0311 152.188C42.9573 152.37 42.8589 152.596 42.7457 152.872C42.6818 153.024 42.6129 153.187 42.5342 153.364C42.4554 153.541 42.3964 153.753 42.3226 153.964L42.0717 154.653C41.988 154.899 41.9192 155.145 41.8355 155.44C41.4538 156.732 41.1531 158.047 40.9351 159.376C40.6882 161.007 40.524 162.649 40.4431 164.296C40.327 167.293 40.4124 170.295 40.699 173.28C40.8023 174.432 40.9056 175.357 40.9843 175.996C41.0139 176.296 41.0434 176.542 41.0631 176.734C41.0697 176.821 41.0697 176.908 41.0631 176.995C41.032 176.913 41.0122 176.827 41.004 176.739C40.9696 176.547 40.9302 176.306 40.881 176.011C40.7777 175.371 40.6449 174.446 40.5219 173.3C40.1873 170.308 40.0804 167.295 40.2021 164.286C40.275 162.63 40.4393 160.98 40.6941 159.342C40.9216 158.009 41.2405 156.694 41.6485 155.406C41.7371 155.13 41.8109 154.865 41.8995 154.623L42.1652 153.935L42.4013 153.339C42.48 153.157 42.5588 153 42.6276 152.847L42.9573 152.178C42.9985 152.091 43.0533 152.012 43.1197 151.942Z" fill="#263238"/>
<path d="M42.2979 143.396C42.2707 143.514 42.2361 143.631 42.1945 143.745C42.1109 143.986 41.9977 144.316 41.86 144.729L41.614 145.438C41.5353 145.703 41.4467 145.989 41.3532 146.294C41.1663 146.904 40.9498 147.598 40.7579 148.38L40.4332 149.605C40.3348 150.033 40.2364 150.481 40.133 150.938C39.9067 151.858 39.7443 152.857 39.5377 153.89C39.1835 155.986 38.8735 158.318 38.657 160.754C38.4405 163.189 38.3667 165.546 38.3372 167.676C38.3077 169.807 38.3372 171.726 38.4454 173.335C38.47 174.141 38.5242 174.865 38.5635 175.504C38.6029 176.144 38.6422 176.695 38.6816 177.143C38.721 177.59 38.7407 177.92 38.7603 178.181C38.7669 178.3 38.7669 178.42 38.7603 178.54C38.7287 178.424 38.709 178.305 38.7013 178.186C38.6718 177.925 38.6324 177.585 38.5783 177.152C38.5242 176.72 38.47 176.168 38.4208 175.514C38.3716 174.86 38.3077 174.151 38.2683 173.344C38.1601 171.731 38.1158 169.812 38.1109 167.676C38.106 165.541 38.2093 163.194 38.4159 160.739C38.6226 158.284 38.9522 155.957 39.3163 153.851C39.5279 152.803 39.7001 151.804 39.9313 150.899C40.0396 150.436 40.1478 149.989 40.2462 149.561L40.5857 148.341C40.7874 147.558 41.0186 146.864 41.2204 146.254C41.3188 145.949 41.4123 145.669 41.4959 145.403C41.5795 145.138 41.6779 144.911 41.7616 144.7L42.1355 143.716C42.1774 143.603 42.2319 143.496 42.2979 143.396Z" fill="#263238"/>
<path d="M33.9288 180.262C33.9236 180.221 33.9236 180.18 33.9288 180.139C33.9288 180.045 33.9288 179.927 33.8992 179.775C33.8746 179.44 33.8451 178.973 33.8058 178.378C33.7271 177.143 33.6188 175.391 33.481 173.226C33.2055 168.882 32.8021 162.894 32.069 156.277C31.6951 152.97 31.2621 149.836 30.8094 146.992C30.5733 145.575 30.3568 144.227 30.1059 142.968C29.8549 141.708 29.6139 140.542 29.4171 139.475C29.2203 138.407 28.9693 137.452 28.7774 136.611C28.5856 135.77 28.4134 135.042 28.2854 134.451C28.1575 133.861 28.0345 133.418 27.9509 133.088C27.9214 132.946 27.8918 132.827 27.8722 132.734C27.8646 132.693 27.8646 132.652 27.8722 132.611C27.8924 132.648 27.9073 132.688 27.9164 132.729L28.0148 133.078C28.1083 133.403 28.2313 133.856 28.3937 134.431C28.556 135.007 28.7479 135.735 28.9497 136.582C29.1514 137.428 29.3974 138.377 29.6188 139.445C29.8402 140.513 30.1108 141.674 30.3371 142.933C30.5634 144.193 30.8291 145.541 31.0653 146.963C31.5278 149.807 31.9657 152.946 32.3396 156.247C33.0727 162.86 33.4515 168.867 33.6877 173.216C33.8058 175.396 33.8894 177.152 33.9386 178.373C33.9386 178.968 33.978 179.435 33.9878 179.775C33.9878 179.922 33.9878 180.045 33.9878 180.139C33.9744 180.183 33.9545 180.224 33.9288 180.262Z" fill="#263238"/>
<path d="M35.7001 136.272C35.5574 134.796 34.047 133.644 32.5414 133.629C31.7884 133.663 31.0528 133.867 30.3904 134.227C29.7281 134.586 29.1563 135.092 28.7185 135.706C27.8525 136.941 27.2266 138.328 26.8735 139.794C25.86 143.322 25.3089 147.027 25.7419 150.673C26.1748 154.318 27.6509 157.905 30.2683 160.478C30.6915 160.901 31.2524 161.32 31.828 161.192C32.1395 161.101 32.4224 160.931 32.6497 160.7C35.2115 158.354 37.242 155.488 38.6049 152.293C39.9677 149.098 40.6314 145.648 40.5513 142.176C40.512 140.793 40.3299 139.347 39.5673 138.195C38.8047 137.044 37.0089 135.814 35.705 136.276" fill="#FEBD15"/>
<path d="M24.4676 124.267L22.352 128.104C22.3028 128.193 22.2389 128.296 22.1355 128.301C22.0322 128.306 21.9387 128.208 21.8797 128.114L16.2806 119.543L17.5697 118.81L24.4676 124.267Z" fill="#FEBD15"/>
<g opacity="0.2">
<path opacity="0.2" d="M24.4676 124.267L22.352 128.104C22.3028 128.193 22.2389 128.296 22.1355 128.301C22.0322 128.306 21.9387 128.208 21.8797 128.114L16.2806 119.543L17.5697 118.81L24.4676 124.267Z" fill="black"/>
</g>
<path d="M35.828 131.179L16.7282 119.907C16.6195 119.866 16.5201 119.803 16.4357 119.723C16.3513 119.642 16.2835 119.546 16.2362 119.44C16.1624 119.16 16.374 118.884 16.5757 118.672C17.8899 117.311 19.482 116.248 21.2436 115.556C23.0052 114.864 24.8951 114.559 26.7849 114.663C28.6739 114.798 30.5014 115.392 32.1096 116.393C33.7177 117.393 35.0581 118.77 36.0149 120.404C37.855 123.696 37.919 128.055 35.8034 131.179" fill="#FEBD15"/>
<path d="M19.5032 116.311C19.5848 116.288 19.6694 116.278 19.7541 116.281C19.9165 116.281 20.1625 116.242 20.4774 116.247C21.3641 116.235 22.2502 116.304 23.1244 116.453C24.4267 116.677 25.6961 117.062 26.903 117.6C28.986 118.537 30.8359 119.923 32.3202 121.659C33.8045 123.396 34.8864 125.438 35.4885 127.642C35.735 128.497 35.8997 129.373 35.9805 130.259C36.0199 130.569 36.01 130.815 36.0199 130.982C36.0284 131.066 36.0284 131.15 36.0199 131.233C36.0199 131.233 35.9756 130.889 35.8969 130.249C35.7879 129.375 35.6086 128.512 35.3606 127.666C34.5596 124.862 32.9886 122.338 30.8257 120.381C28.6629 118.424 25.9948 117.113 23.1244 116.596C22.2593 116.432 21.3822 116.338 20.5019 116.316C19.8279 116.321 19.5032 116.33 19.5032 116.311Z" fill="#263238"/>
<path d="M33.2401 123.401C32.9322 123.588 32.6015 123.735 32.2561 123.839C31.646 124.08 30.7801 124.385 29.8453 124.69C28.9104 124.995 28.0248 125.231 27.3852 125.388C27.0458 125.492 26.696 125.558 26.3422 125.585C26.6569 125.433 26.9867 125.314 27.3262 125.231L29.7567 124.468L32.1823 123.686C32.5246 123.556 32.8789 123.461 33.2401 123.401Z" fill="#263238"/>
<path d="M30.2339 115.322C30.4049 116.019 30.481 116.735 30.4603 117.452C30.5164 118.168 30.4767 118.888 30.3422 119.592C30.25 118.885 30.2138 118.171 30.2339 117.457C30.1777 116.747 30.1777 116.033 30.2339 115.322Z" fill="#263238"/>
<path d="M16.551 119.696C16.9979 119.491 17.4622 119.326 17.9385 119.204C18.8044 118.933 20.0148 118.594 21.3825 118.269C22.7503 117.944 23.9607 117.698 24.8266 117.541C25.3119 117.432 25.8058 117.367 26.3026 117.344C25.8355 117.494 25.3589 117.613 24.8758 117.698C23.9902 117.895 22.77 118.19 21.4317 118.495C20.0935 118.8 18.8782 119.13 17.9877 119.356C17.5168 119.501 17.0369 119.615 16.551 119.696Z" fill="#263238"/>
<path d="M27.0211 132.719C25.3778 131.474 23.641 131.243 21.5795 131.307C19.5176 131.439 17.4985 131.954 15.6262 132.828C12.4035 134.235 9.37769 136.316 7.45394 139.258C5.53019 142.2 4.85614 146.097 6.29772 149.305C6.41115 149.64 6.64408 149.922 6.95209 150.097C7.30992 150.197 7.69144 150.167 8.02959 150.013C11.695 148.818 15.3802 147.612 18.7504 145.743C22.1207 143.873 25.1859 141.27 26.9916 137.871C27.454 137.077 27.7518 136.199 27.8673 135.288C27.9166 134.827 27.8671 134.36 27.722 133.92C27.5769 133.48 27.3396 133.075 27.026 132.734" fill="#FEBD15"/>
<path d="M27.0506 132.336C26.9685 132.382 26.8809 132.419 26.7898 132.444L26.0223 132.709L25.4663 132.891C25.2646 132.965 25.0481 133.054 24.8169 133.147C24.3544 133.334 23.8329 133.521 23.2474 133.797L22.3519 134.205C22.0371 134.348 21.7271 134.525 21.3974 134.697C20.7332 135.022 20.0641 135.44 19.3458 135.863C16.2776 137.765 13.5474 140.165 11.267 142.963C10.775 143.617 10.2584 144.232 9.85002 144.852C9.63845 145.157 9.42689 145.443 9.23993 145.733L8.74792 146.569C8.40352 147.096 8.14767 147.607 7.90167 148.045C7.78359 148.262 7.6655 148.464 7.5671 148.655C7.4687 148.847 7.38998 149.019 7.31618 149.182L6.95209 149.91C6.9178 149.998 6.87144 150.081 6.81433 150.156C6.8383 150.064 6.87126 149.975 6.91273 149.89L7.23254 149.142C7.30634 148.98 7.38506 148.803 7.4687 148.606C7.55234 148.409 7.67535 148.208 7.78851 147.986C8.02467 147.539 8.28051 147.002 8.60524 146.486C8.77252 146.215 8.9398 145.93 9.09725 145.634C9.25469 145.339 9.49085 145.054 9.6975 144.744C10.1009 144.114 10.5979 143.494 11.1046 142.83C12.2513 141.42 13.5083 140.104 14.8636 138.894C16.234 137.704 17.6984 136.626 19.2424 135.671C19.9657 135.248 20.6447 134.835 21.3138 134.515C21.6484 134.348 21.9633 134.176 22.2978 134.023L23.208 133.629C23.7837 133.359 24.3249 133.182 24.7972 133.005C25.0334 132.921 25.2499 132.837 25.4565 132.768L26.0174 132.601L26.7997 132.38C26.8821 132.359 26.966 132.344 27.0506 132.336Z" fill="#263238"/>
<path d="M14.2189 139.283C12.9108 139.781 11.5772 140.21 10.2238 140.567C8.89069 141 7.53379 141.357 6.15979 141.634C7.46787 141.136 8.80145 140.707 10.1549 140.35C11.4888 139.92 12.8455 139.563 14.2189 139.283Z" fill="#263238"/>
<path d="M14.0517 148.08C13.9846 147.668 13.9549 147.252 13.9631 146.835C13.9631 146.067 13.9631 145 13.9631 143.829C13.9631 142.658 14.0615 141.59 14.1255 140.823C14.1355 140.405 14.1882 139.99 14.2829 139.583C14.316 139.999 14.316 140.417 14.2829 140.832C14.2534 141.674 14.2239 142.697 14.1894 143.834C14.155 144.97 14.1353 145.994 14.1107 146.835C14.1291 147.251 14.1094 147.667 14.0517 148.08Z" fill="#263238"/>
<path d="M21.609 144.252C21.5451 144.252 21.3434 142.092 21.1613 139.42C20.9793 136.749 20.876 134.579 20.9399 134.579C21.0039 134.579 21.2007 136.734 21.3876 139.406C21.5746 142.077 21.673 144.247 21.609 144.252Z" fill="#263238"/>
<path d="M12.2067 134.367C12.6309 134.314 13.0592 134.301 13.4859 134.328C14.2731 134.328 15.3654 134.358 16.5708 134.397C17.7762 134.436 18.8635 134.486 19.6507 134.53C20.0782 134.535 20.5044 134.577 20.925 134.653C20.5008 134.706 20.0725 134.72 19.6458 134.692C18.8586 134.692 17.7664 134.668 16.5609 134.623C15.3555 134.579 14.2682 134.535 13.476 134.49C13.0502 134.486 12.6255 134.444 12.2067 134.367Z" fill="#263238"/>
<path d="M31.0899 161.502C31.0681 161.415 31.0581 161.326 31.0604 161.236C31.0604 161.044 31.0604 160.793 31.026 160.488C30.9965 159.834 30.9915 158.894 31.026 157.723C31.0604 156.552 31.1244 155.17 31.2621 153.635C31.3999 152.099 31.6262 150.412 31.9362 148.655C32.2462 146.899 32.6299 145.251 33.0186 143.735C33.4073 142.22 33.8304 140.916 34.2142 139.799C34.5979 138.682 34.9227 137.831 35.1982 137.211C35.3163 136.926 35.4098 136.719 35.4885 136.518C35.5187 136.435 35.5565 136.356 35.6016 136.281C35.5909 136.368 35.5659 136.453 35.5278 136.532L35.2474 137.256C35.0211 137.866 34.7111 138.732 34.3519 139.863C33.9928 140.995 33.5992 142.323 33.2105 143.799C32.8218 145.275 32.4577 146.938 32.1428 148.69C31.8279 150.441 31.6164 152.134 31.4589 153.644C31.3015 155.155 31.2129 156.557 31.1736 157.718C31.1342 158.879 31.1096 159.824 31.1096 160.478C31.1096 160.783 31.1096 161.029 31.1096 161.226C31.1095 161.318 31.1029 161.41 31.0899 161.502Z" fill="#263238"/>
<path d="M32.0937 148.468C31.8704 148.774 31.6147 149.054 31.3311 149.305C30.8391 149.797 30.1356 150.456 29.3385 151.16C28.5415 151.863 27.7887 152.468 27.2327 152.897C26.9483 153.144 26.6382 153.36 26.3077 153.541C26.5581 153.258 26.8349 152.999 27.1343 152.769L29.186 150.988L31.2229 149.187C31.4897 148.92 31.7813 148.68 32.0937 148.468Z" fill="#263238"/>
<path d="M38.1404 153.334C37.8411 152.982 37.5697 152.607 37.3286 152.213L35.4442 149.457L33.5155 146.732C33.2294 146.368 32.9712 145.983 32.743 145.58C33.076 145.902 33.3775 146.254 33.6434 146.633C34.1748 147.307 34.8833 148.252 35.6114 149.329C36.3396 150.407 36.9989 151.396 37.4466 152.124C37.7152 152.505 37.9475 152.91 38.1404 153.334Z" fill="#263238"/>
<path d="M34.9719 138.018C35.0063 138.072 33.0039 139.425 30.4897 141.039C27.9755 142.653 25.914 143.922 25.8796 143.868C25.8451 143.814 27.8476 142.461 30.3667 140.847C32.8858 139.233 34.9424 137.969 34.9719 138.018Z" fill="#263238"/>
<path d="M40.6594 144.144C39.5992 143.261 38.5859 142.323 37.6237 141.334C36.6106 140.404 35.6497 139.419 34.7455 138.382C35.8095 139.263 36.8246 140.2 37.7861 141.192C38.7998 142.12 39.7592 143.105 40.6594 144.144Z" fill="#263238"/>
<path d="M42.0619 144.011L43.7839 143.868C45.0085 143.768 46.1969 143.404 47.2673 142.801C47.7912 142.495 48.3335 142.222 48.891 141.984C51.0213 141.133 53.4027 141.285 55.6954 141.167C59.452 140.978 63.1325 140.038 66.5196 138.402C66.723 138.312 66.8945 138.163 67.0116 137.974C67.3658 137.329 66.7066 136.754 66.1407 136.404C63.233 134.613 60.276 132.803 56.9845 131.912C53.6929 131.022 49.9488 131.174 47.1443 133.108C43.8479 135.381 42.6425 140.045 42.0865 144.011" fill="#FEBD15"/>
<path d="M67.0263 137.748C66.9272 137.707 66.8303 137.661 66.736 137.61L65.9193 137.182C65.2108 136.808 64.1924 136.257 62.8984 135.642C61.3997 134.902 59.8369 134.299 58.2292 133.841C56.2632 133.276 54.2041 133.108 52.1726 133.349C50.1382 133.575 48.2168 134.401 46.6523 135.721C45.4302 136.856 44.4525 138.229 43.7789 139.755C43.1738 141.049 42.7949 142.151 42.5292 142.899L42.2193 143.77C42.1888 143.873 42.1493 143.973 42.1012 144.07C42.1154 143.963 42.1401 143.857 42.175 143.755C42.2439 143.534 42.3324 143.238 42.4407 142.874C42.769 141.799 43.16 140.745 43.6117 139.716C44.2746 138.154 45.2567 136.748 46.4948 135.588C48.0814 134.221 50.0427 133.364 52.1234 133.128C54.1824 132.879 56.2705 133.046 58.2637 133.62C59.8804 134.094 61.45 134.717 62.9525 135.479C64.2366 136.119 65.2452 136.69 65.9439 137.088L66.7409 137.556C66.8438 137.607 66.9396 137.672 67.0263 137.748Z" fill="#263238"/>
<path d="M62.8885 139.986C62.8541 140.035 60.5957 138.579 57.8503 136.729C55.1049 134.879 52.9057 133.334 52.9303 133.285C52.9549 133.236 55.2181 134.692 57.9635 136.542C60.7089 138.392 62.9229 139.932 62.8885 139.986Z" fill="#263238"/>
<path d="M60.7236 133.064C59.5747 133.425 58.3621 133.537 57.1664 133.393C57.7511 133.272 58.3455 133.203 58.9425 133.187C59.5316 133.094 60.1275 133.053 60.7236 133.064Z" fill="#263238"/>
<path d="M50.6128 131.253C50.1825 132.271 49.6183 133.228 48.9351 134.097C49.1112 133.573 49.3596 133.076 49.6731 132.621C49.9198 132.123 50.2363 131.662 50.6128 131.253Z" fill="#263238"/>
<path d="M52.6301 141.315C52.2497 141.156 51.8869 140.958 51.5477 140.724C50.8933 140.331 50.0126 139.74 49.0876 139.066C48.1627 138.392 47.3213 137.738 46.7211 137.265C46.3851 137.028 46.0721 136.759 45.7863 136.463C46.1518 136.654 46.4979 136.88 46.8195 137.138L49.2254 138.884C50.1602 139.563 51.0212 140.158 51.651 140.591C51.9978 140.803 52.3254 141.045 52.6301 141.315Z" fill="#263238"/>
<path d="M44.5957 151.337C42.9524 150.899 40.9893 152.498 40.6597 154.166C40.33 155.834 40.95 157.536 41.6781 159.086C43.2451 162.527 45.5695 165.57 48.4777 167.986C51.411 170.392 55.071 171.736 58.864 171.799C58.1702 168.572 59.046 165.197 58.6622 161.915C58.3194 159.025 57.0062 156.336 54.9373 154.288C52.8684 152.241 50.1662 150.956 47.2723 150.643C46.2243 150.53 45.009 150.368 44.5908 151.337" fill="#FEBD15"/>
<path d="M58.8638 171.799C58.7814 171.772 58.7022 171.736 58.6277 171.691C58.4122 171.57 58.2066 171.431 58.0126 171.278C57.3236 170.678 56.7701 169.938 56.389 169.108C56.1283 168.616 55.833 168.045 55.5477 167.43C55.2623 166.815 54.977 166.166 54.6621 165.462C54.3465 164.742 53.9832 164.043 53.5747 163.371C53.1366 162.655 52.6431 161.974 52.0987 161.334C50.9769 160.016 49.7666 158.874 48.7186 157.777C47.7711 156.822 46.9085 155.787 46.1405 154.683C45.626 153.934 45.2031 153.126 44.881 152.277C44.7776 151.976 44.6989 151.735 44.6596 151.573C44.6323 151.492 44.6158 151.408 44.6104 151.322C44.6104 151.322 44.7235 151.657 44.9646 152.247C45.3155 153.074 45.7542 153.861 46.2733 154.594C47.056 155.674 47.9248 156.689 48.8711 157.63C49.924 158.712 51.1393 159.854 52.2758 161.187C52.8328 161.835 53.3379 162.526 53.7863 163.253C54.1931 163.936 54.5563 164.645 54.8736 165.374L55.7396 167.342C56.0151 167.952 56.3005 168.513 56.5563 169.02C56.9154 169.842 57.4376 170.584 58.0914 171.199C58.5637 171.622 58.8884 171.78 58.8638 171.799Z" fill="#263238"/>
<path d="M50.3669 169.118C50.3768 168.745 50.428 168.373 50.5195 168.011C50.6474 167.332 50.859 166.402 51.1443 165.389C51.4297 164.375 51.7347 163.475 51.9807 162.83C52.0884 162.472 52.2388 162.129 52.4285 161.807C52.362 162.172 52.2632 162.531 52.1333 162.879C51.9266 163.539 51.6412 164.444 51.3657 165.453C51.0902 166.461 50.8737 167.376 50.6769 168.045C50.6091 168.412 50.5053 168.772 50.3669 169.118Z" fill="#263238"/>
<path d="M58.5637 161.192C58.1698 161.134 57.7814 161.043 57.4026 160.921C56.6941 160.739 55.715 160.483 54.6277 160.237C53.5403 159.991 52.5465 159.804 51.8281 159.667C51.4342 159.616 51.0456 159.53 50.667 159.411C51.0646 159.401 51.4622 159.434 51.8527 159.509C52.5809 159.603 53.5846 159.77 54.6769 160.001C55.7691 160.232 56.7482 160.528 57.4469 160.754C57.8333 160.861 58.2076 161.008 58.5637 161.192Z" fill="#263238"/>
<path d="M44.2659 163.494C44.2844 163.062 44.3437 162.632 44.443 162.21C44.5906 161.428 44.8169 160.346 45.1269 159.17C45.4368 157.994 45.7616 156.936 46.0174 156.178C46.1437 155.762 46.3084 155.358 46.5094 154.973C46.438 155.399 46.3327 155.818 46.1945 156.227C45.9781 156.995 45.673 158.053 45.368 159.224C45.0629 160.395 44.8071 161.472 44.625 162.245C44.5411 162.671 44.421 163.089 44.2659 163.494Z" fill="#263238"/>
<path d="M54.79 154.284C54.79 154.343 52.7285 154.181 50.2045 153.91C47.6805 153.639 45.6337 153.374 45.6436 153.315C47.1774 153.359 48.708 153.482 50.2291 153.684C51.7586 153.806 53.2809 154.006 54.79 154.284Z" fill="#263238"/>
<path d="M53.2845 179.18C53.2845 179.244 46.0667 179.293 37.1663 179.293C28.2658 179.293 21.0481 179.244 21.0481 179.18C21.0481 179.116 28.2658 179.066 37.1663 179.066C46.0667 179.066 53.2845 179.116 53.2845 179.18Z" fill="#455A64"/>
<path d="M48.266 188.464C48.266 188.528 43.4 188.582 37.4024 188.582C31.4049 188.582 26.5438 188.528 26.5438 188.464C26.5438 188.4 31.4049 188.351 37.4024 188.351C43.4 188.351 48.266 188.424 48.266 188.464Z" fill="#455A64"/>
<path d="M48.4529 189.792C48.4529 189.856 43.5919 189.905 37.5943 189.905C31.5968 189.905 26.7357 189.856 26.7357 189.792C26.7357 189.728 31.5968 189.679 37.5943 189.679C43.5919 189.679 48.4529 189.728 48.4529 189.792Z" fill="#455A64"/>
<path d="M48.453 187.371C48.453 187.435 43.4247 187.485 37.2205 187.485C31.0162 187.485 25.9879 187.435 25.9879 187.371C25.9879 187.308 31.0162 187.258 37.2205 187.258C43.4247 187.258 48.453 187.308 48.453 187.371Z" fill="#455A64"/>
</svg>
