<svg width="303" height="289" viewBox="0 0 303 289" fill="none" xmlns="http://www.w3.org/2000/svg">
<g style="mix-blend-mode:multiply" opacity="0.33">
<g style="mix-blend-mode:multiply" opacity="0.33">
<path d="M288.953 107.538H97.5828C91.205 107.538 86.0347 112.708 86.0347 119.086V133.503C86.0347 139.881 91.205 145.051 97.5828 145.051H288.953C295.33 145.051 300.501 139.881 300.501 133.503V119.086C300.501 112.708 295.33 107.538 288.953 107.538Z" fill="#4E4E4E"/>
<path d="M288.953 107.538H97.5828C91.205 107.538 86.0347 112.708 86.0347 119.086V133.503C86.0347 139.881 91.205 145.051 97.5828 145.051H288.953C295.33 145.051 300.501 139.881 300.501 133.503V119.086C300.501 112.708 295.33 107.538 288.953 107.538Z" stroke="black" stroke-linecap="round" stroke-linejoin="round"/>
</g>
<g style="mix-blend-mode:multiply" opacity="0.33">
<path d="M288.953 107.538H97.5828C91.205 107.538 86.0347 112.708 86.0347 119.086V133.503C86.0347 139.881 91.205 145.051 97.5828 145.051H288.953C295.33 145.051 300.501 139.881 300.501 133.503V119.086C300.501 112.708 295.33 107.538 288.953 107.538Z" fill="#4E4E4E"/>
</g>
<g style="mix-blend-mode:multiply" opacity="0.17">
<path d="M97.583 107.538H288.953C292.016 107.538 294.953 108.755 297.119 110.92C299.284 113.086 300.501 116.023 300.501 119.086V135.945C300.501 137.815 299.758 139.609 298.435 140.931C297.113 142.254 295.319 142.997 293.449 142.997H93.0875C91.2172 142.997 89.4235 142.254 88.1011 140.931C86.7786 139.609 86.0356 137.815 86.0356 135.945V119.086C86.0356 116.023 87.2523 113.086 89.418 110.92C91.5837 108.755 94.5211 107.538 97.5838 107.538H97.583Z" fill="#4E4E4E"/>
</g>
<g style="mix-blend-mode:multiply" opacity="0.33">
<path d="M288.953 107.538H97.5828C91.205 107.538 86.0347 112.708 86.0347 119.086V133.503C86.0347 139.881 91.205 145.051 97.5828 145.051H288.953C295.33 145.051 300.501 139.881 300.501 133.503V119.086C300.501 112.708 295.33 107.538 288.953 107.538Z" fill="#4E4E4E"/>
<path d="M288.953 107.538H97.5828C91.205 107.538 86.0347 112.708 86.0347 119.086V133.503C86.0347 139.881 91.205 145.051 97.5828 145.051H288.953C295.33 145.051 300.501 139.881 300.501 133.503V119.086C300.501 112.708 295.33 107.538 288.953 107.538Z" stroke="#46505C" stroke-width="4" stroke-linecap="round" stroke-linejoin="round"/>
</g>
<g style="mix-blend-mode:multiply" opacity="0.33">
<path d="M285.653 140.586V111.765L100.882 111.765V140.586H285.653Z" fill="#4E4E4E"/>
</g>
<g style="mix-blend-mode:multiply" opacity="0.33">
<path d="M285.653 140.586V111.765L100.882 111.765V140.586H285.653Z" fill="#4E4E4E"/>
<path d="M285.653 140.586V111.765L100.882 111.765V140.586H285.653Z" stroke="#46505C" stroke-linecap="round" stroke-linejoin="round"/>
</g>
<g style="mix-blend-mode:multiply" opacity="0.33">
<path d="M288.953 145.051H97.5836C91.2057 145.051 86.0354 150.222 86.0354 156.599V275.381C86.0354 281.759 91.2057 286.929 97.5836 286.929H288.953C295.331 286.929 300.501 281.759 300.501 275.381V156.599C300.501 150.222 295.331 145.051 288.953 145.051Z" fill="#4E4E4E"/>
</g>
<g style="mix-blend-mode:multiply" opacity="0.33">
<path d="M297.202 275.381V156.599C297.202 152.044 293.509 148.351 288.953 148.351H97.5837C93.0281 148.351 89.335 152.044 89.335 156.599V275.381C89.335 279.936 93.0281 283.629 97.5837 283.629H288.953C293.509 283.629 297.202 279.936 297.202 275.381Z" fill="#4E4E4E"/>
<path d="M297.202 275.381V156.599C297.202 152.044 293.509 148.351 288.953 148.351H97.5837C93.0281 148.351 89.335 152.044 89.335 156.599V275.381C89.335 279.936 93.0281 283.629 97.5837 283.629H288.953C293.509 283.629 297.202 279.936 297.202 275.381Z" stroke="#E6F3FF" stroke-width="2" stroke-miterlimit="10"/>
</g>
<g style="mix-blend-mode:multiply" opacity="0.33">
<path d="M180.028 280.476H206.507C207.382 280.476 208.221 280.824 208.84 281.442C209.459 282.061 209.806 282.9 209.806 283.775V286.926H176.729V283.775C176.729 282.9 177.077 282.061 177.695 281.442C178.314 280.824 179.153 280.476 180.028 280.476Z" fill="#4E4E4E"/>
</g>
<g style="mix-blend-mode:multiply" opacity="0.33">
<path d="M288.953 145.051H97.5836C91.2057 145.051 86.0354 150.222 86.0354 156.599V275.381C86.0354 281.759 91.2057 286.929 97.5836 286.929H288.953C295.331 286.929 300.501 281.759 300.501 275.381V156.599C300.501 150.222 295.331 145.051 288.953 145.051Z" fill="#4E4E4E"/>
<path d="M288.953 145.051H97.5836C91.2057 145.051 86.0354 150.222 86.0354 156.599V275.381C86.0354 281.759 91.2057 286.929 97.5836 286.929H288.953C295.331 286.929 300.501 281.759 300.501 275.381V156.599C300.501 150.222 295.331 145.051 288.953 145.051Z" stroke="#46505C" stroke-width="4" stroke-linecap="round" stroke-linejoin="round"/>
</g>
<g style="mix-blend-mode:multiply" opacity="0.33">
<path d="M285.653 156.121H100.882C99.5156 156.121 98.4077 157.229 98.4077 158.596V229.534C98.4077 230.901 99.5156 232.009 100.882 232.009H285.653C287.02 232.009 288.128 230.901 288.128 229.534V158.596C288.128 157.229 287.02 156.121 285.653 156.121Z" fill="#4E4E4E"/>
</g>
<g style="mix-blend-mode:multiply" opacity="0.33">
<path d="M134.772 213.45H124.874C124.418 213.45 124.049 213.819 124.049 214.274V224.173C124.049 224.628 124.418 224.998 124.874 224.998H134.772C135.228 224.998 135.597 224.628 135.597 224.173V214.274C135.597 213.819 135.228 213.45 134.772 213.45Z" fill="#4E4E4E"/>
<path d="M134.772 213.45H124.874C124.418 213.45 124.049 213.819 124.049 214.274V224.173C124.049 224.628 124.418 224.998 124.874 224.998H134.772C135.228 224.998 135.597 224.628 135.597 224.173V214.274C135.597 213.819 135.228 213.45 134.772 213.45Z" stroke="#626C84" stroke-linecap="round" stroke-linejoin="round"/>
</g>
<g style="mix-blend-mode:multiply" opacity="0.33">
<path d="M116.923 213.45H107.024C106.569 213.45 106.199 213.819 106.199 214.274V224.173C106.199 224.628 106.569 224.998 107.024 224.998H116.923C117.378 224.998 117.748 224.628 117.748 224.173V214.274C117.748 213.819 117.378 213.45 116.923 213.45Z" fill="#4E4E4E"/>
<path d="M116.923 213.45H107.024C106.569 213.45 106.199 213.819 106.199 214.274V224.173C106.199 224.628 106.569 224.998 107.024 224.998H116.923C117.378 224.998 117.748 224.628 117.748 224.173V214.274C117.748 213.819 117.378 213.45 116.923 213.45Z" stroke="#626C84" stroke-linecap="round" stroke-linejoin="round"/>
</g>
<g style="mix-blend-mode:multiply" opacity="0.33">
<path d="M224.016 213.45H142.722C142.267 213.45 141.897 213.819 141.897 214.274V224.173C141.897 224.628 142.267 224.998 142.722 224.998H224.016C224.472 224.998 224.841 224.628 224.841 224.173V214.274C224.841 213.819 224.472 213.45 224.016 213.45Z" fill="#4E4E4E"/>
<path d="M224.016 213.45H142.722C142.267 213.45 141.897 213.819 141.897 214.274V224.173C141.897 224.628 142.267 224.998 142.722 224.998H224.016C224.472 224.998 224.841 224.628 224.841 224.173V214.274C224.841 213.819 224.472 213.45 224.016 213.45Z" stroke="#626C84" stroke-linecap="round" stroke-linejoin="round"/>
</g>
<g style="mix-blend-mode:multiply" opacity="0.33">
<path d="M241.866 213.45H231.967C231.512 213.45 231.142 213.819 231.142 214.274V224.173C231.142 224.628 231.512 224.998 231.967 224.998H241.866C242.321 224.998 242.691 224.628 242.691 224.173V214.274C242.691 213.819 242.321 213.45 241.866 213.45Z" fill="#4E4E4E"/>
<path d="M241.866 213.45H231.967C231.512 213.45 231.142 213.819 231.142 214.274V224.173C231.142 224.628 231.512 224.998 231.967 224.998H241.866C242.321 224.998 242.691 224.628 242.691 224.173V214.274C242.691 213.819 242.321 213.45 241.866 213.45Z" stroke="#626C84" stroke-linecap="round" stroke-linejoin="round"/>
</g>
<g style="mix-blend-mode:multiply" opacity="0.33">
<path d="M267.964 219.945H261.365C260.909 219.945 260.54 220.315 260.54 220.77V224.173C260.54 224.628 260.909 224.998 261.365 224.998H267.964C268.419 224.998 268.788 224.628 268.788 224.173V220.77C268.788 220.315 268.419 219.945 267.964 219.945Z" fill="#4E4E4E"/>
<path d="M267.964 219.945H261.365C260.909 219.945 260.54 220.315 260.54 220.77V224.173C260.54 224.628 260.909 224.998 261.365 224.998H267.964C268.419 224.998 268.788 224.628 268.788 224.173V220.77C268.788 220.315 268.419 219.945 267.964 219.945Z" stroke="#626C84" stroke-linecap="round" stroke-linejoin="round"/>
</g>
<g style="mix-blend-mode:multiply" opacity="0.33">
<path d="M267.964 213.45H261.365C260.909 213.45 260.54 213.819 260.54 214.274V217.677C260.54 218.133 260.909 218.502 261.365 218.502H267.964C268.419 218.502 268.788 218.133 268.788 217.677V214.274C268.788 213.819 268.419 213.45 267.964 213.45Z" fill="#4E4E4E"/>
<path d="M267.964 213.45H261.365C260.909 213.45 260.54 213.819 260.54 214.274V217.677C260.54 218.133 260.909 218.502 261.365 218.502H267.964C268.419 218.502 268.788 218.133 268.788 217.677V214.274C268.788 213.819 268.419 213.45 267.964 213.45Z" stroke="#626C84" stroke-linecap="round" stroke-linejoin="round"/>
</g>
<g style="mix-blend-mode:multiply" opacity="0.33">
<path d="M279.512 219.945H272.913C272.457 219.945 272.088 220.315 272.088 220.77V224.173C272.088 224.628 272.457 224.998 272.913 224.998H279.512C279.968 224.998 280.337 224.628 280.337 224.173V220.77C280.337 220.315 279.968 219.945 279.512 219.945Z" fill="#4E4E4E"/>
<path d="M279.512 219.945H272.913C272.457 219.945 272.088 220.315 272.088 220.77V224.173C272.088 224.628 272.457 224.998 272.913 224.998H279.512C279.968 224.998 280.337 224.628 280.337 224.173V220.77C280.337 220.315 279.968 219.945 279.512 219.945Z" stroke="#626C84" stroke-linecap="round" stroke-linejoin="round"/>
</g>
<g style="mix-blend-mode:multiply" opacity="0.33">
<path d="M256.416 219.945H249.817C249.361 219.945 248.992 220.315 248.992 220.77V224.173C248.992 224.628 249.361 224.998 249.817 224.998H256.416C256.871 224.998 257.24 224.628 257.24 224.173V220.77C257.24 220.315 256.871 219.945 256.416 219.945Z" fill="#4E4E4E"/>
<path d="M256.416 219.945H249.817C249.361 219.945 248.992 220.315 248.992 220.77V224.173C248.992 224.628 249.361 224.998 249.817 224.998H256.416C256.871 224.998 257.24 224.628 257.24 224.173V220.77C257.24 220.315 256.871 219.945 256.416 219.945Z" stroke="#626C84" stroke-linecap="round" stroke-linejoin="round"/>
</g>
<g style="mix-blend-mode:multiply" opacity="0.33">
<path d="M133.122 197.018H107.024C106.569 197.018 106.199 197.387 106.199 197.843V207.741C106.199 208.197 106.569 208.566 107.024 208.566H133.122C133.578 208.566 133.947 208.197 133.947 207.741V197.843C133.947 197.387 133.578 197.018 133.122 197.018Z" fill="#4E4E4E"/>
<path d="M133.122 197.018H107.024C106.569 197.018 106.199 197.387 106.199 197.843V207.741C106.199 208.197 106.569 208.566 107.024 208.566H133.122C133.578 208.566 133.947 208.197 133.947 207.741V197.843C133.947 197.387 133.578 197.018 133.122 197.018Z" stroke="#626C84" stroke-linecap="round" stroke-linejoin="round"/>
</g>
<g style="mix-blend-mode:multiply" opacity="0.33">
<path d="M151.12 197.018H141.222C140.766 197.018 140.397 197.387 140.397 197.843V207.741C140.397 208.197 140.766 208.566 141.222 208.566H151.12C151.576 208.566 151.945 208.197 151.945 207.741V197.843C151.945 197.387 151.576 197.018 151.12 197.018Z" fill="#4E4E4E"/>
<path d="M151.12 197.018H141.222C140.766 197.018 140.397 197.387 140.397 197.843V207.741C140.397 208.197 140.766 208.566 141.222 208.566H151.12C151.576 208.566 151.945 208.197 151.945 207.741V197.843C151.945 197.387 151.576 197.018 151.12 197.018Z" stroke="#626C84" stroke-linecap="round" stroke-linejoin="round"/>
</g>
<g style="mix-blend-mode:multiply" opacity="0.33">
<path d="M168.969 197.018H159.071C158.615 197.018 158.246 197.387 158.246 197.843V207.741C158.246 208.197 158.615 208.566 159.071 208.566H168.969C169.425 208.566 169.794 208.197 169.794 207.741V197.843C169.794 197.387 169.425 197.018 168.969 197.018Z" fill="#4E4E4E"/>
<path d="M168.969 197.018H159.071C158.615 197.018 158.246 197.387 158.246 197.843V207.741C158.246 208.197 158.615 208.566 159.071 208.566H168.969C169.425 208.566 169.794 208.197 169.794 207.741V197.843C169.794 197.387 169.425 197.018 168.969 197.018Z" stroke="#626C84" stroke-linecap="round" stroke-linejoin="round"/>
</g>
<g style="mix-blend-mode:multiply" opacity="0.33">
<path d="M186.818 197.018H176.92C176.464 197.018 176.095 197.387 176.095 197.843V207.741C176.095 208.197 176.464 208.566 176.92 208.566H186.818C187.274 208.566 187.643 208.197 187.643 207.741V197.843C187.643 197.387 187.274 197.018 186.818 197.018Z" fill="#4E4E4E"/>
<path d="M186.818 197.018H176.92C176.464 197.018 176.095 197.387 176.095 197.843V207.741C176.095 208.197 176.464 208.566 176.92 208.566H186.818C187.274 208.566 187.643 208.197 187.643 207.741V197.843C187.643 197.387 187.274 197.018 186.818 197.018Z" stroke="#626C84" stroke-linecap="round" stroke-linejoin="round"/>
</g>
<g style="mix-blend-mode:multiply" opacity="0.33">
<path d="M204.667 197.018H194.769C194.313 197.018 193.944 197.387 193.944 197.843V207.741C193.944 208.197 194.313 208.566 194.769 208.566H204.667C205.123 208.566 205.492 208.197 205.492 207.741V197.843C205.492 197.387 205.123 197.018 204.667 197.018Z" fill="#4E4E4E"/>
<path d="M204.667 197.018H194.769C194.313 197.018 193.944 197.387 193.944 197.843V207.741C193.944 208.197 194.313 208.566 194.769 208.566H204.667C205.123 208.566 205.492 208.197 205.492 207.741V197.843C205.492 197.387 205.123 197.018 204.667 197.018Z" stroke="#626C84" stroke-linecap="round" stroke-linejoin="round"/>
</g>
<g style="mix-blend-mode:multiply" opacity="0.33">
<path d="M222.516 197.018H212.617C212.162 197.018 211.792 197.387 211.792 197.843V207.741C211.792 208.197 212.162 208.566 212.617 208.566H222.516C222.971 208.566 223.341 208.197 223.341 207.741V197.843C223.341 197.387 222.971 197.018 222.516 197.018Z" fill="#4E4E4E"/>
<path d="M222.516 197.018H212.617C212.162 197.018 211.792 197.387 211.792 197.843V207.741C211.792 208.197 212.162 208.566 212.617 208.566H222.516C222.971 208.566 223.341 208.197 223.341 207.741V197.843C223.341 197.387 222.971 197.018 222.516 197.018Z" stroke="#626C84" stroke-linecap="round" stroke-linejoin="round"/>
</g>
<g style="mix-blend-mode:multiply" opacity="0.33">
<path d="M240.365 197.018H230.467C230.011 197.018 229.642 197.387 229.642 197.843V207.741C229.642 208.197 230.011 208.566 230.467 208.566H240.365C240.821 208.566 241.19 208.197 241.19 207.741V197.843C241.19 197.387 240.821 197.018 240.365 197.018Z" fill="#4E4E4E"/>
<path d="M240.365 197.018H230.467C230.011 197.018 229.642 197.387 229.642 197.843V207.741C229.642 208.197 230.011 208.566 230.467 208.566H240.365C240.821 208.566 241.19 208.197 241.19 207.741V197.843C241.19 197.387 240.821 197.018 240.365 197.018Z" stroke="#626C84" stroke-linecap="round" stroke-linejoin="round"/>
</g>
<g style="mix-blend-mode:multiply" opacity="0.33">
<path d="M279.512 197.018H249.817C249.361 197.018 248.992 197.387 248.992 197.843V207.741C248.992 208.197 249.361 208.566 249.817 208.566H279.512C279.967 208.566 280.337 208.197 280.337 207.741V197.843C280.337 197.387 279.967 197.018 279.512 197.018Z" fill="#4E4E4E"/>
<path d="M279.512 197.018H249.817C249.361 197.018 248.992 197.387 248.992 197.843V207.741C248.992 208.197 249.361 208.566 249.817 208.566H279.512C279.967 208.566 280.337 208.197 280.337 207.741V197.843C280.337 197.387 279.967 197.018 279.512 197.018Z" stroke="#626C84" stroke-linecap="round" stroke-linejoin="round"/>
</g>
<g style="mix-blend-mode:multiply" opacity="0.33">
<path d="M144.67 180.125H134.772C134.316 180.125 133.947 180.494 133.947 180.95V190.848C133.947 191.304 134.316 191.673 134.772 191.673H144.67C145.126 191.673 145.495 191.304 145.495 190.848V180.95C145.495 180.494 145.126 180.125 144.67 180.125Z" fill="#4E4E4E"/>
<path d="M144.67 180.125H134.772C134.316 180.125 133.947 180.494 133.947 180.95V190.848C133.947 191.304 134.316 191.673 134.772 191.673H144.67C145.126 191.673 145.495 191.304 145.495 190.848V180.95C145.495 180.494 145.126 180.125 144.67 180.125Z" stroke="#626C84" stroke-linecap="round" stroke-linejoin="round"/>
</g>
<g style="mix-blend-mode:multiply" opacity="0.33">
<path d="M126.821 180.125H107.024C106.569 180.125 106.199 180.494 106.199 180.95V190.848C106.199 191.304 106.569 191.673 107.024 191.673H126.821C127.277 191.673 127.646 191.304 127.646 190.848V180.95C127.646 180.494 127.277 180.125 126.821 180.125Z" fill="#4E4E4E"/>
<path d="M126.821 180.125H107.024C106.569 180.125 106.199 180.494 106.199 180.95V190.848C106.199 191.304 106.569 191.673 107.024 191.673H126.821C127.277 191.673 127.646 191.304 127.646 190.848V180.95C127.646 180.494 127.277 180.125 126.821 180.125Z" stroke="#626C84" stroke-linecap="round" stroke-linejoin="round"/>
</g>
<g style="mix-blend-mode:multiply" opacity="0.33">
<path d="M162.519 180.125H152.621C152.165 180.125 151.796 180.494 151.796 180.95V190.848C151.796 191.304 152.165 191.673 152.621 191.673H162.519C162.975 191.673 163.344 191.304 163.344 190.848V180.95C163.344 180.494 162.975 180.125 162.519 180.125Z" fill="#4E4E4E"/>
<path d="M162.519 180.125H152.621C152.165 180.125 151.796 180.494 151.796 180.95V190.848C151.796 191.304 152.165 191.673 152.621 191.673H162.519C162.975 191.673 163.344 191.304 163.344 190.848V180.95C163.344 180.494 162.975 180.125 162.519 180.125Z" stroke="#626C84" stroke-linecap="round" stroke-linejoin="round"/>
</g>
<g style="mix-blend-mode:multiply" opacity="0.33">
<path d="M180.368 180.125H170.47C170.014 180.125 169.645 180.494 169.645 180.95V190.848C169.645 191.304 170.014 191.673 170.47 191.673H180.368C180.824 191.673 181.193 191.304 181.193 190.848V180.95C181.193 180.494 180.824 180.125 180.368 180.125Z" fill="#4E4E4E"/>
<path d="M180.368 180.125H170.47C170.014 180.125 169.645 180.494 169.645 180.95V190.848C169.645 191.304 170.014 191.673 170.47 191.673H180.368C180.824 191.673 181.193 191.304 181.193 190.848V180.95C181.193 180.494 180.824 180.125 180.368 180.125Z" stroke="#626C84" stroke-linecap="round" stroke-linejoin="round"/>
</g>
<g style="mix-blend-mode:multiply" opacity="0.33">
<path d="M198.217 180.125H188.319C187.863 180.125 187.494 180.494 187.494 180.95V190.848C187.494 191.304 187.863 191.673 188.319 191.673H198.217C198.673 191.673 199.042 191.304 199.042 190.848V180.95C199.042 180.494 198.673 180.125 198.217 180.125Z" fill="#4E4E4E"/>
<path d="M198.217 180.125H188.319C187.863 180.125 187.494 180.494 187.494 180.95V190.848C187.494 191.304 187.863 191.673 188.319 191.673H198.217C198.673 191.673 199.042 191.304 199.042 190.848V180.95C199.042 180.494 198.673 180.125 198.217 180.125Z" stroke="#626C84" stroke-linecap="round" stroke-linejoin="round"/>
</g>
<g style="mix-blend-mode:multiply" opacity="0.33">
<path d="M216.066 180.125H206.168C205.712 180.125 205.343 180.494 205.343 180.95V190.848C205.343 191.304 205.712 191.673 206.168 191.673H216.066C216.522 191.673 216.891 191.304 216.891 190.848V180.95C216.891 180.494 216.522 180.125 216.066 180.125Z" fill="#4E4E4E"/>
<path d="M216.066 180.125H206.168C205.712 180.125 205.343 180.494 205.343 180.95V190.848C205.343 191.304 205.712 191.673 206.168 191.673H216.066C216.522 191.673 216.891 191.304 216.891 190.848V180.95C216.891 180.494 216.522 180.125 216.066 180.125Z" stroke="#626C84" stroke-linecap="round" stroke-linejoin="round"/>
</g>
<g style="mix-blend-mode:multiply" opacity="0.33">
<path d="M233.916 180.125H224.017C223.562 180.125 223.192 180.494 223.192 180.95V190.848C223.192 191.304 223.562 191.673 224.017 191.673H233.916C234.371 191.673 234.741 191.304 234.741 190.848V180.95C234.741 180.494 234.371 180.125 233.916 180.125Z" fill="#4E4E4E"/>
<path d="M233.916 180.125H224.017C223.562 180.125 223.192 180.494 223.192 180.95V190.848C223.192 191.304 223.562 191.673 224.017 191.673H233.916C234.371 191.673 234.741 191.304 234.741 190.848V180.95C234.741 180.494 234.371 180.125 233.916 180.125Z" stroke="#626C84" stroke-linecap="round" stroke-linejoin="round"/>
</g>
<g style="mix-blend-mode:multiply" opacity="0.33">
<path d="M251.764 180.125H241.866C241.41 180.125 241.041 180.494 241.041 180.95V190.848C241.041 191.304 241.41 191.673 241.866 191.673H251.764C252.22 191.673 252.589 191.304 252.589 190.848V180.95C252.589 180.494 252.22 180.125 251.764 180.125Z" fill="#4E4E4E"/>
<path d="M251.764 180.125H241.866C241.41 180.125 241.041 180.494 241.041 180.95V190.848C241.041 191.304 241.41 191.673 241.866 191.673H251.764C252.22 191.673 252.589 191.304 252.589 190.848V180.95C252.589 180.494 252.22 180.125 251.764 180.125Z" stroke="#626C84" stroke-linecap="round" stroke-linejoin="round"/>
</g>
<g style="mix-blend-mode:multiply" opacity="0.33">
<path d="M279.512 180.125H259.715C259.259 180.125 258.89 180.494 258.89 180.95V190.848C258.89 191.304 259.259 191.673 259.715 191.673H279.512C279.967 191.673 280.337 191.304 280.337 190.848V180.95C280.337 180.494 279.967 180.125 279.512 180.125Z" fill="#4E4E4E"/>
<path d="M279.512 180.125H259.715C259.259 180.125 258.89 180.494 258.89 180.95V190.848C258.89 191.304 259.259 191.673 259.715 191.673H279.512C279.967 191.673 280.337 191.304 280.337 190.848V180.95C280.337 180.494 279.967 180.125 279.512 180.125Z" stroke="#626C84" stroke-linecap="round" stroke-linejoin="round"/>
</g>
<g style="mix-blend-mode:multiply" opacity="0.33">
<path d="M134.988 163.957H125.09C124.634 163.957 124.265 164.327 124.265 164.782V174.681C124.265 175.136 124.634 175.506 125.09 175.506H134.988C135.444 175.506 135.813 175.136 135.813 174.681V164.782C135.813 164.327 135.444 163.957 134.988 163.957Z" fill="#4E4E4E"/>
<path d="M134.988 163.957H125.09C124.634 163.957 124.265 164.327 124.265 164.782V174.681C124.265 175.136 124.634 175.506 125.09 175.506H134.988C135.444 175.506 135.813 175.136 135.813 174.681V164.782C135.813 164.327 135.444 163.957 134.988 163.957Z" stroke="#626C84" stroke-linecap="round" stroke-linejoin="round"/>
</g>
<g style="mix-blend-mode:multiply" opacity="0.33">
<path d="M116.923 163.957H107.024C106.569 163.957 106.199 164.327 106.199 164.782V174.681C106.199 175.136 106.569 175.506 107.024 175.506H116.923C117.378 175.506 117.748 175.136 117.748 174.681V164.782C117.748 164.327 117.378 163.957 116.923 163.957Z" fill="#4E4E4E"/>
<path d="M116.923 163.957H107.024C106.569 163.957 106.199 164.327 106.199 164.782V174.681C106.199 175.136 106.569 175.506 107.024 175.506H116.923C117.378 175.506 117.748 175.136 117.748 174.681V164.782C117.748 164.327 117.378 163.957 116.923 163.957Z" stroke="#626C84" stroke-linecap="round" stroke-linejoin="round"/>
</g>
<g style="mix-blend-mode:multiply" opacity="0.33">
<path d="M153.054 163.957H143.155C142.7 163.957 142.33 164.327 142.33 164.782V174.681C142.33 175.136 142.7 175.506 143.155 175.506H153.054C153.509 175.506 153.878 175.136 153.878 174.681V164.782C153.878 164.327 153.509 163.957 153.054 163.957Z" fill="#4E4E4E"/>
<path d="M153.054 163.957H143.155C142.7 163.957 142.33 164.327 142.33 164.782V174.681C142.33 175.136 142.7 175.506 143.155 175.506H153.054C153.509 175.506 153.878 175.136 153.878 174.681V164.782C153.878 164.327 153.509 163.957 153.054 163.957Z" stroke="#626C84" stroke-linecap="round" stroke-linejoin="round"/>
</g>
<g style="mix-blend-mode:multiply" opacity="0.33">
<path d="M171.119 163.957H161.221C160.765 163.957 160.396 164.327 160.396 164.782V174.681C160.396 175.136 160.765 175.506 161.221 175.506H171.119C171.575 175.506 171.944 175.136 171.944 174.681V164.782C171.944 164.327 171.575 163.957 171.119 163.957Z" fill="#4E4E4E"/>
<path d="M171.119 163.957H161.221C160.765 163.957 160.396 164.327 160.396 164.782V174.681C160.396 175.136 160.765 175.506 161.221 175.506H171.119C171.575 175.506 171.944 175.136 171.944 174.681V164.782C171.944 164.327 171.575 163.957 171.119 163.957Z" stroke="#626C84" stroke-linecap="round" stroke-linejoin="round"/>
</g>
<g style="mix-blend-mode:multiply" opacity="0.33">
<path d="M189.184 163.957H179.286C178.83 163.957 178.461 164.327 178.461 164.782V174.681C178.461 175.136 178.83 175.506 179.286 175.506H189.184C189.64 175.506 190.009 175.136 190.009 174.681V164.782C190.009 164.327 189.64 163.957 189.184 163.957Z" fill="#4E4E4E"/>
<path d="M189.184 163.957H179.286C178.83 163.957 178.461 164.327 178.461 164.782V174.681C178.461 175.136 178.83 175.506 179.286 175.506H189.184C189.64 175.506 190.009 175.136 190.009 174.681V164.782C190.009 164.327 189.64 163.957 189.184 163.957Z" stroke="#626C84" stroke-linecap="round" stroke-linejoin="round"/>
</g>
<g style="mix-blend-mode:multiply" opacity="0.33">
<path d="M207.25 163.957H197.351C196.896 163.957 196.527 164.327 196.527 164.782V174.681C196.527 175.136 196.896 175.506 197.351 175.506H207.25C207.705 175.506 208.075 175.136 208.075 174.681V164.782C208.075 164.327 207.705 163.957 207.25 163.957Z" fill="#4E4E4E"/>
<path d="M207.25 163.957H197.351C196.896 163.957 196.527 164.327 196.527 164.782V174.681C196.527 175.136 196.896 175.506 197.351 175.506H207.25C207.705 175.506 208.075 175.136 208.075 174.681V164.782C208.075 164.327 207.705 163.957 207.25 163.957Z" stroke="#626C84" stroke-linecap="round" stroke-linejoin="round"/>
</g>
<g style="mix-blend-mode:multiply" opacity="0.33">
<path d="M225.316 163.957H215.417C214.962 163.957 214.592 164.327 214.592 164.782V174.681C214.592 175.136 214.962 175.506 215.417 175.506H225.316C225.771 175.506 226.14 175.136 226.14 174.681V164.782C226.14 164.327 225.771 163.957 225.316 163.957Z" fill="#4E4E4E"/>
<path d="M225.316 163.957H215.417C214.962 163.957 214.592 164.327 214.592 164.782V174.681C214.592 175.136 214.962 175.506 215.417 175.506H225.316C225.771 175.506 226.14 175.136 226.14 174.681V164.782C226.14 164.327 225.771 163.957 225.316 163.957Z" stroke="#626C84" stroke-linecap="round" stroke-linejoin="round"/>
</g>
<g style="mix-blend-mode:multiply" opacity="0.33">
<path d="M243.381 163.957H233.483C233.027 163.957 232.658 164.327 232.658 164.782V174.681C232.658 175.136 233.027 175.506 233.483 175.506H243.381C243.837 175.506 244.206 175.136 244.206 174.681V164.782C244.206 164.327 243.837 163.957 243.381 163.957Z" fill="#4E4E4E"/>
<path d="M243.381 163.957H233.483C233.027 163.957 232.658 164.327 232.658 164.782V174.681C232.658 175.136 233.027 175.506 233.483 175.506H243.381C243.837 175.506 244.206 175.136 244.206 174.681V164.782C244.206 164.327 243.837 163.957 243.381 163.957Z" stroke="#626C84" stroke-linecap="round" stroke-linejoin="round"/>
</g>
<g style="mix-blend-mode:multiply" opacity="0.33">
<path d="M261.446 163.957H251.548C251.092 163.957 250.723 164.327 250.723 164.782V174.681C250.723 175.136 251.092 175.506 251.548 175.506H261.446C261.902 175.506 262.271 175.136 262.271 174.681V164.782C262.271 164.327 261.902 163.957 261.446 163.957Z" fill="#4E4E4E"/>
<path d="M261.446 163.957H251.548C251.092 163.957 250.723 164.327 250.723 164.782V174.681C250.723 175.136 251.092 175.506 251.548 175.506H261.446C261.902 175.506 262.271 175.136 262.271 174.681V164.782C262.271 164.327 261.902 163.957 261.446 163.957Z" stroke="#626C84" stroke-linecap="round" stroke-linejoin="round"/>
</g>
<g style="mix-blend-mode:multiply" opacity="0.33">
<path d="M279.512 163.957H269.613C269.158 163.957 268.789 164.327 268.789 164.782V174.681C268.789 175.136 269.158 175.506 269.613 175.506H279.512C279.967 175.506 280.337 175.136 280.337 174.681V164.782C280.337 164.327 279.967 163.957 279.512 163.957Z" fill="#4E4E4E"/>
<path d="M279.512 163.957H269.613C269.158 163.957 268.789 164.327 268.789 164.782V174.681C268.789 175.136 269.158 175.506 269.613 175.506H279.512C279.967 175.506 280.337 175.136 280.337 174.681V164.782C280.337 164.327 279.967 163.957 279.512 163.957Z" stroke="#626C84" stroke-linecap="round" stroke-linejoin="round"/>
</g>
<g style="mix-blend-mode:multiply" opacity="0.33">
<path d="M134.772 213.45H124.874C124.418 213.45 124.049 213.819 124.049 214.274V224.173C124.049 224.628 124.418 224.998 124.874 224.998H134.772C135.228 224.998 135.597 224.628 135.597 224.173V214.274C135.597 213.819 135.228 213.45 134.772 213.45Z" fill="#4E4E4E"/>
</g>
<g style="mix-blend-mode:multiply" opacity="0.33">
<path d="M116.923 213.45H107.024C106.569 213.45 106.199 213.819 106.199 214.274V224.173C106.199 224.628 106.569 224.998 107.024 224.998H116.923C117.378 224.998 117.748 224.628 117.748 224.173V214.274C117.748 213.819 117.378 213.45 116.923 213.45Z" fill="#4E4E4E"/>
</g>
<g style="mix-blend-mode:multiply" opacity="0.33">
<path d="M224.016 213.45H142.722C142.267 213.45 141.897 213.819 141.897 214.274V224.173C141.897 224.628 142.267 224.998 142.722 224.998H224.016C224.472 224.998 224.841 224.628 224.841 224.173V214.274C224.841 213.819 224.472 213.45 224.016 213.45Z" fill="#4E4E4E"/>
</g>
<g style="mix-blend-mode:multiply" opacity="0.33">
<path d="M241.866 213.45H231.967C231.512 213.45 231.142 213.819 231.142 214.274V224.173C231.142 224.628 231.512 224.998 231.967 224.998H241.866C242.321 224.998 242.691 224.628 242.691 224.173V214.274C242.691 213.819 242.321 213.45 241.866 213.45Z" fill="#4E4E4E"/>
</g>
<g style="mix-blend-mode:multiply" opacity="0.33">
<path d="M267.964 219.945H261.365C260.909 219.945 260.54 220.315 260.54 220.77V224.173C260.54 224.628 260.909 224.998 261.365 224.998H267.964C268.419 224.998 268.788 224.628 268.788 224.173V220.77C268.788 220.315 268.419 219.945 267.964 219.945Z" fill="#4E4E4E"/>
</g>
<g style="mix-blend-mode:multiply" opacity="0.33">
<path d="M267.964 213.45H261.365C260.909 213.45 260.54 213.819 260.54 214.274V217.677C260.54 218.133 260.909 218.502 261.365 218.502H267.964C268.419 218.502 268.788 218.133 268.788 217.677V214.274C268.788 213.819 268.419 213.45 267.964 213.45Z" fill="#4E4E4E"/>
</g>
<g style="mix-blend-mode:multiply" opacity="0.33">
<path d="M279.512 219.945H272.913C272.457 219.945 272.088 220.315 272.088 220.77V224.173C272.088 224.628 272.457 224.998 272.913 224.998H279.512C279.968 224.998 280.337 224.628 280.337 224.173V220.77C280.337 220.315 279.968 219.945 279.512 219.945Z" fill="#4E4E4E"/>
</g>
<g style="mix-blend-mode:multiply" opacity="0.33">
<path d="M256.416 219.945H249.817C249.361 219.945 248.992 220.315 248.992 220.77V224.173C248.992 224.628 249.361 224.998 249.817 224.998H256.416C256.871 224.998 257.24 224.628 257.24 224.173V220.77C257.24 220.315 256.871 219.945 256.416 219.945Z" fill="#4E4E4E"/>
</g>
<g style="mix-blend-mode:multiply" opacity="0.33">
<path d="M133.122 197.018H107.024C106.569 197.018 106.199 197.387 106.199 197.843V207.741C106.199 208.197 106.569 208.566 107.024 208.566H133.122C133.578 208.566 133.947 208.197 133.947 207.741V197.843C133.947 197.387 133.578 197.018 133.122 197.018Z" fill="#4E4E4E"/>
</g>
<g style="mix-blend-mode:multiply" opacity="0.33">
<path d="M151.12 197.018H141.222C140.766 197.018 140.397 197.387 140.397 197.843V207.741C140.397 208.197 140.766 208.566 141.222 208.566H151.12C151.576 208.566 151.945 208.197 151.945 207.741V197.843C151.945 197.387 151.576 197.018 151.12 197.018Z" fill="#4E4E4E"/>
</g>
<g style="mix-blend-mode:multiply" opacity="0.33">
<path d="M168.969 197.018H159.071C158.615 197.018 158.246 197.387 158.246 197.843V207.741C158.246 208.197 158.615 208.566 159.071 208.566H168.969C169.425 208.566 169.794 208.197 169.794 207.741V197.843C169.794 197.387 169.425 197.018 168.969 197.018Z" fill="#4E4E4E"/>
</g>
<g style="mix-blend-mode:multiply" opacity="0.33">
<path d="M186.818 197.018H176.92C176.464 197.018 176.095 197.387 176.095 197.843V207.741C176.095 208.197 176.464 208.566 176.92 208.566H186.818C187.274 208.566 187.643 208.197 187.643 207.741V197.843C187.643 197.387 187.274 197.018 186.818 197.018Z" fill="#4E4E4E"/>
</g>
<g style="mix-blend-mode:multiply" opacity="0.33">
<path d="M204.667 197.018H194.769C194.313 197.018 193.944 197.387 193.944 197.843V207.741C193.944 208.197 194.313 208.566 194.769 208.566H204.667C205.123 208.566 205.492 208.197 205.492 207.741V197.843C205.492 197.387 205.123 197.018 204.667 197.018Z" fill="#4E4E4E"/>
</g>
<g style="mix-blend-mode:multiply" opacity="0.33">
<path d="M222.516 197.018H212.617C212.162 197.018 211.792 197.387 211.792 197.843V207.741C211.792 208.197 212.162 208.566 212.617 208.566H222.516C222.971 208.566 223.341 208.197 223.341 207.741V197.843C223.341 197.387 222.971 197.018 222.516 197.018Z" fill="#4E4E4E"/>
</g>
<g style="mix-blend-mode:multiply" opacity="0.33">
<path d="M240.365 197.018H230.467C230.011 197.018 229.642 197.387 229.642 197.843V207.741C229.642 208.197 230.011 208.566 230.467 208.566H240.365C240.821 208.566 241.19 208.197 241.19 207.741V197.843C241.19 197.387 240.821 197.018 240.365 197.018Z" fill="#4E4E4E"/>
</g>
<g style="mix-blend-mode:multiply" opacity="0.33">
<path d="M279.512 197.018H249.817C249.361 197.018 248.992 197.387 248.992 197.843V207.741C248.992 208.197 249.361 208.566 249.817 208.566H279.512C279.967 208.566 280.337 208.197 280.337 207.741V197.843C280.337 197.387 279.967 197.018 279.512 197.018Z" fill="#4E4E4E"/>
</g>
<g style="mix-blend-mode:multiply" opacity="0.33">
<path d="M144.67 180.125H134.772C134.316 180.125 133.947 180.494 133.947 180.95V190.848C133.947 191.304 134.316 191.673 134.772 191.673H144.67C145.126 191.673 145.495 191.304 145.495 190.848V180.95C145.495 180.494 145.126 180.125 144.67 180.125Z" fill="#4E4E4E"/>
</g>
<g style="mix-blend-mode:multiply" opacity="0.33">
<path d="M126.821 180.125H107.024C106.569 180.125 106.199 180.494 106.199 180.95V190.848C106.199 191.304 106.569 191.673 107.024 191.673H126.821C127.277 191.673 127.646 191.304 127.646 190.848V180.95C127.646 180.494 127.277 180.125 126.821 180.125Z" fill="#4E4E4E"/>
</g>
<g style="mix-blend-mode:multiply" opacity="0.33">
<path d="M162.519 180.125H152.621C152.165 180.125 151.796 180.494 151.796 180.95V190.848C151.796 191.304 152.165 191.673 152.621 191.673H162.519C162.975 191.673 163.344 191.304 163.344 190.848V180.95C163.344 180.494 162.975 180.125 162.519 180.125Z" fill="#4E4E4E"/>
</g>
<g style="mix-blend-mode:multiply" opacity="0.33">
<path d="M180.368 180.125H170.47C170.014 180.125 169.645 180.494 169.645 180.95V190.848C169.645 191.304 170.014 191.673 170.47 191.673H180.368C180.824 191.673 181.193 191.304 181.193 190.848V180.95C181.193 180.494 180.824 180.125 180.368 180.125Z" fill="#4E4E4E"/>
</g>
<g style="mix-blend-mode:multiply" opacity="0.33">
<path d="M198.217 180.125H188.319C187.863 180.125 187.494 180.494 187.494 180.95V190.848C187.494 191.304 187.863 191.673 188.319 191.673H198.217C198.673 191.673 199.042 191.304 199.042 190.848V180.95C199.042 180.494 198.673 180.125 198.217 180.125Z" fill="#4E4E4E"/>
</g>
<g style="mix-blend-mode:multiply" opacity="0.33">
<path d="M216.066 180.125H206.168C205.712 180.125 205.343 180.494 205.343 180.95V190.848C205.343 191.304 205.712 191.673 206.168 191.673H216.066C216.522 191.673 216.891 191.304 216.891 190.848V180.95C216.891 180.494 216.522 180.125 216.066 180.125Z" fill="#4E4E4E"/>
</g>
<g style="mix-blend-mode:multiply" opacity="0.33">
<path d="M233.916 180.125H224.017C223.562 180.125 223.192 180.494 223.192 180.95V190.848C223.192 191.304 223.562 191.673 224.017 191.673H233.916C234.371 191.673 234.741 191.304 234.741 190.848V180.95C234.741 180.494 234.371 180.125 233.916 180.125Z" fill="#4E4E4E"/>
</g>
<g style="mix-blend-mode:multiply" opacity="0.33">
<path d="M251.764 180.125H241.866C241.41 180.125 241.041 180.494 241.041 180.95V190.848C241.041 191.304 241.41 191.673 241.866 191.673H251.764C252.22 191.673 252.589 191.304 252.589 190.848V180.95C252.589 180.494 252.22 180.125 251.764 180.125Z" fill="#4E4E4E"/>
</g>
<g style="mix-blend-mode:multiply" opacity="0.33">
<path d="M279.512 180.125H259.715C259.259 180.125 258.89 180.494 258.89 180.95V190.848C258.89 191.304 259.259 191.673 259.715 191.673H279.512C279.967 191.673 280.337 191.304 280.337 190.848V180.95C280.337 180.494 279.967 180.125 279.512 180.125Z" fill="#4E4E4E"/>
</g>
<g style="mix-blend-mode:multiply" opacity="0.33">
<path d="M134.988 163.957H125.09C124.634 163.957 124.265 164.327 124.265 164.782V174.681C124.265 175.136 124.634 175.506 125.09 175.506H134.988C135.444 175.506 135.813 175.136 135.813 174.681V164.782C135.813 164.327 135.444 163.957 134.988 163.957Z" fill="#4E4E4E"/>
</g>
<g style="mix-blend-mode:multiply" opacity="0.33">
<path d="M116.923 163.957H107.024C106.569 163.957 106.199 164.327 106.199 164.782V174.681C106.199 175.136 106.569 175.506 107.024 175.506H116.923C117.378 175.506 117.748 175.136 117.748 174.681V164.782C117.748 164.327 117.378 163.957 116.923 163.957Z" fill="#4E4E4E"/>
</g>
<g style="mix-blend-mode:multiply" opacity="0.33">
<path d="M153.054 163.957H143.155C142.7 163.957 142.33 164.327 142.33 164.782V174.681C142.33 175.136 142.7 175.506 143.155 175.506H153.054C153.509 175.506 153.878 175.136 153.878 174.681V164.782C153.878 164.327 153.509 163.957 153.054 163.957Z" fill="#4E4E4E"/>
</g>
<g style="mix-blend-mode:multiply" opacity="0.33">
<path d="M171.119 163.957H161.221C160.765 163.957 160.396 164.327 160.396 164.782V174.681C160.396 175.136 160.765 175.506 161.221 175.506H171.119C171.575 175.506 171.944 175.136 171.944 174.681V164.782C171.944 164.327 171.575 163.957 171.119 163.957Z" fill="#4E4E4E"/>
</g>
<g style="mix-blend-mode:multiply" opacity="0.33">
<path d="M189.184 163.957H179.286C178.83 163.957 178.461 164.327 178.461 164.782V174.681C178.461 175.136 178.83 175.506 179.286 175.506H189.184C189.64 175.506 190.009 175.136 190.009 174.681V164.782C190.009 164.327 189.64 163.957 189.184 163.957Z" fill="#4E4E4E"/>
</g>
<g style="mix-blend-mode:multiply" opacity="0.33">
<path d="M207.25 163.957H197.351C196.896 163.957 196.527 164.327 196.527 164.782V174.681C196.527 175.136 196.896 175.506 197.351 175.506H207.25C207.705 175.506 208.075 175.136 208.075 174.681V164.782C208.075 164.327 207.705 163.957 207.25 163.957Z" fill="#4E4E4E"/>
</g>
<g style="mix-blend-mode:multiply" opacity="0.33">
<path d="M225.316 163.957H215.417C214.962 163.957 214.592 164.327 214.592 164.782V174.681C214.592 175.136 214.962 175.506 215.417 175.506H225.316C225.771 175.506 226.14 175.136 226.14 174.681V164.782C226.14 164.327 225.771 163.957 225.316 163.957Z" fill="#4E4E4E"/>
</g>
<g style="mix-blend-mode:multiply" opacity="0.33">
<path d="M243.381 163.957H233.483C233.027 163.957 232.658 164.327 232.658 164.782V174.681C232.658 175.136 233.027 175.506 233.483 175.506H243.381C243.837 175.506 244.206 175.136 244.206 174.681V164.782C244.206 164.327 243.837 163.957 243.381 163.957Z" fill="#4E4E4E"/>
</g>
<g style="mix-blend-mode:multiply" opacity="0.33">
<path d="M261.446 163.957H251.548C251.092 163.957 250.723 164.327 250.723 164.782V174.681C250.723 175.136 251.092 175.506 251.548 175.506H261.446C261.902 175.506 262.271 175.136 262.271 174.681V164.782C262.271 164.327 261.902 163.957 261.446 163.957Z" fill="#4E4E4E"/>
</g>
<g style="mix-blend-mode:multiply" opacity="0.33">
<path d="M279.512 163.957H269.613C269.158 163.957 268.789 164.327 268.789 164.782V174.681C268.789 175.136 269.158 175.506 269.613 175.506H279.512C279.967 175.506 280.337 175.136 280.337 174.681V164.782C280.337 164.327 279.967 163.957 279.512 163.957Z" fill="#4E4E4E"/>
</g>
<g style="mix-blend-mode:multiply" opacity="0.33">
<path d="M123.154 137.641H263.382V148.732C263.382 149.607 263.034 150.446 262.415 151.065C261.796 151.684 260.957 152.031 260.082 152.031H126.453C125.578 152.031 124.739 151.684 124.12 151.065C123.501 150.446 123.154 149.607 123.154 148.732V137.641Z" fill="#4E4E4E"/>
</g>
<g style="mix-blend-mode:multiply" opacity="0.25">
<path d="M260.082 148.731H126.453C125.578 148.731 124.739 148.383 124.12 147.765C123.501 147.146 123.154 146.307 123.154 145.432V148.731C123.154 149.606 123.501 150.445 124.12 151.064C124.739 151.683 125.578 152.031 126.453 152.031H260.082C260.957 152.031 261.796 151.683 262.415 151.064C263.034 150.445 263.382 149.606 263.382 148.731V145.432C263.382 146.307 263.034 147.146 262.415 147.765C261.796 148.383 260.957 148.731 260.082 148.731Z" fill="#4E4E4E"/>
</g>
<g style="mix-blend-mode:multiply" opacity="0.33">
<path d="M123.154 137.641H263.382V148.732C263.382 149.607 263.034 150.446 262.415 151.065C261.796 151.684 260.957 152.031 260.082 152.031H126.453C125.578 152.031 124.739 151.684 124.12 151.065C123.501 150.446 123.154 149.607 123.154 148.732V137.641Z" fill="#4E4E4E"/>
<path d="M123.154 137.641H263.382V148.732C263.382 149.607 263.034 150.446 262.415 151.065C261.796 151.684 260.957 152.031 260.082 152.031H126.453C125.578 152.031 124.739 151.684 124.12 151.065C123.501 150.446 123.154 149.607 123.154 148.732V137.641Z" stroke="#46505C" stroke-width="2" stroke-linecap="round" stroke-linejoin="round"/>
</g>
<g style="mix-blend-mode:multiply" opacity="0.33">
<path d="M222.139 236.133H164.398C163.487 236.133 162.748 236.872 162.748 237.783V276.552C162.748 277.463 163.487 278.202 164.398 278.202H222.139C223.05 278.202 223.789 277.463 223.789 276.552V237.783C223.789 236.872 223.05 236.133 222.139 236.133Z" fill="#4E4E4E"/>
</g>
<g style="mix-blend-mode:multiply" opacity="0.33">
<path d="M222.139 236.133H164.398C163.487 236.133 162.748 236.872 162.748 237.783V276.552C162.748 277.463 163.487 278.202 164.398 278.202H222.139C223.05 278.202 223.789 277.463 223.789 276.552V237.783C223.789 236.872 223.05 236.133 222.139 236.133Z" fill="#4E4E4E"/>
<path d="M222.139 236.133H164.398C163.487 236.133 162.748 236.872 162.748 237.783V276.552C162.748 277.463 163.487 278.202 164.398 278.202H222.139C223.05 278.202 223.789 277.463 223.789 276.552V237.783C223.789 236.872 223.05 236.133 222.139 236.133Z" stroke="#626C84" stroke-linecap="round" stroke-linejoin="round"/>
</g>
</g>
<g style="mix-blend-mode:multiply" opacity="0.33">
<g style="mix-blend-mode:multiply" opacity="0.33">
<path d="M11.3884 227.53L17.7531 218.433C17.8399 218.309 17.9723 218.225 18.1213 218.198C18.2703 218.172 18.4237 218.206 18.5477 218.293L25.0439 222.838C25.1679 222.924 25.2524 223.057 25.2787 223.206C25.305 223.355 25.2711 223.508 25.1844 223.632L18.8196 232.729C18.1929 233.625 17.2359 234.235 16.1592 234.426C15.0826 234.616 13.9744 234.371 13.0786 233.744L12.403 233.271C11.5071 232.644 10.8969 231.687 10.7067 230.611C10.5164 229.534 10.7616 228.426 11.3884 227.53Z" fill="#4E4E4E"/>
<path d="M11.3884 227.53L17.7531 218.433C17.8399 218.309 17.9723 218.225 18.1213 218.198C18.2703 218.172 18.4237 218.206 18.5477 218.293L25.0439 222.838C25.1679 222.924 25.2524 223.057 25.2787 223.206C25.305 223.355 25.2711 223.508 25.1844 223.632L18.8196 232.729C18.1929 233.625 17.2359 234.235 16.1592 234.426C15.0826 234.616 13.9744 234.371 13.0786 233.744L12.403 233.271C11.5071 232.644 10.8969 231.687 10.7067 230.611C10.5164 229.534 10.7616 228.426 11.3884 227.53Z" stroke="#46505C" stroke-width="3.99818" stroke-linecap="round" stroke-linejoin="round"/>
</g>
<g style="mix-blend-mode:multiply" opacity="0.33">
<path d="M11.3884 227.53L17.7531 218.433C17.8399 218.309 17.9723 218.225 18.1213 218.198C18.2703 218.172 18.4237 218.206 18.5477 218.293L25.0439 222.838C25.1679 222.924 25.2524 223.057 25.2787 223.206C25.305 223.355 25.2711 223.508 25.1844 223.632L18.8196 232.729C18.1929 233.625 17.2359 234.235 16.1592 234.426C15.0826 234.616 13.9744 234.371 13.0786 233.744L12.403 233.271C11.5071 232.644 10.8969 231.687 10.7067 230.611C10.5164 229.534 10.7616 228.426 11.3884 227.53Z" fill="#4E4E4E"/>
<path d="M11.3884 227.53L17.7531 218.433C17.8399 218.309 17.9723 218.225 18.1213 218.198C18.2703 218.172 18.4237 218.206 18.5477 218.293L25.0439 222.838C25.1679 222.924 25.2524 223.057 25.2787 223.206C25.305 223.355 25.2711 223.508 25.1844 223.632L18.8196 232.729C18.1929 233.625 17.2359 234.235 16.1592 234.426C15.0826 234.616 13.9744 234.371 13.0786 233.744L12.403 233.271C11.5071 232.644 10.8969 231.687 10.7067 230.611C10.5164 229.534 10.7616 228.426 11.3884 227.53Z" stroke="#46505C" stroke-width="3.99818" stroke-linecap="round" stroke-linejoin="round"/>
</g>
<g style="mix-blend-mode:multiply" opacity="0.33">
<path d="M35.8282 227.683C50.6686 227.683 62.6992 215.652 62.6992 200.812C62.6992 185.971 50.6686 173.941 35.8282 173.941C20.9878 173.941 8.95728 185.971 8.95728 200.812C8.95728 215.652 20.9878 227.683 35.8282 227.683Z" fill="#4E4E4E"/>
<path d="M35.8282 227.683C50.6686 227.683 62.6992 215.652 62.6992 200.812C62.6992 185.971 50.6686 173.941 35.8282 173.941C20.9878 173.941 8.95728 185.971 8.95728 200.812C8.95728 215.652 20.9878 227.683 35.8282 227.683Z" stroke="#46505C" stroke-width="4" stroke-linecap="round" stroke-linejoin="round"/>
</g>
<g style="mix-blend-mode:multiply" opacity="0.33">
<path d="M35.8282 227.683C50.6686 227.683 62.6992 215.652 62.6992 200.812C62.6992 185.971 50.6686 173.941 35.8282 173.941C20.9878 173.941 8.95728 185.971 8.95728 200.812C8.95728 215.652 20.9878 227.683 35.8282 227.683Z" fill="#4E4E4E"/>
<path d="M35.8282 227.683C50.6686 227.683 62.6992 215.652 62.6992 200.812C62.6992 185.971 50.6686 173.941 35.8282 173.941C20.9878 173.941 8.95728 185.971 8.95728 200.812C8.95728 215.652 20.9878 227.683 35.8282 227.683Z" stroke="#46505C" stroke-width="4" stroke-linecap="round" stroke-linejoin="round"/>
</g>
<g style="mix-blend-mode:multiply" opacity="0.33">
<path d="M35.8281 221.726C47.3789 221.726 56.7427 212.362 56.7427 200.812C56.7427 189.261 47.3789 179.897 35.8281 179.897C24.2773 179.897 14.9136 189.261 14.9136 200.812C14.9136 212.362 24.2773 221.726 35.8281 221.726Z" fill="#4E4E4E"/>
<path d="M35.8281 221.726C47.3789 221.726 56.7427 212.362 56.7427 200.812C56.7427 189.261 47.3789 179.897 35.8281 179.897C24.2773 179.897 14.9136 189.261 14.9136 200.812C14.9136 212.362 24.2773 221.726 35.8281 221.726Z" stroke="#46505C" stroke-width="4" stroke-linecap="round" stroke-linejoin="round"/>
</g>
<g style="mix-blend-mode:multiply" opacity="0.33">
<path d="M35.8281 221.726C47.3789 221.726 56.7427 212.362 56.7427 200.812C56.7427 189.261 47.3789 179.897 35.8281 179.897C24.2773 179.897 14.9136 189.261 14.9136 200.812C14.9136 212.362 24.2773 221.726 35.8281 221.726Z" fill="#4E4E4E"/>
<path d="M35.8281 221.726C47.3789 221.726 56.7427 212.362 56.7427 200.812C56.7427 189.261 47.3789 179.897 35.8281 179.897C24.2773 179.897 14.9136 189.261 14.9136 200.812C14.9136 212.362 24.2773 221.726 35.8281 221.726Z" stroke="#46505C" stroke-width="4" stroke-linecap="round" stroke-linejoin="round"/>
</g>
<g style="mix-blend-mode:multiply" opacity="0.33">
<path d="M22.1558 196.47C22.4355 195.84 22.7382 195.222 23.0467 194.618C24.449 191.869 26.1259 189.02 28.8026 187.337C31.0752 185.906 34.2534 185.346 36.7164 186.612C38.8528 187.709 40.1405 189.965 42.0896 191.369C43.4034 192.173 44.7684 192.891 46.176 193.517C47.5971 194.157 48.7215 195.313 49.3213 196.752C49.9812 198.768 48.8932 200.919 48.8824 203.04C48.8787 204.211 49.2037 205.359 49.8203 206.354C50.2097 206.819 50.4599 207.385 50.5421 207.986C50.4828 208.371 50.3198 208.733 50.0706 209.032C49.8214 209.332 49.4953 209.558 49.1274 209.686C46.9613 210.709 44.4314 210.34 42.0492 210.082C39.667 209.825 37.0291 209.771 35.1459 211.252C34.3749 211.963 33.6609 212.733 33.0103 213.555C32.7355 213.967 32.373 214.313 31.9488 214.569C31.5246 214.824 31.0491 214.983 30.5564 215.033C30.0638 215.083 29.5661 215.024 29.099 214.859C28.632 214.695 28.2071 214.429 27.8549 214.081C26.1475 212.651 24.6664 210.971 23.4616 209.098C22.1952 207.513 21.3008 205.665 20.8443 203.689C20.4162 201.235 21.1297 198.779 22.1558 196.47Z" fill="#4E4E4E"/>
<path d="M22.1558 196.47C22.4355 195.84 22.7382 195.222 23.0467 194.618C24.449 191.869 26.1259 189.02 28.8026 187.337C31.0752 185.906 34.2534 185.346 36.7164 186.612C38.8528 187.709 40.1405 189.965 42.0896 191.369C43.4034 192.173 44.7684 192.891 46.176 193.517C47.5971 194.157 48.7215 195.313 49.3213 196.752C49.9812 198.768 48.8932 200.919 48.8824 203.04C48.8787 204.211 49.2037 205.359 49.8203 206.354C50.2097 206.819 50.4599 207.385 50.5421 207.986C50.4828 208.371 50.3198 208.733 50.0706 209.032C49.8214 209.332 49.4953 209.558 49.1274 209.686C46.9613 210.709 44.4314 210.34 42.0492 210.082C39.667 209.825 37.0291 209.771 35.1459 211.252C34.3749 211.963 33.6609 212.733 33.0103 213.555C32.7355 213.967 32.373 214.313 31.9488 214.569C31.5246 214.824 31.0491 214.983 30.5564 215.033C30.0638 215.083 29.5661 215.024 29.099 214.859C28.632 214.695 28.2071 214.429 27.8549 214.081C26.1475 212.651 24.6664 210.971 23.4616 209.098C22.1952 207.513 21.3008 205.665 20.8443 203.689C20.4162 201.235 21.1297 198.779 22.1558 196.47Z" stroke="#46505C" stroke-width="4" stroke-linecap="round" stroke-linejoin="round"/>
</g>
<g style="mix-blend-mode:multiply" opacity="0.33">
<path d="M40.0581 216.645C40.7752 216.645 41.3565 216.064 41.3565 215.347C41.3565 214.63 40.7752 214.048 40.0581 214.048C39.3411 214.048 38.7598 214.63 38.7598 215.347C38.7598 216.064 39.3411 216.645 40.0581 216.645Z" fill="#4E4E4E"/>
<path d="M40.0581 216.645C40.7752 216.645 41.3565 216.064 41.3565 215.347C41.3565 214.63 40.7752 214.048 40.0581 214.048C39.3411 214.048 38.7598 214.63 38.7598 215.347C38.7598 216.064 39.3411 216.645 40.0581 216.645Z" stroke="#46505C" stroke-width="4" stroke-linecap="round" stroke-linejoin="round"/>
</g>
<g style="mix-blend-mode:multiply" opacity="0.33">
<path d="M36.6786 216.725C37.1752 216.725 37.5778 216.323 37.5778 215.826C37.5778 215.329 37.1752 214.927 36.6786 214.927C36.1821 214.927 35.7795 215.329 35.7795 215.826C35.7795 216.323 36.1821 216.725 36.6786 216.725Z" fill="#4E4E4E"/>
<path d="M36.6786 216.725C37.1752 216.725 37.5778 216.323 37.5778 215.826C37.5778 215.329 37.1752 214.927 36.6786 214.927C36.1821 214.927 35.7795 215.329 35.7795 215.826C35.7795 216.323 36.1821 216.725 36.6786 216.725Z" stroke="#46505C" stroke-width="4" stroke-linecap="round" stroke-linejoin="round"/>
</g>
<g style="mix-blend-mode:multiply" opacity="0.33">
<path d="M43.1258 214.954C43.5759 214.954 43.9407 214.589 43.9407 214.139C43.9407 213.689 43.5759 213.324 43.1258 213.324C42.6757 213.324 42.3108 213.689 42.3108 214.139C42.3108 214.589 42.6757 214.954 43.1258 214.954Z" fill="#4E4E4E"/>
<path d="M43.1258 214.954C43.5759 214.954 43.9407 214.589 43.9407 214.139C43.9407 213.689 43.5759 213.324 43.1258 213.324C42.6757 213.324 42.3108 213.689 42.3108 214.139C42.3108 214.589 42.6757 214.954 43.1258 214.954Z" stroke="#46505C" stroke-width="4" stroke-linecap="round" stroke-linejoin="round"/>
</g>
<g style="mix-blend-mode:multiply" opacity="0.33">
<path d="M33.8345 216.747C34.157 216.747 34.4185 216.485 34.4185 216.163C34.4185 215.84 34.157 215.579 33.8345 215.579C33.512 215.579 33.2505 215.84 33.2505 216.163C33.2505 216.485 33.512 216.747 33.8345 216.747Z" fill="#4E4E4E"/>
<path d="M33.8345 216.747C34.157 216.747 34.4185 216.485 34.4185 216.163C34.4185 215.84 34.157 215.579 33.8345 215.579C33.512 215.579 33.2505 215.84 33.2505 216.163C33.2505 216.485 33.512 216.747 33.8345 216.747Z" stroke="#46505C" stroke-width="4" stroke-linecap="round" stroke-linejoin="round"/>
</g>
<g style="mix-blend-mode:multiply" opacity="0.33">
<path d="M45.7003 213.634C45.8971 213.634 46.0567 213.475 46.0567 213.278C46.0567 213.081 45.8971 212.922 45.7003 212.922C45.5035 212.922 45.344 213.081 45.344 213.278C45.344 213.475 45.5035 213.634 45.7003 213.634Z" fill="#4E4E4E"/>
<path d="M45.7003 213.634C45.8971 213.634 46.0567 213.475 46.0567 213.278C46.0567 213.081 45.8971 212.922 45.7003 212.922C45.5035 212.922 45.344 213.081 45.344 213.278C45.344 213.475 45.5035 213.634 45.7003 213.634Z" stroke="#46505C" stroke-width="4" stroke-linecap="round" stroke-linejoin="round"/>
</g>
<g style="mix-blend-mode:multiply" opacity="0.33">
<path d="M19.5989 196.706C20.0608 196.706 20.4353 196.332 20.4353 195.87C20.4353 195.408 20.0608 195.033 19.5989 195.033C19.1369 195.033 18.7625 195.408 18.7625 195.87C18.7625 196.332 19.1369 196.706 19.5989 196.706Z" fill="#4E4E4E"/>
<path d="M19.5989 196.706C20.0608 196.706 20.4353 196.332 20.4353 195.87C20.4353 195.408 20.0608 195.033 19.5989 195.033C19.1369 195.033 18.7625 195.408 18.7625 195.87C18.7625 196.332 19.1369 196.706 19.5989 196.706Z" stroke="#46505C" stroke-width="4" stroke-linecap="round" stroke-linejoin="round"/>
</g>
<g style="mix-blend-mode:multiply" opacity="0.33">
<path d="M42.3694 186.925C42.8041 186.925 43.1564 186.573 43.1564 186.138C43.1564 185.703 42.8041 185.351 42.3694 185.351C41.9348 185.351 41.5825 185.703 41.5825 186.138C41.5825 186.573 41.9348 186.925 42.3694 186.925Z" fill="#4E4E4E"/>
<path d="M42.3694 186.925C42.8041 186.925 43.1564 186.573 43.1564 186.138C43.1564 185.703 42.8041 185.351 42.3694 185.351C41.9348 185.351 41.5825 185.703 41.5825 186.138C41.5825 186.573 41.9348 186.925 42.3694 186.925Z" stroke="#46505C" stroke-width="4" stroke-linecap="round" stroke-linejoin="round"/>
</g>
<g style="mix-blend-mode:multiply" opacity="0.33">
<path d="M47.4844 190.728C47.878 190.728 48.1971 190.409 48.1971 190.015C48.1971 189.621 47.878 189.302 47.4844 189.302C47.0908 189.302 46.7717 189.621 46.7717 190.015C46.7717 190.409 47.0908 190.728 47.4844 190.728Z" fill="#4E4E4E"/>
<path d="M47.4844 190.728C47.878 190.728 48.1971 190.409 48.1971 190.015C48.1971 189.621 47.878 189.302 47.4844 189.302C47.0908 189.302 46.7717 189.621 46.7717 190.015C46.7717 190.409 47.0908 190.728 47.4844 190.728Z" stroke="#46505C" stroke-width="4" stroke-linecap="round" stroke-linejoin="round"/>
</g>
<g style="mix-blend-mode:multiply" opacity="0.33">
<path d="M48.0694 192.346C48.2416 192.346 48.3812 192.206 48.3812 192.034C48.3812 191.862 48.2416 191.722 48.0694 191.722C47.8972 191.722 47.7576 191.862 47.7576 192.034C47.7576 192.206 47.8972 192.346 48.0694 192.346Z" fill="#4E4E4E"/>
<path d="M48.0694 192.346C48.2416 192.346 48.3812 192.206 48.3812 192.034C48.3812 191.862 48.2416 191.722 48.0694 191.722C47.8972 191.722 47.7576 191.862 47.7576 192.034C47.7576 192.206 47.8972 192.346 48.0694 192.346Z" stroke="#46505C" stroke-width="4" stroke-linecap="round" stroke-linejoin="round"/>
</g>
</g>
<path d="M5.54882 220.904L11.9177 211.805C12.0045 211.681 12.137 211.596 12.2861 211.57C12.4352 211.544 12.5886 211.578 12.7127 211.665L19.211 216.213C19.335 216.3 19.4195 216.432 19.4458 216.581C19.4721 216.73 19.4381 216.884 19.3513 217.008L12.9824 226.107C12.3552 227.003 11.3977 227.614 10.3205 227.804C9.24329 227.994 8.13469 227.749 7.23854 227.121L6.56276 226.648C5.66661 226.021 5.05632 225.064 4.86617 223.986C4.67602 222.909 4.92159 221.801 5.54882 220.904Z" fill="white" stroke="#E6F3FF" stroke-width="2" stroke-miterlimit="10"/>
<path opacity="0.18" d="M12.7122 211.666C12.5882 211.58 12.4348 211.546 12.2859 211.572C12.1369 211.599 12.0046 211.683 11.9179 211.807L9.0498 215.904C10.1495 216.951 11.3266 217.915 12.5712 218.786C13.8155 219.656 15.1229 220.432 16.4827 221.108L19.3508 217.01C19.3939 216.948 19.4245 216.879 19.4407 216.806C19.457 216.733 19.4587 216.657 19.4457 216.583C19.4326 216.51 19.4052 216.439 19.3648 216.376C19.3245 216.313 19.272 216.258 19.2105 216.215L12.7122 211.666Z" fill="#4E4E4E" stroke="#46505C" stroke-width="4" stroke-linecap="round" stroke-linejoin="round"/>
<path d="M5.54882 220.904L11.9177 211.805C12.0045 211.681 12.137 211.596 12.2861 211.57C12.4352 211.544 12.5886 211.578 12.7127 211.665L19.211 216.213C19.335 216.3 19.4195 216.432 19.4458 216.581C19.4721 216.73 19.4381 216.884 19.3513 217.008L12.9824 226.107C12.3552 227.003 11.3977 227.614 10.3205 227.804C9.24329 227.994 8.13469 227.749 7.23854 227.121L6.56276 226.648C5.66661 226.021 5.05632 225.064 4.86617 223.986C4.67602 222.909 4.92159 221.801 5.54882 220.904V220.904Z" stroke="#46505C" stroke-width="4" stroke-linecap="round" stroke-linejoin="round"/>
<path d="M29.8709 220.939C44.7114 220.939 56.7419 208.908 56.7419 194.068C56.7419 179.227 44.7114 167.197 29.8709 167.197C15.0305 167.197 3 179.227 3 194.068C3 208.908 15.0305 220.939 29.8709 220.939Z" fill="white" stroke="#E6F3FF" stroke-width="2" stroke-miterlimit="10"/>
<path d="M29.8709 220.939C44.7114 220.939 56.7419 208.908 56.7419 194.068C56.7419 179.227 44.7114 167.197 29.8709 167.197C15.0305 167.197 3 179.227 3 194.068C3 208.908 15.0305 220.939 29.8709 220.939Z" stroke="#46505C" stroke-width="4" stroke-linecap="round" stroke-linejoin="round"/>
<path d="M29.8711 214.982C41.4219 214.982 50.7857 205.618 50.7857 194.068C50.7857 182.517 41.4219 173.153 29.8711 173.153C18.3203 173.153 8.95654 182.517 8.95654 194.068C8.95654 205.618 18.3203 214.982 29.8711 214.982Z" fill="#845B5B"/>
<path d="M29.8711 214.982C41.4219 214.982 50.7857 205.618 50.7857 194.068C50.7857 182.517 41.4219 173.153 29.8711 173.153C18.3203 173.153 8.95654 182.517 8.95654 194.068C8.95654 205.618 18.3203 214.982 29.8711 214.982Z" stroke="#46505C" stroke-width="2" stroke-linecap="round" stroke-linejoin="round"/>
<g style="mix-blend-mode:multiply" opacity="0.33">
<path d="M16.1988 189.725C16.4785 189.096 16.7812 188.477 17.0897 187.873C18.492 185.125 20.1697 182.276 22.8456 180.592C25.119 179.161 28.2964 178.602 30.7594 179.867C32.8958 180.964 34.1835 183.221 36.1326 184.624C37.4467 185.427 38.8121 186.143 40.2198 186.768C41.6401 187.408 42.7643 188.563 43.3651 190C44.025 192.017 42.937 194.168 42.9254 196.289C42.9217 197.459 43.2467 198.608 43.8633 199.602C44.253 200.068 44.5034 200.634 44.5859 201.235C44.5268 201.62 44.3638 201.982 44.1146 202.281C43.8654 202.581 43.5392 202.807 43.1712 202.935C41.0043 203.958 38.4744 203.589 36.0922 203.331C33.71 203.073 31.0729 203.02 29.1889 204.501C28.4181 205.211 27.7041 205.981 27.0533 206.804C26.7785 207.216 26.416 207.562 25.9918 207.817C25.5676 208.073 25.0922 208.231 24.5996 208.281C24.1069 208.332 23.6093 208.273 23.1422 208.108C22.6751 207.943 22.2502 207.678 21.8978 207.33C20.1907 205.899 18.7096 204.219 17.5046 202.346C16.2394 200.763 15.3458 198.916 14.8898 196.941C14.455 194.49 15.1735 192.034 16.1988 189.725Z" fill="#845B5B"/>
</g>
<g style="mix-blend-mode:multiply" opacity="0.33">
<path d="M34.1011 209.9C34.8181 209.9 35.3994 209.319 35.3994 208.602C35.3994 207.885 34.8181 207.303 34.1011 207.303C33.384 207.303 32.8027 207.885 32.8027 208.602C32.8027 209.319 33.384 209.9 34.1011 209.9Z" fill="#845B5B"/>
</g>
<g style="mix-blend-mode:multiply" opacity="0.33">
<path d="M30.7214 209.98C31.2179 209.98 31.6205 209.578 31.6205 209.081C31.6205 208.584 31.2179 208.182 30.7214 208.182C30.2248 208.182 29.8223 208.584 29.8223 209.081C29.8223 209.578 30.2248 209.98 30.7214 209.98Z" fill="#845B5B"/>
</g>
<g style="mix-blend-mode:multiply" opacity="0.33">
<path d="M37.1687 208.21C37.6188 208.21 37.9837 207.845 37.9837 207.395C37.9837 206.945 37.6188 206.58 37.1687 206.58C36.7186 206.58 36.3538 206.945 36.3538 207.395C36.3538 207.845 36.7186 208.21 37.1687 208.21Z" fill="#845B5B"/>
</g>
<g style="mix-blend-mode:multiply" opacity="0.33">
<path d="M27.8775 210.002C28.2 210.002 28.4615 209.741 28.4615 209.418C28.4615 209.096 28.2 208.834 27.8775 208.834C27.5549 208.834 27.2935 209.096 27.2935 209.418C27.2935 209.741 27.5549 210.002 27.8775 210.002Z" fill="#845B5B"/>
</g>
<g style="mix-blend-mode:multiply" opacity="0.33">
<path d="M39.7431 206.89C39.9399 206.89 40.0994 206.731 40.0994 206.534C40.0994 206.337 39.9399 206.177 39.7431 206.177C39.5463 206.177 39.3867 206.337 39.3867 206.534C39.3867 206.731 39.5463 206.89 39.7431 206.89Z" fill="#845B5B"/>
</g>
<g style="mix-blend-mode:multiply" opacity="0.33">
<path d="M13.6418 189.962C14.1038 189.962 14.4783 189.588 14.4783 189.126C14.4783 188.664 14.1038 188.289 13.6418 188.289C13.1799 188.289 12.8054 188.664 12.8054 189.126C12.8054 189.588 13.1799 189.962 13.6418 189.962Z" fill="#845B5B"/>
</g>
<g style="mix-blend-mode:multiply" opacity="0.33">
<path d="M36.4122 180.18C36.8468 180.18 37.1991 179.828 37.1991 179.393C37.1991 178.959 36.8468 178.606 36.4122 178.606C35.9776 178.606 35.6252 178.959 35.6252 179.393C35.6252 179.828 35.9776 180.18 36.4122 180.18Z" fill="#845B5B"/>
</g>
<g style="mix-blend-mode:multiply" opacity="0.33">
<path d="M41.5271 183.983C41.9207 183.983 42.2398 183.664 42.2398 183.27C42.2398 182.876 41.9207 182.557 41.5271 182.557C41.1335 182.557 40.8145 182.876 40.8145 183.27C40.8145 183.664 41.1335 183.983 41.5271 183.983Z" fill="#845B5B"/>
</g>
<g style="mix-blend-mode:multiply" opacity="0.33">
<path d="M42.1121 185.601C42.2843 185.601 42.4239 185.462 42.4239 185.289C42.4239 185.117 42.2843 184.978 42.1121 184.978C41.9399 184.978 41.8003 185.117 41.8003 185.289C41.8003 185.462 41.9399 185.601 42.1121 185.601Z" fill="#845B5B"/>
</g>
<path d="M31.7039 197.445C32.6151 197.445 33.3537 196.706 33.3537 195.795C33.3537 194.884 32.6151 194.145 31.7039 194.145C30.7928 194.145 30.0542 194.884 30.0542 195.795C30.0542 196.706 30.7928 197.445 31.7039 197.445Z" fill="#845B5B"/>
<path d="M26.3306 192.346C27.9251 192.346 29.2177 191.053 29.2177 189.459C29.2177 187.865 27.9251 186.572 26.3306 186.572C24.7362 186.572 23.4436 187.865 23.4436 189.459C23.4436 191.053 24.7362 192.346 26.3306 192.346Z" fill="#845B5B"/>
<path d="M282.395 2.00327H91.0252C84.6473 2.00327 79.4771 7.17356 79.4771 13.5514V125.734C79.4771 132.112 84.6473 137.282 91.0252 137.282H282.395C288.773 137.282 293.943 132.112 293.943 125.734V13.5514C293.943 7.17356 288.773 2.00327 282.395 2.00327Z" stroke="black" stroke-linecap="round" stroke-linejoin="round"/>
<path d="M282.395 2.00327H91.0252C84.6473 2.00327 79.4771 7.17356 79.4771 13.5514V125.734C79.4771 132.112 84.6473 137.282 91.0252 137.282H282.395C288.773 137.282 293.943 132.112 293.943 125.734V13.5514C293.943 7.17356 288.773 2.00327 282.395 2.00327Z" fill="#626C84"/>
<path d="M282.395 2.00327H91.0252C84.6473 2.00327 79.4771 7.17356 79.4771 13.5514V125.734C79.4771 132.112 84.6473 137.282 91.0252 137.282H282.395C288.773 137.282 293.943 132.112 293.943 125.734V13.5514C293.943 7.17356 288.773 2.00327 282.395 2.00327Z" fill="#626C84"/>
<g style="mix-blend-mode:multiply" opacity="0.17">
<path d="M282.395 2.00327H91.0252C84.6473 2.00327 79.4771 7.17356 79.4771 13.5514V118.323C79.4771 124.701 84.6473 129.871 91.0252 129.871H282.395C288.773 129.871 293.943 124.701 293.943 118.323V13.5514C293.943 7.17356 288.773 2.00327 282.395 2.00327Z" fill="#626C84"/>
</g>
<path opacity="0.1" d="M91.0252 5.29948H282.395C285.458 5.29948 288.395 6.51616 290.561 8.68186C292.726 10.8476 293.943 13.7849 293.943 16.8477V125.73V13.5482C293.943 10.4854 292.726 7.54809 290.561 5.38239C288.395 3.21668 285.458 2 282.395 2H91.0252C87.9625 2 85.0251 3.21668 82.8594 5.38239C80.6937 7.54809 79.4771 10.4854 79.4771 13.5482V16.8477C79.4771 13.7849 80.6937 10.8476 82.8594 8.68186C85.0251 6.51616 87.9625 5.29948 91.0252 5.29948Z" fill="white"/>
<g opacity="0.1">
<path opacity="0.1" d="M144.829 137.282H158.084L256.37 2.00327H243.115L144.829 137.282Z" fill="white"/>
<path opacity="0.1" d="M165.731 137.282H169.809L268.095 2.00326H264.016L165.731 137.282Z" fill="white"/>
</g>
<path d="M282.395 2.00327H91.0252C84.6473 2.00327 79.4771 7.17356 79.4771 13.5514V125.734C79.4771 132.112 84.6473 137.282 91.0252 137.282H282.395C288.773 137.282 293.943 132.112 293.943 125.734V13.5514C293.943 7.17356 288.773 2.00327 282.395 2.00327Z" stroke="#46505C" stroke-width="4" stroke-linecap="round" stroke-linejoin="round"/>
<path d="M279.095 121.18V17.2469L94.3247 17.2469V121.18L279.095 121.18Z" fill="#FF9852"/>
<g opacity="0.06">
<path opacity="0.06" d="M157.352 121.18H170.607L246.119 17.2469H232.864L157.352 121.18Z" fill="white"/>
<path opacity="0.06" d="M178.253 121.18H182.332L257.844 17.2469H253.766L178.253 121.18Z" fill="white"/>
</g>
<path d="M279.095 121.18V17.2469L94.3247 17.2469V121.18L279.095 121.18Z" stroke="#46505C" stroke-linecap="round" stroke-linejoin="round"/>
<path d="M282.395 137.282H91.0252C84.6473 137.282 79.4771 142.452 79.4771 148.83V267.611C79.4771 273.989 84.6473 279.159 91.0252 279.159H282.395C288.773 279.159 293.943 273.989 293.943 267.611V148.83C293.943 142.452 288.773 137.282 282.395 137.282Z" fill="#E6F3FF"/>
<path d="M290.644 267.611V148.83C290.644 144.274 286.95 140.581 282.395 140.581H91.0251C86.4695 140.581 82.7764 144.274 82.7764 148.83V267.611C82.7764 272.167 86.4695 275.86 91.0251 275.86H282.395C286.95 275.86 290.644 272.167 290.644 267.611Z" fill="white" stroke="#E6F3FF" stroke-width="2" stroke-miterlimit="10"/>
<path d="M173.47 272.709H199.948C200.824 272.709 201.663 273.057 202.282 273.675C202.9 274.294 203.248 275.133 203.248 276.008V279.159H170.171V276.008C170.171 275.133 170.518 274.294 171.137 273.675C171.756 273.057 172.595 272.709 173.47 272.709Z" fill="#E6F3FF"/>
<path d="M282.395 137.282H91.0252C84.6473 137.282 79.4771 142.452 79.4771 148.83V267.611C79.4771 273.989 84.6473 279.159 91.0252 279.159H282.395C288.773 279.159 293.943 273.989 293.943 267.611V148.83C293.943 142.452 288.773 137.282 282.395 137.282Z" stroke="#46505C" stroke-width="4" stroke-linecap="round" stroke-linejoin="round"/>
<path d="M279.095 148.351H94.3247C92.958 148.351 91.8501 149.459 91.8501 150.825V221.764C91.8501 223.131 92.958 224.239 94.3247 224.239H279.095C280.462 224.239 281.57 223.131 281.57 221.764V150.825C281.57 149.459 280.462 148.351 279.095 148.351Z" fill="#E6F3FF"/>
<path d="M128.214 205.679H118.315C117.86 205.679 117.49 206.049 117.49 206.504V216.403C117.49 216.858 117.86 217.227 118.315 217.227H128.214C128.669 217.227 129.038 216.858 129.038 216.403V206.504C129.038 206.049 128.669 205.679 128.214 205.679Z" stroke="#626C84" stroke-linecap="round" stroke-linejoin="round"/>
<path d="M110.365 205.679H100.467C100.011 205.679 99.6418 206.049 99.6418 206.504V216.403C99.6418 216.858 100.011 217.227 100.467 217.227H110.365C110.821 217.227 111.19 216.858 111.19 216.403V206.504C111.19 206.049 110.821 205.679 110.365 205.679Z" stroke="#626C84" stroke-linecap="round" stroke-linejoin="round"/>
<path d="M217.459 205.679H136.164C135.709 205.679 135.34 206.049 135.34 206.504V216.403C135.34 216.858 135.709 217.227 136.164 217.227H217.459C217.914 217.227 218.284 216.858 218.284 216.403V206.504C218.284 206.049 217.914 205.679 217.459 205.679Z" stroke="#626C84" stroke-linecap="round" stroke-linejoin="round"/>
<path d="M235.308 205.679H225.41C224.954 205.679 224.585 206.049 224.585 206.504V216.403C224.585 216.858 224.954 217.227 225.41 217.227H235.308C235.764 217.227 236.133 216.858 236.133 216.403V206.504C236.133 206.049 235.764 205.679 235.308 205.679Z" stroke="#626C84" stroke-linecap="round" stroke-linejoin="round"/>
<path d="M261.405 212.175H254.806C254.351 212.175 253.981 212.544 253.981 213V216.403C253.981 216.858 254.351 217.227 254.806 217.227H261.405C261.861 217.227 262.23 216.858 262.23 216.403V213C262.23 212.544 261.861 212.175 261.405 212.175Z" stroke="#626C84" stroke-linecap="round" stroke-linejoin="round"/>
<path d="M261.405 205.679H254.806C254.351 205.679 253.981 206.049 253.981 206.504V209.907C253.981 210.362 254.351 210.732 254.806 210.732H261.405C261.861 210.732 262.23 210.362 262.23 209.907V206.504C262.23 206.049 261.861 205.679 261.405 205.679Z" stroke="#626C84" stroke-linecap="round" stroke-linejoin="round"/>
<path d="M272.953 212.175H266.354C265.899 212.175 265.53 212.544 265.53 213V216.403C265.53 216.858 265.899 217.227 266.354 217.227H272.953C273.409 217.227 273.778 216.858 273.778 216.403V213C273.778 212.544 273.409 212.175 272.953 212.175Z" stroke="#626C84" stroke-linecap="round" stroke-linejoin="round"/>
<path d="M249.857 212.175H243.258C242.803 212.175 242.433 212.544 242.433 213V216.403C242.433 216.858 242.803 217.227 243.258 217.227H249.857C250.313 217.227 250.682 216.858 250.682 216.403V213C250.682 212.544 250.313 212.175 249.857 212.175Z" stroke="#626C84" stroke-linecap="round" stroke-linejoin="round"/>
<path d="M126.565 189.249H100.467C100.011 189.249 99.6418 189.618 99.6418 190.074V199.972C99.6418 200.428 100.011 200.797 100.467 200.797H126.565C127.02 200.797 127.39 200.428 127.39 199.972V190.074C127.39 189.618 127.02 189.249 126.565 189.249Z" stroke="#626C84" stroke-linecap="round" stroke-linejoin="round"/>
<path d="M144.563 189.249H134.664C134.209 189.249 133.839 189.618 133.839 190.074V199.972C133.839 200.428 134.209 200.797 134.664 200.797H144.563C145.018 200.797 145.388 200.428 145.388 199.972V190.074C145.388 189.618 145.018 189.249 144.563 189.249Z" stroke="#626C84" stroke-linecap="round" stroke-linejoin="round"/>
<path d="M162.411 189.249H152.513C152.057 189.249 151.688 189.618 151.688 190.074V199.972C151.688 200.428 152.057 200.797 152.513 200.797H162.411C162.867 200.797 163.236 200.428 163.236 199.972V190.074C163.236 189.618 162.867 189.249 162.411 189.249Z" stroke="#626C84" stroke-linecap="round" stroke-linejoin="round"/>
<path d="M180.26 189.249H170.362C169.906 189.249 169.537 189.618 169.537 190.074V199.972C169.537 200.428 169.906 200.797 170.362 200.797H180.26C180.716 200.797 181.085 200.428 181.085 199.972V190.074C181.085 189.618 180.716 189.249 180.26 189.249Z" stroke="#626C84" stroke-linecap="round" stroke-linejoin="round"/>
<path d="M198.109 189.249H188.211C187.755 189.249 187.386 189.618 187.386 190.074V199.972C187.386 200.428 187.755 200.797 188.211 200.797H198.109C198.565 200.797 198.934 200.428 198.934 199.972V190.074C198.934 189.618 198.565 189.249 198.109 189.249Z" stroke="#626C84" stroke-linecap="round" stroke-linejoin="round"/>
<path d="M215.958 189.249H206.06C205.604 189.249 205.235 189.618 205.235 190.074V199.972C205.235 200.428 205.604 200.797 206.06 200.797H215.958C216.414 200.797 216.783 200.428 216.783 199.972V190.074C216.783 189.618 216.414 189.249 215.958 189.249Z" stroke="#626C84" stroke-linecap="round" stroke-linejoin="round"/>
<path d="M233.807 189.249H223.908C223.453 189.249 223.083 189.618 223.083 190.074V199.972C223.083 200.428 223.453 200.797 223.908 200.797H233.807C234.262 200.797 234.632 200.428 234.632 199.972V190.074C234.632 189.618 234.262 189.249 233.807 189.249Z" stroke="#626C84" stroke-linecap="round" stroke-linejoin="round"/>
<path d="M272.954 189.249H243.258C242.803 189.249 242.433 189.618 242.433 190.074V199.972C242.433 200.428 242.803 200.797 243.258 200.797H272.954C273.409 200.797 273.778 200.428 273.778 199.972V190.074C273.778 189.618 273.409 189.249 272.954 189.249Z" stroke="#626C84" stroke-linecap="round" stroke-linejoin="round"/>
<path d="M138.112 172.355H128.214C127.758 172.355 127.389 172.725 127.389 173.18V183.079C127.389 183.534 127.758 183.904 128.214 183.904H138.112C138.568 183.904 138.937 183.534 138.937 183.079V173.18C138.937 172.725 138.568 172.355 138.112 172.355Z" stroke="#626C84" stroke-linecap="round" stroke-linejoin="round"/>
<path d="M120.264 172.355H100.467C100.011 172.355 99.6418 172.725 99.6418 173.18V183.079C99.6418 183.534 100.011 183.904 100.467 183.904H120.264C120.719 183.904 121.088 183.534 121.088 183.079V173.18C121.088 172.725 120.719 172.355 120.264 172.355Z" stroke="#626C84" stroke-linecap="round" stroke-linejoin="round"/>
<path d="M155.961 172.355H146.063C145.607 172.355 145.238 172.725 145.238 173.18V183.079C145.238 183.534 145.607 183.904 146.063 183.904H155.961C156.417 183.904 156.786 183.534 156.786 183.079V173.18C156.786 172.725 156.417 172.355 155.961 172.355Z" stroke="#626C84" stroke-linecap="round" stroke-linejoin="round"/>
<path d="M173.81 172.355H163.912C163.456 172.355 163.087 172.725 163.087 173.18V183.079C163.087 183.534 163.456 183.904 163.912 183.904H173.81C174.266 183.904 174.635 183.534 174.635 183.079V173.18C174.635 172.725 174.266 172.355 173.81 172.355Z" stroke="#626C84" stroke-linecap="round" stroke-linejoin="round"/>
<path d="M191.659 172.355H181.761C181.305 172.355 180.936 172.725 180.936 173.18V183.079C180.936 183.534 181.305 183.904 181.761 183.904H191.659C192.115 183.904 192.484 183.534 192.484 183.079V173.18C192.484 172.725 192.115 172.355 191.659 172.355Z" stroke="#626C84" stroke-linecap="round" stroke-linejoin="round"/>
<path d="M209.508 172.355H199.61C199.154 172.355 198.785 172.725 198.785 173.18V183.079C198.785 183.534 199.154 183.904 199.61 183.904H209.508C209.964 183.904 210.333 183.534 210.333 183.079V173.18C210.333 172.725 209.964 172.355 209.508 172.355Z" stroke="#626C84" stroke-linecap="round" stroke-linejoin="round"/>
<path d="M227.357 172.355H217.459C217.003 172.355 216.634 172.725 216.634 173.18V183.079C216.634 183.534 217.003 183.904 217.459 183.904H227.357C227.813 183.904 228.182 183.534 228.182 183.079V173.18C228.182 172.725 227.813 172.355 227.357 172.355Z" stroke="#626C84" stroke-linecap="round" stroke-linejoin="round"/>
<path d="M245.206 172.355H235.308C234.852 172.355 234.483 172.725 234.483 173.18V183.079C234.483 183.534 234.852 183.904 235.308 183.904H245.206C245.662 183.904 246.031 183.534 246.031 183.079V173.18C246.031 172.725 245.662 172.355 245.206 172.355Z" stroke="#626C84" stroke-linecap="round" stroke-linejoin="round"/>
<path d="M272.954 172.355H253.157C252.701 172.355 252.332 172.725 252.332 173.18V183.079C252.332 183.534 252.701 183.904 253.157 183.904H272.954C273.409 183.904 273.778 183.534 273.778 183.079V173.18C273.778 172.725 273.409 172.355 272.954 172.355Z" stroke="#626C84" stroke-linecap="round" stroke-linejoin="round"/>
<path d="M128.431 156.187H118.532C118.077 156.187 117.707 156.556 117.707 157.012V166.91C117.707 167.366 118.077 167.735 118.532 167.735H128.431C128.886 167.735 129.255 167.366 129.255 166.91V157.012C129.255 156.556 128.886 156.187 128.431 156.187Z" stroke="#626C84" stroke-linecap="round" stroke-linejoin="round"/>
<path d="M110.365 156.187H100.467C100.011 156.187 99.6418 156.556 99.6418 157.012V166.91C99.6418 167.366 100.011 167.735 100.467 167.735H110.365C110.821 167.735 111.19 167.366 111.19 166.91V157.012C111.19 156.556 110.821 156.187 110.365 156.187Z" stroke="#626C84" stroke-linecap="round" stroke-linejoin="round"/>
<path d="M146.496 156.187H136.598C136.142 156.187 135.773 156.556 135.773 157.012V166.91C135.773 167.366 136.142 167.735 136.598 167.735H146.496C146.952 167.735 147.321 167.366 147.321 166.91V157.012C147.321 156.556 146.952 156.187 146.496 156.187Z" stroke="#626C84" stroke-linecap="round" stroke-linejoin="round"/>
<path d="M164.561 156.187H154.663C154.207 156.187 153.838 156.556 153.838 157.012V166.91C153.838 167.366 154.207 167.735 154.663 167.735H164.561C165.017 167.735 165.386 167.366 165.386 166.91V157.012C165.386 156.556 165.017 156.187 164.561 156.187Z" stroke="#626C84" stroke-linecap="round" stroke-linejoin="round"/>
<path d="M182.627 156.187H172.729C172.273 156.187 171.904 156.556 171.904 157.012V166.91C171.904 167.366 172.273 167.735 172.729 167.735H182.627C183.083 167.735 183.452 167.366 183.452 166.91V157.012C183.452 156.556 183.083 156.187 182.627 156.187Z" stroke="#626C84" stroke-linecap="round" stroke-linejoin="round"/>
<path d="M200.692 156.187H190.793C190.338 156.187 189.968 156.556 189.968 157.012V166.91C189.968 167.366 190.338 167.735 190.793 167.735H200.692C201.147 167.735 201.516 167.366 201.516 166.91V157.012C201.516 156.556 201.147 156.187 200.692 156.187Z" stroke="#626C84" stroke-linecap="round" stroke-linejoin="round"/>
<path d="M218.757 156.187H208.859C208.403 156.187 208.034 156.556 208.034 157.012V166.91C208.034 167.366 208.403 167.735 208.859 167.735H218.757C219.213 167.735 219.582 167.366 219.582 166.91V157.012C219.582 156.556 219.213 156.187 218.757 156.187Z" stroke="#626C84" stroke-linecap="round" stroke-linejoin="round"/>
<path d="M236.822 156.187H226.924C226.468 156.187 226.099 156.556 226.099 157.012V166.91C226.099 167.366 226.468 167.735 226.924 167.735H236.822C237.278 167.735 237.647 167.366 237.647 166.91V157.012C237.647 156.556 237.278 156.187 236.822 156.187Z" stroke="#626C84" stroke-linecap="round" stroke-linejoin="round"/>
<path d="M254.888 156.187H244.99C244.534 156.187 244.165 156.556 244.165 157.012V166.91C244.165 167.366 244.534 167.735 244.99 167.735H254.888C255.344 167.735 255.713 167.366 255.713 166.91V157.012C255.713 156.556 255.344 156.187 254.888 156.187Z" stroke="#626C84" stroke-linecap="round" stroke-linejoin="round"/>
<path d="M272.954 156.187H263.055C262.6 156.187 262.23 156.556 262.23 157.012V166.91C262.23 167.366 262.6 167.735 263.055 167.735H272.954C273.409 167.735 273.778 167.366 273.778 166.91V157.012C273.778 156.556 273.409 156.187 272.954 156.187Z" stroke="#626C84" stroke-linecap="round" stroke-linejoin="round"/>
<path d="M128.214 205.679H118.315C117.86 205.679 117.49 206.049 117.49 206.504V216.403C117.49 216.858 117.86 217.227 118.315 217.227H128.214C128.669 217.227 129.038 216.858 129.038 216.403V206.504C129.038 206.049 128.669 205.679 128.214 205.679Z" fill="#626C84"/>
<path d="M110.365 205.679H100.467C100.011 205.679 99.6418 206.049 99.6418 206.504V216.403C99.6418 216.858 100.011 217.227 100.467 217.227H110.365C110.821 217.227 111.19 216.858 111.19 216.403V206.504C111.19 206.049 110.821 205.679 110.365 205.679Z" fill="#626C84"/>
<path d="M217.459 205.679H136.164C135.709 205.679 135.34 206.049 135.34 206.504V216.403C135.34 216.858 135.709 217.227 136.164 217.227H217.459C217.914 217.227 218.284 216.858 218.284 216.403V206.504C218.284 206.049 217.914 205.679 217.459 205.679Z" fill="#626C84"/>
<path d="M235.308 205.679H225.41C224.954 205.679 224.585 206.049 224.585 206.504V216.403C224.585 216.858 224.954 217.227 225.41 217.227H235.308C235.764 217.227 236.133 216.858 236.133 216.403V206.504C236.133 206.049 235.764 205.679 235.308 205.679Z" fill="#626C84"/>
<path d="M261.405 212.175H254.806C254.351 212.175 253.981 212.544 253.981 213V216.403C253.981 216.858 254.351 217.227 254.806 217.227H261.405C261.861 217.227 262.23 216.858 262.23 216.403V213C262.23 212.544 261.861 212.175 261.405 212.175Z" fill="#626C84"/>
<path d="M261.405 205.679H254.806C254.351 205.679 253.981 206.049 253.981 206.504V209.907C253.981 210.362 254.351 210.732 254.806 210.732H261.405C261.861 210.732 262.23 210.362 262.23 209.907V206.504C262.23 206.049 261.861 205.679 261.405 205.679Z" fill="#626C84"/>
<path d="M272.953 212.175H266.354C265.899 212.175 265.53 212.544 265.53 213V216.403C265.53 216.858 265.899 217.227 266.354 217.227H272.953C273.409 217.227 273.778 216.858 273.778 216.403V213C273.778 212.544 273.409 212.175 272.953 212.175Z" fill="#626C84"/>
<path d="M249.857 212.175H243.258C242.803 212.175 242.433 212.544 242.433 213V216.403C242.433 216.858 242.803 217.227 243.258 217.227H249.857C250.313 217.227 250.682 216.858 250.682 216.403V213C250.682 212.544 250.313 212.175 249.857 212.175Z" fill="#626C84"/>
<path d="M126.565 189.249H100.467C100.011 189.249 99.6418 189.618 99.6418 190.074V199.972C99.6418 200.428 100.011 200.797 100.467 200.797H126.565C127.02 200.797 127.39 200.428 127.39 199.972V190.074C127.39 189.618 127.02 189.249 126.565 189.249Z" fill="#626C84"/>
<path d="M144.563 189.249H134.664C134.209 189.249 133.839 189.618 133.839 190.074V199.972C133.839 200.428 134.209 200.797 134.664 200.797H144.563C145.018 200.797 145.388 200.428 145.388 199.972V190.074C145.388 189.618 145.018 189.249 144.563 189.249Z" fill="#626C84"/>
<path d="M162.411 189.249H152.513C152.057 189.249 151.688 189.618 151.688 190.074V199.972C151.688 200.428 152.057 200.797 152.513 200.797H162.411C162.867 200.797 163.236 200.428 163.236 199.972V190.074C163.236 189.618 162.867 189.249 162.411 189.249Z" fill="#626C84"/>
<path d="M180.26 189.249H170.362C169.906 189.249 169.537 189.618 169.537 190.074V199.972C169.537 200.428 169.906 200.797 170.362 200.797H180.26C180.716 200.797 181.085 200.428 181.085 199.972V190.074C181.085 189.618 180.716 189.249 180.26 189.249Z" fill="#626C84"/>
<path d="M198.109 189.249H188.211C187.755 189.249 187.386 189.618 187.386 190.074V199.972C187.386 200.428 187.755 200.797 188.211 200.797H198.109C198.565 200.797 198.934 200.428 198.934 199.972V190.074C198.934 189.618 198.565 189.249 198.109 189.249Z" fill="#626C84"/>
<path d="M215.958 189.249H206.06C205.604 189.249 205.235 189.618 205.235 190.074V199.972C205.235 200.428 205.604 200.797 206.06 200.797H215.958C216.414 200.797 216.783 200.428 216.783 199.972V190.074C216.783 189.618 216.414 189.249 215.958 189.249Z" fill="#626C84"/>
<path d="M233.807 189.249H223.908C223.453 189.249 223.083 189.618 223.083 190.074V199.972C223.083 200.428 223.453 200.797 223.908 200.797H233.807C234.262 200.797 234.632 200.428 234.632 199.972V190.074C234.632 189.618 234.262 189.249 233.807 189.249Z" fill="#626C84"/>
<path d="M272.954 189.249H243.258C242.803 189.249 242.433 189.618 242.433 190.074V199.972C242.433 200.428 242.803 200.797 243.258 200.797H272.954C273.409 200.797 273.778 200.428 273.778 199.972V190.074C273.778 189.618 273.409 189.249 272.954 189.249Z" fill="#626C84"/>
<path d="M138.112 172.355H128.214C127.758 172.355 127.389 172.725 127.389 173.18V183.079C127.389 183.534 127.758 183.904 128.214 183.904H138.112C138.568 183.904 138.937 183.534 138.937 183.079V173.18C138.937 172.725 138.568 172.355 138.112 172.355Z" fill="#626C84"/>
<path d="M120.264 172.355H100.467C100.011 172.355 99.6418 172.725 99.6418 173.18V183.079C99.6418 183.534 100.011 183.904 100.467 183.904H120.264C120.719 183.904 121.088 183.534 121.088 183.079V173.18C121.088 172.725 120.719 172.355 120.264 172.355Z" fill="#626C84"/>
<path d="M155.961 172.355H146.063C145.607 172.355 145.238 172.725 145.238 173.18V183.079C145.238 183.534 145.607 183.904 146.063 183.904H155.961C156.417 183.904 156.786 183.534 156.786 183.079V173.18C156.786 172.725 156.417 172.355 155.961 172.355Z" fill="#626C84"/>
<path d="M173.81 172.355H163.912C163.456 172.355 163.087 172.725 163.087 173.18V183.079C163.087 183.534 163.456 183.904 163.912 183.904H173.81C174.266 183.904 174.635 183.534 174.635 183.079V173.18C174.635 172.725 174.266 172.355 173.81 172.355Z" fill="#626C84"/>
<path d="M191.659 172.355H181.761C181.305 172.355 180.936 172.725 180.936 173.18V183.079C180.936 183.534 181.305 183.904 181.761 183.904H191.659C192.115 183.904 192.484 183.534 192.484 183.079V173.18C192.484 172.725 192.115 172.355 191.659 172.355Z" fill="#626C84"/>
<path d="M209.508 172.355H199.61C199.154 172.355 198.785 172.725 198.785 173.18V183.079C198.785 183.534 199.154 183.904 199.61 183.904H209.508C209.964 183.904 210.333 183.534 210.333 183.079V173.18C210.333 172.725 209.964 172.355 209.508 172.355Z" fill="#626C84"/>
<path d="M227.357 172.355H217.459C217.003 172.355 216.634 172.725 216.634 173.18V183.079C216.634 183.534 217.003 183.904 217.459 183.904H227.357C227.813 183.904 228.182 183.534 228.182 183.079V173.18C228.182 172.725 227.813 172.355 227.357 172.355Z" fill="#626C84"/>
<path d="M245.206 172.355H235.308C234.852 172.355 234.483 172.725 234.483 173.18V183.079C234.483 183.534 234.852 183.904 235.308 183.904H245.206C245.662 183.904 246.031 183.534 246.031 183.079V173.18C246.031 172.725 245.662 172.355 245.206 172.355Z" fill="#626C84"/>
<path d="M272.954 172.355H253.157C252.701 172.355 252.332 172.725 252.332 173.18V183.079C252.332 183.534 252.701 183.904 253.157 183.904H272.954C273.409 183.904 273.778 183.534 273.778 183.079V173.18C273.778 172.725 273.409 172.355 272.954 172.355Z" fill="#626C84"/>
<path d="M128.431 156.187H118.532C118.077 156.187 117.707 156.556 117.707 157.012V166.91C117.707 167.366 118.077 167.735 118.532 167.735H128.431C128.886 167.735 129.255 167.366 129.255 166.91V157.012C129.255 156.556 128.886 156.187 128.431 156.187Z" fill="#626C84"/>
<path d="M110.365 156.187H100.467C100.011 156.187 99.6418 156.556 99.6418 157.012V166.91C99.6418 167.366 100.011 167.735 100.467 167.735H110.365C110.821 167.735 111.19 167.366 111.19 166.91V157.012C111.19 156.556 110.821 156.187 110.365 156.187Z" fill="#626C84"/>
<path d="M146.496 156.187H136.598C136.142 156.187 135.773 156.556 135.773 157.012V166.91C135.773 167.366 136.142 167.735 136.598 167.735H146.496C146.952 167.735 147.321 167.366 147.321 166.91V157.012C147.321 156.556 146.952 156.187 146.496 156.187Z" fill="#626C84"/>
<path d="M164.561 156.187H154.663C154.207 156.187 153.838 156.556 153.838 157.012V166.91C153.838 167.366 154.207 167.735 154.663 167.735H164.561C165.017 167.735 165.386 167.366 165.386 166.91V157.012C165.386 156.556 165.017 156.187 164.561 156.187Z" fill="#626C84"/>
<path d="M182.627 156.187H172.729C172.273 156.187 171.904 156.556 171.904 157.012V166.91C171.904 167.366 172.273 167.735 172.729 167.735H182.627C183.083 167.735 183.452 167.366 183.452 166.91V157.012C183.452 156.556 183.083 156.187 182.627 156.187Z" fill="#626C84"/>
<path d="M200.692 156.187H190.793C190.338 156.187 189.968 156.556 189.968 157.012V166.91C189.968 167.366 190.338 167.735 190.793 167.735H200.692C201.147 167.735 201.516 167.366 201.516 166.91V157.012C201.516 156.556 201.147 156.187 200.692 156.187Z" fill="#626C84"/>
<path d="M218.757 156.187H208.859C208.403 156.187 208.034 156.556 208.034 157.012V166.91C208.034 167.366 208.403 167.735 208.859 167.735H218.757C219.213 167.735 219.582 167.366 219.582 166.91V157.012C219.582 156.556 219.213 156.187 218.757 156.187Z" fill="#626C84"/>
<path d="M236.822 156.187H226.924C226.468 156.187 226.099 156.556 226.099 157.012V166.91C226.099 167.366 226.468 167.735 226.924 167.735H236.822C237.278 167.735 237.647 167.366 237.647 166.91V157.012C237.647 156.556 237.278 156.187 236.822 156.187Z" fill="#626C84"/>
<path d="M254.888 156.187H244.99C244.534 156.187 244.165 156.556 244.165 157.012V166.91C244.165 167.366 244.534 167.735 244.99 167.735H254.888C255.344 167.735 255.713 167.366 255.713 166.91V157.012C255.713 156.556 255.344 156.187 254.888 156.187Z" fill="#626C84"/>
<path d="M272.954 156.187H263.055C262.6 156.187 262.23 156.556 262.23 157.012V166.91C262.23 167.366 262.6 167.735 263.055 167.735H272.954C273.409 167.735 273.778 167.366 273.778 166.91V157.012C273.778 156.556 273.409 156.187 272.954 156.187Z" fill="#626C84"/>
<path d="M116.596 129.871H256.824V140.962C256.824 141.838 256.476 142.677 255.858 143.296C255.239 143.914 254.4 144.262 253.525 144.262H119.896C119.021 144.262 118.181 143.914 117.563 143.296C116.944 142.677 116.596 141.838 116.596 140.962V129.871Z" fill="#626C84"/>
<path opacity="0.12" d="M256.824 129.871H116.596V131.521H256.824V129.871Z" fill="white"/>
<g style="mix-blend-mode:multiply" opacity="0.25">
<path d="M253.525 140.962H119.896C119.021 140.962 118.181 140.614 117.563 139.995C116.944 139.376 116.596 138.537 116.596 137.662V140.962C116.596 141.837 116.944 142.676 117.563 143.295C118.181 143.914 119.021 144.261 119.896 144.261H253.525C254.4 144.261 255.239 143.914 255.858 143.295C256.476 142.676 256.824 141.837 256.824 140.962V137.662C256.824 138.537 256.476 139.376 255.858 139.995C255.239 140.614 254.4 140.962 253.525 140.962Z" fill="#626C84"/>
</g>
<path d="M116.596 129.871H256.824V140.962C256.824 141.838 256.476 142.677 255.858 143.296C255.239 143.914 254.4 144.262 253.525 144.262H119.896C119.021 144.262 118.181 143.914 117.563 143.296C116.944 142.677 116.596 141.838 116.596 140.962V129.871Z" stroke="#46505C" stroke-width="2" stroke-linecap="round" stroke-linejoin="round"/>
<path d="M215.581 228.363H157.84C156.929 228.363 156.19 229.102 156.19 230.013V268.782C156.19 269.693 156.929 270.432 157.84 270.432H215.581C216.492 270.432 217.23 269.693 217.23 268.782V230.013C217.23 229.102 216.492 228.363 215.581 228.363Z" fill="#E6F3FF"/>
<path d="M215.581 228.363H157.84C156.929 228.363 156.19 229.102 156.19 230.013V268.782C156.19 269.693 156.929 270.432 157.84 270.432H215.581C216.492 270.432 217.23 269.693 217.23 268.782V230.013C217.23 229.102 216.492 228.363 215.581 228.363Z" stroke="#626C84" stroke-linecap="round" stroke-linejoin="round"/>
<path opacity="0.52" d="M186.71 12.8487C188.077 12.8487 189.185 11.7407 189.185 10.3741C189.185 9.00736 188.077 7.89944 186.71 7.89944C185.343 7.89944 184.235 9.00736 184.235 10.3741C184.235 11.7407 185.343 12.8487 186.71 12.8487Z" fill="white"/>
<path d="M186.71 12.8487C188.077 12.8487 189.185 11.7407 189.185 10.3741C189.185 9.00736 188.077 7.89944 186.71 7.89944C185.343 7.89944 184.235 9.00736 184.235 10.3741C184.235 11.7407 185.343 12.8487 186.71 12.8487Z" stroke="#46505C" stroke-linecap="round" stroke-linejoin="round"/>
<path d="M238.149 27.7599H228.25C227.795 27.7599 227.426 28.1292 227.426 28.5847C227.426 29.0403 227.795 29.4096 228.25 29.4096H238.149C238.604 29.4096 238.974 29.0403 238.974 28.5847C238.974 28.1292 238.604 27.7599 238.149 27.7599Z" fill="white"/>
<path d="M259.574 27.7599H249.676C249.22 27.7599 248.851 28.1292 248.851 28.5847C248.851 29.0403 249.22 29.4096 249.676 29.4096H259.574C260.03 29.4096 260.399 29.0403 260.399 28.5847C260.399 28.1292 260.03 27.7599 259.574 27.7599Z" fill="white"/>
<path d="M216.725 27.7599H206.826C206.371 27.7599 206.001 28.1292 206.001 28.5847C206.001 29.0403 206.371 29.4096 206.826 29.4096H216.725C217.18 29.4096 217.549 29.0403 217.549 28.5847C217.549 28.1292 217.18 27.7599 216.725 27.7599Z" fill="white"/>
<path d="M110.189 33.0044C112.393 33.0044 114.179 31.218 114.179 29.0145C114.179 26.8109 112.393 25.0246 110.189 25.0246C107.986 25.0246 106.199 26.8109 106.199 29.0145C106.199 31.218 107.986 33.0044 110.189 33.0044Z" fill="white"/>
<g opacity="0.72">
<path opacity="0.72" d="M228.414 72.7004H144.909V75.707H228.414V72.7004Z" fill="white"/>
<path opacity="0.72" d="M217.854 62.7211H155.47V65.7715H217.854V62.7211Z" fill="white"/>
</g>
<path d="M201.067 96.0722H177.302C174.805 96.0722 172.781 98.0964 172.781 100.593C172.781 103.09 174.805 105.114 177.302 105.114H201.067C203.564 105.114 205.588 103.09 205.588 100.593C205.588 98.0964 203.564 96.0722 201.067 96.0722Z" stroke="white" stroke-miterlimit="10"/>
</svg>
