<svg width="414" height="489" viewBox="0 0 414 489" fill="none" xmlns="http://www.w3.org/2000/svg">
<rect x="-1" width="415" height="489" fill="#FEBD15"/>
<g style="mix-blend-mode:multiply" opacity="0.33">
<g style="mix-blend-mode:multiply" opacity="0.33">
<path d="M325.953 225.538H134.583C128.205 225.538 123.035 230.708 123.035 237.086V251.503C123.035 257.881 128.205 263.051 134.583 263.051H325.953C332.33 263.051 337.501 257.881 337.501 251.503V237.086C337.501 230.708 332.33 225.538 325.953 225.538Z" fill="#4E4E4E"/>
<path d="M325.953 225.538H134.583C128.205 225.538 123.035 230.708 123.035 237.086V251.503C123.035 257.881 128.205 263.051 134.583 263.051H325.953C332.33 263.051 337.501 257.881 337.501 251.503V237.086C337.501 230.708 332.33 225.538 325.953 225.538Z" stroke="black" stroke-linecap="round" stroke-linejoin="round"/>
</g>
<g style="mix-blend-mode:multiply" opacity="0.33">
<path d="M325.953 225.538H134.583C128.205 225.538 123.035 230.708 123.035 237.086V251.503C123.035 257.881 128.205 263.051 134.583 263.051H325.953C332.33 263.051 337.501 257.881 337.501 251.503V237.086C337.501 230.708 332.33 225.538 325.953 225.538Z" fill="#4E4E4E"/>
</g>
<g style="mix-blend-mode:multiply" opacity="0.17">
<path d="M134.583 225.538H325.953C329.016 225.538 331.953 226.755 334.119 228.92C336.284 231.086 337.501 234.023 337.501 237.086V253.945C337.501 255.815 336.758 257.609 335.435 258.931C334.113 260.254 332.319 260.997 330.449 260.997H130.087C128.217 260.997 126.424 260.254 125.101 258.931C123.779 257.609 123.036 255.815 123.036 253.945V237.086C123.036 234.023 124.252 231.086 126.418 228.92C128.584 226.755 131.521 225.538 134.584 225.538H134.583Z" fill="#4E4E4E"/>
</g>
<g style="mix-blend-mode:multiply" opacity="0.33">
<path d="M325.953 225.538H134.583C128.205 225.538 123.035 230.708 123.035 237.086V251.503C123.035 257.881 128.205 263.051 134.583 263.051H325.953C332.33 263.051 337.501 257.881 337.501 251.503V237.086C337.501 230.708 332.33 225.538 325.953 225.538Z" fill="#4E4E4E"/>
<path d="M325.953 225.538H134.583C128.205 225.538 123.035 230.708 123.035 237.086V251.503C123.035 257.881 128.205 263.051 134.583 263.051H325.953C332.33 263.051 337.501 257.881 337.501 251.503V237.086C337.501 230.708 332.33 225.538 325.953 225.538Z" stroke="#46505C" stroke-width="4" stroke-linecap="round" stroke-linejoin="round"/>
</g>
<g style="mix-blend-mode:multiply" opacity="0.33">
<path d="M322.653 258.586V229.765H137.882V258.586H322.653Z" fill="#4E4E4E"/>
</g>
<g style="mix-blend-mode:multiply" opacity="0.33">
<path d="M322.653 258.586V229.765H137.882V258.586H322.653Z" fill="#4E4E4E"/>
<path d="M322.653 258.586V229.765H137.882V258.586H322.653Z" stroke="#46505C" stroke-linecap="round" stroke-linejoin="round"/>
</g>
<g style="mix-blend-mode:multiply" opacity="0.33">
<path d="M325.953 263.051H134.584C128.206 263.051 123.035 268.222 123.035 274.599V393.381C123.035 399.759 128.206 404.929 134.584 404.929H325.953C332.331 404.929 337.501 399.759 337.501 393.381V274.599C337.501 268.222 332.331 263.051 325.953 263.051Z" fill="#4E4E4E"/>
</g>
<g style="mix-blend-mode:multiply" opacity="0.33">
<path d="M334.202 393.381V274.599C334.202 270.044 330.509 266.351 325.953 266.351H134.584C130.028 266.351 126.335 270.044 126.335 274.599V393.381C126.335 397.936 130.028 401.629 134.584 401.629H325.953C330.509 401.629 334.202 397.936 334.202 393.381Z" fill="#4E4E4E"/>
<path d="M334.202 393.381V274.599C334.202 270.044 330.509 266.351 325.953 266.351H134.584C130.028 266.351 126.335 270.044 126.335 274.599V393.381C126.335 397.936 130.028 401.629 134.584 401.629H325.953C330.509 401.629 334.202 397.936 334.202 393.381Z" stroke="#E6F3FF" stroke-width="2" stroke-miterlimit="10"/>
</g>
<g style="mix-blend-mode:multiply" opacity="0.33">
<path d="M217.028 398.476H243.507C244.382 398.476 245.221 398.824 245.84 399.442C246.459 400.061 246.806 400.9 246.806 401.775V404.926H213.729V401.775C213.729 400.9 214.077 400.061 214.695 399.442C215.314 398.824 216.153 398.476 217.028 398.476Z" fill="#4E4E4E"/>
</g>
<g style="mix-blend-mode:multiply" opacity="0.33">
<path d="M325.953 263.051H134.584C128.206 263.051 123.035 268.222 123.035 274.599V393.381C123.035 399.759 128.206 404.929 134.584 404.929H325.953C332.331 404.929 337.501 399.759 337.501 393.381V274.599C337.501 268.222 332.331 263.051 325.953 263.051Z" fill="#4E4E4E"/>
<path d="M325.953 263.051H134.584C128.206 263.051 123.035 268.222 123.035 274.599V393.381C123.035 399.759 128.206 404.929 134.584 404.929H325.953C332.331 404.929 337.501 399.759 337.501 393.381V274.599C337.501 268.222 332.331 263.051 325.953 263.051Z" stroke="#46505C" stroke-width="4" stroke-linecap="round" stroke-linejoin="round"/>
</g>
<g style="mix-blend-mode:multiply" opacity="0.33">
<path d="M322.653 274.121H137.882C136.516 274.121 135.408 275.229 135.408 276.596V347.534C135.408 348.901 136.516 350.009 137.882 350.009H322.653C324.02 350.009 325.128 348.901 325.128 347.534V276.596C325.128 275.229 324.02 274.121 322.653 274.121Z" fill="#4E4E4E"/>
</g>
<g style="mix-blend-mode:multiply" opacity="0.33">
<path d="M171.772 331.45H161.874C161.418 331.45 161.049 331.819 161.049 332.274V342.173C161.049 342.628 161.418 342.998 161.874 342.998H171.772C172.228 342.998 172.597 342.628 172.597 342.173V332.274C172.597 331.819 172.228 331.45 171.772 331.45Z" fill="#4E4E4E"/>
<path d="M171.772 331.45H161.874C161.418 331.45 161.049 331.819 161.049 332.274V342.173C161.049 342.628 161.418 342.998 161.874 342.998H171.772C172.228 342.998 172.597 342.628 172.597 342.173V332.274C172.597 331.819 172.228 331.45 171.772 331.45Z" stroke="#626C84" stroke-linecap="round" stroke-linejoin="round"/>
</g>
<g style="mix-blend-mode:multiply" opacity="0.33">
<path d="M153.923 331.45H144.024C143.569 331.45 143.199 331.819 143.199 332.274V342.173C143.199 342.628 143.569 342.998 144.024 342.998H153.923C154.378 342.998 154.748 342.628 154.748 342.173V332.274C154.748 331.819 154.378 331.45 153.923 331.45Z" fill="#4E4E4E"/>
<path d="M153.923 331.45H144.024C143.569 331.45 143.199 331.819 143.199 332.274V342.173C143.199 342.628 143.569 342.998 144.024 342.998H153.923C154.378 342.998 154.748 342.628 154.748 342.173V332.274C154.748 331.819 154.378 331.45 153.923 331.45Z" stroke="#626C84" stroke-linecap="round" stroke-linejoin="round"/>
</g>
<g style="mix-blend-mode:multiply" opacity="0.33">
<path d="M261.016 331.45H179.722C179.267 331.45 178.897 331.819 178.897 332.274V342.173C178.897 342.628 179.267 342.998 179.722 342.998H261.016C261.472 342.998 261.841 342.628 261.841 342.173V332.274C261.841 331.819 261.472 331.45 261.016 331.45Z" fill="#4E4E4E"/>
<path d="M261.016 331.45H179.722C179.267 331.45 178.897 331.819 178.897 332.274V342.173C178.897 342.628 179.267 342.998 179.722 342.998H261.016C261.472 342.998 261.841 342.628 261.841 342.173V332.274C261.841 331.819 261.472 331.45 261.016 331.45Z" stroke="#626C84" stroke-linecap="round" stroke-linejoin="round"/>
</g>
<g style="mix-blend-mode:multiply" opacity="0.33">
<path d="M278.866 331.45H268.967C268.512 331.45 268.142 331.819 268.142 332.274V342.173C268.142 342.628 268.512 342.998 268.967 342.998H278.866C279.321 342.998 279.691 342.628 279.691 342.173V332.274C279.691 331.819 279.321 331.45 278.866 331.45Z" fill="#4E4E4E"/>
<path d="M278.866 331.45H268.967C268.512 331.45 268.142 331.819 268.142 332.274V342.173C268.142 342.628 268.512 342.998 268.967 342.998H278.866C279.321 342.998 279.691 342.628 279.691 342.173V332.274C279.691 331.819 279.321 331.45 278.866 331.45Z" stroke="#626C84" stroke-linecap="round" stroke-linejoin="round"/>
</g>
<g style="mix-blend-mode:multiply" opacity="0.33">
<path d="M304.964 337.945H298.365C297.909 337.945 297.54 338.315 297.54 338.77V342.173C297.54 342.628 297.909 342.998 298.365 342.998H304.964C305.419 342.998 305.788 342.628 305.788 342.173V338.77C305.788 338.315 305.419 337.945 304.964 337.945Z" fill="#4E4E4E"/>
<path d="M304.964 337.945H298.365C297.909 337.945 297.54 338.315 297.54 338.77V342.173C297.54 342.628 297.909 342.998 298.365 342.998H304.964C305.419 342.998 305.788 342.628 305.788 342.173V338.77C305.788 338.315 305.419 337.945 304.964 337.945Z" stroke="#626C84" stroke-linecap="round" stroke-linejoin="round"/>
</g>
<g style="mix-blend-mode:multiply" opacity="0.33">
<path d="M304.964 331.45H298.365C297.909 331.45 297.54 331.819 297.54 332.274V335.677C297.54 336.133 297.909 336.502 298.365 336.502H304.964C305.419 336.502 305.788 336.133 305.788 335.677V332.274C305.788 331.819 305.419 331.45 304.964 331.45Z" fill="#4E4E4E"/>
<path d="M304.964 331.45H298.365C297.909 331.45 297.54 331.819 297.54 332.274V335.677C297.54 336.133 297.909 336.502 298.365 336.502H304.964C305.419 336.502 305.788 336.133 305.788 335.677V332.274C305.788 331.819 305.419 331.45 304.964 331.45Z" stroke="#626C84" stroke-linecap="round" stroke-linejoin="round"/>
</g>
<g style="mix-blend-mode:multiply" opacity="0.33">
<path d="M316.512 337.945H309.913C309.457 337.945 309.088 338.315 309.088 338.77V342.173C309.088 342.628 309.457 342.998 309.913 342.998H316.512C316.968 342.998 317.337 342.628 317.337 342.173V338.77C317.337 338.315 316.968 337.945 316.512 337.945Z" fill="#4E4E4E"/>
<path d="M316.512 337.945H309.913C309.457 337.945 309.088 338.315 309.088 338.77V342.173C309.088 342.628 309.457 342.998 309.913 342.998H316.512C316.968 342.998 317.337 342.628 317.337 342.173V338.77C317.337 338.315 316.968 337.945 316.512 337.945Z" stroke="#626C84" stroke-linecap="round" stroke-linejoin="round"/>
</g>
<g style="mix-blend-mode:multiply" opacity="0.33">
<path d="M293.416 337.945H286.817C286.361 337.945 285.992 338.315 285.992 338.77V342.173C285.992 342.628 286.361 342.998 286.817 342.998H293.416C293.871 342.998 294.24 342.628 294.24 342.173V338.77C294.24 338.315 293.871 337.945 293.416 337.945Z" fill="#4E4E4E"/>
<path d="M293.416 337.945H286.817C286.361 337.945 285.992 338.315 285.992 338.77V342.173C285.992 342.628 286.361 342.998 286.817 342.998H293.416C293.871 342.998 294.24 342.628 294.24 342.173V338.77C294.24 338.315 293.871 337.945 293.416 337.945Z" stroke="#626C84" stroke-linecap="round" stroke-linejoin="round"/>
</g>
<g style="mix-blend-mode:multiply" opacity="0.33">
<path d="M170.122 315.018H144.024C143.569 315.018 143.199 315.387 143.199 315.843V325.741C143.199 326.197 143.569 326.566 144.024 326.566H170.122C170.578 326.566 170.947 326.197 170.947 325.741V315.843C170.947 315.387 170.578 315.018 170.122 315.018Z" fill="#4E4E4E"/>
<path d="M170.122 315.018H144.024C143.569 315.018 143.199 315.387 143.199 315.843V325.741C143.199 326.197 143.569 326.566 144.024 326.566H170.122C170.578 326.566 170.947 326.197 170.947 325.741V315.843C170.947 315.387 170.578 315.018 170.122 315.018Z" stroke="#626C84" stroke-linecap="round" stroke-linejoin="round"/>
</g>
<g style="mix-blend-mode:multiply" opacity="0.33">
<path d="M188.12 315.018H178.222C177.766 315.018 177.397 315.387 177.397 315.843V325.741C177.397 326.197 177.766 326.566 178.222 326.566H188.12C188.576 326.566 188.945 326.197 188.945 325.741V315.843C188.945 315.387 188.576 315.018 188.12 315.018Z" fill="#4E4E4E"/>
<path d="M188.12 315.018H178.222C177.766 315.018 177.397 315.387 177.397 315.843V325.741C177.397 326.197 177.766 326.566 178.222 326.566H188.12C188.576 326.566 188.945 326.197 188.945 325.741V315.843C188.945 315.387 188.576 315.018 188.12 315.018Z" stroke="#626C84" stroke-linecap="round" stroke-linejoin="round"/>
</g>
<g style="mix-blend-mode:multiply" opacity="0.33">
<path d="M205.969 315.018H196.071C195.615 315.018 195.246 315.387 195.246 315.843V325.741C195.246 326.197 195.615 326.566 196.071 326.566H205.969C206.425 326.566 206.794 326.197 206.794 325.741V315.843C206.794 315.387 206.425 315.018 205.969 315.018Z" fill="#4E4E4E"/>
<path d="M205.969 315.018H196.071C195.615 315.018 195.246 315.387 195.246 315.843V325.741C195.246 326.197 195.615 326.566 196.071 326.566H205.969C206.425 326.566 206.794 326.197 206.794 325.741V315.843C206.794 315.387 206.425 315.018 205.969 315.018Z" stroke="#626C84" stroke-linecap="round" stroke-linejoin="round"/>
</g>
<g style="mix-blend-mode:multiply" opacity="0.33">
<path d="M223.818 315.018H213.92C213.464 315.018 213.095 315.387 213.095 315.843V325.741C213.095 326.197 213.464 326.566 213.92 326.566H223.818C224.274 326.566 224.643 326.197 224.643 325.741V315.843C224.643 315.387 224.274 315.018 223.818 315.018Z" fill="#4E4E4E"/>
<path d="M223.818 315.018H213.92C213.464 315.018 213.095 315.387 213.095 315.843V325.741C213.095 326.197 213.464 326.566 213.92 326.566H223.818C224.274 326.566 224.643 326.197 224.643 325.741V315.843C224.643 315.387 224.274 315.018 223.818 315.018Z" stroke="#626C84" stroke-linecap="round" stroke-linejoin="round"/>
</g>
<g style="mix-blend-mode:multiply" opacity="0.33">
<path d="M241.667 315.018H231.769C231.313 315.018 230.944 315.387 230.944 315.843V325.741C230.944 326.197 231.313 326.566 231.769 326.566H241.667C242.123 326.566 242.492 326.197 242.492 325.741V315.843C242.492 315.387 242.123 315.018 241.667 315.018Z" fill="#4E4E4E"/>
<path d="M241.667 315.018H231.769C231.313 315.018 230.944 315.387 230.944 315.843V325.741C230.944 326.197 231.313 326.566 231.769 326.566H241.667C242.123 326.566 242.492 326.197 242.492 325.741V315.843C242.492 315.387 242.123 315.018 241.667 315.018Z" stroke="#626C84" stroke-linecap="round" stroke-linejoin="round"/>
</g>
<g style="mix-blend-mode:multiply" opacity="0.33">
<path d="M259.516 315.018H249.617C249.162 315.018 248.792 315.387 248.792 315.843V325.741C248.792 326.197 249.162 326.566 249.617 326.566H259.516C259.971 326.566 260.341 326.197 260.341 325.741V315.843C260.341 315.387 259.971 315.018 259.516 315.018Z" fill="#4E4E4E"/>
<path d="M259.516 315.018H249.617C249.162 315.018 248.792 315.387 248.792 315.843V325.741C248.792 326.197 249.162 326.566 249.617 326.566H259.516C259.971 326.566 260.341 326.197 260.341 325.741V315.843C260.341 315.387 259.971 315.018 259.516 315.018Z" stroke="#626C84" stroke-linecap="round" stroke-linejoin="round"/>
</g>
<g style="mix-blend-mode:multiply" opacity="0.33">
<path d="M277.365 315.018H267.467C267.011 315.018 266.642 315.387 266.642 315.843V325.741C266.642 326.197 267.011 326.566 267.467 326.566H277.365C277.821 326.566 278.19 326.197 278.19 325.741V315.843C278.19 315.387 277.821 315.018 277.365 315.018Z" fill="#4E4E4E"/>
<path d="M277.365 315.018H267.467C267.011 315.018 266.642 315.387 266.642 315.843V325.741C266.642 326.197 267.011 326.566 267.467 326.566H277.365C277.821 326.566 278.19 326.197 278.19 325.741V315.843C278.19 315.387 277.821 315.018 277.365 315.018Z" stroke="#626C84" stroke-linecap="round" stroke-linejoin="round"/>
</g>
<g style="mix-blend-mode:multiply" opacity="0.33">
<path d="M316.512 315.018H286.817C286.361 315.018 285.992 315.387 285.992 315.843V325.741C285.992 326.197 286.361 326.566 286.817 326.566H316.512C316.967 326.566 317.337 326.197 317.337 325.741V315.843C317.337 315.387 316.967 315.018 316.512 315.018Z" fill="#4E4E4E"/>
<path d="M316.512 315.018H286.817C286.361 315.018 285.992 315.387 285.992 315.843V325.741C285.992 326.197 286.361 326.566 286.817 326.566H316.512C316.967 326.566 317.337 326.197 317.337 325.741V315.843C317.337 315.387 316.967 315.018 316.512 315.018Z" stroke="#626C84" stroke-linecap="round" stroke-linejoin="round"/>
</g>
<g style="mix-blend-mode:multiply" opacity="0.33">
<path d="M181.67 298.125H171.772C171.316 298.125 170.947 298.494 170.947 298.95V308.848C170.947 309.304 171.316 309.673 171.772 309.673H181.67C182.126 309.673 182.495 309.304 182.495 308.848V298.95C182.495 298.494 182.126 298.125 181.67 298.125Z" fill="#4E4E4E"/>
<path d="M181.67 298.125H171.772C171.316 298.125 170.947 298.494 170.947 298.95V308.848C170.947 309.304 171.316 309.673 171.772 309.673H181.67C182.126 309.673 182.495 309.304 182.495 308.848V298.95C182.495 298.494 182.126 298.125 181.67 298.125Z" stroke="#626C84" stroke-linecap="round" stroke-linejoin="round"/>
</g>
<g style="mix-blend-mode:multiply" opacity="0.33">
<path d="M163.821 298.125H144.024C143.569 298.125 143.199 298.494 143.199 298.95V308.848C143.199 309.304 143.569 309.673 144.024 309.673H163.821C164.277 309.673 164.646 309.304 164.646 308.848V298.95C164.646 298.494 164.277 298.125 163.821 298.125Z" fill="#4E4E4E"/>
<path d="M163.821 298.125H144.024C143.569 298.125 143.199 298.494 143.199 298.95V308.848C143.199 309.304 143.569 309.673 144.024 309.673H163.821C164.277 309.673 164.646 309.304 164.646 308.848V298.95C164.646 298.494 164.277 298.125 163.821 298.125Z" stroke="#626C84" stroke-linecap="round" stroke-linejoin="round"/>
</g>
<g style="mix-blend-mode:multiply" opacity="0.33">
<path d="M199.519 298.125H189.621C189.165 298.125 188.796 298.494 188.796 298.95V308.848C188.796 309.304 189.165 309.673 189.621 309.673H199.519C199.975 309.673 200.344 309.304 200.344 308.848V298.95C200.344 298.494 199.975 298.125 199.519 298.125Z" fill="#4E4E4E"/>
<path d="M199.519 298.125H189.621C189.165 298.125 188.796 298.494 188.796 298.95V308.848C188.796 309.304 189.165 309.673 189.621 309.673H199.519C199.975 309.673 200.344 309.304 200.344 308.848V298.95C200.344 298.494 199.975 298.125 199.519 298.125Z" stroke="#626C84" stroke-linecap="round" stroke-linejoin="round"/>
</g>
<g style="mix-blend-mode:multiply" opacity="0.33">
<path d="M217.368 298.125H207.47C207.014 298.125 206.645 298.494 206.645 298.95V308.848C206.645 309.304 207.014 309.673 207.47 309.673H217.368C217.824 309.673 218.193 309.304 218.193 308.848V298.95C218.193 298.494 217.824 298.125 217.368 298.125Z" fill="#4E4E4E"/>
<path d="M217.368 298.125H207.47C207.014 298.125 206.645 298.494 206.645 298.95V308.848C206.645 309.304 207.014 309.673 207.47 309.673H217.368C217.824 309.673 218.193 309.304 218.193 308.848V298.95C218.193 298.494 217.824 298.125 217.368 298.125Z" stroke="#626C84" stroke-linecap="round" stroke-linejoin="round"/>
</g>
<g style="mix-blend-mode:multiply" opacity="0.33">
<path d="M235.217 298.125H225.319C224.863 298.125 224.494 298.494 224.494 298.95V308.848C224.494 309.304 224.863 309.673 225.319 309.673H235.217C235.673 309.673 236.042 309.304 236.042 308.848V298.95C236.042 298.494 235.673 298.125 235.217 298.125Z" fill="#4E4E4E"/>
<path d="M235.217 298.125H225.319C224.863 298.125 224.494 298.494 224.494 298.95V308.848C224.494 309.304 224.863 309.673 225.319 309.673H235.217C235.673 309.673 236.042 309.304 236.042 308.848V298.95C236.042 298.494 235.673 298.125 235.217 298.125Z" stroke="#626C84" stroke-linecap="round" stroke-linejoin="round"/>
</g>
<g style="mix-blend-mode:multiply" opacity="0.33">
<path d="M253.066 298.125H243.168C242.712 298.125 242.343 298.494 242.343 298.95V308.848C242.343 309.304 242.712 309.673 243.168 309.673H253.066C253.522 309.673 253.891 309.304 253.891 308.848V298.95C253.891 298.494 253.522 298.125 253.066 298.125Z" fill="#4E4E4E"/>
<path d="M253.066 298.125H243.168C242.712 298.125 242.343 298.494 242.343 298.95V308.848C242.343 309.304 242.712 309.673 243.168 309.673H253.066C253.522 309.673 253.891 309.304 253.891 308.848V298.95C253.891 298.494 253.522 298.125 253.066 298.125Z" stroke="#626C84" stroke-linecap="round" stroke-linejoin="round"/>
</g>
<g style="mix-blend-mode:multiply" opacity="0.33">
<path d="M270.916 298.125H261.017C260.562 298.125 260.192 298.494 260.192 298.95V308.848C260.192 309.304 260.562 309.673 261.017 309.673H270.916C271.371 309.673 271.741 309.304 271.741 308.848V298.95C271.741 298.494 271.371 298.125 270.916 298.125Z" fill="#4E4E4E"/>
<path d="M270.916 298.125H261.017C260.562 298.125 260.192 298.494 260.192 298.95V308.848C260.192 309.304 260.562 309.673 261.017 309.673H270.916C271.371 309.673 271.741 309.304 271.741 308.848V298.95C271.741 298.494 271.371 298.125 270.916 298.125Z" stroke="#626C84" stroke-linecap="round" stroke-linejoin="round"/>
</g>
<g style="mix-blend-mode:multiply" opacity="0.33">
<path d="M288.764 298.125H278.866C278.41 298.125 278.041 298.494 278.041 298.95V308.848C278.041 309.304 278.41 309.673 278.866 309.673H288.764C289.22 309.673 289.589 309.304 289.589 308.848V298.95C289.589 298.494 289.22 298.125 288.764 298.125Z" fill="#4E4E4E"/>
<path d="M288.764 298.125H278.866C278.41 298.125 278.041 298.494 278.041 298.95V308.848C278.041 309.304 278.41 309.673 278.866 309.673H288.764C289.22 309.673 289.589 309.304 289.589 308.848V298.95C289.589 298.494 289.22 298.125 288.764 298.125Z" stroke="#626C84" stroke-linecap="round" stroke-linejoin="round"/>
</g>
<g style="mix-blend-mode:multiply" opacity="0.33">
<path d="M316.512 298.125H296.715C296.259 298.125 295.89 298.494 295.89 298.95V308.848C295.89 309.304 296.259 309.673 296.715 309.673H316.512C316.967 309.673 317.337 309.304 317.337 308.848V298.95C317.337 298.494 316.967 298.125 316.512 298.125Z" fill="#4E4E4E"/>
<path d="M316.512 298.125H296.715C296.259 298.125 295.89 298.494 295.89 298.95V308.848C295.89 309.304 296.259 309.673 296.715 309.673H316.512C316.967 309.673 317.337 309.304 317.337 308.848V298.95C317.337 298.494 316.967 298.125 316.512 298.125Z" stroke="#626C84" stroke-linecap="round" stroke-linejoin="round"/>
</g>
<g style="mix-blend-mode:multiply" opacity="0.33">
<path d="M171.988 281.957H162.09C161.634 281.957 161.265 282.327 161.265 282.782V292.681C161.265 293.136 161.634 293.506 162.09 293.506H171.988C172.444 293.506 172.813 293.136 172.813 292.681V282.782C172.813 282.327 172.444 281.957 171.988 281.957Z" fill="#4E4E4E"/>
<path d="M171.988 281.957H162.09C161.634 281.957 161.265 282.327 161.265 282.782V292.681C161.265 293.136 161.634 293.506 162.09 293.506H171.988C172.444 293.506 172.813 293.136 172.813 292.681V282.782C172.813 282.327 172.444 281.957 171.988 281.957Z" stroke="#626C84" stroke-linecap="round" stroke-linejoin="round"/>
</g>
<g style="mix-blend-mode:multiply" opacity="0.33">
<path d="M153.923 281.957H144.024C143.569 281.957 143.199 282.327 143.199 282.782V292.681C143.199 293.136 143.569 293.506 144.024 293.506H153.923C154.378 293.506 154.748 293.136 154.748 292.681V282.782C154.748 282.327 154.378 281.957 153.923 281.957Z" fill="#4E4E4E"/>
<path d="M153.923 281.957H144.024C143.569 281.957 143.199 282.327 143.199 282.782V292.681C143.199 293.136 143.569 293.506 144.024 293.506H153.923C154.378 293.506 154.748 293.136 154.748 292.681V282.782C154.748 282.327 154.378 281.957 153.923 281.957Z" stroke="#626C84" stroke-linecap="round" stroke-linejoin="round"/>
</g>
<g style="mix-blend-mode:multiply" opacity="0.33">
<path d="M190.054 281.957H180.155C179.7 281.957 179.33 282.327 179.33 282.782V292.681C179.33 293.136 179.7 293.506 180.155 293.506H190.054C190.509 293.506 190.878 293.136 190.878 292.681V282.782C190.878 282.327 190.509 281.957 190.054 281.957Z" fill="#4E4E4E"/>
<path d="M190.054 281.957H180.155C179.7 281.957 179.33 282.327 179.33 282.782V292.681C179.33 293.136 179.7 293.506 180.155 293.506H190.054C190.509 293.506 190.878 293.136 190.878 292.681V282.782C190.878 282.327 190.509 281.957 190.054 281.957Z" stroke="#626C84" stroke-linecap="round" stroke-linejoin="round"/>
</g>
<g style="mix-blend-mode:multiply" opacity="0.33">
<path d="M208.119 281.957H198.221C197.765 281.957 197.396 282.327 197.396 282.782V292.681C197.396 293.136 197.765 293.506 198.221 293.506H208.119C208.575 293.506 208.944 293.136 208.944 292.681V282.782C208.944 282.327 208.575 281.957 208.119 281.957Z" fill="#4E4E4E"/>
<path d="M208.119 281.957H198.221C197.765 281.957 197.396 282.327 197.396 282.782V292.681C197.396 293.136 197.765 293.506 198.221 293.506H208.119C208.575 293.506 208.944 293.136 208.944 292.681V282.782C208.944 282.327 208.575 281.957 208.119 281.957Z" stroke="#626C84" stroke-linecap="round" stroke-linejoin="round"/>
</g>
<g style="mix-blend-mode:multiply" opacity="0.33">
<path d="M226.184 281.957H216.286C215.83 281.957 215.461 282.327 215.461 282.782V292.681C215.461 293.136 215.83 293.506 216.286 293.506H226.184C226.64 293.506 227.009 293.136 227.009 292.681V282.782C227.009 282.327 226.64 281.957 226.184 281.957Z" fill="#4E4E4E"/>
<path d="M226.184 281.957H216.286C215.83 281.957 215.461 282.327 215.461 282.782V292.681C215.461 293.136 215.83 293.506 216.286 293.506H226.184C226.64 293.506 227.009 293.136 227.009 292.681V282.782C227.009 282.327 226.64 281.957 226.184 281.957Z" stroke="#626C84" stroke-linecap="round" stroke-linejoin="round"/>
</g>
<g style="mix-blend-mode:multiply" opacity="0.33">
<path d="M244.25 281.957H234.351C233.896 281.957 233.527 282.327 233.527 282.782V292.681C233.527 293.136 233.896 293.506 234.351 293.506H244.25C244.705 293.506 245.075 293.136 245.075 292.681V282.782C245.075 282.327 244.705 281.957 244.25 281.957Z" fill="#4E4E4E"/>
<path d="M244.25 281.957H234.351C233.896 281.957 233.527 282.327 233.527 282.782V292.681C233.527 293.136 233.896 293.506 234.351 293.506H244.25C244.705 293.506 245.075 293.136 245.075 292.681V282.782C245.075 282.327 244.705 281.957 244.25 281.957Z" stroke="#626C84" stroke-linecap="round" stroke-linejoin="round"/>
</g>
<g style="mix-blend-mode:multiply" opacity="0.33">
<path d="M262.316 281.957H252.417C251.962 281.957 251.592 282.327 251.592 282.782V292.681C251.592 293.136 251.962 293.506 252.417 293.506H262.316C262.771 293.506 263.14 293.136 263.14 292.681V282.782C263.14 282.327 262.771 281.957 262.316 281.957Z" fill="#4E4E4E"/>
<path d="M262.316 281.957H252.417C251.962 281.957 251.592 282.327 251.592 282.782V292.681C251.592 293.136 251.962 293.506 252.417 293.506H262.316C262.771 293.506 263.14 293.136 263.14 292.681V282.782C263.14 282.327 262.771 281.957 262.316 281.957Z" stroke="#626C84" stroke-linecap="round" stroke-linejoin="round"/>
</g>
<g style="mix-blend-mode:multiply" opacity="0.33">
<path d="M280.381 281.957H270.483C270.027 281.957 269.658 282.327 269.658 282.782V292.681C269.658 293.136 270.027 293.506 270.483 293.506H280.381C280.837 293.506 281.206 293.136 281.206 292.681V282.782C281.206 282.327 280.837 281.957 280.381 281.957Z" fill="#4E4E4E"/>
<path d="M280.381 281.957H270.483C270.027 281.957 269.658 282.327 269.658 282.782V292.681C269.658 293.136 270.027 293.506 270.483 293.506H280.381C280.837 293.506 281.206 293.136 281.206 292.681V282.782C281.206 282.327 280.837 281.957 280.381 281.957Z" stroke="#626C84" stroke-linecap="round" stroke-linejoin="round"/>
</g>
<g style="mix-blend-mode:multiply" opacity="0.33">
<path d="M298.446 281.957H288.548C288.092 281.957 287.723 282.327 287.723 282.782V292.681C287.723 293.136 288.092 293.506 288.548 293.506H298.446C298.902 293.506 299.271 293.136 299.271 292.681V282.782C299.271 282.327 298.902 281.957 298.446 281.957Z" fill="#4E4E4E"/>
<path d="M298.446 281.957H288.548C288.092 281.957 287.723 282.327 287.723 282.782V292.681C287.723 293.136 288.092 293.506 288.548 293.506H298.446C298.902 293.506 299.271 293.136 299.271 292.681V282.782C299.271 282.327 298.902 281.957 298.446 281.957Z" stroke="#626C84" stroke-linecap="round" stroke-linejoin="round"/>
</g>
<g style="mix-blend-mode:multiply" opacity="0.33">
<path d="M316.512 281.957H306.613C306.158 281.957 305.789 282.327 305.789 282.782V292.681C305.789 293.136 306.158 293.506 306.613 293.506H316.512C316.967 293.506 317.337 293.136 317.337 292.681V282.782C317.337 282.327 316.967 281.957 316.512 281.957Z" fill="#4E4E4E"/>
<path d="M316.512 281.957H306.613C306.158 281.957 305.789 282.327 305.789 282.782V292.681C305.789 293.136 306.158 293.506 306.613 293.506H316.512C316.967 293.506 317.337 293.136 317.337 292.681V282.782C317.337 282.327 316.967 281.957 316.512 281.957Z" stroke="#626C84" stroke-linecap="round" stroke-linejoin="round"/>
</g>
<g style="mix-blend-mode:multiply" opacity="0.33">
<path d="M171.772 331.45H161.874C161.418 331.45 161.049 331.819 161.049 332.274V342.173C161.049 342.628 161.418 342.998 161.874 342.998H171.772C172.228 342.998 172.597 342.628 172.597 342.173V332.274C172.597 331.819 172.228 331.45 171.772 331.45Z" fill="#4E4E4E"/>
</g>
<g style="mix-blend-mode:multiply" opacity="0.33">
<path d="M153.923 331.45H144.024C143.569 331.45 143.199 331.819 143.199 332.274V342.173C143.199 342.628 143.569 342.998 144.024 342.998H153.923C154.378 342.998 154.748 342.628 154.748 342.173V332.274C154.748 331.819 154.378 331.45 153.923 331.45Z" fill="#4E4E4E"/>
</g>
<g style="mix-blend-mode:multiply" opacity="0.33">
<path d="M261.016 331.45H179.722C179.267 331.45 178.897 331.819 178.897 332.274V342.173C178.897 342.628 179.267 342.998 179.722 342.998H261.016C261.472 342.998 261.841 342.628 261.841 342.173V332.274C261.841 331.819 261.472 331.45 261.016 331.45Z" fill="#4E4E4E"/>
</g>
<g style="mix-blend-mode:multiply" opacity="0.33">
<path d="M278.866 331.45H268.967C268.512 331.45 268.142 331.819 268.142 332.274V342.173C268.142 342.628 268.512 342.998 268.967 342.998H278.866C279.321 342.998 279.691 342.628 279.691 342.173V332.274C279.691 331.819 279.321 331.45 278.866 331.45Z" fill="#4E4E4E"/>
</g>
<g style="mix-blend-mode:multiply" opacity="0.33">
<path d="M304.964 337.945H298.365C297.909 337.945 297.54 338.315 297.54 338.77V342.173C297.54 342.628 297.909 342.998 298.365 342.998H304.964C305.419 342.998 305.788 342.628 305.788 342.173V338.77C305.788 338.315 305.419 337.945 304.964 337.945Z" fill="#4E4E4E"/>
</g>
<g style="mix-blend-mode:multiply" opacity="0.33">
<path d="M304.964 331.45H298.365C297.909 331.45 297.54 331.819 297.54 332.274V335.677C297.54 336.133 297.909 336.502 298.365 336.502H304.964C305.419 336.502 305.788 336.133 305.788 335.677V332.274C305.788 331.819 305.419 331.45 304.964 331.45Z" fill="#4E4E4E"/>
</g>
<g style="mix-blend-mode:multiply" opacity="0.33">
<path d="M316.512 337.945H309.913C309.457 337.945 309.088 338.315 309.088 338.77V342.173C309.088 342.628 309.457 342.998 309.913 342.998H316.512C316.968 342.998 317.337 342.628 317.337 342.173V338.77C317.337 338.315 316.968 337.945 316.512 337.945Z" fill="#4E4E4E"/>
</g>
<g style="mix-blend-mode:multiply" opacity="0.33">
<path d="M293.416 337.945H286.817C286.361 337.945 285.992 338.315 285.992 338.77V342.173C285.992 342.628 286.361 342.998 286.817 342.998H293.416C293.871 342.998 294.24 342.628 294.24 342.173V338.77C294.24 338.315 293.871 337.945 293.416 337.945Z" fill="#4E4E4E"/>
</g>
<g style="mix-blend-mode:multiply" opacity="0.33">
<path d="M170.122 315.018H144.024C143.569 315.018 143.199 315.387 143.199 315.843V325.741C143.199 326.197 143.569 326.566 144.024 326.566H170.122C170.578 326.566 170.947 326.197 170.947 325.741V315.843C170.947 315.387 170.578 315.018 170.122 315.018Z" fill="#4E4E4E"/>
</g>
<g style="mix-blend-mode:multiply" opacity="0.33">
<path d="M188.12 315.018H178.222C177.766 315.018 177.397 315.387 177.397 315.843V325.741C177.397 326.197 177.766 326.566 178.222 326.566H188.12C188.576 326.566 188.945 326.197 188.945 325.741V315.843C188.945 315.387 188.576 315.018 188.12 315.018Z" fill="#4E4E4E"/>
</g>
<g style="mix-blend-mode:multiply" opacity="0.33">
<path d="M205.969 315.018H196.071C195.615 315.018 195.246 315.387 195.246 315.843V325.741C195.246 326.197 195.615 326.566 196.071 326.566H205.969C206.425 326.566 206.794 326.197 206.794 325.741V315.843C206.794 315.387 206.425 315.018 205.969 315.018Z" fill="#4E4E4E"/>
</g>
<g style="mix-blend-mode:multiply" opacity="0.33">
<path d="M223.818 315.018H213.92C213.464 315.018 213.095 315.387 213.095 315.843V325.741C213.095 326.197 213.464 326.566 213.92 326.566H223.818C224.274 326.566 224.643 326.197 224.643 325.741V315.843C224.643 315.387 224.274 315.018 223.818 315.018Z" fill="#4E4E4E"/>
</g>
<g style="mix-blend-mode:multiply" opacity="0.33">
<path d="M241.667 315.018H231.769C231.313 315.018 230.944 315.387 230.944 315.843V325.741C230.944 326.197 231.313 326.566 231.769 326.566H241.667C242.123 326.566 242.492 326.197 242.492 325.741V315.843C242.492 315.387 242.123 315.018 241.667 315.018Z" fill="#4E4E4E"/>
</g>
<g style="mix-blend-mode:multiply" opacity="0.33">
<path d="M259.516 315.018H249.617C249.162 315.018 248.792 315.387 248.792 315.843V325.741C248.792 326.197 249.162 326.566 249.617 326.566H259.516C259.971 326.566 260.341 326.197 260.341 325.741V315.843C260.341 315.387 259.971 315.018 259.516 315.018Z" fill="#4E4E4E"/>
</g>
<g style="mix-blend-mode:multiply" opacity="0.33">
<path d="M277.365 315.018H267.467C267.011 315.018 266.642 315.387 266.642 315.843V325.741C266.642 326.197 267.011 326.566 267.467 326.566H277.365C277.821 326.566 278.19 326.197 278.19 325.741V315.843C278.19 315.387 277.821 315.018 277.365 315.018Z" fill="#4E4E4E"/>
</g>
<g style="mix-blend-mode:multiply" opacity="0.33">
<path d="M316.512 315.018H286.817C286.361 315.018 285.992 315.387 285.992 315.843V325.741C285.992 326.197 286.361 326.566 286.817 326.566H316.512C316.967 326.566 317.337 326.197 317.337 325.741V315.843C317.337 315.387 316.967 315.018 316.512 315.018Z" fill="#4E4E4E"/>
</g>
<g style="mix-blend-mode:multiply" opacity="0.33">
<path d="M181.67 298.125H171.772C171.316 298.125 170.947 298.494 170.947 298.95V308.848C170.947 309.304 171.316 309.673 171.772 309.673H181.67C182.126 309.673 182.495 309.304 182.495 308.848V298.95C182.495 298.494 182.126 298.125 181.67 298.125Z" fill="#4E4E4E"/>
</g>
<g style="mix-blend-mode:multiply" opacity="0.33">
<path d="M163.821 298.125H144.024C143.569 298.125 143.199 298.494 143.199 298.95V308.848C143.199 309.304 143.569 309.673 144.024 309.673H163.821C164.277 309.673 164.646 309.304 164.646 308.848V298.95C164.646 298.494 164.277 298.125 163.821 298.125Z" fill="#4E4E4E"/>
</g>
<g style="mix-blend-mode:multiply" opacity="0.33">
<path d="M199.519 298.125H189.621C189.165 298.125 188.796 298.494 188.796 298.95V308.848C188.796 309.304 189.165 309.673 189.621 309.673H199.519C199.975 309.673 200.344 309.304 200.344 308.848V298.95C200.344 298.494 199.975 298.125 199.519 298.125Z" fill="#4E4E4E"/>
</g>
<g style="mix-blend-mode:multiply" opacity="0.33">
<path d="M217.368 298.125H207.47C207.014 298.125 206.645 298.494 206.645 298.95V308.848C206.645 309.304 207.014 309.673 207.47 309.673H217.368C217.824 309.673 218.193 309.304 218.193 308.848V298.95C218.193 298.494 217.824 298.125 217.368 298.125Z" fill="#4E4E4E"/>
</g>
<g style="mix-blend-mode:multiply" opacity="0.33">
<path d="M235.217 298.125H225.319C224.863 298.125 224.494 298.494 224.494 298.95V308.848C224.494 309.304 224.863 309.673 225.319 309.673H235.217C235.673 309.673 236.042 309.304 236.042 308.848V298.95C236.042 298.494 235.673 298.125 235.217 298.125Z" fill="#4E4E4E"/>
</g>
<g style="mix-blend-mode:multiply" opacity="0.33">
<path d="M253.066 298.125H243.168C242.712 298.125 242.343 298.494 242.343 298.95V308.848C242.343 309.304 242.712 309.673 243.168 309.673H253.066C253.522 309.673 253.891 309.304 253.891 308.848V298.95C253.891 298.494 253.522 298.125 253.066 298.125Z" fill="#4E4E4E"/>
</g>
<g style="mix-blend-mode:multiply" opacity="0.33">
<path d="M270.916 298.125H261.017C260.562 298.125 260.192 298.494 260.192 298.95V308.848C260.192 309.304 260.562 309.673 261.017 309.673H270.916C271.371 309.673 271.741 309.304 271.741 308.848V298.95C271.741 298.494 271.371 298.125 270.916 298.125Z" fill="#4E4E4E"/>
</g>
<g style="mix-blend-mode:multiply" opacity="0.33">
<path d="M288.764 298.125H278.866C278.41 298.125 278.041 298.494 278.041 298.95V308.848C278.041 309.304 278.41 309.673 278.866 309.673H288.764C289.22 309.673 289.589 309.304 289.589 308.848V298.95C289.589 298.494 289.22 298.125 288.764 298.125Z" fill="#4E4E4E"/>
</g>
<g style="mix-blend-mode:multiply" opacity="0.33">
<path d="M316.512 298.125H296.715C296.259 298.125 295.89 298.494 295.89 298.95V308.848C295.89 309.304 296.259 309.673 296.715 309.673H316.512C316.967 309.673 317.337 309.304 317.337 308.848V298.95C317.337 298.494 316.967 298.125 316.512 298.125Z" fill="#4E4E4E"/>
</g>
<g style="mix-blend-mode:multiply" opacity="0.33">
<path d="M171.988 281.957H162.09C161.634 281.957 161.265 282.327 161.265 282.782V292.681C161.265 293.136 161.634 293.506 162.09 293.506H171.988C172.444 293.506 172.813 293.136 172.813 292.681V282.782C172.813 282.327 172.444 281.957 171.988 281.957Z" fill="#4E4E4E"/>
</g>
<g style="mix-blend-mode:multiply" opacity="0.33">
<path d="M153.923 281.957H144.024C143.569 281.957 143.199 282.327 143.199 282.782V292.681C143.199 293.136 143.569 293.506 144.024 293.506H153.923C154.378 293.506 154.748 293.136 154.748 292.681V282.782C154.748 282.327 154.378 281.957 153.923 281.957Z" fill="#4E4E4E"/>
</g>
<g style="mix-blend-mode:multiply" opacity="0.33">
<path d="M190.054 281.957H180.155C179.7 281.957 179.33 282.327 179.33 282.782V292.681C179.33 293.136 179.7 293.506 180.155 293.506H190.054C190.509 293.506 190.878 293.136 190.878 292.681V282.782C190.878 282.327 190.509 281.957 190.054 281.957Z" fill="#4E4E4E"/>
</g>
<g style="mix-blend-mode:multiply" opacity="0.33">
<path d="M208.119 281.957H198.221C197.765 281.957 197.396 282.327 197.396 282.782V292.681C197.396 293.136 197.765 293.506 198.221 293.506H208.119C208.575 293.506 208.944 293.136 208.944 292.681V282.782C208.944 282.327 208.575 281.957 208.119 281.957Z" fill="#4E4E4E"/>
</g>
<g style="mix-blend-mode:multiply" opacity="0.33">
<path d="M226.184 281.957H216.286C215.83 281.957 215.461 282.327 215.461 282.782V292.681C215.461 293.136 215.83 293.506 216.286 293.506H226.184C226.64 293.506 227.009 293.136 227.009 292.681V282.782C227.009 282.327 226.64 281.957 226.184 281.957Z" fill="#4E4E4E"/>
</g>
<g style="mix-blend-mode:multiply" opacity="0.33">
<path d="M244.25 281.957H234.351C233.896 281.957 233.527 282.327 233.527 282.782V292.681C233.527 293.136 233.896 293.506 234.351 293.506H244.25C244.705 293.506 245.075 293.136 245.075 292.681V282.782C245.075 282.327 244.705 281.957 244.25 281.957Z" fill="#4E4E4E"/>
</g>
<g style="mix-blend-mode:multiply" opacity="0.33">
<path d="M262.316 281.957H252.417C251.962 281.957 251.592 282.327 251.592 282.782V292.681C251.592 293.136 251.962 293.506 252.417 293.506H262.316C262.771 293.506 263.14 293.136 263.14 292.681V282.782C263.14 282.327 262.771 281.957 262.316 281.957Z" fill="#4E4E4E"/>
</g>
<g style="mix-blend-mode:multiply" opacity="0.33">
<path d="M280.381 281.957H270.483C270.027 281.957 269.658 282.327 269.658 282.782V292.681C269.658 293.136 270.027 293.506 270.483 293.506H280.381C280.837 293.506 281.206 293.136 281.206 292.681V282.782C281.206 282.327 280.837 281.957 280.381 281.957Z" fill="#4E4E4E"/>
</g>
<g style="mix-blend-mode:multiply" opacity="0.33">
<path d="M298.446 281.957H288.548C288.092 281.957 287.723 282.327 287.723 282.782V292.681C287.723 293.136 288.092 293.506 288.548 293.506H298.446C298.902 293.506 299.271 293.136 299.271 292.681V282.782C299.271 282.327 298.902 281.957 298.446 281.957Z" fill="#4E4E4E"/>
</g>
<g style="mix-blend-mode:multiply" opacity="0.33">
<path d="M316.512 281.957H306.613C306.158 281.957 305.789 282.327 305.789 282.782V292.681C305.789 293.136 306.158 293.506 306.613 293.506H316.512C316.967 293.506 317.337 293.136 317.337 292.681V282.782C317.337 282.327 316.967 281.957 316.512 281.957Z" fill="#4E4E4E"/>
</g>
<g style="mix-blend-mode:multiply" opacity="0.33">
<path d="M160.154 255.641H300.382V266.732C300.382 267.607 300.034 268.446 299.415 269.065C298.796 269.684 297.957 270.031 297.082 270.031H163.453C162.578 270.031 161.739 269.684 161.12 269.065C160.501 268.446 160.154 267.607 160.154 266.732V255.641Z" fill="#4E4E4E"/>
</g>
<g style="mix-blend-mode:multiply" opacity="0.25">
<path d="M297.082 266.731H163.453C162.578 266.731 161.739 266.383 161.12 265.765C160.501 265.146 160.154 264.307 160.154 263.432V266.731C160.154 267.606 160.501 268.445 161.12 269.064C161.739 269.683 162.578 270.031 163.453 270.031H297.082C297.957 270.031 298.796 269.683 299.415 269.064C300.034 268.445 300.382 267.606 300.382 266.731V263.432C300.382 264.307 300.034 265.146 299.415 265.765C298.796 266.383 297.957 266.731 297.082 266.731Z" fill="#4E4E4E"/>
</g>
<g style="mix-blend-mode:multiply" opacity="0.33">
<path d="M160.154 255.641H300.382V266.732C300.382 267.607 300.034 268.446 299.415 269.065C298.796 269.684 297.957 270.031 297.082 270.031H163.453C162.578 270.031 161.739 269.684 161.12 269.065C160.501 268.446 160.154 267.607 160.154 266.732V255.641Z" fill="#4E4E4E"/>
<path d="M160.154 255.641H300.382V266.732C300.382 267.607 300.034 268.446 299.415 269.065C298.796 269.684 297.957 270.031 297.082 270.031H163.453C162.578 270.031 161.739 269.684 161.12 269.065C160.501 268.446 160.154 267.607 160.154 266.732V255.641Z" stroke="#46505C" stroke-width="2" stroke-linecap="round" stroke-linejoin="round"/>
</g>
<g style="mix-blend-mode:multiply" opacity="0.33">
<path d="M259.139 354.133H201.398C200.487 354.133 199.748 354.872 199.748 355.783V394.552C199.748 395.463 200.487 396.202 201.398 396.202H259.139C260.05 396.202 260.789 395.463 260.789 394.552V355.783C260.789 354.872 260.05 354.133 259.139 354.133Z" fill="#4E4E4E"/>
</g>
<g style="mix-blend-mode:multiply" opacity="0.33">
<path d="M259.139 354.133H201.398C200.487 354.133 199.748 354.872 199.748 355.783V394.552C199.748 395.463 200.487 396.202 201.398 396.202H259.139C260.05 396.202 260.789 395.463 260.789 394.552V355.783C260.789 354.872 260.05 354.133 259.139 354.133Z" fill="#4E4E4E"/>
<path d="M259.139 354.133H201.398C200.487 354.133 199.748 354.872 199.748 355.783V394.552C199.748 395.463 200.487 396.202 201.398 396.202H259.139C260.05 396.202 260.789 395.463 260.789 394.552V355.783C260.789 354.872 260.05 354.133 259.139 354.133Z" stroke="#626C84" stroke-linecap="round" stroke-linejoin="round"/>
</g>
</g>
<g style="mix-blend-mode:multiply" opacity="0.33">
<g style="mix-blend-mode:multiply" opacity="0.33">
<path d="M48.3884 345.53L54.7531 336.433C54.8399 336.309 54.9723 336.225 55.1213 336.198C55.2703 336.172 55.4237 336.206 55.5477 336.293L62.0439 340.838C62.1679 340.924 62.2524 341.057 62.2787 341.206C62.305 341.355 62.2711 341.508 62.1844 341.632L55.8196 350.729C55.1929 351.625 54.2359 352.235 53.1592 352.426C52.0826 352.616 50.9744 352.371 50.0786 351.744L49.403 351.271C48.5071 350.644 47.8969 349.687 47.7067 348.611C47.5164 347.534 47.7616 346.426 48.3884 345.53Z" fill="#4E4E4E"/>
<path d="M48.3884 345.53L54.7531 336.433C54.8399 336.309 54.9723 336.225 55.1213 336.198C55.2703 336.172 55.4237 336.206 55.5477 336.293L62.0439 340.838C62.1679 340.924 62.2524 341.057 62.2787 341.206C62.305 341.355 62.2711 341.508 62.1844 341.632L55.8196 350.729C55.1929 351.625 54.2359 352.235 53.1592 352.426C52.0826 352.616 50.9744 352.371 50.0786 351.744L49.403 351.271C48.5071 350.644 47.8969 349.687 47.7067 348.611C47.5164 347.534 47.7616 346.426 48.3884 345.53Z" stroke="#46505C" stroke-width="3.99818" stroke-linecap="round" stroke-linejoin="round"/>
</g>
<g style="mix-blend-mode:multiply" opacity="0.33">
<path d="M48.3884 345.53L54.7531 336.433C54.8399 336.309 54.9723 336.225 55.1213 336.198C55.2703 336.172 55.4237 336.206 55.5477 336.293L62.0439 340.838C62.1679 340.924 62.2524 341.057 62.2787 341.206C62.305 341.355 62.2711 341.508 62.1844 341.632L55.8196 350.729C55.1929 351.625 54.2359 352.235 53.1592 352.426C52.0826 352.616 50.9744 352.371 50.0786 351.744L49.403 351.271C48.5071 350.644 47.8969 349.687 47.7067 348.611C47.5164 347.534 47.7616 346.426 48.3884 345.53Z" fill="#4E4E4E"/>
<path d="M48.3884 345.53L54.7531 336.433C54.8399 336.309 54.9723 336.225 55.1213 336.198C55.2703 336.172 55.4237 336.206 55.5477 336.293L62.0439 340.838C62.1679 340.924 62.2524 341.057 62.2787 341.206C62.305 341.355 62.2711 341.508 62.1844 341.632L55.8196 350.729C55.1929 351.625 54.2359 352.235 53.1592 352.426C52.0826 352.616 50.9744 352.371 50.0786 351.744L49.403 351.271C48.5071 350.644 47.8969 349.687 47.7067 348.611C47.5164 347.534 47.7616 346.426 48.3884 345.53Z" stroke="#46505C" stroke-width="3.99818" stroke-linecap="round" stroke-linejoin="round"/>
</g>
<g style="mix-blend-mode:multiply" opacity="0.33">
<path d="M72.8282 345.683C87.6686 345.683 99.6992 333.652 99.6992 318.812C99.6992 303.971 87.6686 291.941 72.8282 291.941C57.9878 291.941 45.9573 303.971 45.9573 318.812C45.9573 333.652 57.9878 345.683 72.8282 345.683Z" fill="#4E4E4E"/>
<path d="M72.8282 345.683C87.6686 345.683 99.6992 333.652 99.6992 318.812C99.6992 303.971 87.6686 291.941 72.8282 291.941C57.9878 291.941 45.9573 303.971 45.9573 318.812C45.9573 333.652 57.9878 345.683 72.8282 345.683Z" stroke="#46505C" stroke-width="4" stroke-linecap="round" stroke-linejoin="round"/>
</g>
<g style="mix-blend-mode:multiply" opacity="0.33">
<path d="M72.8282 345.683C87.6686 345.683 99.6992 333.652 99.6992 318.812C99.6992 303.971 87.6686 291.941 72.8282 291.941C57.9878 291.941 45.9573 303.971 45.9573 318.812C45.9573 333.652 57.9878 345.683 72.8282 345.683Z" fill="#4E4E4E"/>
<path d="M72.8282 345.683C87.6686 345.683 99.6992 333.652 99.6992 318.812C99.6992 303.971 87.6686 291.941 72.8282 291.941C57.9878 291.941 45.9573 303.971 45.9573 318.812C45.9573 333.652 57.9878 345.683 72.8282 345.683Z" stroke="#46505C" stroke-width="4" stroke-linecap="round" stroke-linejoin="round"/>
</g>
<g style="mix-blend-mode:multiply" opacity="0.33">
<path d="M72.8281 339.726C84.3789 339.726 93.7427 330.362 93.7427 318.812C93.7427 307.261 84.3789 297.897 72.8281 297.897C61.2773 297.897 51.9136 307.261 51.9136 318.812C51.9136 330.362 61.2773 339.726 72.8281 339.726Z" fill="#4E4E4E"/>
<path d="M72.8281 339.726C84.3789 339.726 93.7427 330.362 93.7427 318.812C93.7427 307.261 84.3789 297.897 72.8281 297.897C61.2773 297.897 51.9136 307.261 51.9136 318.812C51.9136 330.362 61.2773 339.726 72.8281 339.726Z" stroke="#46505C" stroke-width="4" stroke-linecap="round" stroke-linejoin="round"/>
</g>
<g style="mix-blend-mode:multiply" opacity="0.33">
<path d="M72.8281 339.726C84.3789 339.726 93.7427 330.362 93.7427 318.812C93.7427 307.261 84.3789 297.897 72.8281 297.897C61.2773 297.897 51.9136 307.261 51.9136 318.812C51.9136 330.362 61.2773 339.726 72.8281 339.726Z" fill="#4E4E4E"/>
<path d="M72.8281 339.726C84.3789 339.726 93.7427 330.362 93.7427 318.812C93.7427 307.261 84.3789 297.897 72.8281 297.897C61.2773 297.897 51.9136 307.261 51.9136 318.812C51.9136 330.362 61.2773 339.726 72.8281 339.726Z" stroke="#46505C" stroke-width="4" stroke-linecap="round" stroke-linejoin="round"/>
</g>
<g style="mix-blend-mode:multiply" opacity="0.33">
<path d="M59.1558 314.47C59.4355 313.84 59.7382 313.222 60.0467 312.618C61.449 309.869 63.1259 307.02 65.8026 305.337C68.0752 303.906 71.2534 303.346 73.7164 304.612C75.8528 305.709 77.1405 307.965 79.0896 309.369C80.4034 310.173 81.7684 310.891 83.176 311.517C84.5971 312.157 85.7215 313.313 86.3213 314.752C86.9812 316.768 85.8932 318.919 85.8824 321.04C85.8787 322.211 86.2037 323.359 86.8203 324.354C87.2097 324.819 87.4599 325.385 87.5421 325.986C87.4828 326.371 87.3198 326.733 87.0706 327.032C86.8214 327.332 86.4953 327.558 86.1274 327.686C83.9613 328.709 81.4314 328.34 79.0492 328.082C76.667 327.825 74.0291 327.771 72.1459 329.252C71.3749 329.963 70.6609 330.733 70.0103 331.555C69.7355 331.967 69.373 332.313 68.9488 332.569C68.5246 332.824 68.0491 332.983 67.5564 333.033C67.0638 333.083 66.5661 333.024 66.099 332.859C65.632 332.695 65.2071 332.429 64.8549 332.081C63.1475 330.651 61.6664 328.971 60.4616 327.098C59.1952 325.513 58.3008 323.665 57.8443 321.689C57.4162 319.235 58.1297 316.779 59.1558 314.47Z" fill="#4E4E4E"/>
<path d="M59.1558 314.47C59.4355 313.84 59.7382 313.222 60.0467 312.618C61.449 309.869 63.1259 307.02 65.8026 305.337C68.0752 303.906 71.2534 303.346 73.7164 304.612C75.8528 305.709 77.1405 307.965 79.0896 309.369C80.4034 310.173 81.7684 310.891 83.176 311.517C84.5971 312.157 85.7215 313.313 86.3213 314.752C86.9812 316.768 85.8932 318.919 85.8824 321.04C85.8787 322.211 86.2037 323.359 86.8203 324.354C87.2097 324.819 87.4599 325.385 87.5421 325.986C87.4828 326.371 87.3198 326.733 87.0706 327.032C86.8214 327.332 86.4953 327.558 86.1274 327.686C83.9613 328.709 81.4314 328.34 79.0492 328.082C76.667 327.825 74.0291 327.771 72.1459 329.252C71.3749 329.963 70.6609 330.733 70.0103 331.555C69.7355 331.967 69.373 332.313 68.9488 332.569C68.5246 332.824 68.0491 332.983 67.5564 333.033C67.0638 333.083 66.5661 333.024 66.099 332.859C65.632 332.695 65.2071 332.429 64.8549 332.081C63.1475 330.651 61.6664 328.971 60.4616 327.098C59.1952 325.513 58.3008 323.665 57.8443 321.689C57.4162 319.235 58.1297 316.779 59.1558 314.47Z" stroke="#46505C" stroke-width="4" stroke-linecap="round" stroke-linejoin="round"/>
</g>
<g style="mix-blend-mode:multiply" opacity="0.33">
<path d="M77.0581 334.645C77.7752 334.645 78.3565 334.064 78.3565 333.347C78.3565 332.63 77.7752 332.048 77.0581 332.048C76.3411 332.048 75.7598 332.63 75.7598 333.347C75.7598 334.064 76.3411 334.645 77.0581 334.645Z" fill="#4E4E4E"/>
<path d="M77.0581 334.645C77.7752 334.645 78.3565 334.064 78.3565 333.347C78.3565 332.63 77.7752 332.048 77.0581 332.048C76.3411 332.048 75.7598 332.63 75.7598 333.347C75.7598 334.064 76.3411 334.645 77.0581 334.645Z" stroke="#46505C" stroke-width="4" stroke-linecap="round" stroke-linejoin="round"/>
</g>
<g style="mix-blend-mode:multiply" opacity="0.33">
<path d="M73.6786 334.725C74.1752 334.725 74.5778 334.323 74.5778 333.826C74.5778 333.329 74.1752 332.927 73.6786 332.927C73.1821 332.927 72.7795 333.329 72.7795 333.826C72.7795 334.323 73.1821 334.725 73.6786 334.725Z" fill="#4E4E4E"/>
<path d="M73.6786 334.725C74.1752 334.725 74.5778 334.323 74.5778 333.826C74.5778 333.329 74.1752 332.927 73.6786 332.927C73.1821 332.927 72.7795 333.329 72.7795 333.826C72.7795 334.323 73.1821 334.725 73.6786 334.725Z" stroke="#46505C" stroke-width="4" stroke-linecap="round" stroke-linejoin="round"/>
</g>
<g style="mix-blend-mode:multiply" opacity="0.33">
<path d="M80.1258 332.954C80.5759 332.954 80.9407 332.589 80.9407 332.139C80.9407 331.689 80.5759 331.324 80.1258 331.324C79.6757 331.324 79.3108 331.689 79.3108 332.139C79.3108 332.589 79.6757 332.954 80.1258 332.954Z" fill="#4E4E4E"/>
<path d="M80.1258 332.954C80.5759 332.954 80.9407 332.589 80.9407 332.139C80.9407 331.689 80.5759 331.324 80.1258 331.324C79.6757 331.324 79.3108 331.689 79.3108 332.139C79.3108 332.589 79.6757 332.954 80.1258 332.954Z" stroke="#46505C" stroke-width="4" stroke-linecap="round" stroke-linejoin="round"/>
</g>
<g style="mix-blend-mode:multiply" opacity="0.33">
<path d="M70.8345 334.747C71.157 334.747 71.4185 334.485 71.4185 334.163C71.4185 333.84 71.157 333.579 70.8345 333.579C70.512 333.579 70.2505 333.84 70.2505 334.163C70.2505 334.485 70.512 334.747 70.8345 334.747Z" fill="#4E4E4E"/>
<path d="M70.8345 334.747C71.157 334.747 71.4185 334.485 71.4185 334.163C71.4185 333.84 71.157 333.579 70.8345 333.579C70.512 333.579 70.2505 333.84 70.2505 334.163C70.2505 334.485 70.512 334.747 70.8345 334.747Z" stroke="#46505C" stroke-width="4" stroke-linecap="round" stroke-linejoin="round"/>
</g>
<g style="mix-blend-mode:multiply" opacity="0.33">
<path d="M82.7003 331.634C82.8971 331.634 83.0567 331.475 83.0567 331.278C83.0567 331.081 82.8971 330.922 82.7003 330.922C82.5035 330.922 82.344 331.081 82.344 331.278C82.344 331.475 82.5035 331.634 82.7003 331.634Z" fill="#4E4E4E"/>
<path d="M82.7003 331.634C82.8971 331.634 83.0567 331.475 83.0567 331.278C83.0567 331.081 82.8971 330.922 82.7003 330.922C82.5035 330.922 82.344 331.081 82.344 331.278C82.344 331.475 82.5035 331.634 82.7003 331.634Z" stroke="#46505C" stroke-width="4" stroke-linecap="round" stroke-linejoin="round"/>
</g>
<g style="mix-blend-mode:multiply" opacity="0.33">
<path d="M56.5989 314.706C57.0608 314.706 57.4353 314.332 57.4353 313.87C57.4353 313.408 57.0608 313.033 56.5989 313.033C56.1369 313.033 55.7625 313.408 55.7625 313.87C55.7625 314.332 56.1369 314.706 56.5989 314.706Z" fill="#4E4E4E"/>
<path d="M56.5989 314.706C57.0608 314.706 57.4353 314.332 57.4353 313.87C57.4353 313.408 57.0608 313.033 56.5989 313.033C56.1369 313.033 55.7625 313.408 55.7625 313.87C55.7625 314.332 56.1369 314.706 56.5989 314.706Z" stroke="#46505C" stroke-width="4" stroke-linecap="round" stroke-linejoin="round"/>
</g>
<g style="mix-blend-mode:multiply" opacity="0.33">
<path d="M79.3694 304.925C79.8041 304.925 80.1564 304.573 80.1564 304.138C80.1564 303.703 79.8041 303.351 79.3694 303.351C78.9348 303.351 78.5825 303.703 78.5825 304.138C78.5825 304.573 78.9348 304.925 79.3694 304.925Z" fill="#4E4E4E"/>
<path d="M79.3694 304.925C79.8041 304.925 80.1564 304.573 80.1564 304.138C80.1564 303.703 79.8041 303.351 79.3694 303.351C78.9348 303.351 78.5825 303.703 78.5825 304.138C78.5825 304.573 78.9348 304.925 79.3694 304.925Z" stroke="#46505C" stroke-width="4" stroke-linecap="round" stroke-linejoin="round"/>
</g>
<g style="mix-blend-mode:multiply" opacity="0.33">
<path d="M84.4844 308.728C84.878 308.728 85.1971 308.409 85.1971 308.015C85.1971 307.621 84.878 307.302 84.4844 307.302C84.0908 307.302 83.7717 307.621 83.7717 308.015C83.7717 308.409 84.0908 308.728 84.4844 308.728Z" fill="#4E4E4E"/>
<path d="M84.4844 308.728C84.878 308.728 85.1971 308.409 85.1971 308.015C85.1971 307.621 84.878 307.302 84.4844 307.302C84.0908 307.302 83.7717 307.621 83.7717 308.015C83.7717 308.409 84.0908 308.728 84.4844 308.728Z" stroke="#46505C" stroke-width="4" stroke-linecap="round" stroke-linejoin="round"/>
</g>
<g style="mix-blend-mode:multiply" opacity="0.33">
<path d="M85.0694 310.346C85.2416 310.346 85.3812 310.206 85.3812 310.034C85.3812 309.862 85.2416 309.722 85.0694 309.722C84.8972 309.722 84.7576 309.862 84.7576 310.034C84.7576 310.206 84.8972 310.346 85.0694 310.346Z" fill="#4E4E4E"/>
<path d="M85.0694 310.346C85.2416 310.346 85.3812 310.206 85.3812 310.034C85.3812 309.862 85.2416 309.722 85.0694 309.722C84.8972 309.722 84.7576 309.862 84.7576 310.034C84.7576 310.206 84.8972 310.346 85.0694 310.346Z" stroke="#46505C" stroke-width="4" stroke-linecap="round" stroke-linejoin="round"/>
</g>
</g>
<path d="M42.5488 338.904L48.9177 329.805C49.0045 329.681 49.137 329.596 49.2861 329.57C49.4352 329.544 49.5886 329.578 49.7127 329.665L56.211 334.213C56.335 334.3 56.4195 334.432 56.4458 334.581C56.4721 334.73 56.4381 334.884 56.3513 335.008L49.9824 344.107C49.3552 345.003 48.3977 345.614 47.3205 345.804C46.2433 345.994 45.1347 345.749 44.2385 345.121L43.5628 344.648C42.6666 344.021 42.0563 343.064 41.8662 341.986C41.676 340.909 41.9216 339.801 42.5488 338.904Z" fill="white" stroke="#E6F3FF" stroke-width="2" stroke-miterlimit="10"/>
<path opacity="0.18" d="M49.7122 329.666C49.5882 329.58 49.4348 329.546 49.2859 329.572C49.1369 329.599 49.0046 329.683 48.9179 329.807L46.0498 333.904C47.1495 334.951 48.3266 335.915 49.5712 336.786C50.8155 337.656 52.1229 338.432 53.4827 339.108L56.3508 335.01C56.3939 334.948 56.4245 334.879 56.4407 334.806C56.457 334.733 56.4587 334.657 56.4457 334.583C56.4326 334.51 56.4052 334.439 56.3648 334.376C56.3245 334.313 56.272 334.258 56.2105 334.215L49.7122 329.666Z" fill="#4E4E4E" stroke="#46505C" stroke-width="4" stroke-linecap="round" stroke-linejoin="round"/>
<path d="M42.5488 338.904L48.9177 329.805C49.0045 329.681 49.137 329.596 49.2861 329.57C49.4352 329.544 49.5886 329.578 49.7127 329.665L56.211 334.213C56.335 334.3 56.4195 334.432 56.4458 334.581C56.4721 334.73 56.4381 334.884 56.3513 335.008L49.9824 344.107C49.3552 345.003 48.3977 345.614 47.3205 345.804C46.2433 345.994 45.1347 345.749 44.2385 345.121L43.5628 344.648C42.6666 344.021 42.0563 343.064 41.8662 341.986C41.676 340.909 41.9216 339.801 42.5488 338.904V338.904Z" stroke="#46505C" stroke-width="4" stroke-linecap="round" stroke-linejoin="round"/>
<path d="M66.8709 338.939C81.7114 338.939 93.7419 326.908 93.7419 312.068C93.7419 297.227 81.7114 285.197 66.8709 285.197C52.0305 285.197 40 297.227 40 312.068C40 326.908 52.0305 338.939 66.8709 338.939Z" fill="white" stroke="#E6F3FF" stroke-width="2" stroke-miterlimit="10"/>
<path d="M66.8709 338.939C81.7114 338.939 93.7419 326.908 93.7419 312.068C93.7419 297.227 81.7114 285.197 66.8709 285.197C52.0305 285.197 40 297.227 40 312.068C40 326.908 52.0305 338.939 66.8709 338.939Z" stroke="#46505C" stroke-width="4" stroke-linecap="round" stroke-linejoin="round"/>
<path d="M66.8711 332.982C78.4219 332.982 87.7857 323.618 87.7857 312.068C87.7857 300.517 78.4219 291.153 66.8711 291.153C55.3203 291.153 45.9565 300.517 45.9565 312.068C45.9565 323.618 55.3203 332.982 66.8711 332.982Z" fill="#845B5B"/>
<path d="M66.8711 332.982C78.4219 332.982 87.7857 323.618 87.7857 312.068C87.7857 300.517 78.4219 291.153 66.8711 291.153C55.3203 291.153 45.9565 300.517 45.9565 312.068C45.9565 323.618 55.3203 332.982 66.8711 332.982Z" stroke="#46505C" stroke-width="2" stroke-linecap="round" stroke-linejoin="round"/>
<g style="mix-blend-mode:multiply" opacity="0.33">
<path d="M53.1988 307.725C53.4785 307.096 53.7812 306.477 54.0897 305.873C55.492 303.125 57.1697 300.276 59.8456 298.592C62.119 297.161 65.2964 296.602 67.7594 297.867C69.8958 298.964 71.1835 301.221 73.1326 302.624C74.4467 303.427 75.8121 304.143 77.2198 304.768C78.6401 305.408 79.7643 306.563 80.3651 308C81.025 310.017 79.937 312.168 79.9254 314.289C79.9217 315.459 80.2467 316.608 80.8633 317.602C81.253 318.068 81.5034 318.634 81.5859 319.235C81.5268 319.62 81.3638 319.982 81.1146 320.281C80.8654 320.581 80.5392 320.807 80.1712 320.935C78.0043 321.958 75.4744 321.589 73.0922 321.331C70.71 321.073 68.0729 321.02 66.1889 322.501C65.4181 323.211 64.7041 323.981 64.0533 324.804C63.7785 325.216 63.416 325.562 62.9918 325.817C62.5676 326.073 62.0922 326.231 61.5996 326.281C61.1069 326.332 60.6093 326.273 60.1422 326.108C59.6751 325.943 59.2502 325.678 58.8978 325.33C57.1907 323.899 55.7096 322.219 54.5046 320.346C53.2394 318.763 52.3458 316.916 51.8898 314.941C51.455 312.49 52.1735 310.034 53.1988 307.725Z" fill="#845B5B"/>
</g>
<g style="mix-blend-mode:multiply" opacity="0.33">
<path d="M71.1011 327.9C71.8181 327.9 72.3994 327.319 72.3994 326.602C72.3994 325.885 71.8181 325.303 71.1011 325.303C70.384 325.303 69.8027 325.885 69.8027 326.602C69.8027 327.319 70.384 327.9 71.1011 327.9Z" fill="#845B5B"/>
</g>
<g style="mix-blend-mode:multiply" opacity="0.33">
<path d="M67.7214 327.98C68.2179 327.98 68.6205 327.578 68.6205 327.081C68.6205 326.584 68.2179 326.182 67.7214 326.182C67.2248 326.182 66.8223 326.584 66.8223 327.081C66.8223 327.578 67.2248 327.98 67.7214 327.98Z" fill="#845B5B"/>
</g>
<g style="mix-blend-mode:multiply" opacity="0.33">
<path d="M74.1687 326.21C74.6188 326.21 74.9837 325.845 74.9837 325.395C74.9837 324.945 74.6188 324.58 74.1687 324.58C73.7186 324.58 73.3538 324.945 73.3538 325.395C73.3538 325.845 73.7186 326.21 74.1687 326.21Z" fill="#845B5B"/>
</g>
<g style="mix-blend-mode:multiply" opacity="0.33">
<path d="M64.8775 328.002C65.2 328.002 65.4615 327.741 65.4615 327.418C65.4615 327.096 65.2 326.834 64.8775 326.834C64.5549 326.834 64.2935 327.096 64.2935 327.418C64.2935 327.741 64.5549 328.002 64.8775 328.002Z" fill="#845B5B"/>
</g>
<g style="mix-blend-mode:multiply" opacity="0.33">
<path d="M76.7431 324.89C76.9399 324.89 77.0994 324.731 77.0994 324.534C77.0994 324.337 76.9399 324.177 76.7431 324.177C76.5463 324.177 76.3867 324.337 76.3867 324.534C76.3867 324.731 76.5463 324.89 76.7431 324.89Z" fill="#845B5B"/>
</g>
<g style="mix-blend-mode:multiply" opacity="0.33">
<path d="M50.6418 307.962C51.1038 307.962 51.4783 307.588 51.4783 307.126C51.4783 306.664 51.1038 306.289 50.6418 306.289C50.1799 306.289 49.8054 306.664 49.8054 307.126C49.8054 307.588 50.1799 307.962 50.6418 307.962Z" fill="#845B5B"/>
</g>
<g style="mix-blend-mode:multiply" opacity="0.33">
<path d="M73.4122 298.18C73.8468 298.18 74.1991 297.828 74.1991 297.393C74.1991 296.959 73.8468 296.606 73.4122 296.606C72.9776 296.606 72.6252 296.959 72.6252 297.393C72.6252 297.828 72.9776 298.18 73.4122 298.18Z" fill="#845B5B"/>
</g>
<g style="mix-blend-mode:multiply" opacity="0.33">
<path d="M78.5271 301.983C78.9207 301.983 79.2398 301.664 79.2398 301.27C79.2398 300.876 78.9207 300.557 78.5271 300.557C78.1335 300.557 77.8145 300.876 77.8145 301.27C77.8145 301.664 78.1335 301.983 78.5271 301.983Z" fill="#845B5B"/>
</g>
<g style="mix-blend-mode:multiply" opacity="0.33">
<path d="M79.1121 303.601C79.2843 303.601 79.4239 303.462 79.4239 303.289C79.4239 303.117 79.2843 302.978 79.1121 302.978C78.9399 302.978 78.8003 303.117 78.8003 303.289C78.8003 303.462 78.9399 303.601 79.1121 303.601Z" fill="#845B5B"/>
</g>
<path d="M68.7039 315.445C69.6151 315.445 70.3537 314.706 70.3537 313.795C70.3537 312.884 69.6151 312.145 68.7039 312.145C67.7928 312.145 67.0542 312.884 67.0542 313.795C67.0542 314.706 67.7928 315.445 68.7039 315.445Z" fill="#845B5B"/>
<path d="M63.3306 310.346C64.9251 310.346 66.2177 309.053 66.2177 307.459C66.2177 305.865 64.9251 304.572 63.3306 304.572C61.7362 304.572 60.4436 305.865 60.4436 307.459C60.4436 309.053 61.7362 310.346 63.3306 310.346Z" fill="#845B5B"/>
<path d="M319.395 120.003H128.025C121.647 120.003 116.477 125.174 116.477 131.551V243.734C116.477 250.112 121.647 255.282 128.025 255.282H319.395C325.773 255.282 330.943 250.112 330.943 243.734V131.551C330.943 125.174 325.773 120.003 319.395 120.003Z" stroke="black" stroke-linecap="round" stroke-linejoin="round"/>
<path d="M319.395 120.003H128.025C121.647 120.003 116.477 125.174 116.477 131.551V243.734C116.477 250.112 121.647 255.282 128.025 255.282H319.395C325.773 255.282 330.943 250.112 330.943 243.734V131.551C330.943 125.174 325.773 120.003 319.395 120.003Z" fill="#626C84"/>
<path d="M319.395 120.003H128.025C121.647 120.003 116.477 125.174 116.477 131.551V243.734C116.477 250.112 121.647 255.282 128.025 255.282H319.395C325.773 255.282 330.943 250.112 330.943 243.734V131.551C330.943 125.174 325.773 120.003 319.395 120.003Z" fill="#626C84"/>
<g style="mix-blend-mode:multiply" opacity="0.17">
<path d="M319.395 120.003H128.025C121.647 120.003 116.477 125.174 116.477 131.551V236.323C116.477 242.701 121.647 247.871 128.025 247.871H319.395C325.773 247.871 330.943 242.701 330.943 236.323V131.551C330.943 125.174 325.773 120.003 319.395 120.003Z" fill="#626C84"/>
</g>
<path opacity="0.1" d="M128.025 123.299H319.395C322.458 123.299 325.395 124.516 327.561 126.682C329.726 128.848 330.943 131.785 330.943 134.848V243.73V131.548C330.943 128.485 329.726 125.548 327.561 123.382C325.395 121.217 322.458 120 319.395 120H128.025C124.962 120 122.025 121.217 119.859 123.382C117.694 125.548 116.477 128.485 116.477 131.548V134.848C116.477 131.785 117.694 128.848 119.859 126.682C122.025 124.516 124.962 123.299 128.025 123.299Z" fill="white"/>
<g opacity="0.1">
<path opacity="0.1" d="M181.829 255.282H195.084L293.37 120.003H280.115L181.829 255.282Z" fill="white"/>
<path opacity="0.1" d="M202.731 255.282H206.809L305.095 120.003H301.016L202.731 255.282Z" fill="white"/>
</g>
<path d="M319.395 120.003H128.025C121.647 120.003 116.477 125.174 116.477 131.551V243.734C116.477 250.112 121.647 255.282 128.025 255.282H319.395C325.773 255.282 330.943 250.112 330.943 243.734V131.551C330.943 125.174 325.773 120.003 319.395 120.003Z" stroke="#46505C" stroke-width="4" stroke-linecap="round" stroke-linejoin="round"/>
<path d="M316.095 239.18V135.247H131.325V239.18H316.095Z" fill="#FF9852"/>
<g opacity="0.06">
<path opacity="0.06" d="M194.352 239.18H207.607L283.119 135.247H269.864L194.352 239.18Z" fill="white"/>
<path opacity="0.06" d="M215.253 239.18H219.332L294.844 135.247H290.766L215.253 239.18Z" fill="white"/>
</g>
<path d="M316.095 239.18V135.247H131.325V239.18H316.095Z" stroke="#46505C" stroke-linecap="round" stroke-linejoin="round"/>
<path d="M319.395 255.282H128.025C121.647 255.282 116.477 260.452 116.477 266.83V385.611C116.477 391.989 121.647 397.159 128.025 397.159H319.395C325.773 397.159 330.943 391.989 330.943 385.611V266.83C330.943 260.452 325.773 255.282 319.395 255.282Z" fill="#E6F3FF"/>
<path d="M327.644 385.611V266.83C327.644 262.274 323.95 258.581 319.395 258.581H128.025C123.469 258.581 119.776 262.274 119.776 266.83V385.611C119.776 390.167 123.469 393.86 128.025 393.86H319.395C323.95 393.86 327.644 390.167 327.644 385.611Z" fill="white" stroke="#E6F3FF" stroke-width="2" stroke-miterlimit="10"/>
<path d="M210.47 390.709H236.948C237.824 390.709 238.663 391.057 239.282 391.675C239.9 392.294 240.248 393.133 240.248 394.008V397.159H207.171V394.008C207.171 393.133 207.518 392.294 208.137 391.675C208.756 391.057 209.595 390.709 210.47 390.709Z" fill="#E6F3FF"/>
<path d="M319.395 255.282H128.025C121.647 255.282 116.477 260.452 116.477 266.83V385.611C116.477 391.989 121.647 397.159 128.025 397.159H319.395C325.773 397.159 330.943 391.989 330.943 385.611V266.83C330.943 260.452 325.773 255.282 319.395 255.282Z" stroke="#46505C" stroke-width="4" stroke-linecap="round" stroke-linejoin="round"/>
<path d="M316.095 266.351H131.325C129.958 266.351 128.85 267.459 128.85 268.825V339.764C128.85 341.131 129.958 342.239 131.325 342.239H316.095C317.462 342.239 318.57 341.131 318.57 339.764V268.825C318.57 267.459 317.462 266.351 316.095 266.351Z" fill="#E6F3FF"/>
<path d="M165.214 323.679H155.315C154.86 323.679 154.49 324.049 154.49 324.504V334.403C154.49 334.858 154.86 335.227 155.315 335.227H165.214C165.669 335.227 166.038 334.858 166.038 334.403V324.504C166.038 324.049 165.669 323.679 165.214 323.679Z" stroke="#626C84" stroke-linecap="round" stroke-linejoin="round"/>
<path d="M147.365 323.679H137.467C137.011 323.679 136.642 324.049 136.642 324.504V334.403C136.642 334.858 137.011 335.227 137.467 335.227H147.365C147.821 335.227 148.19 334.858 148.19 334.403V324.504C148.19 324.049 147.821 323.679 147.365 323.679Z" stroke="#626C84" stroke-linecap="round" stroke-linejoin="round"/>
<path d="M254.459 323.679H173.164C172.709 323.679 172.34 324.049 172.34 324.504V334.403C172.34 334.858 172.709 335.227 173.164 335.227H254.459C254.914 335.227 255.284 334.858 255.284 334.403V324.504C255.284 324.049 254.914 323.679 254.459 323.679Z" stroke="#626C84" stroke-linecap="round" stroke-linejoin="round"/>
<path d="M272.308 323.679H262.41C261.954 323.679 261.585 324.049 261.585 324.504V334.403C261.585 334.858 261.954 335.227 262.41 335.227H272.308C272.764 335.227 273.133 334.858 273.133 334.403V324.504C273.133 324.049 272.764 323.679 272.308 323.679Z" stroke="#626C84" stroke-linecap="round" stroke-linejoin="round"/>
<path d="M298.405 330.175H291.806C291.351 330.175 290.981 330.544 290.981 331V334.403C290.981 334.858 291.351 335.227 291.806 335.227H298.405C298.861 335.227 299.23 334.858 299.23 334.403V331C299.23 330.544 298.861 330.175 298.405 330.175Z" stroke="#626C84" stroke-linecap="round" stroke-linejoin="round"/>
<path d="M298.405 323.679H291.806C291.351 323.679 290.981 324.049 290.981 324.504V327.907C290.981 328.362 291.351 328.732 291.806 328.732H298.405C298.861 328.732 299.23 328.362 299.23 327.907V324.504C299.23 324.049 298.861 323.679 298.405 323.679Z" stroke="#626C84" stroke-linecap="round" stroke-linejoin="round"/>
<path d="M309.953 330.175H303.354C302.899 330.175 302.53 330.544 302.53 331V334.403C302.53 334.858 302.899 335.227 303.354 335.227H309.953C310.409 335.227 310.778 334.858 310.778 334.403V331C310.778 330.544 310.409 330.175 309.953 330.175Z" stroke="#626C84" stroke-linecap="round" stroke-linejoin="round"/>
<path d="M286.857 330.175H280.258C279.803 330.175 279.433 330.544 279.433 331V334.403C279.433 334.858 279.803 335.227 280.258 335.227H286.857C287.313 335.227 287.682 334.858 287.682 334.403V331C287.682 330.544 287.313 330.175 286.857 330.175Z" stroke="#626C84" stroke-linecap="round" stroke-linejoin="round"/>
<path d="M163.565 307.249H137.467C137.011 307.249 136.642 307.618 136.642 308.074V317.972C136.642 318.428 137.011 318.797 137.467 318.797H163.565C164.02 318.797 164.39 318.428 164.39 317.972V308.074C164.39 307.618 164.02 307.249 163.565 307.249Z" stroke="#626C84" stroke-linecap="round" stroke-linejoin="round"/>
<path d="M181.563 307.249H171.664C171.209 307.249 170.839 307.618 170.839 308.074V317.972C170.839 318.428 171.209 318.797 171.664 318.797H181.563C182.018 318.797 182.388 318.428 182.388 317.972V308.074C182.388 307.618 182.018 307.249 181.563 307.249Z" stroke="#626C84" stroke-linecap="round" stroke-linejoin="round"/>
<path d="M199.411 307.249H189.513C189.057 307.249 188.688 307.618 188.688 308.074V317.972C188.688 318.428 189.057 318.797 189.513 318.797H199.411C199.867 318.797 200.236 318.428 200.236 317.972V308.074C200.236 307.618 199.867 307.249 199.411 307.249Z" stroke="#626C84" stroke-linecap="round" stroke-linejoin="round"/>
<path d="M217.26 307.249H207.362C206.906 307.249 206.537 307.618 206.537 308.074V317.972C206.537 318.428 206.906 318.797 207.362 318.797H217.26C217.716 318.797 218.085 318.428 218.085 317.972V308.074C218.085 307.618 217.716 307.249 217.26 307.249Z" stroke="#626C84" stroke-linecap="round" stroke-linejoin="round"/>
<path d="M235.109 307.249H225.211C224.755 307.249 224.386 307.618 224.386 308.074V317.972C224.386 318.428 224.755 318.797 225.211 318.797H235.109C235.565 318.797 235.934 318.428 235.934 317.972V308.074C235.934 307.618 235.565 307.249 235.109 307.249Z" stroke="#626C84" stroke-linecap="round" stroke-linejoin="round"/>
<path d="M252.958 307.249H243.06C242.604 307.249 242.235 307.618 242.235 308.074V317.972C242.235 318.428 242.604 318.797 243.06 318.797H252.958C253.414 318.797 253.783 318.428 253.783 317.972V308.074C253.783 307.618 253.414 307.249 252.958 307.249Z" stroke="#626C84" stroke-linecap="round" stroke-linejoin="round"/>
<path d="M270.807 307.249H260.908C260.453 307.249 260.083 307.618 260.083 308.074V317.972C260.083 318.428 260.453 318.797 260.908 318.797H270.807C271.262 318.797 271.632 318.428 271.632 317.972V308.074C271.632 307.618 271.262 307.249 270.807 307.249Z" stroke="#626C84" stroke-linecap="round" stroke-linejoin="round"/>
<path d="M309.954 307.249H280.258C279.803 307.249 279.433 307.618 279.433 308.074V317.972C279.433 318.428 279.803 318.797 280.258 318.797H309.954C310.409 318.797 310.778 318.428 310.778 317.972V308.074C310.778 307.618 310.409 307.249 309.954 307.249Z" stroke="#626C84" stroke-linecap="round" stroke-linejoin="round"/>
<path d="M175.112 290.355H165.214C164.758 290.355 164.389 290.725 164.389 291.18V301.079C164.389 301.534 164.758 301.904 165.214 301.904H175.112C175.568 301.904 175.937 301.534 175.937 301.079V291.18C175.937 290.725 175.568 290.355 175.112 290.355Z" stroke="#626C84" stroke-linecap="round" stroke-linejoin="round"/>
<path d="M157.264 290.355H137.467C137.011 290.355 136.642 290.725 136.642 291.18V301.079C136.642 301.534 137.011 301.904 137.467 301.904H157.264C157.719 301.904 158.088 301.534 158.088 301.079V291.18C158.088 290.725 157.719 290.355 157.264 290.355Z" stroke="#626C84" stroke-linecap="round" stroke-linejoin="round"/>
<path d="M192.961 290.355H183.063C182.607 290.355 182.238 290.725 182.238 291.18V301.079C182.238 301.534 182.607 301.904 183.063 301.904H192.961C193.417 301.904 193.786 301.534 193.786 301.079V291.18C193.786 290.725 193.417 290.355 192.961 290.355Z" stroke="#626C84" stroke-linecap="round" stroke-linejoin="round"/>
<path d="M210.81 290.355H200.912C200.456 290.355 200.087 290.725 200.087 291.18V301.079C200.087 301.534 200.456 301.904 200.912 301.904H210.81C211.266 301.904 211.635 301.534 211.635 301.079V291.18C211.635 290.725 211.266 290.355 210.81 290.355Z" stroke="#626C84" stroke-linecap="round" stroke-linejoin="round"/>
<path d="M228.659 290.355H218.761C218.305 290.355 217.936 290.725 217.936 291.18V301.079C217.936 301.534 218.305 301.904 218.761 301.904H228.659C229.115 301.904 229.484 301.534 229.484 301.079V291.18C229.484 290.725 229.115 290.355 228.659 290.355Z" stroke="#626C84" stroke-linecap="round" stroke-linejoin="round"/>
<path d="M246.508 290.355H236.61C236.154 290.355 235.785 290.725 235.785 291.18V301.079C235.785 301.534 236.154 301.904 236.61 301.904H246.508C246.964 301.904 247.333 301.534 247.333 301.079V291.18C247.333 290.725 246.964 290.355 246.508 290.355Z" stroke="#626C84" stroke-linecap="round" stroke-linejoin="round"/>
<path d="M264.357 290.355H254.459C254.003 290.355 253.634 290.725 253.634 291.18V301.079C253.634 301.534 254.003 301.904 254.459 301.904H264.357C264.813 301.904 265.182 301.534 265.182 301.079V291.18C265.182 290.725 264.813 290.355 264.357 290.355Z" stroke="#626C84" stroke-linecap="round" stroke-linejoin="round"/>
<path d="M282.206 290.355H272.308C271.852 290.355 271.483 290.725 271.483 291.18V301.079C271.483 301.534 271.852 301.904 272.308 301.904H282.206C282.662 301.904 283.031 301.534 283.031 301.079V291.18C283.031 290.725 282.662 290.355 282.206 290.355Z" stroke="#626C84" stroke-linecap="round" stroke-linejoin="round"/>
<path d="M309.954 290.355H290.157C289.701 290.355 289.332 290.725 289.332 291.18V301.079C289.332 301.534 289.701 301.904 290.157 301.904H309.954C310.409 301.904 310.778 301.534 310.778 301.079V291.18C310.778 290.725 310.409 290.355 309.954 290.355Z" stroke="#626C84" stroke-linecap="round" stroke-linejoin="round"/>
<path d="M165.431 274.187H155.532C155.077 274.187 154.707 274.556 154.707 275.012V284.91C154.707 285.366 155.077 285.735 155.532 285.735H165.431C165.886 285.735 166.255 285.366 166.255 284.91V275.012C166.255 274.556 165.886 274.187 165.431 274.187Z" stroke="#626C84" stroke-linecap="round" stroke-linejoin="round"/>
<path d="M147.365 274.187H137.467C137.011 274.187 136.642 274.556 136.642 275.012V284.91C136.642 285.366 137.011 285.735 137.467 285.735H147.365C147.821 285.735 148.19 285.366 148.19 284.91V275.012C148.19 274.556 147.821 274.187 147.365 274.187Z" stroke="#626C84" stroke-linecap="round" stroke-linejoin="round"/>
<path d="M183.496 274.187H173.598C173.142 274.187 172.773 274.556 172.773 275.012V284.91C172.773 285.366 173.142 285.735 173.598 285.735H183.496C183.952 285.735 184.321 285.366 184.321 284.91V275.012C184.321 274.556 183.952 274.187 183.496 274.187Z" stroke="#626C84" stroke-linecap="round" stroke-linejoin="round"/>
<path d="M201.561 274.187H191.663C191.207 274.187 190.838 274.556 190.838 275.012V284.91C190.838 285.366 191.207 285.735 191.663 285.735H201.561C202.017 285.735 202.386 285.366 202.386 284.91V275.012C202.386 274.556 202.017 274.187 201.561 274.187Z" stroke="#626C84" stroke-linecap="round" stroke-linejoin="round"/>
<path d="M219.627 274.187H209.729C209.273 274.187 208.904 274.556 208.904 275.012V284.91C208.904 285.366 209.273 285.735 209.729 285.735H219.627C220.083 285.735 220.452 285.366 220.452 284.91V275.012C220.452 274.556 220.083 274.187 219.627 274.187Z" stroke="#626C84" stroke-linecap="round" stroke-linejoin="round"/>
<path d="M237.692 274.187H227.793C227.338 274.187 226.968 274.556 226.968 275.012V284.91C226.968 285.366 227.338 285.735 227.793 285.735H237.692C238.147 285.735 238.516 285.366 238.516 284.91V275.012C238.516 274.556 238.147 274.187 237.692 274.187Z" stroke="#626C84" stroke-linecap="round" stroke-linejoin="round"/>
<path d="M255.757 274.187H245.859C245.403 274.187 245.034 274.556 245.034 275.012V284.91C245.034 285.366 245.403 285.735 245.859 285.735H255.757C256.213 285.735 256.582 285.366 256.582 284.91V275.012C256.582 274.556 256.213 274.187 255.757 274.187Z" stroke="#626C84" stroke-linecap="round" stroke-linejoin="round"/>
<path d="M273.822 274.187H263.924C263.468 274.187 263.099 274.556 263.099 275.012V284.91C263.099 285.366 263.468 285.735 263.924 285.735H273.822C274.278 285.735 274.647 285.366 274.647 284.91V275.012C274.647 274.556 274.278 274.187 273.822 274.187Z" stroke="#626C84" stroke-linecap="round" stroke-linejoin="round"/>
<path d="M291.888 274.187H281.99C281.534 274.187 281.165 274.556 281.165 275.012V284.91C281.165 285.366 281.534 285.735 281.99 285.735H291.888C292.344 285.735 292.713 285.366 292.713 284.91V275.012C292.713 274.556 292.344 274.187 291.888 274.187Z" stroke="#626C84" stroke-linecap="round" stroke-linejoin="round"/>
<path d="M309.954 274.187H300.055C299.6 274.187 299.23 274.556 299.23 275.012V284.91C299.23 285.366 299.6 285.735 300.055 285.735H309.954C310.409 285.735 310.778 285.366 310.778 284.91V275.012C310.778 274.556 310.409 274.187 309.954 274.187Z" stroke="#626C84" stroke-linecap="round" stroke-linejoin="round"/>
<path d="M165.214 323.679H155.315C154.86 323.679 154.49 324.049 154.49 324.504V334.403C154.49 334.858 154.86 335.227 155.315 335.227H165.214C165.669 335.227 166.038 334.858 166.038 334.403V324.504C166.038 324.049 165.669 323.679 165.214 323.679Z" fill="#626C84"/>
<path d="M147.365 323.679H137.467C137.011 323.679 136.642 324.049 136.642 324.504V334.403C136.642 334.858 137.011 335.227 137.467 335.227H147.365C147.821 335.227 148.19 334.858 148.19 334.403V324.504C148.19 324.049 147.821 323.679 147.365 323.679Z" fill="#626C84"/>
<path d="M254.459 323.679H173.164C172.709 323.679 172.34 324.049 172.34 324.504V334.403C172.34 334.858 172.709 335.227 173.164 335.227H254.459C254.914 335.227 255.284 334.858 255.284 334.403V324.504C255.284 324.049 254.914 323.679 254.459 323.679Z" fill="#626C84"/>
<path d="M272.308 323.679H262.41C261.954 323.679 261.585 324.049 261.585 324.504V334.403C261.585 334.858 261.954 335.227 262.41 335.227H272.308C272.764 335.227 273.133 334.858 273.133 334.403V324.504C273.133 324.049 272.764 323.679 272.308 323.679Z" fill="#626C84"/>
<path d="M298.405 330.175H291.806C291.351 330.175 290.981 330.544 290.981 331V334.403C290.981 334.858 291.351 335.227 291.806 335.227H298.405C298.861 335.227 299.23 334.858 299.23 334.403V331C299.23 330.544 298.861 330.175 298.405 330.175Z" fill="#626C84"/>
<path d="M298.405 323.679H291.806C291.351 323.679 290.981 324.049 290.981 324.504V327.907C290.981 328.362 291.351 328.732 291.806 328.732H298.405C298.861 328.732 299.23 328.362 299.23 327.907V324.504C299.23 324.049 298.861 323.679 298.405 323.679Z" fill="#626C84"/>
<path d="M309.953 330.175H303.354C302.899 330.175 302.53 330.544 302.53 331V334.403C302.53 334.858 302.899 335.227 303.354 335.227H309.953C310.409 335.227 310.778 334.858 310.778 334.403V331C310.778 330.544 310.409 330.175 309.953 330.175Z" fill="#626C84"/>
<path d="M286.857 330.175H280.258C279.803 330.175 279.433 330.544 279.433 331V334.403C279.433 334.858 279.803 335.227 280.258 335.227H286.857C287.313 335.227 287.682 334.858 287.682 334.403V331C287.682 330.544 287.313 330.175 286.857 330.175Z" fill="#626C84"/>
<path d="M163.565 307.249H137.467C137.011 307.249 136.642 307.618 136.642 308.074V317.972C136.642 318.428 137.011 318.797 137.467 318.797H163.565C164.02 318.797 164.39 318.428 164.39 317.972V308.074C164.39 307.618 164.02 307.249 163.565 307.249Z" fill="#626C84"/>
<path d="M181.563 307.249H171.664C171.209 307.249 170.839 307.618 170.839 308.074V317.972C170.839 318.428 171.209 318.797 171.664 318.797H181.563C182.018 318.797 182.388 318.428 182.388 317.972V308.074C182.388 307.618 182.018 307.249 181.563 307.249Z" fill="#626C84"/>
<path d="M199.411 307.249H189.513C189.057 307.249 188.688 307.618 188.688 308.074V317.972C188.688 318.428 189.057 318.797 189.513 318.797H199.411C199.867 318.797 200.236 318.428 200.236 317.972V308.074C200.236 307.618 199.867 307.249 199.411 307.249Z" fill="#626C84"/>
<path d="M217.26 307.249H207.362C206.906 307.249 206.537 307.618 206.537 308.074V317.972C206.537 318.428 206.906 318.797 207.362 318.797H217.26C217.716 318.797 218.085 318.428 218.085 317.972V308.074C218.085 307.618 217.716 307.249 217.26 307.249Z" fill="#626C84"/>
<path d="M235.109 307.249H225.211C224.755 307.249 224.386 307.618 224.386 308.074V317.972C224.386 318.428 224.755 318.797 225.211 318.797H235.109C235.565 318.797 235.934 318.428 235.934 317.972V308.074C235.934 307.618 235.565 307.249 235.109 307.249Z" fill="#626C84"/>
<path d="M252.958 307.249H243.06C242.604 307.249 242.235 307.618 242.235 308.074V317.972C242.235 318.428 242.604 318.797 243.06 318.797H252.958C253.414 318.797 253.783 318.428 253.783 317.972V308.074C253.783 307.618 253.414 307.249 252.958 307.249Z" fill="#626C84"/>
<path d="M270.807 307.249H260.908C260.453 307.249 260.083 307.618 260.083 308.074V317.972C260.083 318.428 260.453 318.797 260.908 318.797H270.807C271.262 318.797 271.632 318.428 271.632 317.972V308.074C271.632 307.618 271.262 307.249 270.807 307.249Z" fill="#626C84"/>
<path d="M309.954 307.249H280.258C279.803 307.249 279.433 307.618 279.433 308.074V317.972C279.433 318.428 279.803 318.797 280.258 318.797H309.954C310.409 318.797 310.778 318.428 310.778 317.972V308.074C310.778 307.618 310.409 307.249 309.954 307.249Z" fill="#626C84"/>
<path d="M175.112 290.355H165.214C164.758 290.355 164.389 290.725 164.389 291.18V301.079C164.389 301.534 164.758 301.904 165.214 301.904H175.112C175.568 301.904 175.937 301.534 175.937 301.079V291.18C175.937 290.725 175.568 290.355 175.112 290.355Z" fill="#626C84"/>
<path d="M157.264 290.355H137.467C137.011 290.355 136.642 290.725 136.642 291.18V301.079C136.642 301.534 137.011 301.904 137.467 301.904H157.264C157.719 301.904 158.088 301.534 158.088 301.079V291.18C158.088 290.725 157.719 290.355 157.264 290.355Z" fill="#626C84"/>
<path d="M192.961 290.355H183.063C182.607 290.355 182.238 290.725 182.238 291.18V301.079C182.238 301.534 182.607 301.904 183.063 301.904H192.961C193.417 301.904 193.786 301.534 193.786 301.079V291.18C193.786 290.725 193.417 290.355 192.961 290.355Z" fill="#626C84"/>
<path d="M210.81 290.355H200.912C200.456 290.355 200.087 290.725 200.087 291.18V301.079C200.087 301.534 200.456 301.904 200.912 301.904H210.81C211.266 301.904 211.635 301.534 211.635 301.079V291.18C211.635 290.725 211.266 290.355 210.81 290.355Z" fill="#626C84"/>
<path d="M228.659 290.355H218.761C218.305 290.355 217.936 290.725 217.936 291.18V301.079C217.936 301.534 218.305 301.904 218.761 301.904H228.659C229.115 301.904 229.484 301.534 229.484 301.079V291.18C229.484 290.725 229.115 290.355 228.659 290.355Z" fill="#626C84"/>
<path d="M246.508 290.355H236.61C236.154 290.355 235.785 290.725 235.785 291.18V301.079C235.785 301.534 236.154 301.904 236.61 301.904H246.508C246.964 301.904 247.333 301.534 247.333 301.079V291.18C247.333 290.725 246.964 290.355 246.508 290.355Z" fill="#626C84"/>
<path d="M264.357 290.355H254.459C254.003 290.355 253.634 290.725 253.634 291.18V301.079C253.634 301.534 254.003 301.904 254.459 301.904H264.357C264.813 301.904 265.182 301.534 265.182 301.079V291.18C265.182 290.725 264.813 290.355 264.357 290.355Z" fill="#626C84"/>
<path d="M282.206 290.355H272.308C271.852 290.355 271.483 290.725 271.483 291.18V301.079C271.483 301.534 271.852 301.904 272.308 301.904H282.206C282.662 301.904 283.031 301.534 283.031 301.079V291.18C283.031 290.725 282.662 290.355 282.206 290.355Z" fill="#626C84"/>
<path d="M309.954 290.355H290.157C289.701 290.355 289.332 290.725 289.332 291.18V301.079C289.332 301.534 289.701 301.904 290.157 301.904H309.954C310.409 301.904 310.778 301.534 310.778 301.079V291.18C310.778 290.725 310.409 290.355 309.954 290.355Z" fill="#626C84"/>
<path d="M165.431 274.187H155.532C155.077 274.187 154.707 274.556 154.707 275.012V284.91C154.707 285.366 155.077 285.735 155.532 285.735H165.431C165.886 285.735 166.255 285.366 166.255 284.91V275.012C166.255 274.556 165.886 274.187 165.431 274.187Z" fill="#626C84"/>
<path d="M147.365 274.187H137.467C137.011 274.187 136.642 274.556 136.642 275.012V284.91C136.642 285.366 137.011 285.735 137.467 285.735H147.365C147.821 285.735 148.19 285.366 148.19 284.91V275.012C148.19 274.556 147.821 274.187 147.365 274.187Z" fill="#626C84"/>
<path d="M183.496 274.187H173.598C173.142 274.187 172.773 274.556 172.773 275.012V284.91C172.773 285.366 173.142 285.735 173.598 285.735H183.496C183.952 285.735 184.321 285.366 184.321 284.91V275.012C184.321 274.556 183.952 274.187 183.496 274.187Z" fill="#626C84"/>
<path d="M201.561 274.187H191.663C191.207 274.187 190.838 274.556 190.838 275.012V284.91C190.838 285.366 191.207 285.735 191.663 285.735H201.561C202.017 285.735 202.386 285.366 202.386 284.91V275.012C202.386 274.556 202.017 274.187 201.561 274.187Z" fill="#626C84"/>
<path d="M219.627 274.187H209.729C209.273 274.187 208.904 274.556 208.904 275.012V284.91C208.904 285.366 209.273 285.735 209.729 285.735H219.627C220.083 285.735 220.452 285.366 220.452 284.91V275.012C220.452 274.556 220.083 274.187 219.627 274.187Z" fill="#626C84"/>
<path d="M237.692 274.187H227.793C227.338 274.187 226.968 274.556 226.968 275.012V284.91C226.968 285.366 227.338 285.735 227.793 285.735H237.692C238.147 285.735 238.516 285.366 238.516 284.91V275.012C238.516 274.556 238.147 274.187 237.692 274.187Z" fill="#626C84"/>
<path d="M255.757 274.187H245.859C245.403 274.187 245.034 274.556 245.034 275.012V284.91C245.034 285.366 245.403 285.735 245.859 285.735H255.757C256.213 285.735 256.582 285.366 256.582 284.91V275.012C256.582 274.556 256.213 274.187 255.757 274.187Z" fill="#626C84"/>
<path d="M273.822 274.187H263.924C263.468 274.187 263.099 274.556 263.099 275.012V284.91C263.099 285.366 263.468 285.735 263.924 285.735H273.822C274.278 285.735 274.647 285.366 274.647 284.91V275.012C274.647 274.556 274.278 274.187 273.822 274.187Z" fill="#626C84"/>
<path d="M291.888 274.187H281.99C281.534 274.187 281.165 274.556 281.165 275.012V284.91C281.165 285.366 281.534 285.735 281.99 285.735H291.888C292.344 285.735 292.713 285.366 292.713 284.91V275.012C292.713 274.556 292.344 274.187 291.888 274.187Z" fill="#626C84"/>
<path d="M309.954 274.187H300.055C299.6 274.187 299.23 274.556 299.23 275.012V284.91C299.23 285.366 299.6 285.735 300.055 285.735H309.954C310.409 285.735 310.778 285.366 310.778 284.91V275.012C310.778 274.556 310.409 274.187 309.954 274.187Z" fill="#626C84"/>
<path d="M153.596 247.871H293.824V258.962C293.824 259.838 293.476 260.677 292.858 261.296C292.239 261.914 291.4 262.262 290.525 262.262H156.896C156.021 262.262 155.181 261.914 154.563 261.296C153.944 260.677 153.596 259.838 153.596 258.962V247.871Z" fill="#626C84"/>
<path opacity="0.12" d="M293.824 247.871H153.596V249.521H293.824V247.871Z" fill="white"/>
<g style="mix-blend-mode:multiply" opacity="0.25">
<path d="M290.525 258.962H156.896C156.021 258.962 155.181 258.614 154.563 257.995C153.944 257.376 153.596 256.537 153.596 255.662V258.962C153.596 259.837 153.944 260.676 154.563 261.295C155.181 261.914 156.021 262.261 156.896 262.261H290.525C291.4 262.261 292.239 261.914 292.858 261.295C293.476 260.676 293.824 259.837 293.824 258.962V255.662C293.824 256.537 293.476 257.376 292.858 257.995C292.239 258.614 291.4 258.962 290.525 258.962Z" fill="#626C84"/>
</g>
<path d="M153.596 247.871H293.824V258.962C293.824 259.838 293.476 260.677 292.858 261.296C292.239 261.914 291.4 262.262 290.525 262.262H156.896C156.021 262.262 155.181 261.914 154.563 261.296C153.944 260.677 153.596 259.838 153.596 258.962V247.871Z" stroke="#46505C" stroke-width="2" stroke-linecap="round" stroke-linejoin="round"/>
<path d="M252.581 346.363H194.84C193.929 346.363 193.19 347.102 193.19 348.013V386.782C193.19 387.693 193.929 388.432 194.84 388.432H252.581C253.492 388.432 254.23 387.693 254.23 386.782V348.013C254.23 347.102 253.492 346.363 252.581 346.363Z" fill="#E6F3FF"/>
<path d="M252.581 346.363H194.84C193.929 346.363 193.19 347.102 193.19 348.013V386.782C193.19 387.693 193.929 388.432 194.84 388.432H252.581C253.492 388.432 254.23 387.693 254.23 386.782V348.013C254.23 347.102 253.492 346.363 252.581 346.363Z" stroke="#626C84" stroke-linecap="round" stroke-linejoin="round"/>
<path opacity="0.52" d="M223.71 130.849C225.077 130.849 226.185 129.741 226.185 128.374C226.185 127.007 225.077 125.899 223.71 125.899C222.343 125.899 221.235 127.007 221.235 128.374C221.235 129.741 222.343 130.849 223.71 130.849Z" fill="white"/>
<path d="M223.71 130.849C225.077 130.849 226.185 129.741 226.185 128.374C226.185 127.007 225.077 125.899 223.71 125.899C222.343 125.899 221.235 127.007 221.235 128.374C221.235 129.741 222.343 130.849 223.71 130.849Z" stroke="#46505C" stroke-linecap="round" stroke-linejoin="round"/>
<path d="M275.149 145.76H265.25C264.795 145.76 264.426 146.129 264.426 146.585C264.426 147.04 264.795 147.41 265.25 147.41H275.149C275.604 147.41 275.974 147.04 275.974 146.585C275.974 146.129 275.604 145.76 275.149 145.76Z" fill="white"/>
<path d="M296.574 145.76H286.676C286.22 145.76 285.851 146.129 285.851 146.585C285.851 147.04 286.22 147.41 286.676 147.41H296.574C297.03 147.41 297.399 147.04 297.399 146.585C297.399 146.129 297.03 145.76 296.574 145.76Z" fill="white"/>
<path d="M253.725 145.76H243.826C243.371 145.76 243.001 146.129 243.001 146.585C243.001 147.04 243.371 147.41 243.826 147.41H253.725C254.18 147.41 254.549 147.04 254.549 146.585C254.549 146.129 254.18 145.76 253.725 145.76Z" fill="white"/>
<path d="M147.189 151.004C149.393 151.004 151.179 149.218 151.179 147.014C151.179 144.811 149.393 143.025 147.189 143.025C144.986 143.025 143.199 144.811 143.199 147.014C143.199 149.218 144.986 151.004 147.189 151.004Z" fill="white"/>
<g opacity="0.72">
<path opacity="0.72" d="M265.414 190.7H181.909V193.707H265.414V190.7Z" fill="white"/>
<path opacity="0.72" d="M254.854 180.721H192.47V183.771H254.854V180.721Z" fill="white"/>
</g>
<path d="M238.067 214.072H214.302C211.805 214.072 209.781 216.096 209.781 218.593C209.781 221.09 211.805 223.114 214.302 223.114H238.067C240.564 223.114 242.588 221.09 242.588 218.593C242.588 216.096 240.564 214.072 238.067 214.072Z" stroke="white" stroke-miterlimit="10"/>
</svg>
