<svg width="95" height="17" viewBox="0 0 95 17" fill="none" xmlns="http://www.w3.org/2000/svg">
<path d="M19.8805 0.151999V17H15.7765V6.896L12.0085 17H8.6965L4.9045 6.872V17H0.8005V0.151999H5.6485L10.3765 11.816L15.0565 0.151999H19.8805ZM26.9358 3.44V6.848H32.4318V10.016H26.9358V13.712H33.1518V17H22.8318V0.151999H33.1518V3.44H26.9358ZM53.0221 0.151999V3.44H48.5581V17H44.4541V3.44H39.9901V0.151999H53.0221ZM59.1858 0.151999V17H55.0818V0.151999H59.1858ZM81.2399 0.151999V17H77.1359V6.896L73.3679 17H70.0559L66.2639 6.872V17H62.1599V0.151999H67.0079L71.7359 11.816L76.4159 0.151999H81.2399ZM88.2951 3.44V6.848H93.7911V10.016H88.2951V13.712H94.5111V17H84.1911V0.151999H94.5111V3.44H88.2951Z" fill="#040404"/>
</svg>
