<svg width="256" height="292" viewBox="0 0 256 292" fill="none" xmlns="http://www.w3.org/2000/svg">
<path d="M25.6527 175.208C18.8547 175.208 11.9938 175.208 5.1958 175.208C9.41306 168.914 9.41306 160.731 5.1958 153.807C11.9938 153.807 18.8547 153.807 25.6527 153.807C21.4354 160.731 21.4354 168.914 25.6527 175.208Z" fill="#102D3B"/>
<path d="M240.67 258.295H66.9441V9.03554H240.67C246.902 9.03554 252 13.9452 252 20.1767V246.776C252 253.07 246.902 258.295 240.67 258.295Z" fill="#4C5B60"/>
<path d="M226.193 9.03554H211.086V258.295H226.193V9.03554Z" fill="#3E4B4F"/>
<path opacity="0.3" d="M77.6446 9.03554H66.9441V258.295H77.6446V9.03554Z" fill="#CCDDE5"/>
<path d="M240.67 258.295H66.9441V9.03554H240.67C246.902 9.03554 252 13.9452 252 20.1767V246.776C252 253.07 246.902 258.295 240.67 258.295Z" stroke="#102D3B" stroke-width="8" stroke-miterlimit="10" stroke-linecap="round" stroke-linejoin="round"/>
<path d="M88.3451 9.03554H66.9441V258.295H88.3451V9.03554Z" stroke="#102D3B" stroke-width="8" stroke-miterlimit="10" stroke-linecap="round" stroke-linejoin="round"/>
<path d="M252 80.7919H66.9441V151.289H252V80.7919Z" fill="#FF9852"/>
<path d="M149.527 102.445C149.527 103.767 149.275 104.837 148.772 105.655C148.268 106.473 147.702 107.103 147.072 107.606C146.128 108.361 144.869 108.676 143.17 108.676H136.183V95.7097H141.596C142.414 95.7097 143.107 95.7726 143.673 95.8356C144.24 95.8985 144.743 96.0244 145.247 96.2132C145.75 96.4021 146.128 96.528 146.443 96.7168C146.757 96.9056 147.072 97.0945 147.324 97.3462C147.765 97.7239 148.142 98.1645 148.457 98.6051C148.772 99.0457 149.086 99.6752 149.275 100.305C149.464 100.997 149.527 101.689 149.527 102.445ZM145.562 102.319C145.562 101.249 145.373 100.43 144.932 99.864C144.554 99.2975 144.051 98.8569 143.484 98.6681C142.918 98.4792 142.351 98.3533 141.785 98.3533H140.148V106.033H141.785C142.792 106.033 143.673 105.781 144.429 105.277C145.184 104.774 145.562 103.829 145.562 102.319Z" fill="#D85639"/>
<path d="M165.83 102.193C165.83 103.389 165.578 104.522 165.011 105.529C164.445 106.536 163.626 107.354 162.493 107.921C161.36 108.487 160.039 108.802 158.465 108.802C156.891 108.802 155.507 108.487 154.374 107.858C153.241 107.228 152.422 106.41 151.919 105.403C151.352 104.396 151.101 103.326 151.101 102.13C151.101 100.934 151.352 99.864 151.919 98.8569C152.485 97.8498 153.304 97.0315 154.374 96.4021C155.507 95.7726 156.829 95.4579 158.465 95.4579C159.661 95.4579 160.731 95.6467 161.675 95.9615C162.619 96.2762 163.375 96.7797 164.004 97.4092C164.634 98.0386 165.074 98.731 165.389 99.5493C165.704 100.368 165.83 101.312 165.83 102.193ZM161.864 102.193C161.864 101.689 161.801 101.249 161.675 100.871C161.549 100.493 161.298 100.116 161.046 99.8011C160.731 99.4863 160.416 99.2975 159.976 99.1087C159.535 98.9198 159.094 98.8569 158.528 98.8569C157.458 98.8569 156.64 99.1716 156.073 99.8011C155.507 100.431 155.192 101.186 155.192 102.193C155.192 103.2 155.507 103.955 156.073 104.585C156.703 105.214 157.521 105.529 158.528 105.529C159.22 105.529 159.85 105.403 160.353 105.088C160.857 104.774 161.235 104.396 161.486 103.892C161.675 103.452 161.864 102.885 161.864 102.193Z" fill="#D85639"/>
<path d="M179.551 98.9198H174.831V108.739H170.928V98.9198H166.207V95.7726H179.614L179.551 98.9198Z" fill="#D85639"/>
<path d="M148.457 123.216C148.205 123.342 147.953 123.405 147.765 123.468C147.576 123.531 147.387 123.594 147.198 123.657C147.009 123.72 146.757 123.783 146.38 123.846C145.813 123.972 145.184 124.097 144.617 124.16C144.051 124.223 143.421 124.286 142.729 124.286C141.407 124.286 140.211 124.035 139.078 123.594C137.945 123.09 137.064 122.398 136.372 121.391C135.679 120.384 135.365 119.125 135.365 117.677C135.365 116.733 135.553 115.789 135.868 114.908C136.183 114.026 136.749 113.271 137.442 112.705C138.008 112.264 138.638 111.886 139.204 111.635C139.834 111.383 140.4 111.257 140.967 111.131C141.533 111.068 142.162 111.005 142.855 111.005C143.988 111.005 144.932 111.068 145.687 111.257C146.443 111.446 147.261 111.635 148.142 111.949V115.034C147.576 114.719 146.946 114.404 146.254 114.152C145.624 113.901 144.806 113.838 143.799 113.838C142.666 113.838 141.785 114.026 141.092 114.467C140.4 114.908 139.959 115.411 139.708 115.978C139.456 116.544 139.33 117.174 139.33 117.677C139.33 118.307 139.456 118.936 139.771 119.503C140.085 120.069 140.526 120.51 141.155 120.824C141.785 121.139 142.54 121.328 143.358 121.328C143.862 121.328 144.366 121.265 144.932 121.139V119.628H143.17V117.048H148.331V123.216H148.457Z" fill="#D85639"/>
<path d="M164.067 124.16H159.85L158.843 121.832C158.465 121.013 158.15 120.384 157.836 120.006C157.521 119.628 157.269 119.377 156.954 119.251C156.64 119.125 156.325 119.062 155.884 119.062H155.444V124.098H151.541V111.131H158.213C159.283 111.131 160.165 111.32 160.857 111.76C161.549 112.201 162.053 112.705 162.368 113.334C162.682 113.964 162.808 114.53 162.808 115.096C162.808 115.726 162.682 116.292 162.431 116.733C162.179 117.174 161.927 117.488 161.612 117.74C161.361 117.929 161.046 118.118 160.668 118.307C161.109 118.558 161.423 118.81 161.675 119.188C161.927 119.566 162.305 120.195 162.808 121.202L164.067 124.16ZM158.78 115.285C158.78 114.656 158.591 114.278 158.213 114.026C157.836 113.775 157.206 113.649 156.325 113.649H155.507V116.796H156.325C157.269 116.796 157.962 116.67 158.276 116.481C158.591 116.292 158.78 115.852 158.78 115.285Z" fill="#D85639"/>
<path d="M169.732 124.16H165.83V111.194H169.732V124.16Z" fill="#D85639"/>
<path d="M186.35 117.866C186.35 119.188 186.098 120.258 185.594 121.076C185.091 121.894 184.524 122.524 183.895 123.027C182.951 123.783 181.692 124.098 179.992 124.098H173.005V111.131H178.419C179.237 111.131 179.929 111.194 180.496 111.257C181.062 111.32 181.566 111.446 182.069 111.635C182.573 111.823 182.951 111.949 183.265 112.138C183.58 112.327 183.895 112.516 184.146 112.768C184.587 113.145 184.965 113.586 185.279 114.026C185.594 114.467 185.909 115.096 186.098 115.726C186.224 116.418 186.35 117.111 186.35 117.866ZM182.384 117.74C182.384 116.67 182.195 115.852 181.755 115.285C181.377 114.719 180.873 114.278 180.307 114.089C179.74 113.901 179.174 113.775 178.607 113.775H176.971V121.454H178.607C179.615 121.454 180.496 121.202 181.251 120.699C182.006 120.195 182.384 119.251 182.384 117.74Z" fill="#D85639"/>
<path d="M148.079 135.868C148.079 137.001 147.701 137.882 146.946 138.512C146.191 139.204 145.121 139.519 143.736 139.519H136.246V126.552H142.477C143.295 126.552 143.988 126.615 144.617 126.804C145.247 126.93 145.687 127.182 146.065 127.434C146.443 127.685 146.694 128 146.883 128.378C147.072 128.755 147.135 129.133 147.135 129.574C147.135 130.077 147.072 130.455 146.883 130.895C146.694 131.336 146.443 131.651 146.191 131.903C145.939 132.154 145.624 132.343 145.372 132.469C146.254 132.847 146.946 133.287 147.387 133.791C147.827 134.294 148.079 135.05 148.079 135.868ZM143.484 130.329C143.484 129.7 143.295 129.322 142.855 129.07C142.414 128.818 141.785 128.755 140.903 128.755H140.085V131.84H140.903C141.785 131.84 142.414 131.714 142.855 131.525C143.295 131.399 143.484 130.958 143.484 130.329ZM144.114 135.742C144.114 134.609 143.295 134.106 141.722 134.106H140.148V137.442H141.722C143.358 137.379 144.114 136.812 144.114 135.742Z" fill="#D85639"/>
<path d="M164.445 133.099C164.445 134.294 164.193 135.427 163.626 136.435C163.06 137.442 162.242 138.26 161.109 138.826C159.976 139.393 158.654 139.708 157.08 139.708C155.507 139.708 154.122 139.393 152.989 138.764C151.856 138.134 151.038 137.316 150.534 136.309C149.968 135.302 149.716 134.232 149.716 133.036C149.716 131.84 149.968 130.77 150.534 129.762C151.101 128.755 151.919 127.937 152.989 127.308C154.122 126.678 155.444 126.363 157.08 126.363C158.276 126.363 159.346 126.552 160.29 126.867C161.235 127.182 161.99 127.685 162.619 128.315C163.249 128.944 163.689 129.637 164.004 130.455C164.319 131.273 164.445 132.154 164.445 133.099ZM160.416 133.099C160.416 132.595 160.353 132.154 160.228 131.777C160.102 131.399 159.85 131.021 159.598 130.707C159.283 130.392 158.969 130.203 158.528 130.014C158.087 129.825 157.647 129.762 157.08 129.762C156.01 129.762 155.192 130.077 154.625 130.707C154.059 131.336 153.744 132.091 153.744 133.099C153.744 134.106 154.059 134.861 154.625 135.49C155.255 136.12 156.073 136.435 157.08 136.435C157.773 136.435 158.402 136.309 158.906 135.994C159.409 135.679 159.787 135.302 160.039 134.798C160.29 134.294 160.416 133.728 160.416 133.099Z" fill="#D85639"/>
<path d="M180.684 133.099C180.684 134.294 180.433 135.427 179.866 136.435C179.3 137.442 178.481 138.26 177.348 138.826C176.215 139.393 174.893 139.708 173.32 139.708C171.746 139.708 170.361 139.393 169.228 138.764C168.095 138.134 167.277 137.316 166.774 136.309C166.207 135.302 165.955 134.232 165.955 133.036C165.955 131.84 166.207 130.77 166.774 129.762C167.34 128.755 168.158 127.937 169.228 127.308C170.361 126.678 171.683 126.363 173.32 126.363C174.516 126.363 175.586 126.552 176.53 126.867C177.474 127.182 178.229 127.685 178.859 128.315C179.488 128.944 179.929 129.637 180.244 130.455C180.558 131.273 180.684 132.154 180.684 133.099ZM176.719 133.099C176.719 132.595 176.656 132.154 176.53 131.777C176.404 131.399 176.152 131.021 175.9 130.707C175.586 130.392 175.271 130.203 174.83 130.014C174.39 129.825 173.949 129.762 173.383 129.762C172.313 129.762 171.494 130.077 170.928 130.707C170.361 131.336 170.047 132.091 170.047 133.099C170.047 134.106 170.361 134.861 170.928 135.49C171.557 136.12 172.376 136.435 173.383 136.435C174.075 136.435 174.705 136.309 175.208 135.994C175.712 135.679 176.089 135.302 176.341 134.798C176.593 134.294 176.719 133.728 176.719 133.099Z" fill="#D85639"/>
<path d="M196.735 139.582H191.952L186.979 133.539V139.582H183.076V126.615H186.979V132.406L191.7 126.615H195.917L191.07 132.658L196.735 139.582Z" fill="#D85639"/>
<path opacity="0.6" d="M88.3452 80.7919V151.289" stroke="#D85639" stroke-width="8" stroke-miterlimit="10"/>
<path d="M77.6446 80.7919H66.9441V151.289H77.6446V80.7919Z" fill="#FDBA5D"/>
<path opacity="0.61" d="M226.193 80.7919H215.492V151.289H226.193V80.7919Z" fill="#D85639"/>
<path d="M252 80.7919H66.9441V151.289H252V80.7919Z" stroke="#102D3B" stroke-width="8" stroke-miterlimit="10" stroke-linecap="round" stroke-linejoin="round"/>
<path d="M215.619 263.33H207.876C205.862 263.33 204.226 261.694 204.226 259.679V7.65076C204.226 5.63654 205.862 4 207.876 4H215.619C217.633 4 219.269 5.63654 219.269 7.65076V259.616C219.269 261.693 217.633 263.33 215.619 263.33Z" fill="#B7C8CE"/>
<path d="M215.619 263.33H207.876C205.862 263.33 204.226 261.694 204.226 259.679V7.65076C204.226 5.63654 205.862 4 207.876 4H215.619C217.633 4 219.269 5.63654 219.269 7.65076V259.616C219.269 261.693 217.633 263.33 215.619 263.33Z" stroke="#102D3B" stroke-width="8" stroke-miterlimit="10" stroke-linecap="round" stroke-linejoin="round"/>
<path d="M105.34 287.06L86.4565 276.548V258.294H105.34V287.06Z" fill="#EA3939"/>
<path opacity="0.62" d="M105.34 258.294H86.4565V265.407H105.34V258.294Z" fill="#EA3939"/>
<path d="M105.34 287.06L86.4565 276.548V258.294H105.34V287.06Z" stroke="#102D3B" stroke-width="8" stroke-miterlimit="10" stroke-linecap="round" stroke-linejoin="round"/>
<path d="M25.4009 58.7614H5.25879V153.807H25.4009V58.7614Z" fill="#526066"/>
<path d="M25.4009 58.7614H5.25879V153.807H25.4009V58.7614Z" fill="#526066"/>
<path opacity="0.64" d="M11.5532 58.7614H5.25879V153.807H11.5532V58.7614Z" fill="#526066"/>
<path opacity="0.3" d="M25.4011 58.7614H19.7361V153.807H25.4011V58.7614Z" fill="#526066"/>
<path d="M25.4009 58.7614H5.25879V153.807H25.4009V58.7614Z" stroke="#102D3B" stroke-width="8" stroke-miterlimit="10" stroke-linecap="round" stroke-linejoin="round"/>
<path d="M25.6528 218.01C18.8549 218.01 11.9939 218.01 5.19596 218.01C3.87413 204.163 3.87413 189.685 5.19596 175.208C11.9939 175.208 18.8549 175.208 25.6528 175.208C26.9747 189.685 26.9747 204.163 25.6528 218.01Z" fill="#42708A"/>
<path d="M25.6528 218.01C18.8549 218.01 11.9939 218.01 5.19596 218.01C3.87413 204.163 3.87413 189.685 5.19596 175.208C11.9939 175.208 18.8549 175.208 25.6528 175.208C26.9747 189.685 26.9747 204.163 25.6528 218.01Z" fill="#526066"/>
<path opacity="0.3" d="M25.6528 175.208C24.0163 175.208 22.3797 175.208 20.7432 175.208C22.065 189.685 22.065 204.163 20.7432 218.01C22.3797 218.01 24.0163 218.01 25.6528 218.01C26.9746 204.163 26.9746 189.685 25.6528 175.208Z" fill="#526066"/>
<path opacity="0.73" d="M12.4341 217.381C11.427 217.381 10.4828 217.381 9.4757 217.381C8.15388 203.722 8.15387 189.497 9.41276 175.208C10.4199 175.208 11.427 175.208 12.4341 175.208C11.1752 189.497 11.1752 203.722 12.4341 217.381Z" fill="#CCDDE5"/>
<path d="M25.6528 218.01C18.8549 218.01 11.9939 218.01 5.19596 218.01C3.87413 204.163 3.87413 189.685 5.19596 175.208C11.9939 175.208 18.8549 175.208 25.6528 175.208C26.9747 189.685 26.9747 204.163 25.6528 218.01Z" stroke="#102D3B" stroke-width="8" stroke-miterlimit="10" stroke-linecap="round" stroke-linejoin="round"/>
<path d="M26.6599 190.315H4V203.533H26.6599V190.315Z" stroke="#102D3B" stroke-width="8" stroke-miterlimit="10" stroke-linecap="round" stroke-linejoin="round"/>
<path d="M25.6527 175.208C18.8547 175.208 11.9938 175.208 5.1958 175.208C9.41306 168.914 9.41306 160.731 5.1958 153.807C11.9938 153.807 18.8547 153.807 25.6527 153.807C21.4354 160.731 21.4354 168.914 25.6527 175.208Z" stroke="#102D3B" stroke-width="8" stroke-miterlimit="10" stroke-linecap="round" stroke-linejoin="round"/>
<path d="M18.0364 247.594C21.4354 237.523 25.5268 228.081 25.6527 218.01H5.1958C5.32169 228.081 9.41306 237.523 12.8121 247.594H18.0364Z" fill="#CCDDE5"/>
<path d="M25.6527 218.01C25.6527 218.199 25.6527 218.451 25.6527 218.64H12.1826C12.2456 228.522 14.008 237.964 16.0852 247.594H12.8121C9.41306 237.523 5.32169 228.081 5.1958 218.01H25.6527Z" fill="white"/>
<path d="M18.0364 247.594C21.4354 237.523 25.5268 228.081 25.6527 218.01H5.1958C5.32169 228.081 9.41307 237.523 12.8121 247.594H18.0364Z" stroke="#102D3B" stroke-width="8" stroke-miterlimit="10" stroke-linecap="round" stroke-linejoin="round"/>
<path d="M17.8478 247.594H12.8123V251.371H17.8478V247.594Z" stroke="#102D3B" stroke-width="8" stroke-miterlimit="10" stroke-linecap="round" stroke-linejoin="round"/>
<path d="M15.3301 252V260.183" stroke="#102D3B" stroke-width="8" stroke-miterlimit="10" stroke-linecap="round" stroke-linejoin="round"/>
<path d="M22.8832 44.9137H7.77661V58.7614H22.8832V44.9137Z" stroke="#102D3B" stroke-width="8" stroke-miterlimit="10" stroke-linecap="round" stroke-linejoin="round"/>
<path d="M22.8832 44.9137H7.77661V58.7614H22.8832V44.9137Z" fill="#102D3B"/>
<path d="M20.9947 44.9137H9.66479V28.7371C9.66479 26.534 11.679 24.7716 13.8821 24.7716H17.0293C19.2323 24.7716 20.9947 26.534 20.9947 28.7371V44.9137Z" fill="#CCDDE5"/>
<path d="M20.9947 44.9137H9.66479V28.7371C9.66479 26.534 11.679 24.7716 13.8821 24.7716H17.0293C19.2323 24.7716 20.9947 26.534 20.9947 28.7371V44.9137Z" stroke="#102D3B" stroke-width="8" stroke-miterlimit="10" stroke-linecap="round" stroke-linejoin="round"/>
<path d="M32.325 67.5736H12.8123V78.9036H32.325V67.5736Z" fill="#CCDDE5"/>
<path d="M32.3245 117.488L25.4006 108.361V78.9036H32.3245V117.488Z" fill="#CCDDE5"/>
<path d="M32.3245 117.488L25.4006 108.361V78.9036H32.3245V117.488Z" stroke="#102D3B" stroke-width="8" stroke-miterlimit="10" stroke-linecap="round" stroke-linejoin="round"/>
</svg>
