<svg width="192" height="19" viewBox="0 0 192 19" fill="none" xmlns="http://www.w3.org/2000/svg">
<path d="M10.5977 1.454L6.51173 9.266V14H4.87373V9.266L0.769734 1.454H2.58773L5.68373 7.808L8.77973 1.454H10.5977ZM16.6275 14.162C15.7035 14.162 14.8635 13.952 14.1075 13.532C13.3635 13.112 12.7755 12.518 12.3435 11.75C11.9235 10.97 11.7135 10.07 11.7135 9.05C11.7135 8.042 11.9295 7.154 12.3615 6.386C12.8055 5.606 13.4055 5.012 14.1615 4.604C14.9175 4.184 15.7635 3.974 16.6995 3.974C17.6355 3.974 18.4815 4.184 19.2375 4.604C19.9935 5.012 20.5875 5.6 21.0195 6.368C21.4635 7.136 21.6855 8.03 21.6855 9.05C21.6855 10.07 21.4575 10.97 21.0015 11.75C20.5575 12.518 19.9515 13.112 19.1835 13.532C18.4155 13.952 17.5635 14.162 16.6275 14.162ZM16.6275 12.722C17.2155 12.722 17.7675 12.584 18.2835 12.308C18.7995 12.032 19.2135 11.618 19.5255 11.066C19.8495 10.514 20.0115 9.842 20.0115 9.05C20.0115 8.258 19.8555 7.586 19.5435 7.034C19.2315 6.482 18.8235 6.074 18.3195 5.81C17.8155 5.534 17.2695 5.396 16.6815 5.396C16.0815 5.396 15.5295 5.534 15.0255 5.81C14.5335 6.074 14.1375 6.482 13.8375 7.034C13.5375 7.586 13.3875 8.258 13.3875 9.05C13.3875 9.854 13.5315 10.532 13.8195 11.084C14.1195 11.636 14.5155 12.05 15.0075 12.326C15.4995 12.59 16.0395 12.722 16.6275 12.722ZM32.5871 4.136V14H30.9491V12.542C30.6371 13.046 30.1991 13.442 29.6351 13.73C29.0831 14.006 28.4711 14.144 27.7991 14.144C27.0311 14.144 26.3411 13.988 25.7291 13.676C25.1171 13.352 24.6311 12.872 24.2711 12.236C23.9231 11.6 23.7491 10.826 23.7491 9.914V4.136H25.3691V9.698C25.3691 10.67 25.6151 11.42 26.1071 11.948C26.5991 12.464 27.2711 12.722 28.1231 12.722C28.9991 12.722 29.6891 12.452 30.1931 11.912C30.6971 11.372 30.9491 10.586 30.9491 9.554V4.136H32.5871ZM36.9908 5.738C37.2788 5.174 37.6868 4.736 38.2148 4.424C38.7548 4.112 39.4088 3.956 40.1768 3.956V5.648H39.7448C37.9088 5.648 36.9908 6.644 36.9908 8.636V14H35.3528V4.136H36.9908V5.738ZM46.2545 9.032C46.2545 8.024 46.4585 7.142 46.8665 6.386C47.2745 5.618 47.8325 5.024 48.5405 4.604C49.2605 4.184 50.0645 3.974 50.9525 3.974C51.7205 3.974 52.4345 4.154 53.0945 4.514C53.7545 4.862 54.2585 5.324 54.6065 5.9V0.68H56.2625V14H54.6065V12.146C54.2825 12.734 53.8025 13.22 53.1665 13.604C52.5305 13.976 51.7865 14.162 50.9345 14.162C50.0585 14.162 49.2605 13.946 48.5405 13.514C47.8325 13.082 47.2745 12.476 46.8665 11.696C46.4585 10.916 46.2545 10.028 46.2545 9.032ZM54.6065 9.05C54.6065 8.306 54.4565 7.658 54.1565 7.106C53.8565 6.554 53.4485 6.134 52.9325 5.846C52.4285 5.546 51.8705 5.396 51.2585 5.396C50.6465 5.396 50.0885 5.54 49.5845 5.828C49.0805 6.116 48.6785 6.536 48.3785 7.088C48.0785 7.64 47.9285 8.288 47.9285 9.032C47.9285 9.788 48.0785 10.448 48.3785 11.012C48.6785 11.564 49.0805 11.99 49.5845 12.29C50.0885 12.578 50.6465 12.722 51.2585 12.722C51.8705 12.722 52.4285 12.578 52.9325 12.29C53.4485 11.99 53.8565 11.564 54.1565 11.012C54.4565 10.448 54.6065 9.794 54.6065 9.05ZM59.8765 2.534C59.5645 2.534 59.3005 2.426 59.0845 2.21C58.8685 1.994 58.7605 1.73 58.7605 1.418C58.7605 1.106 58.8685 0.842 59.0845 0.625999C59.3005 0.409999 59.5645 0.301999 59.8765 0.301999C60.1765 0.301999 60.4285 0.409999 60.6325 0.625999C60.8485 0.842 60.9565 1.106 60.9565 1.418C60.9565 1.73 60.8485 1.994 60.6325 2.21C60.4285 2.426 60.1765 2.534 59.8765 2.534ZM60.6685 4.136V14H59.0305V4.136H60.6685ZM67.5282 3.974C68.3802 3.974 69.1242 4.16 69.7602 4.532C70.4082 4.904 70.8882 5.372 71.2002 5.936V4.136H72.8562V14.216C72.8562 15.116 72.6642 15.914 72.2802 16.61C71.8962 17.318 71.3442 17.87 70.6242 18.266C69.9162 18.662 69.0882 18.86 68.1402 18.86C66.8442 18.86 65.7642 18.554 64.9002 17.942C64.0362 17.33 63.5262 16.496 63.3702 15.44H64.9902C65.1702 16.04 65.5422 16.52 66.1062 16.88C66.6702 17.252 67.3482 17.438 68.1402 17.438C69.0402 17.438 69.7722 17.156 70.3362 16.592C70.9122 16.028 71.2002 15.236 71.2002 14.216V12.146C70.8762 12.722 70.3962 13.202 69.7602 13.586C69.1242 13.97 68.3802 14.162 67.5282 14.162C66.6522 14.162 65.8542 13.946 65.1342 13.514C64.4262 13.082 63.8682 12.476 63.4602 11.696C63.0522 10.916 62.8482 10.028 62.8482 9.032C62.8482 8.024 63.0522 7.142 63.4602 6.386C63.8682 5.618 64.4262 5.024 65.1342 4.604C65.8542 4.184 66.6522 3.974 67.5282 3.974ZM71.2002 9.05C71.2002 8.306 71.0502 7.658 70.7502 7.106C70.4502 6.554 70.0422 6.134 69.5262 5.846C69.0222 5.546 68.4642 5.396 67.8522 5.396C67.2402 5.396 66.6822 5.54 66.1782 5.828C65.6742 6.116 65.2722 6.536 64.9722 7.088C64.6722 7.64 64.5222 8.288 64.5222 9.032C64.5222 9.788 64.6722 10.448 64.9722 11.012C65.2722 11.564 65.6742 11.99 66.1782 12.29C66.6822 12.578 67.2402 12.722 67.8522 12.722C68.4642 12.722 69.0222 12.578 69.5262 12.29C70.0422 11.99 70.4502 11.564 70.7502 11.012C71.0502 10.448 71.2002 9.794 71.2002 9.05ZM76.4703 2.534C76.1583 2.534 75.8943 2.426 75.6783 2.21C75.4623 1.994 75.3543 1.73 75.3543 1.418C75.3543 1.106 75.4623 0.842 75.6783 0.625999C75.8943 0.409999 76.1583 0.301999 76.4703 0.301999C76.7703 0.301999 77.0223 0.409999 77.2263 0.625999C77.4423 0.842 77.5503 1.106 77.5503 1.418C77.5503 1.73 77.4423 1.994 77.2263 2.21C77.0223 2.426 76.7703 2.534 76.4703 2.534ZM77.2623 4.136V14H75.6243V4.136H77.2623ZM82.052 5.486V11.3C82.052 11.78 82.154 12.122 82.358 12.326C82.562 12.518 82.916 12.614 83.42 12.614H84.626V14H83.15C82.238 14 81.554 13.79 81.098 13.37C80.642 12.95 80.414 12.26 80.414 11.3V5.486H79.136V4.136H80.414V1.652H82.052V4.136H84.626V5.486H82.052ZM85.9986 9.032C85.9986 8.024 86.2026 7.142 86.6106 6.386C87.0186 5.618 87.5766 5.024 88.2846 4.604C89.0046 4.184 89.8026 3.974 90.6786 3.974C91.5426 3.974 92.2926 4.16 92.9286 4.532C93.5646 4.904 94.0386 5.372 94.3506 5.936V4.136H96.0066V14H94.3506V12.164C94.0266 12.74 93.5406 13.22 92.8926 13.604C92.2566 13.976 91.5126 14.162 90.6606 14.162C89.7846 14.162 88.9926 13.946 88.2846 13.514C87.5766 13.082 87.0186 12.476 86.6106 11.696C86.2026 10.916 85.9986 10.028 85.9986 9.032ZM94.3506 9.05C94.3506 8.306 94.2006 7.658 93.9006 7.106C93.6006 6.554 93.1926 6.134 92.6766 5.846C92.1726 5.546 91.6146 5.396 91.0026 5.396C90.3906 5.396 89.8326 5.54 89.3286 5.828C88.8246 6.116 88.4226 6.536 88.1226 7.088C87.8226 7.64 87.6726 8.288 87.6726 9.032C87.6726 9.788 87.8226 10.448 88.1226 11.012C88.4226 11.564 88.8246 11.99 89.3286 12.29C89.8326 12.578 90.3906 12.722 91.0026 12.722C91.6146 12.722 92.1726 12.578 92.6766 12.29C93.1926 11.99 93.6006 11.564 93.9006 11.012C94.2006 10.448 94.3506 9.794 94.3506 9.05ZM100.413 0.68V14H98.7747V0.68H100.413ZM111.495 14.162C110.739 14.162 110.061 14.036 109.461 13.784C108.861 13.52 108.387 13.16 108.039 12.704C107.691 12.236 107.499 11.702 107.463 11.102H109.155C109.203 11.594 109.431 11.996 109.839 12.308C110.259 12.62 110.805 12.776 111.477 12.776C112.101 12.776 112.593 12.638 112.953 12.362C113.313 12.086 113.493 11.738 113.493 11.318C113.493 10.886 113.301 10.568 112.917 10.364C112.533 10.148 111.939 9.938 111.135 9.734C110.403 9.542 109.803 9.35 109.335 9.158C108.879 8.954 108.483 8.66 108.147 8.276C107.823 7.88 107.661 7.364 107.661 6.728C107.661 6.224 107.811 5.762 108.111 5.342C108.411 4.922 108.837 4.592 109.389 4.352C109.941 4.1 110.571 3.974 111.279 3.974C112.371 3.974 113.253 4.25 113.925 4.802C114.597 5.354 114.957 6.11 115.005 7.07H113.367C113.331 6.554 113.121 6.14 112.737 5.828C112.365 5.516 111.861 5.36 111.225 5.36C110.637 5.36 110.169 5.486 109.821 5.738C109.473 5.99 109.299 6.32 109.299 6.728C109.299 7.052 109.401 7.322 109.605 7.538C109.821 7.742 110.085 7.91 110.397 8.042C110.721 8.162 111.165 8.3 111.729 8.456C112.437 8.648 113.013 8.84 113.457 9.032C113.901 9.212 114.279 9.488 114.591 9.86C114.915 10.232 115.083 10.718 115.095 11.318C115.095 11.858 114.945 12.344 114.645 12.776C114.345 13.208 113.919 13.55 113.367 13.802C112.827 14.042 112.203 14.162 111.495 14.162ZM126.407 8.69C126.407 9.002 126.389 9.332 126.353 9.68H118.469C118.529 10.652 118.859 11.414 119.459 11.966C120.071 12.506 120.809 12.776 121.673 12.776C122.381 12.776 122.969 12.614 123.437 12.29C123.917 11.954 124.253 11.51 124.445 10.958H126.209C125.945 11.906 125.417 12.68 124.625 13.28C123.833 13.868 122.849 14.162 121.673 14.162C120.737 14.162 119.897 13.952 119.153 13.532C118.421 13.112 117.845 12.518 117.425 11.75C117.005 10.97 116.795 10.07 116.795 9.05C116.795 8.03 116.999 7.136 117.407 6.368C117.815 5.6 118.385 5.012 119.117 4.604C119.861 4.184 120.713 3.974 121.673 3.974C122.609 3.974 123.437 4.178 124.157 4.586C124.877 4.994 125.429 5.558 125.813 6.278C126.209 6.986 126.407 7.79 126.407 8.69ZM124.715 8.348C124.715 7.724 124.577 7.19 124.301 6.746C124.025 6.29 123.647 5.948 123.167 5.72C122.699 5.48 122.177 5.36 121.601 5.36C120.773 5.36 120.065 5.624 119.477 6.152C118.901 6.68 118.571 7.412 118.487 8.348H124.715ZM127.958 9.05C127.958 8.03 128.162 7.142 128.57 6.386C128.978 5.618 129.542 5.024 130.262 4.604C130.994 4.184 131.828 3.974 132.764 3.974C133.976 3.974 134.972 4.268 135.752 4.856C136.544 5.444 137.066 6.26 137.318 7.304H135.554C135.386 6.704 135.056 6.23 134.564 5.882C134.084 5.534 133.484 5.36 132.764 5.36C131.828 5.36 131.072 5.684 130.496 6.332C129.92 6.968 129.632 7.874 129.632 9.05C129.632 10.238 129.92 11.156 130.496 11.804C131.072 12.452 131.828 12.776 132.764 12.776C133.484 12.776 134.084 12.608 134.564 12.272C135.044 11.936 135.374 11.456 135.554 10.832H137.318C137.054 11.84 136.526 12.65 135.734 13.262C134.942 13.862 133.952 14.162 132.764 14.162C131.828 14.162 130.994 13.952 130.262 13.532C129.542 13.112 128.978 12.518 128.57 11.75C128.162 10.982 127.958 10.082 127.958 9.05ZM141.141 5.738C141.429 5.174 141.837 4.736 142.365 4.424C142.905 4.112 143.559 3.956 144.327 3.956V5.648H143.895C142.059 5.648 141.141 6.644 141.141 8.636V14H139.503V4.136H141.141V5.738ZM155.218 8.69C155.218 9.002 155.2 9.332 155.164 9.68H147.28C147.34 10.652 147.67 11.414 148.27 11.966C148.882 12.506 149.62 12.776 150.484 12.776C151.192 12.776 151.78 12.614 152.248 12.29C152.728 11.954 153.064 11.51 153.256 10.958H155.02C154.756 11.906 154.228 12.68 153.436 13.28C152.644 13.868 151.66 14.162 150.484 14.162C149.548 14.162 148.708 13.952 147.964 13.532C147.232 13.112 146.656 12.518 146.236 11.75C145.816 10.97 145.606 10.07 145.606 9.05C145.606 8.03 145.81 7.136 146.218 6.368C146.626 5.6 147.196 5.012 147.928 4.604C148.672 4.184 149.524 3.974 150.484 3.974C151.42 3.974 152.248 4.178 152.968 4.586C153.688 4.994 154.24 5.558 154.624 6.278C155.02 6.986 155.218 7.79 155.218 8.69ZM153.526 8.348C153.526 7.724 153.388 7.19 153.112 6.746C152.836 6.29 152.458 5.948 151.978 5.72C151.51 5.48 150.988 5.36 150.412 5.36C149.584 5.36 148.876 5.624 148.288 6.152C147.712 6.68 147.382 7.412 147.298 8.348H153.526ZM159.378 5.486V11.3C159.378 11.78 159.48 12.122 159.684 12.326C159.888 12.518 160.242 12.614 160.746 12.614H161.952V14H160.476C159.564 14 158.88 13.79 158.424 13.37C157.968 12.95 157.74 12.26 157.74 11.3V5.486H156.462V4.136H157.74V1.652H159.378V4.136H161.952V5.486H159.378ZM163.325 9.032C163.325 8.024 163.529 7.142 163.937 6.386C164.345 5.618 164.903 5.024 165.611 4.604C166.331 4.184 167.129 3.974 168.005 3.974C168.869 3.974 169.619 4.16 170.255 4.532C170.891 4.904 171.365 5.372 171.677 5.936V4.136H173.333V14H171.677V12.164C171.353 12.74 170.867 13.22 170.219 13.604C169.583 13.976 168.839 14.162 167.987 14.162C167.111 14.162 166.319 13.946 165.611 13.514C164.903 13.082 164.345 12.476 163.937 11.696C163.529 10.916 163.325 10.028 163.325 9.032ZM171.677 9.05C171.677 8.306 171.527 7.658 171.227 7.106C170.927 6.554 170.519 6.134 170.003 5.846C169.499 5.546 168.941 5.396 168.329 5.396C167.717 5.396 167.159 5.54 166.655 5.828C166.151 6.116 165.749 6.536 165.449 7.088C165.149 7.64 164.999 8.288 164.999 9.032C164.999 9.788 165.149 10.448 165.449 11.012C165.749 11.564 166.151 11.99 166.655 12.29C167.159 12.578 167.717 12.722 168.329 12.722C168.941 12.722 169.499 12.578 170.003 12.29C170.519 11.99 170.927 11.564 171.227 11.012C171.527 10.448 171.677 9.794 171.677 9.05ZM177.739 5.738C178.027 5.174 178.435 4.736 178.963 4.424C179.503 4.112 180.157 3.956 180.925 3.956V5.648H180.493C178.657 5.648 177.739 6.644 177.739 8.636V14H176.101V4.136H177.739V5.738ZM191.312 4.136L185.372 18.644H183.68L185.624 13.892L181.646 4.136H183.464L186.56 12.128L189.62 4.136H191.312Z" fill="black"/>
</svg>
